<?xml version="1.0" encoding="utf-8"?>
<!-- Generator: Adobe Illustrator 24.2.3, SVG Export Plug-In . SVG Version: 6.00 Build 0)  -->
<svg version="1.1" id="Layer_1" xmlns="http://www.w3.org/2000/svg" xmlns:xlink="http://www.w3.org/1999/xlink" x="0px" y="0px"
	 viewBox="0 0 680.8 187.5" style="enable-background:new 0 0 680.8 187.5;" xml:space="preserve">
<style type="text/css">
	.st0{fill:#FFFFFF;}
	.st1{fill:#263C80;}
	.st2{opacity:0.5;fill:#263C80;enable-background:new    ;}
	.st3{font-family:'ArialMT';}
	.st4{font-size:34.3655px;}
	.st5{letter-spacing:31;}
</style>
<g>
	<g>
		<path class="st0" d="M89.3,145.4c-25.8,0-46.7-21-46.7-46.7S63.6,52,89.3,52c2.4,0,4.7,0.2,7.1,0.5l-0.3,2.1
			c-2.2-0.3-4.5-0.5-6.7-0.5c-24.6,0-44.5,20-44.5,44.5s20,44.5,44.5,44.5c2.3,0,4.7-0.2,7-0.5l0.3,2.1
			C94.2,145.2,91.7,145.4,89.3,145.4z"/>
		<g>
			<path class="st1" d="M84.5,141.7c0.2,0,0.4,0.1,0.6,0.1c0.1,0,0.2,0,0.3,0c0.2,0,0.4,0,0.6,0c1.9,0.1,3.4,1.6,3.4,3.5V184
				c0,2-1.7,3.6-3.7,3.5c-1.6-0.1-3.2-0.2-4.8-0.3c-1.6-0.2-3.2-0.4-4.8-0.6c-2-0.3-3.3-2.2-2.9-4.2l7.3-38
				C80.9,142.7,82.6,141.5,84.5,141.7z"/>
			<path class="st1" d="M64.3,134l0.9,0.6c0.1,0.1,0.2,0.1,0.2,0.2l0.9,0.6c1.4,0.8,1.9,2.7,1.1,4.1l-18.8,34.9
				c-0.8,1.6-2.8,2.1-4.3,1.2c-1.5-0.9-3-1.8-4.5-2.8s-2.9-2.1-4.3-3.1c-1.4-1.1-1.7-3.1-0.5-4.4l25-30.7
				C61.1,133.3,63,133.1,64.3,134z"/>
			<path class="st1" d="M50.6,118.2c0.1,0.2,0.2,0.5,0.3,0.7c0,0.1,0.1,0.2,0.2,0.3l0.4,0.7c0.9,1.5,0.5,3.5-1,4.5l-32.6,21.7
				c-1.6,1.1-3.7,0.6-4.7-1c-0.9-1.4-1.7-2.8-2.5-4.2c0-0.1-0.1-0.1-0.1-0.2c-0.7-1.5-1.5-3-2.2-4.4c-0.8-1.7,0-3.8,1.8-4.5
				l36.1-15.1C47.9,115.8,49.8,116.6,50.6,118.2z"/>
			<path class="st1" d="M43.6,94c1.4,0.1,2.4,1.3,2.3,2.7c0,0.6-0.1,1.1-0.1,1.7s0.1,1.1,0.1,1.7c0.1,1.4-0.9,2.6-2.3,2.7l-40.5,3.8
				c-1.4,0.1-2.7-1-2.8-2.4c-0.1-1.9-0.2-3.8-0.3-5.7c0-0.1,0-0.1,0-0.2c0.1-1.9,0.2-3.8,0.3-5.7c0.1-1.5,1.4-2.5,2.8-2.4L43.6,94z"
				/>
			<path class="st1" d="M51.4,77.1L51,77.7c-0.1,0.1-0.1,0.2-0.2,0.3c-0.1,0.2-0.2,0.4-0.3,0.6c-0.8,1.7-2.7,2.4-4.4,1.7l-35.9-15
				c-1.8-0.8-2.6-2.9-1.8-4.6c0.7-1.5,1.4-2.9,2.1-4.4c0-0.1,0.1-0.1,0.1-0.2c0.8-1.4,1.6-2.8,2.5-4.2c1-1.7,3.2-2.2,4.8-1.1
				l32.5,21.7C51.9,73.5,52.4,75.6,51.4,77.1z"/>
			<path class="st1" d="M65.8,61.8l-0.3,0.3c-0.1,0.1-0.2,0.1-0.3,0.2l-0.4,0.3c-1.6,1.2-3.8,0.9-5.1-0.6L35.5,32.1
				c-1.3-1.6-1-4.1,0.7-5.3c1.2-0.9,2.5-1.8,3.8-2.7c1.3-0.8,2.6-1.6,3.9-2.4c1.8-1.1,4.2-0.5,5.2,1.4l18.1,33.8
				C68.1,58.6,67.5,60.8,65.8,61.8z"/>
			<path class="st1" d="M87,55c-0.5,0-1.1,0-1.6,0.1c-0.1,0-0.2,0-0.3,0c-0.5,0.1-1,0.1-1.6,0.2c-1.4,0.2-2.6-0.7-2.9-2l-7.7-39.9
				c-0.3-1.4,0.7-2.8,2.1-3c1.9-0.3,3.9-0.6,5.8-0.8c1.9-0.1,3.9-0.2,5.8-0.3c1.5-0.1,2.7,1.1,2.7,2.6v40.7
				C89.4,53.8,88.4,54.9,87,55z"/>
		</g>
		<circle class="st1" cx="89.1" cy="98.7" r="22"/>
		<g>
			<polygon class="st1" points="98.2,56.6 95.8,56.1 96.6,51 99.3,51.6 			"/>
			<path class="st1" d="M104.2,58.3c-0.7-0.3-1.5-0.5-2.3-0.8l1.5-4.9c0.9,0.3,1.8,0.5,2.6,0.9L104.2,58.3z"/>
			<polygon class="st1" points="110,60.9 107.8,59.8 110,55.2 112.4,56.4 			"/>
			<path class="st1" d="M115.2,64.4c-0.7-0.5-1.3-1-2-1.4l2.9-4.3c0.8,0.5,1.5,1.1,2.2,1.6L115.2,64.4z"/>
			<path class="st1" d="M119.9,68.5c-0.5-0.6-1.2-1.1-1.8-1.7l3.5-3.8c0.7,0.6,1.4,1.2,2,1.9L119.9,68.5z"/>
			<polygon class="st1" points="124,73.3 122.5,71.3 126.5,68.1 128.2,70.2 			"/>
			<polygon class="st1" points="127.3,78.6 126.2,76.5 130.6,73.8 131.9,76.2 			"/>
			<path class="st1" d="M129.9,84.3c-0.2-0.8-0.6-1.5-0.9-2.3l4.8-2c0.4,0.8,0.7,1.7,1,2.5L129.9,84.3z"/>
			<polygon class="st1" points="131.5,90.4 131,88 136,86.8 136.6,89.4 			"/>
			<path class="st1" d="M132.2,96.6c-0.1-0.8,0-1.6-0.2-2.4l5.1-0.5c0.1,0.9,0.1,1.8,0.2,2.7L132.2,96.6z"/>
			<path class="st1" d="M132.1,102.9c0.1-0.8,0.1-1.6,0.1-2.4l5.1,0.2c-0.1,0.9-0.1,1.8-0.2,2.7L132.1,102.9z"/>
			<polygon class="st1" points="131,109.1 131.6,106.7 136.6,107.7 136,110.4 			"/>
			<path class="st1" d="M129.1,115.1c0.3-0.7,0.6-1.5,0.9-2.3l4.9,1.7c-0.3,0.9-0.6,1.7-1,2.6L129.1,115.1z"/>
			<polygon class="st1" points="126.3,120.7 127.4,118.6 132,120.9 130.7,123.4 			"/>
			<polygon class="st1" points="122.6,125.8 124.2,123.9 128.3,126.9 126.6,129.1 			"/>
			<path class="st1" d="M118.3,130.4c0.6-0.5,1.2-1.1,1.8-1.7l3.7,3.6c-0.6,0.7-1.3,1.3-2,1.9L118.3,130.4z"/>
			<path class="st1" d="M113.4,134.3c0.7-0.5,1.3-1,2-1.5l3.1,4.1c-0.7,0.5-1.5,1.1-2.2,1.6L113.4,134.3z"/>
			<polygon class="st1" points="108,137.4 110.1,136.3 112.6,140.8 110.2,142.1 			"/>
			<path class="st1" d="M102.1,139.7c0.8-0.2,1.6-0.5,2.3-0.8l1.8,4.8c-0.8,0.4-1.7,0.6-2.6,0.9L102.1,139.7z"/>
			<polygon class="st1" points="96,141.2 98.4,140.7 99.5,145.7 96.8,146.3 			"/>
		</g>
		<path class="st1" d="M89.1,135.3c-8.7,0-17.2-3.1-24.1-9.1c-15.2-13.3-16.8-36.5-3.5-51.7S98,57.7,113.2,71l-4.3,4.9
			c-13.3-11.6-34-9.4-44.5,5.3c-8,11.2-7.2,26.9,2,37.2c8.7,9.8,22.1,12.9,34,8.1l2.4,6C98.4,134.5,93.7,135.3,89.1,135.3z"/>
		<path class="st1" d="M162.9,107.8l-6.4-3.5c-1.5-0.8-2.6-2.9-2.6-4.5c0,0,0-0.8,0-2.8c0-0.7,0-0.7,0-0.7c0-0.7,1.1-2,2.6-2.8
			l6.5-3.4c1.5-0.8,2.5-2.8,2.1-4.4l-3-11.2c-0.5-1.6-2.4-2.9-4.1-2.9l-7.4,0.1c-1.7,0-3.7-1-4.4-2.3c-0.7-1.3-2-5.7-1.1-7.1
			l3.8-6.1c0.9-1.4,0.7-3.6-0.4-4.9l-8.3-8.3c-1.3-1.1-3.5-1.3-5-0.5l-6.3,3.6c-1.5,0.8-3.7,0.9-4.9,0.1c-1.2-0.8-4.6-4-4.6-5.6
			l0.2-7.2c0-1.7-1.3-3.5-2.9-4l-11.4-3.1c-1.7-0.4-3.7,0.6-4.6,2l-3.6,6.3c-0.1,0.2-0.3,0.5-0.5,0.7c-0.6,0.7-1,1.5-1,2.4v3.5
			c0,1.7,1.2,3.2,2.9,3.5c25.9,3.8,47.5,27.5,47.5,57c0,24.8-24.3,47.8-48.3,51c-1.7,0.2-2.9,1.7-3,3.4v2.7c0,0.9,0.4,1.8,1,2.4
			c0.3,0.4,0.6,0.8,0.9,1.3l3.5,6.3c0.8,1.5,2.9,2.4,4.5,2.1l11.5-2.9c1.6-0.5,2.9-2.3,2.9-4l-0.1-7.2c0-1.7,1-3.6,2.3-4.3
			s5.8-1.9,7.3-1.1l6.3,3.7c1.5,0.9,3.7,0.7,5-0.4l8.4-8.1c1.1-1.2,1.4-3.4,0.5-4.9l-3.7-6.2c-0.9-1.4-0.9-3.6-0.2-4.8
			c0.8-1.2,4-4.5,5.8-4.5l7.3,0.2c1.7,0,3.6-1.2,4.1-2.8l3.1-11.2C165.3,110.7,164.4,108.6,162.9,107.8z"/>
	</g>
	<path class="st1" d="M653,128.3c-2.1,0-3.8,1.4-4.3,3.4l-459-0.3c-0.6-1.8-2.3-3-4.2-3c-2.5,0-4.5,2-4.5,4.5s2,4.5,4.5,4.5
		c2.1,0,3.8-1.5,4.3-3.4l459,0.3c0.6,1.8,2.3,3.1,4.2,3.1c2.5,0,4.5-2,4.5-4.5C657.6,130.4,655.5,128.3,653,128.3z"/>
	<text transform="matrix(1 0 0 1 180.8932 170.7787)" class="st2 st3 st4 st5">CÔNG NGHỆ</text>
	<g>
		<g>
			<g>
				<path class="st1" d="M212.9,63.7l-21.4-37c-0.7-1.2,0.2-2.7,1.5-2.7h16.8c0.7,0,1.3,0.4,1.6,0.9l11,20.3c0.7,1.2,2.5,1.2,3.1,0
					L236.4,25c0.3-0.6,0.9-0.9,1.6-0.9h16.3c1.4,0,2.2,1.5,1.5,2.7l-21.5,37c-0.3,0.6-0.3,1.2,0,1.8l25.1,42.5
					c0.7,1.2-0.2,2.7-1.5,2.7h-16.3c-0.6,0-1.2-0.3-1.6-0.9l-14.5-26c-0.7-1.2-2.4-1.2-3.1,0l-14.6,26c-0.3,0.6-0.9,0.9-1.6,0.9
					h-16.9c-1.4,0-2.2-1.5-1.5-2.7l25.1-42.5C213.3,65,213.3,64.3,212.9,63.7z"/>
				<path class="st1" d="M271.6,109V26c0-1,0.8-1.8,1.8-1.8h13.7c1,0,1.8,0.8,1.8,1.8v83c0,1-0.8,1.8-1.8,1.8h-13.7
					C272.4,110.8,271.6,110,271.6,109z M314.3,11.4h-64.9c-0.2,0-0.4-0.2-0.4-0.4V0.4c0-0.2,0.2-0.4,0.4-0.4h64.9
					c0.2,0,0.4,0.2,0.4,0.4V11C314.8,11.3,314.6,11.4,314.3,11.4z"/>
				<path class="st1" d="M357.1,109V43.3c0-1-0.8-1.8-1.8-1.8h-18c-1,0-1.8-0.8-1.8-1.8V26.1c0-1,0.8-1.8,1.8-1.8h56.9
					c1,0,1.8,0.8,1.8,1.8v13.6c0,1-0.8,1.8-1.8,1.8h-18c-1,0-1.8,0.8-1.8,1.8V109c0,1-0.8,1.8-1.8,1.8h-13.8
					C357.9,110.8,357.1,110,357.1,109z"/>
				<path class="st1" d="M451.6,109.8l-15.5-29.3c-0.9-1.7-2.7-2.8-4.6-2.8l0,0c-2.9,0-5.2,2.3-5.2,5.2V109c0,1-0.8,1.8-1.8,1.8
					h-13.8c-1,0-1.8-0.8-1.8-1.8V26c0-1,0.8-1.8,1.8-1.8h32.4c30,0,33.7,41.1,10.5,50.2c-1,0.4-1.5,1.6-1,2.5l17.6,31.2
					c0.7,1.2-0.2,2.7-1.6,2.7h-15.5C452.5,110.8,451.9,110.4,451.6,109.8z M426.3,59.1c0,1,0.8,1.8,1.8,1.8h13.5
					c11.7,0,11.7-19.4,0-19.4h-13.5c-1,0-1.8,0.8-1.8,1.8V59.1z"/>
				<path class="st1" d="M482.8,80.6V26c0-1,0.8-1.8,1.8-1.8h13.7c1,0,1.8,0.8,1.8,1.8v54.5c0,18.2,28.1,18.2,28.1,0V26
					c0-1,0.8-1.8,1.8-1.8h13.6c1,0,1.8,0.8,1.8,1.8v54.6C545.4,121.8,482.8,121.8,482.8,80.6z"/>
				<path class="st1" d="M637.8,23.5c0.3-0.4,0.8-0.6,1.3-0.6h4.7V109c0,1-0.8,1.8-1.8,1.8h-14c-1,0-1.8-0.8-1.8-1.8l0.1-42.1
					c0-1.6-2-2.4-3.1-1.2l-17.8,18.7c-0.7,0.7-1.9,0.7-2.6,0L585,65.7c-1.1-1.2-3.1-0.4-3.1,1.2V109c0,1-0.8,1.8-1.8,1.8h-14
					c-1,0-1.8-0.8-1.8-1.8V22.9h4.8c0.5,0,1,0.2,1.3,0.6l32.3,35.9c0.7,0.8,1.9,0.8,2.7,0L637.8,23.5z"/>
			</g>
		</g>
		<g>
			<path class="st0" d="M282.1,51l-4.8,9.4v16.1c-1,0.4-1.7,1.3-1.7,2.4c0,1.4,1.2,2.6,2.6,2.6s2.6-1.2,2.6-2.6
				c0-1.1-0.7-2.1-1.7-2.4V60.8l4.8-9.4V22.6h-1.8V51z"/>
			<path class="st0" d="M491.7,51.1l-4.8,9.1v15.6c-1,0.4-1.7,1.3-1.7,2.4c0,1.4,1.2,2.6,2.6,2.6s2.6-1.2,2.6-2.6
				c0-1.1-0.7-2.1-1.7-2.4V60.6l4.8-9.1v-28h-1.8L491.7,51.1L491.7,51.1z"/>
			<path class="st0" d="M415.4,45.6c1-0.4,1.7-1.3,1.7-2.4c0-1.4-1.2-2.6-2.6-2.6s-2.6,1.2-2.6,2.6c0,1.1,0.7,2.1,1.7,2.4v21.1
				l6.3,11v35.4h1.8V77.2l-6.3-11V45.6z"/>
			<path class="st0" d="M571.4,66.2V45.6c1-0.4,1.7-1.3,1.7-2.4c0-1.4-1.2-2.6-2.6-2.6c-1.4,0-2.6,1.2-2.6,2.6
				c0,1.1,0.7,2.1,1.7,2.4v21.1l6.3,11v35.4h1.8V77.2L571.4,66.2z"/>
			<path class="st0" d="M204.6,37c-0.1,0-0.3,0-0.4,0L196,22.1l-1.6,0.9l8.2,14.9c-0.4,0.5-0.6,1-0.6,1.7c0,1.4,1.2,2.6,2.6,2.6
				c1.4,0,2.6-1.2,2.6-2.6C207.2,38.2,206,37,204.6,37z"/>
			<path class="st0" d="M224.4,67c-0.2,0-0.4,0-0.5,0.1l-8.1-13v-7.6L202,22.4l-1.5,0.9L214.1,47v7.7l8.3,13.4
				c-0.3,0.4-0.6,1-0.6,1.6c0,1.4,1.2,2.6,2.6,2.6s2.6-1.2,2.6-2.6C227,68.1,225.8,67,224.4,67z"/>
			<path class="st0" d="M277.5,46.3c1.4,0,2.6-1.2,2.6-2.6c0-1.1-0.7-2.1-1.7-2.4V22.8h-1.8v18.5c-1,0.4-1.7,1.3-1.7,2.4
				C274.9,45.1,276.1,46.3,277.5,46.3z"/>
			<path class="st0" d="M352.8,31.9c-1.1,0-2.1,0.7-2.4,1.7h-18v1.8h18c0.4,1,1.3,1.7,2.4,1.7c1.4,0,2.6-1.2,2.6-2.6
				S354.2,31.9,352.8,31.9z"/>
			<path class="st0" d="M389.1,31.9c-1.1,0-2.1,0.7-2.4,1.7h-17.6l-10.8-5l-24.6-0.1v1.8h24l10.8,5l18.1,0.1c0.4,1,1.3,1.7,2.4,1.7
				c1.4,0,2.6-1.2,2.6-2.6S390.5,31.9,389.1,31.9z"/>
			<path class="st0" d="M414.7,84.7c-1.4,0-2.6,1.2-2.6,2.6c0,1.1,0.7,2.1,1.7,2.4v23.4h1.8V89.7c1-0.4,1.7-1.3,1.7-2.4
				C417.3,85.8,416.2,84.7,414.7,84.7z"/>
			<path class="st0" d="M487.1,45.8c1.4,0,2.6-1.2,2.6-2.6c0-1.1-0.7-2.1-1.7-2.4V23.6h-1.8v17.1c-1,0.4-1.7,1.3-1.7,2.4
				C484.5,44.6,485.6,45.8,487.1,45.8z"/>
			<path class="st0" d="M570.7,84.7c-1.4,0-2.6,1.2-2.6,2.6c0,1.1,0.7,2.1,1.7,2.4v23.4h1.8V89.7c1-0.4,1.7-1.3,1.7-2.4
				C573.3,85.8,572.2,84.7,570.7,84.7z"/>
		</g>
	</g>
</g>
</svg>
