<svg width="140" height="146" viewBox="0 0 140 146" fill="none" xmlns="http://www.w3.org/2000/svg">
<path d="M112.061 58.4C112.061 57.0562 113.153 55.9667 114.499 55.9667H119.375V51.1C119.375 49.7562 120.467 48.6667 121.813 48.6667C123.16 48.6667 124.251 49.7562 124.251 51.1V58.4C124.251 59.7438 123.16 60.8333 121.813 60.8333H114.499C113.153 60.8333 112.061 59.7438 112.061 58.4ZM47.3928 41.3667C47.3928 35.9915 51.7592 31.6333 57.1446 31.6333C62.5299 31.6333 66.8963 35.9915 66.8963 41.3667C66.8963 46.7419 62.5299 51.1 57.1446 51.1C51.7592 51.1 47.3928 46.7419 47.3928 41.3667ZM52.2687 41.3667C52.2687 44.0543 54.4519 46.2333 57.1446 46.2333C59.8373 46.2333 62.0205 44.0543 62.0205 41.3667C62.0205 38.6791 59.8373 36.5 57.1446 36.5C54.4519 36.5 52.2687 38.6791 52.2687 41.3667ZM0.269487 46.0313C-0.770925 42.3017 1.28728 38.4105 4.95967 37.163C8.63088 35.9154 12.6402 37.7464 14.0948 41.3346L37.6505 40.9722C37.6505 40.7928 37.6505 40.6098 37.6648 40.4328L29.9319 34.0667C29.2213 33.475 28.9106 32.5304 29.1344 31.6333H14.5436C13.1973 31.6333 12.1057 30.5438 12.1057 29.2V19.0187C8.74754 17.8341 6.73338 14.4063 7.33572 10.9025C7.93806 7.39743 10.9819 4.83696 14.5436 4.83696C18.1053 4.83696 21.1503 7.39743 21.7527 10.9025C22.355 14.4063 20.3397 17.8341 16.9816 19.0187V26.7667H31.6092C31.6723 26.7667 31.7235 26.7987 31.7878 26.8035L34.2448 22.5523C34.8412 21.5222 36.0959 21.073 37.2113 21.4913L46.6047 25.0023C47.1345 24.6589 47.6725 24.3476 48.2165 24.0636L49.8629 14.2008C50.0581 13.0269 51.0759 12.1655 52.2687 12.1667H55.9887V2.43333C55.9887 1.08953 57.0803 0 58.4266 0H82.8061C84.1524 0 85.244 1.08953 85.244 2.43333V7.3H101.751L102.766 5.8861C103.462 4.91182 104.764 4.58864 105.838 5.12212L112.908 8.65568C127.366 15.8072 136.494 30.5426 136.441 46.6492C136.454 51.1166 134.881 55.4439 132.004 58.8646L139.584 75.8979C140.25 77.4033 140.11 79.1416 139.211 80.521C138.312 81.9004 136.775 82.7321 135.127 82.7333H131.565V90.0333C131.563 90.6797 131.305 91.2987 130.848 91.7562L126.689 95.9076V109.5C126.689 110.844 125.597 111.933 124.251 111.933H109.623C107.918 111.933 102.349 109.079 93.1412 103.533L87.682 112.607V125.526L104.033 141.846C104.731 142.542 104.939 143.589 104.562 144.498C104.185 145.407 103.295 146 102.31 146H24.2954C23.3097 146 22.4205 145.407 22.0431 144.498C21.667 143.589 21.8753 142.542 22.5717 141.846L43.799 120.659V85.1667C43.799 83.8229 44.8906 82.7333 46.2369 82.7333H53.5507V70.5667H52.2687C51.0771 70.5679 50.0593 69.7076 49.8629 68.5349L48.2165 58.6697C47.6725 58.3857 47.1345 58.0744 46.6047 57.7311L38.804 60.6504L38.9231 72.9786C38.929 73.6273 38.6743 74.2523 38.2172 74.7133C37.7589 75.1743 37.1351 75.4333 36.4851 75.4333H21.8574C21.7146 75.4191 21.5729 75.3906 21.436 75.3478C20.2849 78.7305 16.8494 80.7848 13.3187 80.2026C9.78676 79.6204 7.19644 76.5728 7.19644 73C7.19644 69.4272 9.78676 66.3796 13.3187 65.7974C16.8494 65.2152 20.2849 67.2695 21.436 70.6522C21.5729 70.6094 21.7146 70.5809 21.8574 70.5667H34.0257L33.9258 59.6167L29.3689 51.7428C28.7844 50.7162 29.0225 49.42 29.9319 48.6667L33.277 45.9173L14.1044 46.2143C13.0735 49.1716 10.2617 51.1392 7.12502 51.1C3.98712 51.0608 1.22657 49.0231 0.269487 46.0409V46.0313ZM16.9816 73C16.9816 71.6562 15.89 70.5667 14.5436 70.5667C13.1973 70.5667 12.1057 71.6562 12.1057 73C12.1057 74.3438 13.1973 75.4333 14.5436 75.4333C15.89 75.4333 16.9816 74.3438 16.9816 73ZM12.1057 12.1667C12.1057 13.5105 13.1973 14.6 14.5436 14.6C15.89 14.6 16.9816 13.5105 16.9816 12.1667C16.9816 10.8229 15.89 9.73333 14.5436 9.73333C13.1973 9.73333 12.1057 10.8229 12.1057 12.1667ZM58.4266 82.7333H85.244V77.8667C85.244 76.871 85.8511 75.9751 86.7773 75.6056L93.3066 73H87.682V68.1333H97.4338V64.077L93.0876 58.2931C92.9162 58.3501 92.7376 58.3857 92.5579 58.4H81.0729L80.042 60.181C79.4456 61.2112 78.1909 61.6603 77.0743 61.2421L67.6915 57.7311C67.1618 58.0744 66.6237 58.3881 66.0821 58.6697L64.4334 68.5349C64.237 69.7076 63.2216 70.5667 62.03 70.5667H58.4266V82.7333ZM84.3572 34.0667L78.4444 38.9333H90.1199V29.2H83.8882L84.9179 30.981C85.5083 32.0088 85.2714 33.311 84.3572 34.0667ZM78.4444 43.8L84.3572 48.6667C85.2762 49.4235 85.5131 50.7317 84.9179 51.7618L83.8882 53.5333H90.1199V43.8H78.4444ZM73.0543 102.2V87.6H68.1784V114.367H82.8061V112.941L73.7685 103.92C73.3114 103.464 73.0543 102.845 73.0543 102.2ZM54.0388 141.133H73.0543V119.233H68.1784V124.1C68.1796 124.689 67.9653 125.26 67.5761 125.704L58.4266 136.141V136.267H58.3147L54.0388 141.133ZM47.5582 141.133L53.5507 134.32V116.8H58.4266V128.748L63.3025 123.185V87.6H48.6748V121.667C48.6748 122.312 48.4177 122.931 47.9606 123.387L30.1807 141.133H47.5582ZM83.5108 128.254C83.0573 127.796 82.8037 127.177 82.8061 126.533V119.233H77.9302V141.133H96.4243L83.5108 128.254ZM88.9688 101C88.1117 100.472 87.2891 99.971 86.3797 99.4019C85.6702 98.954 85.2405 98.1722 85.244 97.3333V87.6H77.9302V101.192L84.7571 108.007L88.9688 101ZM94.9958 25.1116V52.723L101.823 61.8064C102.138 62.2282 102.31 62.7403 102.31 63.2667V73C102.31 73.9957 101.703 74.8915 100.776 75.2611L90.1199 79.5134V95.9824C91.2556 96.6858 92.4067 97.3916 93.5554 98.0878H93.5697L93.5816 98.0997C98.7837 101.478 104.223 104.478 109.856 107.079L121.813 107.067V94.9C121.813 94.2548 122.07 93.6358 122.527 93.1796L123.469 92.2409C119.418 91.6587 115.666 89.7803 112.776 86.8871C111.852 85.9318 111.865 84.4146 112.805 83.4759C113.746 82.5373 115.266 82.5242 116.223 83.4462C118.881 86.1148 122.5 87.6107 126.27 87.6H126.689V80.3C126.689 78.9562 127.781 77.8667 129.127 77.8667H135.127L126.899 59.3874C126.489 58.4677 126.69 57.3913 127.403 56.6796C130.077 54.0252 131.576 50.4132 131.565 46.6492C131.614 32.389 123.535 19.3419 110.733 13.0091L105.52 10.4046L94.9958 25.1116ZM60.8646 12.1667H62.0205C63.2109 12.1667 64.2275 13.0257 64.4239 14.1984L66.0726 24.0636C66.613 24.3452 67.1523 24.6589 67.6808 25.0023L77.0743 21.4913C78.1909 21.073 79.4456 21.5222 80.042 22.5523L81.0729 24.3333H90.1199C90.1199 23.826 90.2794 23.3317 90.5758 22.9194L98.2706 12.1667H82.8061C81.4597 12.1667 80.3681 11.0771 80.3681 9.73333V4.86667H60.8646V12.1667ZM41.7562 37.4874C42.3979 38.0149 42.7276 38.8323 42.6288 39.6557C42.4788 40.7916 42.4788 41.9417 42.6288 43.0776V43.2451C42.6288 43.301 42.6455 43.2986 42.6455 43.3283C42.6419 43.3628 42.6347 43.3984 42.6264 43.4329C42.6252 43.7192 42.5728 44.0044 42.4705 44.2717L42.4562 44.299C42.349 44.5462 42.2002 44.7731 42.0169 44.9703C41.9753 45.0202 41.93 45.0666 41.8824 45.1117C41.8443 45.1581 41.8026 45.2032 41.7586 45.246L34.6257 51.1L37.4362 55.9667L46.0929 52.7278C46.8702 52.4379 47.7416 52.5614 48.407 53.0569C49.3236 53.7472 50.32 54.327 51.3735 54.7845C52.1365 55.1112 52.6805 55.8039 52.8174 56.6213L54.3304 65.7H59.9551L61.4717 56.619C61.6074 55.8015 62.1514 55.1088 62.9144 54.7821C63.968 54.3235 64.9643 53.7436 65.8821 53.0545C66.5464 52.5591 67.4165 52.4355 68.1927 52.7254L76.8529 55.9667L79.661 51.1L72.5305 45.2424C71.8889 44.7161 71.5603 43.8986 71.6603 43.0752C71.8091 41.9394 71.8091 40.7892 71.6603 39.6534C71.5603 38.83 71.8889 38.0125 72.5305 37.485L79.661 31.6333L76.8529 26.7667L68.1927 30.0056C67.4165 30.2955 66.5464 30.1719 65.8821 29.6764C64.9643 28.9873 63.968 28.4075 62.9144 27.9489C62.1514 27.6221 61.6074 26.9294 61.4717 26.112L59.9551 17.0333H54.334L52.8198 26.1144C52.6829 26.9318 52.1389 27.6245 51.3759 27.9513C50.3224 28.4087 49.326 28.9885 48.4094 29.6788C47.7439 30.1743 46.8726 30.299 46.0952 30.0079L37.4362 26.7667L34.6257 31.6333L41.7562 37.4874ZM4.91087 44.545C5.32394 45.8234 6.69647 46.528 7.97854 46.1169C8.85705 45.8935 9.53916 45.2008 9.74867 44.3192C9.95818 43.4388 9.65939 42.5144 8.9749 41.9203C8.28923 41.3275 7.33096 41.1623 6.48577 41.4926C5.2049 41.9049 4.49899 43.2748 4.91087 44.5545V44.545ZM58.4266 97.3333H53.5507V102.2H58.4266V97.3333ZM58.4266 107.067H53.5507V111.933H58.4266V107.067ZM73.0543 68.1333H68.1784V73H73.0543V68.1333ZM82.8061 68.1333H77.9302V73H82.8061V68.1333ZM104.748 24.3333H99.8717V34.0667H104.748V24.3333ZM104.748 38.9333H99.8717V43.8H104.748V38.9333ZM104.748 48.6667H99.8717V53.5333H104.748V48.6667Z" fill="url(#paint0_linear)"/>
<defs>
<linearGradient id="paint0_linear" x1="5.00164" y1="127.752" x2="119.967" y2="12.5695" gradientUnits="userSpaceOnUse">
<stop stop-color="#41DFD0"/>
<stop offset="1" stop-color="#EE83EF"/>
</linearGradient>
</defs>
</svg>
