<svg width="148" height="152" viewBox="0 0 148 152" fill="none" xmlns="http://www.w3.org/2000/svg">
<path d="M146.915 54.4513C147.243 54.2721 147.517 54.0078 147.708 53.6862C147.899 53.3646 148 52.9976 148 52.6237V35.2223C147.993 34.8637 147.894 34.5128 147.714 34.2028C147.533 33.8929 147.276 33.6342 146.967 33.4512C146.658 33.2682 146.307 33.1669 145.948 33.157C145.589 33.1471 145.234 33.2289 144.915 33.3947L128.489 42.3483L115.869 35.4686L115.335 35.1771L129.526 27.0623C130.006 26.7878 130.357 26.3341 130.501 25.8012C130.646 25.2682 130.573 24.6996 130.298 24.2204C130.023 23.7412 129.569 23.3907 129.035 23.246C128.502 23.1013 127.932 23.1742 127.452 23.4488L110.027 33.4149C109.712 33.6017 109.45 33.8659 109.267 34.1823C109.083 34.4987 108.984 34.8567 108.978 35.2223V39.4641L93.4741 29.768C93.4967 29.6638 93.5111 29.558 93.517 29.4515V12.0489C93.5121 11.6831 93.413 11.3248 93.2294 11.0083C93.0458 10.6918 92.7838 10.4277 92.4685 10.2415L75.0427 0.275362C74.7271 0.0949249 74.3697 0 74.0061 0C73.6424 0 73.2851 0.0949249 72.9695 0.275362L55.5377 10.2415C55.2224 10.4277 54.9604 10.6918 54.7768 11.0083C54.5931 11.3248 54.4941 11.6831 54.4891 12.0489V29.4515C54.4951 29.5584 54.5094 29.6646 54.532 29.7692L39.0329 39.4629V35.2223C39.0283 34.8565 38.9294 34.498 38.7457 34.1814C38.5621 33.8648 38.2999 33.6009 37.9844 33.4149L20.5597 23.4488C20.2441 23.2683 19.8868 23.1734 19.5231 23.1734C19.1594 23.1734 18.8021 23.2683 18.4865 23.4488L1.05947 33.4149C0.745185 33.602 0.484066 33.8663 0.300954 34.1827C0.117843 34.499 0.0188272 34.8569 0.013327 35.2223V52.6237C0.0132771 52.9976 0.114041 53.3646 0.305038 53.6862C0.496034 54.0078 0.770216 54.2721 1.09879 54.4513L17.4368 63.3621V87.2042L1.05947 96.5706C0.744123 96.7568 0.482033 97.0208 0.298403 97.3373C0.114774 97.6538 0.0157809 98.0122 0.0109441 98.378V104.803C0.0109441 105.355 0.230628 105.885 0.621668 106.276C1.01271 106.666 1.54307 106.885 2.09609 106.885C2.6491 106.885 3.17946 106.666 3.5705 106.276C3.96154 105.885 4.18123 105.355 4.18123 104.803V101.887L17.4368 109.113V121.769L3.09576 113.952C2.85528 113.819 2.59082 113.735 2.31761 113.704C2.04439 113.673 1.76781 113.697 1.50378 113.774C1.23975 113.85 0.993487 113.978 0.779162 114.15C0.564837 114.322 0.386681 114.535 0.254947 114.775C0.123213 115.016 0.0405022 115.281 0.0115744 115.554C-0.0173533 115.827 0.00807308 116.103 0.0863904 116.366C0.164708 116.63 0.294369 116.875 0.467914 117.088C0.641459 117.3 0.855459 117.477 1.0976 117.607L18.5234 127.106C18.8309 127.27 19.1743 127.356 19.5231 127.356C19.8719 127.356 20.2153 127.27 20.5228 127.106L35.3189 119.04L54.5023 131.794V140.424C54.5022 140.797 54.603 141.164 54.794 141.486C54.985 141.808 55.2591 142.072 55.5877 142.251L73.0135 151.75C73.3211 151.914 73.6644 152 74.0132 152C74.362 152 74.7054 151.914 75.0129 151.75L92.4316 142.249C92.7601 142.07 93.0343 141.805 93.2253 141.484C93.4163 141.162 93.5171 140.795 93.517 140.421V131.791L112.7 119.037L127.497 127.103C127.804 127.268 128.147 127.354 128.496 127.354C128.845 127.354 129.188 127.268 129.496 127.103L146.915 117.607C147.243 117.428 147.517 117.164 147.708 116.842C147.899 116.52 148 116.153 148 115.779V98.378C147.994 98.0124 147.895 97.6544 147.711 97.338C147.528 97.0217 147.266 96.7575 146.951 96.5706L130.574 87.2042V63.3621L146.915 54.4513ZM86.6242 123.27L74.0061 130.149L61.3856 123.27L60.8518 122.978L74.0061 115.456L87.1603 122.973L86.6242 123.27ZM6.36765 98.334L19.5219 90.8118L32.6762 98.334L32.1424 98.6255L19.5219 105.504L6.90144 98.6243L6.36765 98.334ZM34.8626 51.3887L21.6071 58.6134V45.9571L34.8626 38.7323V51.3887ZM36.769 95.8782L21.6035 87.2042V63.3621L35.4178 55.8316L54.4951 68.225V83.4169L36.769 95.8782ZM58.6654 28.2153V15.5589L71.9209 22.7884V35.4412L58.6654 28.2153ZM89.3468 28.2153L76.0912 35.4412V22.7884L89.3468 15.5613V28.2153ZM74.0061 59.5284L87.1603 67.0506L86.6265 67.3421L74.0061 74.2218L61.3856 67.3421L60.8518 67.0506L74.0061 59.5284ZM58.6654 70.6047L71.9209 77.8306V90.4905L58.6654 83.2622V70.6047ZM76.0912 77.8306L89.3468 70.6047V83.2622L76.0912 90.4905V77.8306ZM93.517 68.225L112.591 55.828L126.405 63.3621V87.2042L111.24 95.8782L93.517 83.4169V68.225ZM126.403 45.9571V58.6134L113.15 51.3887V38.7323L126.403 45.9571ZM113.15 114.544V101.887L126.405 109.113V121.769L113.15 114.544ZM141.111 98.6243L128.49 105.504L115.869 98.6243L115.335 98.3328L128.489 90.8106L141.643 98.3328L141.111 98.6243ZM130.575 58.6134V45.9571L143.829 38.7323V51.3887L130.575 58.6134ZM109.052 53.158L91.3628 64.6554L76.0912 55.922V40.1863L90.0795 32.5594L108.978 44.3769V52.6226C108.979 52.8035 109.004 52.9835 109.052 53.158ZM74.0061 4.48265L87.1591 12.006L74.5828 18.8619L74.0061 19.176L73.4294 18.8619L60.853 12.0048L74.0061 4.48265ZM57.9326 32.563L71.9209 40.1899V55.922L56.6493 64.6554L38.9602 53.158C39.0077 52.9834 39.0321 52.8034 39.0329 52.6226V44.3769L57.9326 32.563ZM19.5219 27.6549L32.6762 35.1771L32.1424 35.4686L19.5219 42.3483L6.90144 35.4686L6.36765 35.1771L19.5219 27.6549ZM4.18361 38.7323L17.4392 45.9582V58.6134L4.18361 51.3887V38.7323ZM21.6071 109.113L34.8626 101.887V114.544L21.6071 121.769V109.113ZM38.9173 116.429C38.9918 116.22 39.0321 116 39.0365 115.778V99.3822L56.7197 86.946L71.9209 95.2321V111.849L55.5377 121.216C55.2229 121.403 54.9613 121.667 54.7778 121.983C54.5943 122.3 54.4949 122.658 54.4891 123.023V126.79L38.9173 116.429ZM58.6654 130.668V126.531L71.9209 133.757V146.413L58.6654 139.188V130.668ZM76.0912 146.413V133.758L89.3468 126.532V139.19L76.0912 146.413ZM93.517 123.022C93.5124 122.656 93.4135 122.298 93.2299 121.981C93.0462 121.665 92.784 121.401 92.4685 121.215L76.0912 111.849V95.2321L91.2925 86.946L108.979 99.3822V115.779C108.984 116.001 109.024 116.221 109.098 116.43L93.5206 126.79L93.517 123.022ZM130.573 121.768V109.113L143.829 101.887V114.544L130.573 121.768ZM134.202 28.5223C134.338 28.2847 134.52 28.0763 134.737 27.9089C134.953 27.7416 135.201 27.6186 135.465 27.5469C135.73 27.4753 136.006 27.4565 136.277 27.4916C136.549 27.5266 136.811 27.6149 137.049 27.7512L139.432 29.1112C139.912 29.3858 140.263 29.8394 140.408 30.3724C140.553 30.9054 140.479 31.474 140.205 31.9532C139.93 32.4324 139.475 32.7829 138.942 32.9276C138.408 33.0723 137.838 32.9993 137.359 32.7248L134.976 31.3648C134.496 31.09 134.146 30.6364 134.001 30.1036C133.856 29.5709 133.929 29.0026 134.204 28.5235L134.202 28.5223Z" fill="url(#paint0_linear)"/>
<defs>
<linearGradient id="paint0_linear" x1="131.596" y1="133.024" x2="16.5672" y2="17.8348" gradientUnits="userSpaceOnUse">
<stop stop-color="#06DAF7"/>
<stop offset="1" stop-color="#FF6CA8"/>
</linearGradient>
</defs>
</svg>
