<svg width="140" height="144" viewBox="0 0 140 144" fill="none" xmlns="http://www.w3.org/2000/svg">
<path d="M76.9374 78.9376H79.2499C78.2321 78.9385 77.2424 78.6034 76.4345 77.9842C75.6267 77.3651 75.0458 76.4965 74.7822 75.5134C74.5186 74.5303 74.587 73.4876 74.9767 72.5474C75.3664 71.6071 76.0556 70.8218 76.9374 70.3134V69.6876C76.9374 69.0742 77.181 68.4861 77.6147 68.0524C78.0484 67.6187 78.6366 67.3751 79.2499 67.3751C79.8632 67.3751 80.4514 67.6187 80.8851 68.0524C81.3188 68.4861 81.5624 69.0742 81.5624 69.6876C82.1757 69.6876 82.7639 69.9312 83.1976 70.3649C83.6313 70.7986 83.8749 71.3867 83.8749 72.0001C83.8749 72.6134 83.6313 73.2016 83.1976 73.6352C82.7639 74.0689 82.1757 74.3126 81.5624 74.3126H79.2499C80.2677 74.3116 81.2574 74.6467 82.0653 75.2659C82.8731 75.885 83.454 76.7536 83.7176 77.7367C83.9812 78.7198 83.9128 79.7625 83.5231 80.7027C83.1334 81.643 82.4442 82.4283 81.5624 82.9367V83.5626C81.5624 84.1759 81.3188 84.7641 80.8851 85.1977C80.4514 85.6314 79.8632 85.8751 79.2499 85.8751C78.6366 85.8751 78.0484 85.6314 77.6147 85.1977C77.181 84.7641 76.9374 84.1759 76.9374 83.5626C76.3241 83.5626 75.7359 83.3189 75.3022 82.8852C74.8685 82.4516 74.6249 81.8634 74.6249 81.2501C74.6249 80.6367 74.8685 80.0485 75.3022 79.6149C75.7359 79.1812 76.3241 78.9376 76.9374 78.9376ZM0.951838 118.062C0.284818 116.534 0.0612888 114.849 0.306813 113.2C0.552338 111.551 1.257 110.004 2.34022 108.736C3.42344 107.469 4.84149 106.532 6.43218 106.033C8.02288 105.533 9.72201 105.492 11.3352 105.913L35.4954 112.214C35.3744 111.929 35.3122 111.622 35.3124 111.313V102.063C35.3124 101.449 35.556 100.861 35.9897 100.427C36.4234 99.9937 37.0116 99.7501 37.6249 99.7501H39.9374V95.1251H37.6249C37.0116 95.1251 36.4234 94.8814 35.9897 94.4477C35.556 94.0141 35.3124 93.4259 35.3124 92.8126V83.5626C35.3124 82.9492 35.556 82.361 35.9897 81.9274C36.4234 81.4937 37.0116 81.2501 37.6249 81.2501H39.9374V76.6251H37.6249C37.0116 76.6251 36.4234 76.3814 35.9897 75.9477C35.556 75.5141 35.3124 74.9259 35.3124 74.3126V65.0626C35.3124 64.4492 35.556 63.861 35.9897 63.4274C36.4234 62.9937 37.0116 62.7501 37.6249 62.7501H39.9374V58.1251H37.6249C37.0116 58.1251 36.4234 57.8814 35.9897 57.4477C35.556 57.0141 35.3124 56.4259 35.3124 55.8126V46.5626C35.3124 45.9492 35.556 45.3611 35.9897 44.9274C36.4234 44.4937 37.0116 44.2501 37.6249 44.2501H63.0624C63.0652 40.9555 62.0569 37.7394 60.1735 35.0362L37.855 37.268C37.8333 37.2704 37.8116 37.2721 37.7897 37.2735C37.438 37.2986 37.0845 37.3111 36.7294 37.3111C31.1187 37.3111 25.2519 34.2077 21.8554 29.3558L10.3056 13.1863C10.0713 12.8582 9.9269 12.4746 9.88662 12.0734C9.84634 11.6723 9.91162 11.2677 10.076 10.8996C10.2403 10.5315 10.4981 10.2127 10.8236 9.97494C11.1492 9.73717 11.5312 9.58863 11.9319 9.54406L32.7444 7.23156C32.7704 7.22867 32.7964 7.22607 32.8227 7.22405C39.1858 6.73467 47.0021 10.1262 50.9932 15.1155C51.018 15.1464 51.0423 15.1782 51.0654 15.2108L60.8716 28.8615C61.9361 29.8328 62.8978 30.9111 63.7414 32.0794C64.7742 28.1574 66.9292 24.622 69.9421 21.907L79.6835 8.3459C79.7066 8.31324 79.7309 8.28144 79.7558 8.25022C83.7474 3.261 91.564 -0.128544 97.9271 0.359971C97.9534 0.361706 97.9794 0.364308 98.0054 0.367198L118.818 2.6797C119.219 2.72427 119.601 2.8728 119.926 3.11057C120.252 3.34834 120.509 3.66708 120.674 4.03519C120.838 4.40329 120.903 4.80797 120.863 5.20908C120.823 5.6102 120.678 5.99381 120.444 6.32188L108.882 22.5094C105.497 27.3445 99.6317 30.447 94.0204 30.447C93.6654 30.447 93.312 30.4345 92.9601 30.4095L92.8948 30.404L70.5543 28.1698C68.6847 30.867 67.6844 34.0712 67.6874 37.353V44.2501H69.9999C70.6132 44.2501 71.2014 44.4937 71.6351 44.9274C72.0688 45.3611 72.3124 45.9492 72.3124 46.5626V53.5001H74.6249C75.2382 53.5001 75.8264 53.7437 76.2601 54.1774C76.6938 54.6111 76.9374 55.1992 76.9374 55.8126V58.2748C79.5439 57.9411 82.1916 58.1666 84.7042 58.9362C87.2168 59.7057 89.5366 61.0017 91.5092 62.7379C93.4818 64.4741 95.0618 66.6105 96.1442 69.0051C97.2266 71.3996 97.7864 73.9973 97.7864 76.6251C97.7864 79.2529 97.2266 81.8505 96.1442 84.245C95.0618 86.6396 93.4818 88.776 91.5092 90.5122C89.5366 92.2484 87.2168 93.5444 84.7042 94.3139C82.1916 95.0835 79.5439 95.309 76.9374 94.9753V98.2839L104.642 99.7501L113.937 99.7431V97.4376C113.937 96.8242 114.181 96.236 114.615 95.8024C115.048 95.3687 115.637 95.1251 116.25 95.1251H137.062C137.676 95.1251 138.264 95.3687 138.698 95.8024C139.131 96.236 139.375 96.8242 139.375 97.4376V139.063C139.375 139.676 139.131 140.264 138.698 140.698C138.264 141.131 137.676 141.375 137.062 141.375H116.25C115.637 141.375 115.048 141.131 114.615 140.698C114.181 140.264 113.937 139.676 113.937 139.063V136.445L100.062 134.476L61.1742 143.626C60.7224 143.732 60.249 143.7 59.8157 143.533L5.9055 122.799C4.80542 122.38 3.80037 121.745 2.94959 120.931C2.09882 120.118 1.41955 119.142 0.951838 118.062ZM118.562 136.75H134.75V99.7501H118.562V136.75ZM90.8124 18.853C90.8124 19.4663 90.5688 20.0545 90.1351 20.4882C89.7014 20.9219 89.1132 21.1655 88.4999 21.1655H83.8749C80.6429 21.1617 77.4846 22.1312 74.8113 23.9478L93.3209 25.7978C97.6678 26.0946 102.4 23.7035 105.105 19.8384L114.39 6.84017L97.5354 4.96763C92.7506 4.61497 86.4276 7.35499 83.404 11.0958L79.0886 17.1025C80.6568 16.7301 82.2631 16.5415 83.8749 16.5405H88.4999C89.1132 16.5405 89.7014 16.7842 90.1351 17.2178C90.5688 17.6515 90.8124 18.2397 90.8124 18.853ZM55.896 30.8159C53.2313 29.0179 50.0894 28.059 46.8749 28.0626H42.2499C41.6366 28.0626 41.0484 27.8189 40.6147 27.3852C40.181 26.9516 39.9374 26.3634 39.9374 25.7501C39.9374 25.1368 40.181 24.5486 40.6147 24.1149C41.0484 23.6812 41.6366 23.4376 42.2499 23.4376H46.8749C48.4965 23.4386 50.1125 23.6293 51.6898 24.0059L47.3461 17.959C44.3222 14.2196 38.0042 11.4822 33.2144 11.8326L16.36 13.7051L25.6317 26.6855C28.3489 30.5682 33.0794 32.9599 37.4289 32.6627L55.896 30.8159ZM65.3749 76.6251C65.3749 79.3693 66.1887 82.0519 67.7133 84.3336C69.2379 86.6153 71.4048 88.3937 73.9402 89.4439C76.4755 90.494 79.2653 90.7688 81.9568 90.2335C84.6483 89.6981 87.1206 88.3766 89.061 86.4362C91.0015 84.4957 92.3229 82.0234 92.8583 79.3319C93.3937 76.6404 93.1189 73.8507 92.0687 71.3153C91.0186 68.78 89.2402 66.613 86.9584 65.0884C84.6767 63.5638 81.9941 62.7501 79.2499 62.7501C75.5713 62.7542 72.0445 64.2173 69.4434 66.8185C66.8422 69.4197 65.379 72.9464 65.3749 76.6251ZM44.5624 95.1251V99.7501H59.4668C60.2065 99.0386 61.0839 98.4858 62.045 98.1256C63.0061 97.7653 64.0306 97.6053 65.0558 97.6552L72.3112 98.0394V95.1251H44.5624ZM44.5624 58.1251V62.7501H67.033C68.5962 61.3707 70.3811 60.2651 72.3124 59.4799V58.1251H44.5624ZM39.9374 53.5001H67.6874V48.8751H39.9374V53.5001ZM39.9374 72.0001H61.3353C61.7561 70.3789 62.3966 68.8228 63.2387 67.3751H39.9374V72.0001ZM60.7499 76.6251H44.5624V81.2501H61.3353C60.9457 79.7393 60.749 78.1852 60.7499 76.6251ZM39.9374 90.5001H67.033C65.5273 89.1729 64.246 87.6111 63.2387 85.8751H39.9374V90.5001ZM39.9374 109H58.166C57.3451 107.606 56.9983 105.983 57.1774 104.375H39.9374V109ZM40.8994 113.625L58.1796 118.134L68.6321 113.953L67.3186 113.625H40.8994ZM5.19209 116.211C5.41629 116.729 5.74185 117.197 6.14958 117.587C6.55731 117.977 7.03896 118.281 7.56617 118.482L60.8115 138.961L99.4302 129.874C99.7102 129.808 100 129.795 100.285 129.836L113.937 131.774V104.368C113.937 104.368 104.501 104.374 104.46 104.372L64.8179 102.274C64.0935 102.239 63.3821 102.475 62.822 102.936C62.2619 103.396 61.8931 104.049 61.7874 104.766C61.6818 105.484 61.8467 106.215 62.2502 106.818C62.6538 107.42 63.267 107.851 63.9706 108.026L86.7459 113.694C87.0424 113.766 87.3219 113.895 87.5681 114.075C87.8144 114.255 88.0226 114.482 88.1807 114.743C88.3389 115.004 88.4439 115.294 88.4896 115.595C88.5354 115.897 88.521 116.205 88.4473 116.501C88.3737 116.797 88.2421 117.075 88.0604 117.32C87.8786 117.565 87.6501 117.772 87.3881 117.928C87.1262 118.084 86.8358 118.187 86.5339 118.231C86.232 118.274 85.9244 118.258 85.6289 118.182L76.309 115.863L59.1907 122.71C58.7319 122.894 58.2264 122.926 57.7483 122.801L10.1677 110.388C9.39451 110.186 8.58022 110.206 7.81795 110.446C7.05568 110.685 6.3762 111.135 5.85717 111.742C5.33815 112.35 5.00053 113.091 4.88292 113.881C4.76531 114.672 4.87245 115.479 5.19209 116.211Z" fill="url(#paint0_linear)"/>
<defs>
<linearGradient id="paint0_linear" x1="69.7898" y1="143.688" x2="69.7898" y2="0.313147" gradientUnits="userSpaceOnUse">
<stop stop-color="#12BEE5"/>
<stop offset="0.5" stop-color="#C071E9"/>
<stop offset="1" stop-color="#F24F5A"/>
</linearGradient>
</defs>
</svg>
