<?xml version="1.0" encoding="utf-8"?>
<!-- Generator: Adobe Illustrator 23.0.0, SVG Export Plug-In . SVG Version: 6.00 Build 0)  -->
<svg version="1.1" id="Layer_1" xmlns="http://www.w3.org/2000/svg" xmlns:xlink="http://www.w3.org/1999/xlink" x="0px" y="0px"
	 viewBox="0 0 613 613" style="enable-background:new 0 0 613 613;" xml:space="preserve">
<style type="text/css">
	.st0{fill:url(#SVGID_1_);}
	.st1{fill:url(#SVGID_2_);}
</style>
<g>
	
		<linearGradient id="SVGID_1_" gradientUnits="userSpaceOnUse" x1="-17.5" y1="-1499.9474" x2="-17.5" y2="-2070.3145" gradientTransform="matrix(1 0 0 -1 324 -1478.6309)">
		<stop  offset="0" style="stop-color:#418DFF"/>
		<stop  offset="1" style="stop-color:#8A15FF"/>
	</linearGradient>
	<path class="st0" d="M419.9,396.3c43.5-44.4,82.4-94.4,114.8-148.1c3.7,1.9,8.3,2.8,13,2.8c20.4,0,37-16.7,37-37
		c0-13-6.5-25-17.6-31.5c24.1-60.2,23.1-108.3-2.8-133.3c-38-38-121.3-22.2-222.2,43.5l-21.3-20.4l38.9-37l-13-13.9l-40.7,38
		l-39.8-38l-13,13.9l38.9,37l-41.7,39.8l-1.9,1.9c-40.7,38.9-42.6,102.8-3.7,143.5c0.9,0.9,0.9,1.9,1.9,1.9l46.3,46.3l-46.3,46.3
		c-13,12-21.3,27.8-25.9,45.4c-0.9-0.9-1.9-1.9-2.8-2.8c-21.3-21.3-42.6-44.4-61.1-67.6l-14.8,12c19.4,24.1,40.7,47.2,63,69.4
		c4.6,4.6,8.3,8.3,13,12v5.6c0,27.8,12,53.7,31.5,72.2l0.9,2.8l6.5,6.5c-88.9,57.4-164.8,74.1-195.4,43.5
		C44,533.3,42.2,498.2,57,453.7c19.4,4.6,39.8-7.4,44.4-27.8c3.7-14.8-2.8-30.6-14.8-38.9c32.4-57.4,73.1-110.2,119.4-157.4l-13-13
		C144,265.8,102.4,321.3,69,380.6c-0.9,0-1.9,0-3.7,0c-20.4,0-37,16.7-37,37c0,10.2,4.6,20.4,12,26.9
		c-18.5,54.6-15.7,95.4,8.3,119.4c15.7,13.9,36.1,21.3,56.5,20.4c43.5,0,101.9-22.2,165.7-63.9l21.3,20.4l-38.9,37l13,13.9l39.8-38
		l39.8,38l13-13.9l-38.9-37l21.3-20.4c10.2,6.5,20.4,13,30.6,18.5c-4.6,19.4,7.4,39.8,27.8,44.4c13.9,3.7,28.7-1.9,38-13.9
		c22.2,9.3,46.3,13.9,70.4,14.8c20.4,0.9,40.7-6.5,56.5-20.4c40.7-40.7,19.4-132.4-55.6-239.8l-15.7,10.2
		c68.5,98.1,90.7,183.3,57.4,216.7c-19.4,19.4-56.5,19.4-106.5,1.9c0-1.9,0.9-3.7,0.9-5.6c0-20.4-16.7-37-37-37
		c-10.2,0-20.4,4.6-27.8,12c-8.3-4.6-16.7-10.2-25.9-15.7l7.4-5.6l1.9-1.9c40.7-38.9,42.6-102.8,3.7-143.5c-0.9-0.9-0.9-1.9-1.9-1.9
		L319,307.4l46.3-46.3c13-12,21.3-27.8,25.9-45.4c0.9,0.9,1.9,1.9,2.8,2.8c21.3,21.3,42.6,44.4,61.1,67.6l14.8-12
		c-19.4-24.1-40.7-47.2-63-69.4c-4.6-4.6-8.3-8.3-13-12c0-1.9,0-3.7,0-5.6c0-27.8-12-53.7-31.5-72.2l-0.9-2.8l-6.5-6.5
		C444,49.1,520.9,31.5,550.5,62.1c20.4,20.4,19.4,61.1-1.9,114.8c-0.9,0-1.9,0-1.9,0c-20.4,0-37,16.7-37,37c0,9.3,3.7,17.6,9.3,24.1
		c-31.5,52.8-69.4,101.9-113,145.4L419.9,396.3z M65.3,399.1c10.2,0,18.5,8.3,18.5,18.5s-8.3,18.5-18.5,18.5s-18.5-8.3-18.5-18.5
		S55.1,399.1,65.3,399.1z M407.9,528.7c10.2,0,18.5,8.3,18.5,18.5c0,10.2-8.3,18.5-18.5,18.5s-18.5-8.3-18.5-18.5
		C389.4,537.1,397.7,528.7,407.9,528.7z M306.1,85.2l28.7,26.9h-56.5L306.1,85.2z M306.1,527.8l-28.7-26.9h56.5L306.1,527.8z
		 M354.2,482.4h-96.3c-7.4-8.3-13.9-17.6-17.6-27.8h130.6C367.2,464.8,361.6,474.1,354.2,482.4z M377.4,425.9c0,3.7,0,6.5-0.9,10.2
		H235.7c-0.9-9.3-0.9-18.5,0.9-27.8h138C376.4,413.9,377.4,420.4,377.4,425.9z M352.4,365.8c6.5,6.5,12,14.8,16.7,24.1H243.1
		c3.7-9.3,9.3-16.7,16.7-24.1l3.7-3.7h85.2L352.4,365.8z M330.1,343.5H282l24.1-24.1L330.1,343.5z M306.1,293.5L282,269.5h48.1
		L306.1,293.5z M352.4,247.2l-3.7,3.7h-85.2l-3.7-3.7c-6.5-6.5-12-14.8-16.7-24.1H369C365.3,232.4,359.8,239.8,352.4,247.2z
		 M377.4,187.1c0,5.6-0.9,12-1.9,17.6H236.6c-1.9-9.3-1.9-18.5-0.9-27.8h139.8C376.4,180.6,376.4,183.4,377.4,187.1z M371.8,158.4
		H240.3c3.7-10.2,10.2-19.4,17.6-27.8h95.4C361.6,138.9,367.2,148.2,371.8,158.4z M546.8,195.4c10.2,0,18.5,8.3,18.5,18.5
		c0,10.2-8.3,18.5-18.5,18.5c-10.2,0-18.5-8.3-18.5-18.5C528.3,203.7,536.6,195.4,546.8,195.4z"/>
	
		<linearGradient id="SVGID_2_" gradientUnits="userSpaceOnUse" x1="-186.8501" y1="-1507.151" x2="-186.8501" y2="-1767.5377" gradientTransform="matrix(1 0 0 -1 324 -1478.6309)">
		<stop  offset="0" style="stop-color:#418DFF"/>
		<stop  offset="1" style="stop-color:#8A15FF"/>
	</linearGradient>
	<path class="st1" d="M236.6,93.5l9.3-15.7c-90.7-53.7-163-63.9-197.2-28.7c-28.7,28.7-26.9,83.3,5.6,152.8
		c-16.7,11.1-21.3,34.3-9.3,51.9c10.2,14.8,28.7,20.4,45.4,13c4.6,7.4,9.3,14.8,14.8,22.2l14.8-10.2c-5.6-7.4-10.2-15.7-15.7-23.1
		c4.6-6.5,7.4-14.8,8.3-22.2c0-20.4-16.7-37-37-37c-0.9,0-1.9,0-3.7,0C43.1,134.3,39.4,85.2,62.5,63
		C89.4,34.3,156.1,46.3,236.6,93.5z M74.6,213.9c10.2,0,18.5,8.3,18.5,18.5c0,10.2-8.3,18.5-18.5,18.5s-18.5-8.3-18.5-18.5
		C56.1,222.2,64.4,213.9,74.6,213.9z"/>
</g>
</svg>
