<?xml version="1.0" encoding="utf-8"?>
<!-- Generator: Adobe Illustrator 23.0.0, SVG Export Plug-In . SVG Version: 6.00 Build 0)  -->
<svg version="1.1" id="Layer_1" xmlns="http://www.w3.org/2000/svg" xmlns:xlink="http://www.w3.org/1999/xlink" x="0px" y="0px"
	 viewBox="0 0 613 613" style="enable-background:new 0 0 613 613;" xml:space="preserve">
<style type="text/css">
	.st0{fill:url(#SVGID_1_);}
</style>
<linearGradient id="SVGID_1_" gradientUnits="userSpaceOnUse" x1="-17.5" y1="-1496.7787" x2="-17.5" y2="-2073.4832" gradientTransform="matrix(1 0 0 -1 324 -1478.6309)">
	<stop  offset="0" style="stop-color:#418DFF"/>
	<stop  offset="1" style="stop-color:#8A15FF"/>
</linearGradient>
<path class="st0" d="M577,553.9h-17V453.5h17c4.6,0,8.4-3.8,8.4-8.4c0-4.7-3.7-8.4-8.4-8.4H409.5v-22.4c0-15.3-12.3-27.8-27.5-27.8
	h-15V369c0-16.8-13.3-30.5-29.8-31V201.7c0-4.7-3.7-8.4-8.4-8.4c-4.6,0-8.4,3.8-8.4,8.4V338h-28V142.8h28v19.6
	c0,4.7,3.7,8.4,8.4,8.4c4.6,0,8.4-3.8,8.4-8.4v-22.4c0-7.8-6.3-14.1-13.9-14.1h-8.4V97.2c15.1-3.3,27.1-15.4,30.3-30.6h102.6V82
	l-81.8,156.9c-3.7,0.4-7,2.5-8.9,5.8c-2.1,3.6-2.1,8.2,0,11.8l20.1,35.1c2.1,3.6,6,5.9,10.1,5.9h78.8c4.6,0,8.4-3.8,8.4-8.4
	c0-4.7-3.7-8.4-8.4-8.4h-75.9l-14.3-25h160.5l-14.3,25h-17c-4.6,0-8.4,3.8-8.4,8.4c0,4.7,3.7,8.4,8.4,8.4H525
	c4.2,0,8.1-2.3,10.1-5.9l20.1-35.1c2.1-3.6,2.1-8.2,0-11.8c-1.9-3.3-5.2-5.4-8.9-5.8L464.5,82V66.6h31.3c4.6,0,8.4-3.8,8.4-8.4
	s-3.7-8.4-8.4-8.4H345.2c-3.9-18-19.7-31.5-38.7-31.5c-19,0-34.9,13.5-38.7,31.5H117.2c-4.6,0-8.4,3.8-8.4,8.4s3.7,8.4,8.4,8.4h31.3
	V82L66.7,238.9c-3.7,0.4-7,2.5-8.9,5.8c-2.1,3.6-2.1,8.2,0,11.8v0l20.1,35.1c2.1,3.6,6,5.9,10.1,5.9h137.7c4.2,0,8.1-2.3,10.1-5.9
	l20.1-35.1c2.1-3.6,2.1-8.2,0-11.8c-1.9-3.3-5.2-5.4-8.9-5.8L165.2,82V66.6h102.6c3.3,15.3,15.2,27.3,30.3,30.6v28.7h-8.4
	c-7.7,0-13.9,6.3-13.9,14.1V338c-16.5,0.5-29.8,14.2-29.8,31v17.4h-15c-15.2,0-27.5,12.5-27.5,27.8v22.4H94.1
	c-36.7,0-66.5,30.1-66.5,67.1c0,37,29.8,67.1,66.5,67.1h46.9V583c0,4.4,2.4,8.4,6.3,10.5c3.9,2,8.5,1.8,12.1-0.8l20.5-14.3
	l20.5,14.3c2,1.4,4.3,2.1,6.7,2.1c1.9,0,3.7-0.5,5.4-1.4c3.9-2.1,6.3-6.1,6.3-10.5v-12.2H577c4.6,0,8.4-3.8,8.4-8.4
	S581.6,553.9,577,553.9z M447.8,238.8h-62.9l62.9-120.6V238.8z M464.5,118.3l62.9,120.6h-62.9V118.3z M148.5,118.3v120.6H85.6
	L148.5,118.3z M222.8,280.8H90.9l-14.3-25h160.5L222.8,280.8z M228.1,238.8h-62.9V118.3L228.1,238.8z M283.6,58.1
	c0-12.7,10.3-23.1,22.9-23.1c12.6,0,22.9,10.4,22.9,23.1s-10.3,23.1-22.9,23.1C293.9,81.2,283.6,70.9,283.6,58.1z M262.7,369
	c0-7.8,6.3-14.1,13.9-14.1h59.7c7.7,0,13.9,6.3,13.9,14.1v17.4h-87.6V369z M94.1,553.9c-27.4,0-49.8-22.5-49.8-50.2
	c0-27.7,22.3-50.2,49.8-50.2h11.6c-4.2,6.2-6.6,13.6-6.6,21.6v57.2c0,8,2.4,15.5,6.6,21.6H94.1z M202,573.3l-17.3-12.1
	c-2.9-2-6.7-2-9.5,0l-17.3,12.1v-82.2H202V573.3z M543.3,474.2H362.4c-4.6,0-8.4,3.8-8.4,8.4s3.7,8.4,8.4,8.4h180.9v25.2H362.4
	c-4.6,0-8.4,3.8-8.4,8.4c0,4.7,3.7,8.4,8.4,8.4h180.9v20.7H218.7v-62.8h70.6c4.6,0,8.4-3.8,8.4-8.4s-3.7-8.4-8.4-8.4h-152
	c-4.6,0-8.4,3.8-8.4,8.4s3.7,8.4,8.4,8.4h3.7v62.8h-3.7c-11.8,0-21.4-9.7-21.4-21.6v-57.2c0-11.9,9.6-21.6,21.4-21.6h134.6
	c4.6,0,8.4-3.8,8.4-8.4c0-4.7-3.7-8.4-8.4-8.4h-51.7v-22.4c0-6,4.8-10.9,10.8-10.9H382c5.9,0,10.8,4.9,10.8,10.9v22.4H311
	c-4.6,0-8.4,3.8-8.4,8.4c0,4.7,3.7,8.4,8.4,8.4h232.3V474.2z"/>
</svg>
