<svg width="340" height="180" viewBox="0 0 340 180" fill="none" xmlns="http://www.w3.org/2000/svg">
<path d="M1.566 129H3.078V125.256L5.094 122.862L8.622 129H10.296L6.03 121.692L9.738 117.192H8.028L3.114 123.114H3.078V117.192H1.566V129ZM12.5679 118.452C13.1439 118.452 13.5939 118.056 13.5939 117.498C13.5939 116.922 13.1439 116.544 12.5679 116.544C11.9919 116.544 11.5419 116.922 11.5419 117.498C11.5419 118.056 11.9919 118.452 12.5679 118.452ZM11.8119 129H13.2879V120.252H11.8119V129ZM15.5936 124.644C15.5936 127.506 17.4476 129.216 19.7876 129.216C20.9756 129.216 21.9116 128.802 22.6676 128.316L22.1456 127.344C21.4976 127.758 20.7956 128.028 19.9676 128.028C18.2936 128.028 17.1596 126.84 17.0516 124.95H22.9556C22.9916 124.734 23.0096 124.446 23.0096 124.14C23.0096 121.638 21.7496 120.036 19.5176 120.036C17.5196 120.036 15.5936 121.782 15.5936 124.644ZM17.0336 123.978C17.2136 122.214 18.3296 121.206 19.5536 121.206C20.9216 121.206 21.7136 122.196 21.7136 123.978H17.0336ZM17.4296 118.686H18.4376L19.4816 117.372H19.5536L20.6156 118.686H21.6236L20.1296 116.544H18.9236L17.4296 118.686ZM21.1196 117.48H22.0376L23.6936 115.428H22.4516L21.1196 117.48ZM25.1713 129H26.6473V122.664C27.5293 121.782 28.1413 121.314 29.0413 121.314C30.1933 121.314 30.6973 122.016 30.6973 123.654V129H32.1733V123.456C32.1733 121.224 31.3453 120.036 29.5093 120.036C28.3033 120.036 27.4033 120.684 26.5753 121.512H26.5213L26.3953 120.252H25.1713V129ZM41.0916 126.3C41.0916 128.028 41.7216 129.216 43.5936 129.216C44.1336 129.216 44.7276 129.054 45.2136 128.892L44.9256 127.776C44.6376 127.884 44.2416 128.01 43.9356 128.01C42.9276 128.01 42.5856 127.398 42.5856 126.318V121.458H44.9436V120.252H42.5856V117.804H41.3436L41.1636 120.252L39.7956 120.342V121.458H41.0916V126.3ZM46.1732 126.732C46.1732 128.298 47.2712 129.216 48.7472 129.216C49.8272 129.216 50.7992 128.64 51.6452 127.956H51.6812L51.8072 129H53.0312V123.636C53.0312 121.458 52.1312 120.036 49.9892 120.036C48.5852 120.036 47.3612 120.648 46.5512 121.17L47.1452 122.196C47.8292 121.728 48.7292 121.26 49.7552 121.26C51.1772 121.26 51.5552 122.34 51.5552 123.456C47.8292 123.87 46.1732 124.824 46.1732 126.732ZM47.6312 126.624C47.6312 125.508 48.6212 124.788 51.5552 124.428V126.858C50.7092 127.614 50.0072 128.028 49.1612 128.028C48.2972 128.028 47.6312 127.614 47.6312 126.624ZM49.6832 132.708C50.2412 132.708 50.6552 132.312 50.6552 131.736C50.6552 131.178 50.2412 130.782 49.6832 130.782C49.1252 130.782 48.7112 131.178 48.7112 131.736C48.7112 132.312 49.1252 132.708 49.6832 132.708ZM55.1681 124.644C55.1681 127.542 57.0761 129.216 59.2181 129.216C61.3601 129.216 63.2681 127.542 63.2681 124.644C63.2681 121.71 61.3601 120.036 59.2181 120.036C57.0761 120.036 55.1681 121.71 55.1681 124.644ZM56.6981 124.644C56.6981 122.628 57.7241 121.26 59.2181 121.26C60.7301 121.26 61.7381 122.628 61.7381 124.644C61.7381 126.642 60.7301 127.992 59.2181 127.992C57.7241 127.992 56.6981 126.642 56.6981 124.644ZM71.3965 129H72.8725V122.664C73.7545 121.782 74.3665 121.314 75.2665 121.314C76.4185 121.314 76.9225 122.016 76.9225 123.654V129H78.3985V123.456C78.3985 121.224 77.5705 120.036 75.7345 120.036C74.5285 120.036 73.6285 120.684 72.8005 121.512H72.7465L72.6205 120.252H71.3965V129ZM81.2402 129H82.7162V122.664C83.5982 121.782 84.2102 121.314 85.1102 121.314C86.2622 121.314 86.7662 122.016 86.7662 123.654V129H88.2422V123.456C88.2422 121.224 87.4142 120.036 85.5782 120.036C84.3722 120.036 83.4902 120.684 82.6622 121.476L82.7162 119.676V116.184H81.2402V129ZM95.9992 116.67C95.9092 117.282 95.6932 117.588 95.3512 117.588C94.7572 117.588 94.1992 116.67 93.2992 116.67C92.3992 116.67 91.9312 117.498 91.8232 118.578H92.6692C92.7772 117.966 92.9752 117.66 93.3352 117.66C93.9292 117.66 94.4692 118.578 95.3692 118.578C96.2692 118.578 96.7372 117.75 96.8452 116.67H95.9992ZM98.0332 118.308C98.1772 118.542 98.2852 118.794 98.2852 119.064C98.2852 119.874 97.6192 120.162 96.7732 120.252H96.3952V126.462C95.5672 127.488 94.9372 127.938 94.0372 127.938C92.8852 127.938 92.3992 127.236 92.3992 125.598V120.252H90.9052V125.796C90.9052 128.028 91.7332 129.216 93.5872 129.216C94.7932 129.216 95.6572 128.586 96.4672 127.632H96.5212L96.6472 129H97.8712V120.81C98.6812 120.576 99.5092 120.054 99.5092 118.956C99.5092 118.506 99.3292 118.11 99.0952 117.786L98.0332 118.308ZM100.822 129H102.298V122.664C103.18 121.782 103.792 121.314 104.692 121.314C105.844 121.314 106.348 122.016 106.348 123.654V129H107.824V123.456C107.824 121.224 106.996 120.036 105.16 120.036C103.954 120.036 103.054 120.684 102.226 121.512H102.172L102.046 120.252H100.822V129ZM111.296 130.476C111.296 129.972 111.566 129.45 112.196 129C112.574 129.108 112.988 129.144 113.33 129.144H114.842C115.976 129.144 116.606 129.414 116.606 130.224C116.606 131.142 115.508 132.006 113.834 132.006C112.25 132.006 111.296 131.412 111.296 130.476ZM110 130.674C110 132.186 111.476 133.032 113.618 133.032C116.336 133.032 118.046 131.628 118.046 130.008C118.046 128.55 117.02 127.92 114.986 127.92H113.294C112.106 127.92 111.746 127.524 111.746 126.966C111.746 126.48 111.998 126.192 112.304 125.922C112.7 126.12 113.186 126.228 113.618 126.228C115.4 126.228 116.822 125.058 116.822 123.186C116.822 122.448 116.516 121.782 116.102 121.386H117.902V120.252H114.86C114.536 120.126 114.104 120.036 113.618 120.036C111.836 120.036 110.324 121.242 110.324 123.15C110.324 124.194 110.882 125.04 111.458 125.508V125.58C111.008 125.886 110.504 126.462 110.504 127.2C110.504 127.884 110.846 128.352 111.278 128.622V128.694C110.486 129.234 110 129.936 110 130.674ZM113.618 125.238C112.61 125.238 111.764 124.428 111.764 123.15C111.764 121.872 112.592 121.116 113.618 121.116C114.644 121.116 115.472 121.872 115.472 123.15C115.472 124.428 114.626 125.238 113.618 125.238ZM124.913 124.644C124.913 127.542 126.695 129.216 129.017 129.216C130.061 129.216 131.069 128.784 131.861 128.082L131.195 127.11C130.673 127.578 129.971 127.992 129.143 127.992C127.541 127.992 126.443 126.642 126.443 124.644C126.443 122.628 127.595 121.26 129.179 121.26C129.881 121.26 130.421 121.584 130.943 122.034L131.681 121.08C131.087 120.522 130.277 120.036 129.125 120.036C126.875 120.036 124.913 121.71 124.913 124.644ZM133.77 129H135.246V122.664C136.128 121.782 136.74 121.314 137.64 121.314C138.792 121.314 139.296 122.016 139.296 123.654V129H140.772V123.456C140.772 121.224 139.944 120.036 138.108 120.036C136.902 120.036 136.02 120.684 135.192 121.476L135.246 119.676V116.184H133.77V129ZM144.317 118.452C144.893 118.452 145.343 118.056 145.343 117.498C145.343 116.922 144.893 116.544 144.317 116.544C143.741 116.544 143.291 116.922 143.291 117.498C143.291 118.056 143.741 118.452 144.317 118.452ZM143.561 129H145.037V120.252H143.561V129ZM147.343 124.644C147.343 127.506 149.197 129.216 151.537 129.216C152.725 129.216 153.661 128.802 154.417 128.316L153.895 127.344C153.247 127.758 152.545 128.028 151.717 128.028C150.043 128.028 148.909 126.84 148.801 124.95H154.705C154.741 124.734 154.759 124.446 154.759 124.14C154.759 121.638 153.499 120.036 151.267 120.036C149.269 120.036 147.343 121.782 147.343 124.644ZM148.783 123.978C148.963 122.214 150.079 121.206 151.303 121.206C152.671 121.206 153.463 122.196 153.463 123.978H148.783ZM149.179 118.686H150.187L151.231 117.372H151.303L152.365 118.686H153.373L151.879 116.544H150.673L149.179 118.686ZM152.869 117.48H153.787L155.443 115.428H154.201L152.869 117.48ZM156.92 129H158.396V122.664C159.278 121.782 159.89 121.314 160.79 121.314C161.942 121.314 162.446 122.016 162.446 123.654V129H163.922V123.456C163.922 121.224 163.094 120.036 161.258 120.036C160.052 120.036 159.152 120.684 158.324 121.512H158.27L158.144 120.252H156.92V129ZM172.588 129H173.776L173.902 128.136H173.956C174.73 128.82 175.648 129.216 176.458 129.216C178.456 129.216 180.238 127.47 180.238 124.482C180.238 121.782 179.032 120.036 176.764 120.036C175.792 120.036 174.82 120.558 174.028 121.26L174.064 119.676V116.184H172.588V129ZM174.064 127.056V122.466C174.892 121.692 175.666 121.278 176.404 121.278C178.06 121.278 178.708 122.574 178.708 124.5C178.708 126.66 177.646 127.974 176.206 127.974C175.63 127.974 174.838 127.722 174.064 127.056ZM183.329 118.452C183.905 118.452 184.355 118.056 184.355 117.498C184.355 116.922 183.905 116.544 183.329 116.544C182.753 116.544 182.303 116.922 182.303 117.498C182.303 118.056 182.753 118.452 183.329 118.452ZM182.573 129H184.049V120.252H182.573V129ZM187.003 129H188.479V122.664C189.361 121.782 189.973 121.314 190.873 121.314C192.025 121.314 192.529 122.016 192.529 123.654V129H194.005V123.456C194.005 121.224 193.177 120.036 191.341 120.036C190.135 120.036 189.235 120.684 188.407 121.512H188.353L188.227 120.252H187.003V129ZM196.846 129H198.322V122.664C199.204 121.782 199.816 121.314 200.716 121.314C201.868 121.314 202.372 122.016 202.372 123.654V129H203.848V123.456C203.848 121.224 203.02 120.036 201.184 120.036C199.978 120.036 199.096 120.684 198.268 121.476L198.322 119.676V116.184H196.846V129ZM212.714 126.3C212.714 128.028 213.344 129.216 215.216 129.216C215.756 129.216 216.35 129.054 216.836 128.892L216.548 127.776C216.26 127.884 215.864 128.01 215.558 128.01C214.55 128.01 214.208 127.398 214.208 126.318V121.458H216.566V120.252H214.208V117.804H212.966L212.786 120.252L211.418 120.342V121.458H212.714V126.3ZM219.3 118.452C219.876 118.452 220.326 118.056 220.326 117.498C220.326 116.922 219.876 116.544 219.3 116.544C218.724 116.544 218.274 116.922 218.274 117.498C218.274 118.056 218.724 118.452 219.3 118.452ZM218.544 129H220.02V120.252H218.544V129ZM222.973 129H224.449V122.664C225.331 121.782 225.943 121.314 226.843 121.314C227.995 121.314 228.499 122.016 228.499 123.654V129H229.975V123.456C229.975 121.224 229.147 120.036 227.311 120.036C226.105 120.036 225.205 120.684 224.377 121.512H224.323L224.197 120.252H222.973V129ZM232.817 129H234.293V122.664C235.175 121.782 235.787 121.314 236.687 121.314C237.839 121.314 238.343 122.016 238.343 123.654V129H239.819V123.456C239.819 121.224 238.991 120.036 237.155 120.036C235.949 120.036 235.067 120.684 234.239 121.476L234.293 119.676V116.184H232.817V129ZM248.433 129H249.909V122.664C250.791 121.782 251.403 121.314 252.303 121.314C253.455 121.314 253.959 122.016 253.959 123.654V129H255.435V123.456C255.435 121.224 254.607 120.036 252.771 120.036C251.565 120.036 250.665 120.684 249.837 121.512H249.783L249.657 120.252H248.433V129ZM258.277 129H259.753V122.664C260.635 121.782 261.247 121.314 262.147 121.314C263.299 121.314 263.803 122.016 263.803 123.654V129H265.279V123.456C265.279 121.224 264.451 120.036 262.615 120.036C261.409 120.036 260.527 120.684 259.699 121.476L259.753 119.676V116.184H258.277V129ZM267.942 125.796C267.942 128.028 268.77 129.216 270.624 129.216C271.83 129.216 272.694 128.586 273.504 127.632H273.558L273.684 129H274.908V120.252H273.432V126.462C272.604 127.488 271.974 127.938 271.074 127.938C269.922 127.938 269.436 127.236 269.436 125.598V120.252H267.942V125.796ZM277.211 124.644C277.211 127.506 279.065 129.216 281.405 129.216C282.593 129.216 283.529 128.802 284.285 128.316L283.763 127.344C283.115 127.758 282.413 128.028 281.585 128.028C279.911 128.028 278.777 126.84 278.669 124.95H284.573C284.609 124.734 284.627 124.446 284.627 124.14C284.627 121.638 283.367 120.036 281.135 120.036C279.137 120.036 277.211 121.782 277.211 124.644ZM278.651 123.978C278.831 122.214 279.947 121.206 281.171 121.206C282.539 121.206 283.331 122.196 283.331 123.978H278.651ZM278.831 118.686H279.893L281.099 117.048H281.171L282.377 118.686H283.457L281.747 116.148H280.541L278.831 118.686ZM281.099 132.708C281.657 132.708 282.071 132.312 282.071 131.736C282.071 131.178 281.657 130.782 281.099 130.782C280.541 130.782 280.127 131.178 280.127 131.736C280.127 132.312 280.541 132.708 281.099 132.708ZM292.613 129H293.801L293.927 128.136H293.981C294.755 128.82 295.673 129.216 296.483 129.216C298.481 129.216 300.263 127.47 300.263 124.482C300.263 121.782 299.057 120.036 296.789 120.036C295.817 120.036 294.845 120.558 294.053 121.26L294.089 119.676V116.184H292.613V129ZM294.089 127.056V122.466C294.917 121.692 295.691 121.278 296.429 121.278C298.085 121.278 298.733 122.574 298.733 124.5C298.733 126.66 297.671 127.974 296.231 127.974C295.655 127.974 294.863 127.722 294.089 127.056ZM301.919 126.732C301.919 128.298 303.017 129.216 304.493 129.216C305.573 129.216 306.545 128.64 307.391 127.956H307.427L307.553 129H308.777V123.636C308.777 121.458 307.877 120.036 305.735 120.036C304.331 120.036 303.107 120.648 302.297 121.17L302.891 122.196C303.575 121.728 304.475 121.26 305.501 121.26C306.923 121.26 307.301 122.34 307.301 123.456C303.575 123.87 301.919 124.824 301.919 126.732ZM303.377 126.624C303.377 125.508 304.367 124.788 307.301 124.428V126.858C306.455 127.614 305.753 128.028 304.907 128.028C304.043 128.028 303.377 127.614 303.377 126.624ZM305.177 114.798H303.935L305.519 116.814H306.401L305.177 114.798ZM305.717 118.65C307.265 118.65 307.913 117.426 308.003 116.364H307.211C307.103 117.102 306.635 117.804 305.717 117.804C304.799 117.804 304.349 117.102 304.241 116.364H303.449C303.521 117.426 304.169 118.65 305.717 118.65ZM311.562 129H313.038V122.664C313.92 121.782 314.532 121.314 315.432 121.314C316.584 121.314 317.088 122.016 317.088 123.654V129H318.564V123.456C318.564 121.224 317.736 120.036 315.9 120.036C314.694 120.036 313.794 120.684 312.966 121.512H312.912L312.786 120.252H311.562V129ZM322.036 130.476C322.036 129.972 322.306 129.45 322.936 129C323.314 129.108 323.728 129.144 324.07 129.144H325.582C326.716 129.144 327.346 129.414 327.346 130.224C327.346 131.142 326.248 132.006 324.574 132.006C322.99 132.006 322.036 131.412 322.036 130.476ZM320.74 130.674C320.74 132.186 322.216 133.032 324.358 133.032C327.076 133.032 328.786 131.628 328.786 130.008C328.786 128.55 327.76 127.92 325.726 127.92H324.034C322.846 127.92 322.486 127.524 322.486 126.966C322.486 126.48 322.738 126.192 323.044 125.922C323.44 126.12 323.926 126.228 324.358 126.228C326.14 126.228 327.562 125.058 327.562 123.186C327.562 122.448 327.256 121.782 326.842 121.386H328.642V120.252H325.6C325.276 120.126 324.844 120.036 324.358 120.036C322.576 120.036 321.064 121.242 321.064 123.15C321.064 124.194 321.622 125.04 322.198 125.508V125.58C321.748 125.886 321.244 126.462 321.244 127.2C321.244 127.884 321.586 128.352 322.018 128.622V128.694C321.226 129.234 320.74 129.936 320.74 130.674ZM324.358 125.238C323.35 125.238 322.504 124.428 322.504 123.15C322.504 121.872 323.332 121.116 324.358 121.116C325.384 121.116 326.212 121.872 326.212 123.15C326.212 124.428 325.366 125.238 324.358 125.238ZM1.476 152H2.952V145.664C3.762 144.764 4.5 144.314 5.148 144.314C6.264 144.314 6.786 145.016 6.786 146.654V152H8.262V145.664C9.072 144.764 9.774 144.314 10.458 144.314C11.556 144.314 12.078 145.016 12.078 146.654V152H13.554V146.456C13.554 144.224 12.69 143.036 10.89 143.036C9.828 143.036 8.928 143.72 8.01 144.71C7.65 143.666 6.93 143.036 5.598 143.036C4.554 143.036 3.636 143.684 2.88 144.512H2.826L2.7 143.252H1.476V152ZM15.9678 149.732C15.9678 151.298 17.0658 152.216 18.5418 152.216C19.6218 152.216 20.5938 151.64 21.4398 150.956H21.4758L21.6018 152H22.8258V146.636C22.8258 144.458 21.9258 143.036 19.7838 143.036C18.3798 143.036 17.1558 143.648 16.3458 144.17L16.9398 145.196C17.6238 144.728 18.5238 144.26 19.5498 144.26C20.9718 144.26 21.3498 145.34 21.3498 146.456C17.6238 146.87 15.9678 147.824 15.9678 149.732ZM17.4258 149.624C17.4258 148.508 18.4158 147.788 21.3498 147.428V149.858C20.5038 150.614 19.8018 151.028 18.9558 151.028C18.0918 151.028 17.4258 150.614 17.4258 149.624ZM17.2638 141.578H18.1098C18.1998 140.966 18.3978 140.66 18.7578 140.66C19.3698 140.66 19.9098 141.578 20.8098 141.578C21.6918 141.578 22.1778 140.75 22.2858 139.67H21.4398C21.3318 140.282 21.1338 140.588 20.7738 140.588C20.1978 140.588 19.6398 139.67 18.7398 139.67C17.8398 139.67 17.3718 140.498 17.2638 141.578ZM31.5863 149.3C31.5863 151.028 32.2163 152.216 34.0883 152.216C34.6283 152.216 35.2223 152.054 35.7083 151.892L35.4203 150.776C35.1323 150.884 34.7363 151.01 34.4303 151.01C33.4223 151.01 33.0803 150.398 33.0803 149.318V144.458H35.4383V143.252H33.0803V140.804H31.8383L31.6583 143.252L30.2903 143.342V144.458H31.5863V149.3ZM36.6679 149.732C36.6679 151.298 37.7659 152.216 39.2419 152.216C40.3219 152.216 41.2939 151.64 42.1399 150.956H42.1759L42.3019 152H43.5259V146.636C43.5259 144.458 42.6259 143.036 40.4839 143.036C39.0799 143.036 37.8559 143.648 37.0459 144.17L37.6399 145.196C38.3239 144.728 39.2239 144.26 40.2499 144.26C41.6719 144.26 42.0499 145.34 42.0499 146.456C38.3239 146.87 36.6679 147.824 36.6679 149.732ZM38.1259 149.624C38.1259 148.508 39.1159 147.788 42.0499 147.428V149.858C41.2039 150.614 40.5019 151.028 39.6559 151.028C38.7919 151.028 38.1259 150.614 38.1259 149.624ZM42.4639 139.148H40.9159L39.2959 141.686H40.4299L42.4639 139.148ZM47.0669 141.452C47.6429 141.452 48.0929 141.056 48.0929 140.498C48.0929 139.922 47.6429 139.544 47.0669 139.544C46.4909 139.544 46.0409 139.922 46.0409 140.498C46.0409 141.056 46.4909 141.452 47.0669 141.452ZM46.3109 152H47.7869V143.252H46.3109V152ZM56.7161 149.3C56.7161 151.028 57.3461 152.216 59.2181 152.216C59.7581 152.216 60.3521 152.054 60.8381 151.892L60.5501 150.776C60.2621 150.884 59.8661 151.01 59.5601 151.01C58.5521 151.01 58.2101 150.398 58.2101 149.318V144.458H60.5681V143.252H58.2101V140.804H56.9681L56.7881 143.252L55.4201 143.342V144.458H56.7161V149.3ZM61.7977 149.732C61.7977 151.298 62.8957 152.216 64.3717 152.216C65.4517 152.216 66.4237 151.64 67.2697 150.956H67.3057L67.4317 152H68.6557V146.636C68.6557 144.458 67.7557 143.036 65.6137 143.036C64.2097 143.036 62.9857 143.648 62.1757 144.17L62.7697 145.196C63.4537 144.728 64.3537 144.26 65.3797 144.26C66.8017 144.26 67.1797 145.34 67.1797 146.456C63.4537 146.87 61.7977 147.824 61.7977 149.732ZM63.2557 149.624C63.2557 148.508 64.2457 147.788 67.1797 147.428V149.858C66.3337 150.614 65.6317 151.028 64.7857 151.028C63.9217 151.028 63.2557 150.614 63.2557 149.624ZM65.3077 155.708C65.8657 155.708 66.2797 155.312 66.2797 154.736C66.2797 154.178 65.8657 153.782 65.3077 153.782C64.7497 153.782 64.3357 154.178 64.3357 154.736C64.3357 155.312 64.7497 155.708 65.3077 155.708ZM70.7926 147.644C70.7926 150.542 72.7006 152.216 74.8426 152.216C76.9846 152.216 78.8926 150.542 78.8926 147.644C78.8926 144.71 76.9846 143.036 74.8426 143.036C72.7006 143.036 70.7926 144.71 70.7926 147.644ZM72.3226 147.644C72.3226 145.628 73.3486 144.26 74.8426 144.26C76.3546 144.26 77.3626 145.628 77.3626 147.644C77.3626 149.642 76.3546 150.992 74.8426 150.992C73.3486 150.992 72.3226 149.642 72.3226 147.644ZM86.92 152H88.108L88.234 151.136H88.288C89.062 151.82 89.98 152.216 90.79 152.216C92.788 152.216 94.57 150.47 94.57 147.482C94.57 144.782 93.364 143.036 91.096 143.036C90.124 143.036 89.152 143.558 88.36 144.26L88.396 142.676V139.184H86.92V152ZM88.396 150.056V145.466C89.224 144.692 89.998 144.278 90.736 144.278C92.392 144.278 93.04 145.574 93.04 147.5C93.04 149.66 91.978 150.974 90.538 150.974C89.962 150.974 89.17 150.722 88.396 150.056ZM96.2564 147.644C96.2564 150.542 98.1644 152.216 100.306 152.216C102.448 152.216 104.356 150.542 104.356 147.644C104.356 144.71 102.448 143.036 100.306 143.036C98.1644 143.036 96.2564 144.71 96.2564 147.644ZM97.7864 147.644C97.7864 145.628 98.8124 144.26 100.306 144.26C101.818 144.26 102.826 145.628 102.826 147.644C102.826 149.642 101.818 150.992 100.306 150.992C98.8124 150.992 97.7864 149.642 97.7864 147.644ZM98.0024 141.686H99.0644L100.27 140.048H100.342L101.548 141.686H102.628L100.918 139.148H99.6944L98.0024 141.686ZM100.324 155.708C100.882 155.708 101.296 155.312 101.296 154.736C101.296 154.178 100.882 153.782 100.324 153.782C99.7664 153.782 99.3524 154.178 99.3524 154.736C99.3524 155.312 99.7664 155.708 100.324 155.708ZM113.014 153.476C113.014 152.972 113.284 152.45 113.914 152C114.292 152.108 114.706 152.144 115.048 152.144H116.56C117.694 152.144 118.324 152.414 118.324 153.224C118.324 154.142 117.226 155.006 115.552 155.006C113.968 155.006 113.014 154.412 113.014 153.476ZM111.718 153.674C111.718 155.186 113.194 156.032 115.336 156.032C118.054 156.032 119.764 154.628 119.764 153.008C119.764 151.55 118.738 150.92 116.704 150.92H115.012C113.824 150.92 113.464 150.524 113.464 149.966C113.464 149.48 113.716 149.192 114.022 148.922C114.418 149.12 114.904 149.228 115.336 149.228C117.118 149.228 118.54 148.058 118.54 146.186C118.54 145.448 118.234 144.782 117.82 144.386H119.62V143.252H116.578C116.254 143.126 115.822 143.036 115.336 143.036C113.554 143.036 112.042 144.242 112.042 146.15C112.042 147.194 112.6 148.04 113.176 148.508V148.58C112.726 148.886 112.222 149.462 112.222 150.2C112.222 150.884 112.564 151.352 112.996 151.622V151.694C112.204 152.234 111.718 152.936 111.718 153.674ZM115.336 148.238C114.328 148.238 113.482 147.428 113.482 146.15C113.482 144.872 114.31 144.116 115.336 144.116C116.362 144.116 117.19 144.872 117.19 146.15C117.19 147.428 116.344 148.238 115.336 148.238ZM120.56 147.644C120.56 150.506 122.414 152.216 124.754 152.216C125.942 152.216 126.878 151.802 127.634 151.316L127.112 150.344C126.464 150.758 125.762 151.028 124.934 151.028C123.26 151.028 122.126 149.84 122.018 147.95H127.922C127.958 147.734 127.976 147.446 127.976 147.14C127.976 144.638 126.716 143.036 124.484 143.036C122.486 143.036 120.56 144.782 120.56 147.644ZM122 146.978C122.18 145.214 123.296 144.206 124.52 144.206C125.888 144.206 126.68 145.196 126.68 146.978H122ZM130.138 152H131.614V145.664C132.496 144.782 133.108 144.314 134.008 144.314C135.16 144.314 135.664 145.016 135.664 146.654V152H137.14V146.456C137.14 144.224 136.312 143.036 134.476 143.036C133.27 143.036 132.37 143.684 131.542 144.512H131.488L131.362 143.252H130.138V152ZM151.249 149.768C150.529 150.578 149.827 150.974 149.017 150.974C147.487 150.974 146.605 149.804 146.605 147.806C146.605 145.916 147.721 144.638 149.125 144.638C149.845 144.638 150.511 144.89 151.249 145.556V149.768ZM154.039 140.858H152.743V139.184H151.249V140.858H148.351V141.722H151.249V142.91L151.321 144.404C150.547 143.774 149.881 143.396 148.873 143.396C146.875 143.396 145.075 145.106 145.075 147.824C145.075 150.632 146.497 152.216 148.693 152.216C149.737 152.216 150.655 151.676 151.321 151.01H151.375L151.483 152H152.743V141.722L154.039 141.632V140.858ZM155.041 147.644C155.041 150.542 156.949 152.216 159.091 152.216C161.233 152.216 163.141 150.542 163.141 147.644C163.141 144.71 161.233 143.036 159.091 143.036C156.949 143.036 155.041 144.71 155.041 147.644ZM156.571 147.644C156.571 145.628 157.597 144.26 159.091 144.26C160.603 144.26 161.611 145.628 161.611 147.644C161.611 149.642 160.603 150.992 159.091 150.992C157.597 150.992 156.571 149.642 156.571 147.644ZM156.787 141.686H157.849L159.055 140.048H159.127L160.333 141.686H161.413L159.703 139.148H158.479L156.787 141.686ZM159.109 155.708C159.667 155.708 160.081 155.312 160.081 154.736C160.081 154.178 159.667 153.782 159.109 153.782C158.551 153.782 158.137 154.178 158.137 154.736C158.137 155.312 158.551 155.708 159.109 155.708ZM165.697 149.3C165.697 151.028 166.327 152.216 168.199 152.216C168.739 152.216 169.333 152.054 169.819 151.892L169.531 150.776C169.243 150.884 168.847 151.01 168.541 151.01C167.533 151.01 167.191 150.398 167.191 149.318V144.458H169.549V143.252H167.191V140.804H165.949L165.769 143.252L164.401 143.342V144.458H165.697V149.3ZM177.251 152H178.439L178.565 151.136H178.619C179.393 151.82 180.311 152.216 181.121 152.216C183.119 152.216 184.901 150.47 184.901 147.482C184.901 144.782 183.695 143.036 181.427 143.036C180.455 143.036 179.483 143.558 178.691 144.26L178.727 142.676V139.184H177.251V152ZM178.727 150.056V145.466C179.555 144.692 180.329 144.278 181.067 144.278C182.723 144.278 183.371 145.574 183.371 147.5C183.371 149.66 182.309 150.974 180.869 150.974C180.293 150.974 179.501 150.722 178.727 150.056ZM187.991 141.452C188.567 141.452 189.017 141.056 189.017 140.498C189.017 139.922 188.567 139.544 187.991 139.544C187.415 139.544 186.965 139.922 186.965 140.498C186.965 141.056 187.415 141.452 187.991 141.452ZM187.235 152H188.711V143.252H187.235V152ZM191.017 147.644C191.017 150.506 192.871 152.216 195.211 152.216C196.399 152.216 197.335 151.802 198.091 151.316L197.569 150.344C196.921 150.758 196.219 151.028 195.391 151.028C193.717 151.028 192.583 149.84 192.475 147.95H198.379C198.415 147.734 198.433 147.446 198.433 147.14C198.433 144.638 197.173 143.036 194.941 143.036C192.943 143.036 191.017 144.782 191.017 147.644ZM192.457 146.978C192.637 145.214 193.753 144.206 194.977 144.206C196.345 144.206 197.137 145.196 197.137 146.978H192.457ZM192.853 141.686H193.861L194.905 140.372H194.977L196.039 141.686H197.047L195.553 139.544H194.347L192.853 141.686ZM196.543 140.48H197.461L199.117 138.428H197.875L196.543 140.48ZM200.594 152H202.07V145.664C202.952 144.782 203.564 144.314 204.464 144.314C205.616 144.314 206.12 145.016 206.12 146.654V152H207.596V146.456C207.596 144.224 206.768 143.036 204.932 143.036C203.726 143.036 202.826 143.684 201.998 144.512H201.944L201.818 143.252H200.594V152ZM210.168 155.06C211.626 154.448 212.526 153.242 212.526 151.694C212.526 150.614 212.058 149.948 211.284 149.948C210.69 149.948 210.186 150.344 210.186 150.992C210.186 151.658 210.672 152.018 211.248 152.018C211.302 152.018 211.374 152.018 211.428 152C211.428 152.972 210.816 153.746 209.808 154.196L210.168 155.06ZM220.896 149.3C220.896 151.028 221.526 152.216 223.398 152.216C223.938 152.216 224.532 152.054 225.018 151.892L224.73 150.776C224.442 150.884 224.046 151.01 223.74 151.01C222.732 151.01 222.39 150.398 222.39 149.318V144.458H224.748V143.252H222.39V140.804H221.148L220.968 143.252L219.6 143.342V144.458H220.896V149.3ZM226.726 152H228.202V146.384C228.796 144.908 229.678 144.368 230.416 144.368C230.776 144.368 230.974 144.422 231.262 144.512L231.55 143.216C231.262 143.09 230.992 143.036 230.614 143.036C229.624 143.036 228.724 143.738 228.13 144.836H228.076L227.95 143.252H226.726V152ZM236.602 153.782C236.044 153.782 235.63 154.178 235.63 154.736C235.63 155.312 236.044 155.708 236.602 155.708C237.178 155.708 237.574 155.312 237.574 154.736C237.574 154.178 237.178 153.782 236.602 153.782ZM239.968 141.308C240.112 141.542 240.22 141.794 240.22 142.064C240.22 142.874 239.554 143.162 238.708 143.252H238.33V149.462C237.502 150.488 236.872 150.938 235.972 150.938C234.82 150.938 234.334 150.236 234.334 148.598V143.252H232.84V148.796C232.84 151.028 233.668 152.216 235.522 152.216C236.728 152.216 237.592 151.586 238.402 150.632H238.456L238.582 152H239.806V143.81C240.616 143.576 241.444 143.054 241.444 141.956C241.444 141.506 241.264 141.11 241.03 140.786L239.968 141.308ZM242.109 147.644C242.109 150.542 243.891 152.216 246.213 152.216C247.257 152.216 248.265 151.784 249.057 151.082L248.391 150.11C247.869 150.578 247.167 150.992 246.339 150.992C244.737 150.992 243.639 149.642 243.639 147.644C243.639 145.628 244.791 144.26 246.375 144.26C247.077 144.26 247.617 144.584 248.139 145.034L248.877 144.08C248.283 143.522 247.473 143.036 246.321 143.036C244.071 143.036 242.109 144.71 242.109 147.644ZM256.942 149.3C256.942 151.028 257.572 152.216 259.444 152.216C259.984 152.216 260.578 152.054 261.064 151.892L260.776 150.776C260.488 150.884 260.092 151.01 259.786 151.01C258.778 151.01 258.436 150.398 258.436 149.318V144.458H260.794V143.252H258.436V140.804H257.194L257.014 143.252L255.646 143.342V144.458H256.942V149.3ZM263.528 141.452C264.104 141.452 264.554 141.056 264.554 140.498C264.554 139.922 264.104 139.544 263.528 139.544C262.952 139.544 262.502 139.922 262.502 140.498C262.502 141.056 262.952 141.452 263.528 141.452ZM262.772 152H264.248V143.252H262.772V152ZM266.554 147.644C266.554 150.506 268.408 152.216 270.748 152.216C271.936 152.216 272.872 151.802 273.628 151.316L273.106 150.344C272.458 150.758 271.756 151.028 270.928 151.028C269.254 151.028 268.12 149.84 268.012 147.95H273.916C273.952 147.734 273.97 147.446 273.97 147.14C273.97 144.638 272.71 143.036 270.478 143.036C268.48 143.036 266.554 144.782 266.554 147.644ZM267.994 146.978C268.174 145.214 269.29 144.206 270.514 144.206C271.882 144.206 272.674 145.196 272.674 146.978H267.994ZM268.39 141.686H269.398L270.442 140.372H270.514L271.576 141.686H272.584L271.09 139.544H269.884L268.39 141.686ZM272.08 140.48H272.998L274.654 138.428H273.412L272.08 140.48ZM277.571 151.208C278.381 151.838 279.191 152.216 280.001 152.216C281.999 152.216 283.781 150.47 283.781 147.5C283.781 144.782 282.575 143.036 280.325 143.036C279.299 143.036 278.327 143.594 277.535 144.26H277.481L277.355 143.252H276.131V155.69H277.607V152.738L277.571 151.208ZM277.607 150.056V145.466C278.471 144.692 279.209 144.278 279.947 144.278C281.603 144.278 282.251 145.574 282.251 147.5C282.251 149.66 281.189 150.974 279.749 150.974C279.173 150.974 278.399 150.722 277.607 150.056ZM291.839 152H293.315V145.664C294.197 144.782 294.809 144.314 295.709 144.314C296.861 144.314 297.365 145.016 297.365 146.654V152H298.841V146.456C298.841 144.224 298.013 143.036 296.177 143.036C294.971 143.036 294.089 143.684 293.261 144.476L293.315 142.676V139.184H291.839V152ZM301.504 148.796C301.504 151.028 302.332 152.216 304.186 152.216C305.392 152.216 306.256 151.586 307.066 150.632H307.12L307.246 152H308.47V143.252H306.994V149.462C306.166 150.488 305.536 150.938 304.636 150.938C303.484 150.938 302.998 150.236 302.998 148.598V143.252H301.504V148.796ZM310.989 149.732C310.989 151.298 312.087 152.216 313.563 152.216C314.643 152.216 315.615 151.64 316.461 150.956H316.497L316.623 152H317.847V146.636C317.847 144.458 316.947 143.036 314.805 143.036C313.401 143.036 312.177 143.648 311.367 144.17L311.961 145.196C312.645 144.728 313.545 144.26 314.571 144.26C315.993 144.26 316.371 145.34 316.371 146.456C312.645 146.87 310.989 147.824 310.989 149.732ZM312.447 149.624C312.447 148.508 313.437 147.788 316.371 147.428V149.858C315.525 150.614 314.823 151.028 313.977 151.028C313.113 151.028 312.447 150.614 312.447 149.624ZM312.699 141.686H313.707L314.751 140.372H314.823L315.885 141.686H316.893L315.399 139.544H314.175L312.699 141.686ZM316.389 140.48H317.307L318.963 138.428H317.721L316.389 140.48ZM320.632 152H322.108V145.664C322.99 144.782 323.602 144.314 324.502 144.314C325.654 144.314 326.158 145.016 326.158 146.654V152H327.634V146.456C327.634 144.224 326.806 143.036 324.97 143.036C323.764 143.036 322.864 143.684 322.036 144.512H321.982L321.856 143.252H320.632V152ZM1.476 173.236C1.476 174.514 1.926 175.216 3.042 175.216C3.438 175.216 3.69 175.162 3.888 175.072L3.69 173.956C3.528 173.992 3.456 173.992 3.366 173.992C3.15 173.992 2.952 173.812 2.952 173.344V162.184H1.476V173.236ZM5.93789 171.796C5.93789 174.028 6.76589 175.216 8.61989 175.216C9.82589 175.216 10.6899 174.586 11.4999 173.632H11.5539L11.6799 175H12.9039V166.252H11.4279V172.462C10.5999 173.488 9.96989 173.938 9.06989 173.938C7.91789 173.938 7.43189 173.236 7.43189 171.598V166.252H5.93789V171.796ZM15.2609 177.412L14.9729 178.582C15.2609 178.69 15.6029 178.762 15.9989 178.762C17.7629 178.762 18.6629 177.448 19.2749 175.72L22.5689 166.252H21.1289L19.5629 171.094C19.3289 171.868 19.0769 172.768 18.8249 173.56H18.7529C18.4829 172.75 18.1769 171.85 17.9069 171.094L16.1249 166.252H14.5949L18.1049 175.018L17.9069 175.666C17.5469 176.746 16.9169 177.538 15.9269 177.538C15.7109 177.538 15.4409 177.466 15.2609 177.412ZM23.5389 170.644C23.5389 173.506 25.3929 175.216 27.7329 175.216C28.9209 175.216 29.8569 174.802 30.6129 174.316L30.0909 173.344C29.4429 173.758 28.7409 174.028 27.9129 174.028C26.2389 174.028 25.1049 172.84 24.9969 170.95H30.9009C30.9369 170.734 30.9549 170.446 30.9549 170.14C30.9549 167.638 29.6949 166.036 27.4629 166.036C25.4649 166.036 23.5389 167.782 23.5389 170.644ZM24.9789 169.978C25.1589 168.214 26.2749 167.206 27.4989 167.206C28.8669 167.206 29.6589 168.196 29.6589 169.978H24.9789ZM25.1589 164.686H26.2209L27.4269 163.048H27.4989L28.7049 164.686H29.7849L28.0749 162.148H26.8689L25.1589 164.686ZM27.4269 178.708C27.9849 178.708 28.3989 178.312 28.3989 177.736C28.3989 177.178 27.9849 176.782 27.4269 176.782C26.8689 176.782 26.4549 177.178 26.4549 177.736C26.4549 178.312 26.8689 178.708 27.4269 178.708ZM33.1166 175H34.5926V168.664C35.4746 167.782 36.0866 167.314 36.9866 167.314C38.1386 167.314 38.6426 168.016 38.6426 169.654V175H40.1186V169.456C40.1186 167.224 39.2906 166.036 37.4546 166.036C36.2486 166.036 35.3486 166.684 34.5206 167.512H34.4666L34.3406 166.252H33.1166V175ZM48.489 175H50.217L53.313 166.252H51.855L50.199 171.22C49.947 172.084 49.659 172.966 49.407 173.794H49.335C49.065 172.966 48.777 172.084 48.525 171.22L46.869 166.252H45.339L48.489 175ZM54.2178 172.732C54.2178 174.298 55.3158 175.216 56.7918 175.216C57.8718 175.216 58.8438 174.64 59.6898 173.956H59.7258L59.8518 175H61.0758V169.636C61.0758 167.458 60.1758 166.036 58.0338 166.036C56.6298 166.036 55.4058 166.648 54.5958 167.17L55.1898 168.196C55.8738 167.728 56.7738 167.26 57.7998 167.26C59.2218 167.26 59.5998 168.34 59.5998 169.456C55.8738 169.87 54.2178 170.824 54.2178 172.732ZM55.6758 172.624C55.6758 171.508 56.6658 170.788 59.5998 170.428V172.858C58.7538 173.614 58.0518 174.028 57.2058 174.028C56.3418 174.028 55.6758 173.614 55.6758 172.624ZM58.0518 164.686H59.1858L57.5658 162.148H56.0178L58.0518 164.686ZM73.0434 172.768C72.3234 173.578 71.6214 173.974 70.8114 173.974C69.2814 173.974 68.3994 172.804 68.3994 170.806C68.3994 168.916 69.5154 167.638 70.9194 167.638C71.6394 167.638 72.3054 167.89 73.0434 168.556V172.768ZM75.8334 163.858H74.5374V162.184H73.0434V163.858H70.1454V164.722H73.0434V165.91L73.1154 167.404C72.3414 166.774 71.6754 166.396 70.6674 166.396C68.6694 166.396 66.8694 168.106 66.8694 170.824C66.8694 173.632 68.2914 175.216 70.4874 175.216C71.5314 175.216 72.4494 174.676 73.1154 174.01H73.1694L73.2774 175H74.5374V164.722L75.8334 164.632V163.858ZM77.0518 172.732C77.0518 174.298 78.1498 175.216 79.6258 175.216C80.7058 175.216 81.6778 174.64 82.5238 173.956H82.5598L82.6858 175H83.9098V169.636C83.9098 167.458 83.0098 166.036 80.8678 166.036C79.4638 166.036 78.2398 166.648 77.4298 167.17L78.0238 168.196C78.7078 167.728 79.6078 167.26 80.6338 167.26C82.0558 167.26 82.4338 168.34 82.4338 169.456C78.7078 169.87 77.0518 170.824 77.0518 172.732ZM78.5098 172.624C78.5098 171.508 79.4998 170.788 82.4338 170.428V172.858C81.5878 173.614 80.8858 174.028 80.0398 174.028C79.1758 174.028 78.5098 173.614 78.5098 172.624ZM80.8858 164.686H82.0198L80.3998 162.148H78.8518L80.8858 164.686ZM86.0468 170.644C86.0468 173.542 87.9548 175.216 90.0968 175.216C92.2388 175.216 94.1468 173.542 94.1468 170.644C94.1468 167.71 92.2388 166.036 90.0968 166.036C87.9548 166.036 86.0468 167.71 86.0468 170.644ZM87.5768 170.644C87.5768 168.628 88.6028 167.26 90.0968 167.26C91.6088 167.26 92.6168 168.628 92.6168 170.644C92.6168 172.642 91.6088 173.992 90.0968 173.992C88.6028 173.992 87.5768 172.642 87.5768 170.644ZM100.341 172.3C100.341 174.028 100.971 175.216 102.843 175.216C103.383 175.216 103.977 175.054 104.463 174.892L104.175 173.776C103.887 173.884 103.491 174.01 103.185 174.01C102.177 174.01 101.835 173.398 101.835 172.318V167.458H104.193V166.252H101.835V163.804H100.593L100.413 166.252L99.0453 166.342V167.458H100.341V172.3ZM105.423 172.732C105.423 174.298 106.521 175.216 107.997 175.216C109.077 175.216 110.049 174.64 110.895 173.956H110.931L111.057 175H112.281V169.636C112.281 167.458 111.381 166.036 109.239 166.036C107.835 166.036 106.611 166.648 105.801 167.17L106.395 168.196C107.079 167.728 107.979 167.26 109.005 167.26C110.427 167.26 110.805 168.34 110.805 169.456C107.079 169.87 105.423 170.824 105.423 172.732ZM106.881 172.624C106.881 171.508 107.871 170.788 110.805 170.428V172.858C109.959 173.614 109.257 174.028 108.411 174.028C107.547 174.028 106.881 173.614 106.881 172.624ZM108.933 178.708C109.491 178.708 109.905 178.312 109.905 177.736C109.905 177.178 109.491 176.782 108.933 176.782C108.375 176.782 107.961 177.178 107.961 177.736C107.961 178.312 108.375 178.708 108.933 178.708ZM114.418 170.644C114.418 173.542 116.326 175.216 118.468 175.216C120.61 175.216 122.518 173.542 122.518 170.644C122.518 167.71 120.61 166.036 118.468 166.036C116.326 166.036 114.418 167.71 114.418 170.644ZM115.948 170.644C115.948 168.628 116.974 167.26 118.468 167.26C119.98 167.26 120.988 168.628 120.988 170.644C120.988 172.642 119.98 173.992 118.468 173.992C116.974 173.992 115.948 172.642 115.948 170.644ZM127.812 170.644C127.812 173.542 129.594 175.216 131.916 175.216C132.96 175.216 133.968 174.784 134.76 174.082L134.094 173.11C133.572 173.578 132.87 173.992 132.042 173.992C130.44 173.992 129.342 172.642 129.342 170.644C129.342 168.628 130.494 167.26 132.078 167.26C132.78 167.26 133.32 167.584 133.842 168.034L134.58 167.08C133.986 166.522 133.176 166.036 132.024 166.036C129.774 166.036 127.812 167.71 127.812 170.644ZM136.669 175H138.145V168.664C139.027 167.782 139.639 167.314 140.539 167.314C141.691 167.314 142.195 168.016 142.195 169.654V175H143.671V169.456C143.671 167.224 142.843 166.036 141.007 166.036C139.801 166.036 138.919 166.684 138.091 167.476L138.145 165.676V162.184H136.669V175ZM146.334 171.796C146.334 174.028 147.162 175.216 149.016 175.216C150.222 175.216 151.086 174.586 151.896 173.632H151.95L152.076 175H153.3V166.252H151.824V172.462C150.996 173.488 150.366 173.938 149.466 173.938C148.314 173.938 147.828 173.236 147.828 171.598V166.252H146.334V171.796ZM155.657 177.412L155.369 178.582C155.657 178.69 155.999 178.762 156.395 178.762C158.159 178.762 159.059 177.448 159.671 175.72L162.965 166.252H161.525L159.959 171.094C159.725 171.868 159.473 172.768 159.221 173.56H159.149C158.879 172.75 158.573 171.85 158.303 171.094L156.521 166.252H154.991L158.501 175.018L158.303 175.666C157.943 176.746 157.313 177.538 156.323 177.538C156.107 177.538 155.837 177.466 155.657 177.412ZM163.935 170.644C163.935 173.506 165.789 175.216 168.129 175.216C169.317 175.216 170.253 174.802 171.009 174.316L170.487 173.344C169.839 173.758 169.137 174.028 168.309 174.028C166.635 174.028 165.501 172.84 165.393 170.95H171.297C171.333 170.734 171.351 170.446 171.351 170.14C171.351 167.638 170.091 166.036 167.859 166.036C165.861 166.036 163.935 167.782 163.935 170.644ZM165.375 169.978C165.555 168.214 166.671 167.206 167.895 167.206C169.263 167.206 170.055 168.196 170.055 169.978H165.375ZM165.555 164.686H166.617L167.823 163.048H167.895L169.101 164.686H170.181L168.471 162.148H167.265L165.555 164.686ZM173.513 175H174.989V168.664C175.871 167.782 176.483 167.314 177.383 167.314C178.535 167.314 179.039 168.016 179.039 169.654V175H180.515V169.456C180.515 167.224 179.687 166.036 177.851 166.036C176.645 166.036 175.745 166.684 174.917 167.512H174.863L174.737 166.252H173.513V175ZM186.024 174.01C186.852 174.694 188.04 175.216 189.282 175.216C191.352 175.216 192.486 174.028 192.486 172.606C192.486 170.95 191.082 170.428 189.822 169.96C188.832 169.582 187.878 169.258 187.878 168.448C187.878 167.782 188.382 167.188 189.48 167.188C190.254 167.188 190.884 167.512 191.478 167.962L192.18 167.026C191.514 166.486 190.56 166.036 189.462 166.036C187.572 166.036 186.456 167.116 186.456 168.52C186.456 169.996 187.824 170.59 189.066 171.04C190.02 171.4 191.064 171.796 191.064 172.696C191.064 173.452 190.488 174.064 189.336 174.064C188.292 174.064 187.518 173.632 186.762 173.02L186.024 174.01ZM194.105 172.732C194.105 174.298 195.203 175.216 196.679 175.216C197.759 175.216 198.731 174.64 199.577 173.956H199.613L199.739 175H200.963V169.636C200.963 167.458 200.063 166.036 197.921 166.036C196.517 166.036 195.293 166.648 194.483 167.17L195.077 168.196C195.761 167.728 196.661 167.26 197.687 167.26C199.109 167.26 199.487 168.34 199.487 169.456C195.761 169.87 194.105 170.824 194.105 172.732ZM195.563 172.624C195.563 171.508 196.553 170.788 199.487 170.428V172.858C198.641 173.614 197.939 174.028 197.093 174.028C196.229 174.028 195.563 173.614 195.563 172.624ZM195.599 164.686H196.661L197.867 163.048H197.939L199.145 164.686H200.225L198.515 162.148H197.291L195.599 164.686ZM203.621 171.796C203.621 174.028 204.449 175.216 206.303 175.216C207.509 175.216 208.373 174.586 209.183 173.632H209.237L209.363 175H210.587V166.252H209.111V172.462C208.283 173.488 207.653 173.938 206.753 173.938C205.601 173.938 205.115 173.236 205.115 171.598V166.252H203.621V171.796ZM213.233 174.1C213.233 174.748 213.719 175.216 214.312 175.216C214.889 175.216 215.375 174.748 215.375 174.1C215.375 173.416 214.889 172.948 214.312 172.948C213.719 172.948 213.233 173.416 213.233 174.1Z" fill="white"/>
<path d="M140.726 18H142.472L146.216 6.192H144.686L142.796 12.564C142.4 13.968 142.094 15.084 141.662 16.47H141.59C141.158 15.084 140.87 13.968 140.456 12.564L138.548 6.192H136.964L140.726 18ZM153.281 14.796C153.281 17.028 154.109 18.216 155.963 18.216C157.169 18.216 158.033 17.586 158.843 16.632H158.897L159.023 18H160.247V9.252H158.771V15.462C157.943 16.488 157.313 16.938 156.413 16.938C155.261 16.938 154.775 16.236 154.775 14.598V9.252H153.281V14.796ZM154.325 7.578H155.171C155.261 6.966 155.477 6.66 155.819 6.66C156.431 6.66 156.971 7.578 157.871 7.578C158.771 7.578 159.239 6.75 159.347 5.67H158.501C158.393 6.282 158.195 6.588 157.835 6.588C157.259 6.588 156.701 5.67 155.801 5.67C154.901 5.67 154.433 6.498 154.325 7.578ZM179.437 18H180.895V15.696L182.533 13.788L185.089 18H186.709L183.379 12.762L186.313 9.252H184.675L180.949 13.86H180.895V5.184H179.437V18ZM194.649 18H196.125V11.664C197.007 10.782 197.619 10.314 198.519 10.314C199.671 10.314 200.175 11.016 200.175 12.654V18H201.651V12.456C201.651 10.224 200.823 9.036 198.987 9.036C197.781 9.036 196.899 9.684 196.071 10.476L196.125 8.676V5.184H194.649V18ZM210.74 18H212.216V9.252H210.74V18ZM213.476 5.148H211.928L210.308 7.686H211.442L213.476 5.148ZM231.408 18H232.884V11.664C233.766 10.782 234.378 10.314 235.278 10.314C236.43 10.314 236.934 11.016 236.934 12.654V18H238.41V12.456C238.41 10.224 237.582 9.036 235.746 9.036C234.54 9.036 233.658 9.684 232.83 10.476L232.884 8.676V5.184H231.408V18ZM246.851 13.644C246.851 16.542 248.759 18.216 250.901 18.216C253.043 18.216 254.951 16.542 254.951 13.644C254.951 10.71 253.043 9.036 250.901 9.036C248.759 9.036 246.851 10.71 246.851 13.644ZM248.381 13.644C248.381 11.628 249.407 10.26 250.901 10.26C252.413 10.26 253.421 11.628 253.421 13.644C253.421 15.642 252.413 16.992 250.901 16.992C249.407 16.992 248.381 15.642 248.381 13.644ZM252.899 5.148H251.351L249.731 7.686H250.865L252.899 5.148ZM262.877 15.732C262.877 17.298 263.975 18.216 265.451 18.216C266.531 18.216 267.503 17.64 268.349 16.956H268.385L268.511 18H269.735V12.636C269.735 10.458 268.835 9.036 266.693 9.036C265.289 9.036 264.065 9.648 263.255 10.17L263.849 11.196C264.533 10.728 265.433 10.26 266.459 10.26C267.881 10.26 268.259 11.34 268.259 12.456C264.533 12.87 262.877 13.824 262.877 15.732ZM264.335 15.624C264.335 14.508 265.325 13.788 268.259 13.428V15.858C267.413 16.614 266.711 17.028 265.865 17.028C265.001 17.028 264.335 16.614 264.335 15.624ZM288.758 18H290.234V11.664C291.116 10.782 291.728 10.314 292.628 10.314C293.78 10.314 294.284 11.016 294.284 12.654V18H295.76V12.456C295.76 10.224 294.932 9.036 293.096 9.036C291.89 9.036 291.008 9.684 290.18 10.476L290.234 8.676V5.184H288.758V18ZM304.201 13.644C304.201 16.542 306.109 18.216 308.251 18.216C310.393 18.216 312.301 16.542 312.301 13.644C312.301 10.71 310.393 9.036 308.251 9.036C306.109 9.036 304.201 10.71 304.201 13.644ZM305.731 13.644C305.731 11.628 306.757 10.26 308.251 10.26C309.763 10.26 310.771 11.628 310.771 13.644C310.771 15.642 309.763 16.992 308.251 16.992C306.757 16.992 305.731 15.642 305.731 13.644ZM308.269 21.708C308.827 21.708 309.241 21.312 309.241 20.736C309.241 20.178 308.827 19.782 308.269 19.782C307.711 19.782 307.297 20.178 307.297 20.736C307.297 21.312 307.711 21.708 308.269 21.708ZM320.257 13.644C320.257 16.542 322.039 18.216 324.361 18.216C325.405 18.216 326.413 17.784 327.205 17.082L326.539 16.11C326.017 16.578 325.315 16.992 324.487 16.992C322.885 16.992 321.787 15.642 321.787 13.644C321.787 11.628 322.939 10.26 324.523 10.26C325.225 10.26 325.765 10.584 326.287 11.034L327.025 10.08C326.431 9.522 325.621 9.036 324.469 9.036C322.219 9.036 320.257 10.71 320.257 13.644Z" fill="white" fill-opacity="0.5"/>
<path d="M9.792 67H16.848V41.656H25.44V35.704H1.152V41.656H9.792V67ZM46.0151 27.544H38.5271L34.6871 33.304H40.3031L46.0151 27.544ZM34.9271 54.04L35.6951 51.16C36.5591 48.04 37.4231 44.392 38.1431 41.08H38.3351C39.1991 44.344 40.0151 48.04 40.8791 51.16L41.6471 54.04H34.9271ZM45.0071 67H52.4951L42.6551 35.704H34.2071L24.3671 67H31.5671L33.4871 59.56H43.0871L45.0071 67ZM55.773 67H62.877V35.704H55.773V67ZM86.292 67H93.348V41.656H101.94V35.704H77.652V41.656H86.292V67ZM114.739 70.456C112.483 70.456 110.851 71.992 110.851 74.152C110.851 76.312 112.483 77.848 114.739 77.848C117.043 77.848 118.675 76.312 118.675 74.152C118.675 71.992 117.043 70.456 114.739 70.456ZM111.427 54.04L112.195 51.16C113.059 48.04 113.923 44.392 114.643 41.08H114.835C115.699 44.344 116.515 48.04 117.379 51.16L118.147 54.04H111.427ZM128.995 67L119.155 35.704H110.707L100.867 67H108.067L109.987 59.56H119.587L121.507 67H128.995ZM144.524 67.576C152.972 67.576 158.732 61.432 158.732 51.208C158.732 41.032 152.972 35.128 144.524 35.128C136.124 35.128 130.316 40.984 130.316 51.208C130.316 61.432 136.124 67.576 144.524 67.576ZM144.524 61.48C140.3 61.48 137.564 57.496 137.564 51.208C137.564 44.968 140.3 41.224 144.524 41.224C148.796 41.224 151.484 44.968 151.484 51.208C151.484 57.496 148.796 61.48 144.524 61.48ZM174.554 67H181.082V55.528C181.082 52.456 180.506 47.896 180.17 44.872H180.362L182.858 52.12L187.658 64.264H190.49L195.338 52.12L197.882 44.872H198.074C197.738 47.896 197.162 52.456 197.162 55.528V67H203.786V35.704H196.298L191.21 49.768L189.338 55.24H189.146L187.274 49.768L182.042 35.704H174.554V67ZM225.566 26.728C225.182 28.312 224.51 28.888 223.694 28.888C222.254 28.888 220.526 26.728 217.934 26.728C215.438 26.728 213.278 28.888 212.798 33.256H216.398C216.734 31.672 217.454 31.096 218.27 31.096C219.71 31.096 221.438 33.256 223.982 33.256C226.526 33.256 228.638 31.096 229.166 26.728H225.566ZM217.646 54.04L218.414 51.16C219.278 48.04 220.142 44.392 220.862 41.08H221.054C221.918 44.344 222.734 48.04 223.598 51.16L224.366 54.04H217.646ZM227.726 67H235.214L225.374 35.704H216.926L207.086 67H214.286L216.206 59.56H225.806L227.726 67ZM246.988 51.544C246.988 62.056 253.708 67.576 262.156 67.576C266.524 67.576 270.412 65.752 272.668 63.784V49.384H261.196V55.144H266.38V60.52C265.612 61.144 264.316 61.48 263.068 61.48C257.164 61.48 254.236 57.736 254.236 51.304C254.236 45.016 257.692 41.224 262.492 41.224C265.18 41.224 266.668 42.136 268.252 43.576L272.14 39.208C270.028 37.096 266.812 35.128 262.396 35.128C253.9 35.128 246.988 41.176 246.988 51.544ZM278.992 67H299.104V61.048H286.096V53.848H296.752V47.944H286.096V41.656H298.624V35.704H278.992V67ZM305.195 67H311.963V55.912C311.963 52.216 311.387 48.04 311.051 44.584H311.243L314.315 51.4L322.475 67H329.723V35.704H323.003V46.744C323.003 50.44 323.579 54.856 323.915 58.168H323.723L320.603 51.256L312.443 35.704H305.195V67Z" fill="white"/>
<path d="M170.824 95H175.456C180.04 95 183.112 92.48 183.112 87.104C183.112 81.728 180.04 79.352 175.24 79.352H170.824V95ZM174.376 92.144V82.208H175.048C177.688 82.208 179.488 83.36 179.488 87.104C179.488 90.848 177.688 92.144 175.048 92.144H174.376ZM192.395 95.288C196.619 95.288 199.499 92.216 199.499 87.104C199.499 82.016 196.619 79.064 192.395 79.064C188.195 79.064 185.291 81.992 185.291 87.104C185.291 92.216 188.195 95.288 192.395 95.288ZM192.395 92.24C190.283 92.24 188.915 90.248 188.915 87.104C188.915 83.984 190.283 82.112 192.395 82.112C194.531 82.112 195.875 83.984 195.875 87.104C195.875 90.248 194.531 92.24 192.395 92.24ZM205.471 88.52L205.855 87.08C206.287 85.52 206.719 83.696 207.079 82.04H207.175C207.607 83.672 208.015 85.52 208.447 87.08L208.831 88.52H205.471ZM210.511 95H214.255L209.335 79.352H205.111L200.191 95H203.791L204.751 91.28H209.551L210.511 95ZM215.894 95H219.278V89.456C219.278 87.608 218.99 85.52 218.822 83.792H218.918L220.454 87.2L224.534 95H228.158V79.352H224.798V84.872C224.798 86.72 225.086 88.928 225.254 90.584H225.158L223.598 87.128L219.518 79.352H215.894V95ZM231.832 95H235.384V88.472H240.784V95H244.312V79.352H240.784V85.376H235.384V79.352H231.832V95ZM252.949 95H256.333V89.456C256.333 87.608 256.045 85.52 255.877 83.792H255.973L257.509 87.2L261.589 95H265.213V79.352H261.853V84.872C261.853 86.72 262.141 88.928 262.309 90.584H262.213L260.653 87.128L256.573 79.352H252.949V95ZM268.143 87.272C268.143 92.528 271.503 95.288 275.727 95.288C277.911 95.288 279.855 94.376 280.983 93.392V86.192H275.247V89.072H277.839V91.76C277.455 92.072 276.807 92.24 276.183 92.24C273.23 92.24 271.767 90.368 271.767 87.152C271.767 84.008 273.495 82.112 275.895 82.112C277.239 82.112 277.983 82.568 278.775 83.288L280.719 81.104C279.663 80.048 278.055 79.064 275.847 79.064C271.599 79.064 268.143 82.088 268.143 87.272ZM284.144 95H287.696V88.472H293.096V95H296.624V79.352H293.096V85.376H287.696V79.352H284.144V95ZM300.269 95H303.821V79.352H300.269V95ZM307.465 95H317.521V92.024H311.017V88.424H316.345V85.472H311.017V82.328H317.281V79.352H307.465V95ZM311.209 78.152L312.505 76.688H312.601L313.873 78.152H316.561L314.257 75.272H310.825L308.521 78.152H311.209ZM312.697 100.424C313.825 100.424 314.641 99.656 314.641 98.576C314.641 97.496 313.825 96.728 312.697 96.728C311.545 96.728 310.729 97.496 310.729 98.576C310.729 99.656 311.545 100.424 312.697 100.424ZM320.566 95H324.118V89.696H326.278C329.59 89.696 332.398 88.064 332.398 84.392C332.398 80.6 329.686 79.352 326.278 79.352H320.566V95ZM324.118 86.888V82.16H326.062C327.934 82.16 328.942 82.76 328.942 84.392C328.942 86.024 328.006 86.888 326.062 86.888H324.118Z" fill="white"/>
</svg>
