<svg width="355" height="204" viewBox="0 0 355 204" fill="none" xmlns="http://www.w3.org/2000/svg">
<path d="M9.792 59V33.656H1.2V27.704H25.488V33.656H16.896V59H9.792ZM30.3679 59V27.704H37.4239V39.752H48.2239V27.704H55.3279V59H48.2239V45.944H37.4239V59H30.3679ZM75.0476 59.576C70.9836 59.576 67.8796 58.376 65.7356 55.976C63.5916 53.576 62.5196 49.752 62.5196 44.504V27.704H69.6236V45.224C69.6236 48.296 70.0876 50.44 71.0156 51.656C71.9436 52.872 73.2876 53.48 75.0476 53.48C76.8076 53.48 78.1676 52.872 79.1276 51.656C80.0876 50.44 80.5676 48.296 80.5676 45.224V27.704H83.9276C84.4076 27.672 84.8876 27.608 85.3676 27.512C85.8476 27.416 86.2636 27.256 86.6156 27.032C86.9996 26.776 87.3036 26.424 87.5276 25.976C87.7836 25.528 87.9116 24.936 87.9116 24.2C87.9116 23.56 87.8316 22.968 87.6716 22.424C87.5116 21.88 87.3356 21.432 87.1436 21.08L92.3756 18.968C92.7276 19.512 93.0476 20.2 93.3356 21.032C93.6556 21.832 93.8156 22.712 93.8156 23.672C93.8156 25.656 93.2396 27.176 92.0876 28.232C90.9676 29.256 89.3996 29.944 87.3836 30.296V44.504C87.3836 49.752 86.3276 53.576 84.2156 55.976C82.1356 58.376 79.0796 59.576 75.0476 59.576ZM108.245 59.576C106.133 59.576 104.197 59.208 102.437 58.472C100.709 57.704 99.2213 56.616 97.9733 55.208C96.7253 53.8 95.7493 52.088 95.0453 50.072C94.3733 48.056 94.0373 45.768 94.0373 43.208C94.0373 40.648 94.3733 38.376 95.0453 36.392C95.7493 34.376 96.7253 32.696 97.9733 31.352C99.2213 29.976 100.709 28.936 102.437 28.232C104.197 27.496 106.133 27.128 108.245 27.128C110.709 27.128 112.933 27.624 114.917 28.616C115.845 28.36 116.549 27.976 117.029 27.464C117.541 26.952 117.797 26.184 117.797 25.16C117.797 24.52 117.717 23.928 117.557 23.384C117.397 22.84 117.221 22.392 117.029 22.04L122.261 19.928C122.645 20.472 122.981 21.16 123.269 21.992C123.557 22.792 123.701 23.672 123.701 24.632C123.701 26.36 123.237 27.736 122.309 28.76C121.381 29.752 120.005 30.488 118.181 30.968C119.525 32.376 120.565 34.104 121.301 36.152C122.069 38.168 122.453 40.52 122.453 43.208C122.453 45.768 122.101 48.056 121.397 50.072C120.725 52.088 119.765 53.8 118.517 55.208C117.269 56.616 115.765 57.704 114.005 58.472C112.277 59.208 110.357 59.576 108.245 59.576ZM108.245 53.48C110.389 53.48 112.085 52.568 113.333 50.744C114.581 48.888 115.205 46.376 115.205 43.208C115.205 40.072 114.581 37.624 113.333 35.864C112.085 34.104 110.389 33.224 108.245 33.224C106.101 33.224 104.405 34.104 103.157 35.864C101.909 37.624 101.285 40.072 101.285 43.208C101.285 46.376 101.909 48.888 103.157 50.744C104.405 52.568 106.101 53.48 108.245 53.48ZM128.29 59V27.704H135.538L143.698 43.256L146.77 50.168H146.962C146.802 48.504 146.61 46.648 146.386 44.6C146.194 42.552 146.098 40.6 146.098 38.744V27.704H152.818V59H145.57L137.41 43.4L134.338 36.584H134.146C134.306 38.312 134.482 40.168 134.674 42.152C134.898 44.136 135.01 46.056 135.01 47.912V59H128.29ZM174.036 59.576C171.892 59.576 169.876 59.24 167.988 58.568C166.132 57.864 164.516 56.84 163.14 55.496C161.764 54.152 160.676 52.488 159.876 50.504C159.108 48.488 158.724 46.168 158.724 43.544C158.724 40.952 159.124 38.648 159.924 36.632C160.724 34.584 161.812 32.856 163.188 31.448C164.596 30.04 166.228 28.968 168.084 28.232C169.94 27.496 171.908 27.128 173.988 27.128C176.26 27.128 178.212 27.544 179.844 28.376C181.476 29.208 182.804 30.152 183.828 31.208L180.132 35.72C179.332 35.016 178.484 34.424 177.588 33.944C176.692 33.464 175.572 33.224 174.228 33.224C173.012 33.224 171.892 33.464 170.868 33.944C169.876 34.392 169.012 35.048 168.276 35.912C167.54 36.776 166.964 37.832 166.548 39.08C166.164 40.328 165.972 41.736 165.972 43.304C165.972 46.536 166.692 49.048 168.132 50.84C169.604 52.6 171.812 53.48 174.756 53.48C175.396 53.48 176.02 53.4 176.628 53.24C177.236 53.08 177.732 52.84 178.116 52.52V47.144H172.932V41.384H184.356V55.784C183.268 56.84 181.828 57.736 180.036 58.472C178.244 59.208 176.244 59.576 174.036 59.576ZM200.43 59V27.704H208.158L213.198 41.624C213.518 42.552 213.822 43.512 214.11 44.504C214.398 45.464 214.702 46.424 215.022 47.384H215.214C215.534 46.424 215.822 45.464 216.078 44.504C216.366 43.512 216.67 42.552 216.99 41.624L221.934 27.704H229.614V59H223.182V47.528C223.182 46.76 223.214 45.912 223.278 44.984C223.342 44.056 223.422 43.128 223.518 42.2C223.614 41.24 223.71 40.312 223.806 39.416C223.902 38.488 223.998 37.64 224.094 36.872H223.902L221.358 44.312L216.894 56.264H213.006L208.542 44.312L206.046 36.872H205.854C205.95 37.64 206.046 38.488 206.142 39.416C206.238 40.312 206.334 41.24 206.43 42.2C206.526 43.128 206.606 44.056 206.67 44.984C206.734 45.912 206.766 46.76 206.766 47.528V59H200.43ZM244.337 43.16L243.569 46.04H250.241L249.521 43.16C249.073 41.592 248.641 39.928 248.225 38.168C247.809 36.408 247.393 34.712 246.977 33.08H246.785C246.401 34.744 246.001 36.456 245.585 38.216C245.201 39.944 244.785 41.592 244.337 43.16ZM233.009 59L242.801 27.704H251.297L261.089 59H253.601L251.681 51.56H242.129L240.209 59H233.009ZM246.881 69.8C245.729 69.8 244.785 69.448 244.049 68.744C243.345 68.072 242.993 67.192 242.993 66.104C242.993 65.016 243.345 64.12 244.049 63.416C244.785 62.744 245.729 62.408 246.881 62.408C248.033 62.408 248.961 62.744 249.665 63.416C250.401 64.12 250.769 65.016 250.769 66.104C250.769 67.192 250.401 68.072 249.665 68.744C248.961 69.448 248.033 69.8 246.881 69.8ZM264.509 59V27.704H271.565V59H264.509Z" fill="white"/>
<path d="M79.95 103.425V98.475L85.65 98.1V77.1H99.45C103.2 77.1 106.575 77.575 109.575 78.525C112.575 79.475 115.15 80.95 117.3 82.95C119.45 84.9 121.1 87.4 122.25 90.45C123.4 93.5 123.975 97.125 123.975 101.325C123.975 105.525 123.4 109.175 122.25 112.275C121.1 115.375 119.475 117.95 117.375 120C115.275 122 112.75 123.5 109.8 124.5C106.9 125.5 103.65 126 100.05 126H85.65V103.425H79.95ZM96.675 117.075H98.775C100.875 117.075 102.775 116.8 104.475 116.25C106.175 115.7 107.625 114.825 108.825 113.625C110.025 112.375 110.95 110.75 111.6 108.75C112.3 106.75 112.65 104.275 112.65 101.325C112.65 98.425 112.3 96 111.6 94.05C110.95 92.05 110.025 90.475 108.825 89.325C107.625 88.125 106.175 87.275 104.475 86.775C102.775 86.275 100.875 86.025 98.775 86.025H96.675V98.1H106.05V103.425H96.675V117.075ZM133.287 126V77.1H144.312V126H133.287ZM155.845 126V77.1H186.445V86.4H166.87V96.225H183.52V105.45H166.87V116.7H187.195V126H155.845ZM158.92 71.7L165.67 63.375H177.67L184.42 71.7L179.62 74.625L171.82 68.325H171.52L163.72 74.625L158.92 71.7ZM172.195 142.875C170.395 142.875 168.92 142.325 167.77 141.225C166.67 140.175 166.12 138.8 166.12 137.1C166.12 135.4 166.67 134 167.77 132.9C168.92 131.85 170.395 131.325 172.195 131.325C173.995 131.325 175.445 131.85 176.545 132.9C177.695 134 178.27 135.4 178.27 137.1C178.27 138.8 177.695 140.175 176.545 141.225C175.445 142.325 173.995 142.875 172.195 142.875ZM196.934 126V77.1H208.259L221.009 101.4L225.809 112.2H226.109C225.859 109.6 225.559 106.7 225.209 103.5C224.909 100.3 224.759 97.25 224.759 94.35V77.1H235.259V126H223.934L211.184 101.625L206.384 90.975H206.084C206.334 93.675 206.609 96.575 206.909 99.675C207.259 102.775 207.434 105.775 207.434 108.675V126H196.934ZM271.352 126V86.4H257.927V77.1H295.877V86.4H282.452V126H271.352ZM322.777 126.9C316.427 126.9 311.577 125.025 308.227 121.275C304.877 117.525 303.202 111.55 303.202 103.35V77.1H314.302V104.475C314.302 109.275 315.027 112.625 316.477 114.525C317.927 116.425 320.027 117.375 322.777 117.375C325.527 117.375 327.652 116.425 329.152 114.525C330.652 112.625 331.402 109.275 331.402 104.475V77.1H336.652C337.402 77.05 338.152 76.95 338.902 76.8C339.652 76.65 340.302 76.4 340.852 76.05C341.452 75.65 341.927 75.1 342.277 74.4C342.677 73.7 342.877 72.775 342.877 71.625C342.877 70.625 342.752 69.7 342.502 68.85C342.252 68 341.977 67.3 341.677 66.75L349.852 63.45C350.402 64.3 350.902 65.375 351.352 66.675C351.852 67.925 352.102 69.3 352.102 70.8C352.102 73.9 351.202 76.275 349.402 77.925C347.652 79.525 345.202 80.6 342.052 81.15V103.35C342.052 111.55 340.402 117.525 337.102 121.275C333.852 125.025 329.077 126.9 322.777 126.9ZM319.402 74.175L318.502 69.825C319.452 69.625 320.252 69.375 320.902 69.075C321.552 68.775 321.877 68.275 321.877 67.575C321.877 66.875 321.427 66.325 320.527 65.925C319.627 65.475 318.077 65.175 315.877 65.025L317.152 59.55C321.802 59.65 325.077 60.325 326.977 61.575C328.877 62.775 329.827 64.375 329.827 66.375C329.827 67.675 329.552 68.8 329.002 69.75C328.452 70.65 327.702 71.425 326.752 72.075C325.802 72.675 324.677 73.15 323.377 73.5C322.127 73.85 320.802 74.075 319.402 74.175Z" fill="white"/>
<path d="M203.78 18L200 6.192H201.602L203.492 12.564C203.708 13.272 203.894 13.926 204.05 14.526C204.218 15.126 204.416 15.774 204.644 16.47H204.716C204.932 15.774 205.124 15.126 205.292 14.526C205.46 13.926 205.646 13.272 205.85 12.564L207.74 6.192H209.27L205.526 18H203.78ZM216.801 18.216C215.865 18.216 215.181 17.928 214.749 17.352C214.329 16.776 214.119 15.924 214.119 14.796V9.252H215.613V14.598C215.613 15.426 215.739 16.026 215.991 16.398C216.255 16.758 216.675 16.938 217.251 16.938C217.707 16.938 218.109 16.824 218.457 16.596C218.805 16.356 219.189 15.978 219.609 15.462V9.252H221.085V18H219.861L219.735 16.632H219.681C219.273 17.112 218.841 17.496 218.385 17.784C217.941 18.072 217.413 18.216 216.801 18.216ZM218.961 7.614C218.637 7.614 218.361 7.536 218.133 7.38C217.905 7.224 217.695 7.05 217.503 6.858C217.311 6.666 217.125 6.492 216.945 6.336C216.777 6.18 216.591 6.102 216.387 6.102C216.111 6.102 215.907 6.234 215.775 6.498C215.643 6.762 215.565 7.104 215.541 7.524L214.551 7.47C214.563 7.122 214.605 6.798 214.677 6.498C214.761 6.198 214.875 5.94 215.019 5.724C215.163 5.508 215.343 5.34 215.559 5.22C215.787 5.088 216.057 5.022 216.369 5.022C216.693 5.022 216.969 5.1 217.197 5.256C217.425 5.412 217.635 5.586 217.827 5.778C218.019 5.97 218.199 6.144 218.367 6.3C218.547 6.456 218.745 6.534 218.961 6.534C219.225 6.534 219.423 6.402 219.555 6.138C219.687 5.874 219.765 5.532 219.789 5.112L220.779 5.184C220.767 5.532 220.719 5.856 220.635 6.156C220.563 6.444 220.455 6.696 220.311 6.912C220.167 7.128 219.981 7.302 219.753 7.434C219.537 7.554 219.273 7.614 218.961 7.614ZM235.739 18V5.184H237.197V13.86H237.251L240.977 9.252H242.615L239.681 12.762L243.011 18H241.391L238.835 13.788L237.197 15.696V18H235.739ZM248.701 18V5.184H250.177V8.676L250.123 10.476C250.543 10.08 250.981 9.744 251.437 9.468C251.893 9.18 252.427 9.036 253.039 9.036C253.963 9.036 254.635 9.324 255.055 9.9C255.487 10.476 255.703 11.328 255.703 12.456V18H254.227V12.654C254.227 11.826 254.095 11.232 253.831 10.872C253.567 10.5 253.147 10.314 252.571 10.314C252.115 10.314 251.713 10.428 251.365 10.656C251.017 10.884 250.621 11.22 250.177 11.664V18H248.701ZM262.542 18V9.252H264.018V18H262.542ZM263.028 7.686L262.272 6.948L264.81 3.942L265.854 4.932L263.028 7.686ZM281.43 18.216C280.962 18.216 280.566 18.144 280.242 18C279.93 17.856 279.672 17.658 279.468 17.406C279.276 17.154 279.138 16.848 279.054 16.488C278.97 16.128 278.928 15.732 278.928 15.3V10.458H277.632V9.342L279 9.252L279.18 6.804H280.422V9.252H282.78V10.458H280.422V15.318C280.422 15.858 280.518 16.278 280.71 16.578C280.914 16.866 281.268 17.01 281.772 17.01C281.928 17.01 282.096 16.986 282.276 16.938C282.456 16.89 282.618 16.836 282.762 16.776L283.05 17.892C282.81 17.976 282.546 18.048 282.258 18.108C281.982 18.18 281.706 18.216 281.43 18.216ZM290.437 18.216C289.705 18.216 289.093 18 288.601 17.568C288.121 17.136 287.881 16.524 287.881 15.732C287.881 14.772 288.307 14.04 289.159 13.536C290.011 13.02 291.373 12.66 293.245 12.456C293.245 12.18 293.215 11.91 293.155 11.646C293.107 11.382 293.017 11.148 292.885 10.944C292.753 10.74 292.567 10.578 292.327 10.458C292.099 10.326 291.805 10.26 291.445 10.26C290.941 10.26 290.467 10.356 290.023 10.548C289.579 10.74 289.183 10.956 288.835 11.196L288.259 10.17C288.667 9.906 289.165 9.654 289.753 9.414C290.341 9.162 290.989 9.036 291.697 9.036C292.765 9.036 293.539 9.366 294.019 10.026C294.499 10.674 294.739 11.544 294.739 12.636V18H293.515L293.389 16.956H293.335C292.915 17.304 292.465 17.604 291.985 17.856C291.505 18.096 290.989 18.216 290.437 18.216ZM290.869 17.028C291.289 17.028 291.685 16.932 292.057 16.74C292.429 16.536 292.825 16.242 293.245 15.858V13.428C292.513 13.524 291.895 13.638 291.391 13.77C290.899 13.902 290.497 14.058 290.185 14.238C289.885 14.418 289.663 14.628 289.519 14.868C289.387 15.096 289.321 15.348 289.321 15.624C289.321 16.128 289.471 16.488 289.771 16.704C290.071 16.92 290.437 17.028 290.869 17.028ZM289.771 7.74L289.249 7.128L291.049 5.472H292.273L294.073 7.128L293.551 7.74L291.697 6.444H291.625L289.771 7.74ZM289.879 5.976L289.249 6.534L287.215 4.518L288.079 3.87L289.879 5.976ZM301.541 18V9.252H302.765L302.891 10.512H302.945C303.329 10.092 303.743 9.744 304.187 9.468C304.643 9.18 305.135 9.036 305.663 9.036C306.335 9.036 306.857 9.186 307.229 9.486C307.613 9.774 307.895 10.182 308.075 10.71C308.531 10.206 308.987 9.804 309.443 9.504C309.911 9.192 310.415 9.036 310.955 9.036C311.855 9.036 312.521 9.324 312.953 9.9C313.397 10.476 313.619 11.328 313.619 12.456V18H312.143V12.654C312.143 11.826 312.011 11.232 311.747 10.872C311.483 10.5 311.075 10.314 310.523 10.314C309.863 10.314 309.131 10.764 308.327 11.664V18H306.851V12.654C306.851 11.826 306.719 11.232 306.455 10.872C306.191 10.5 305.777 10.314 305.213 10.314C304.553 10.314 303.821 10.764 303.017 11.664V18H301.541ZM326.945 18L329.807 13.428L327.161 9.252H328.763L329.933 11.178C330.065 11.418 330.203 11.664 330.347 11.916C330.491 12.156 330.641 12.396 330.797 12.636H330.869C331.001 12.396 331.133 12.156 331.265 11.916C331.397 11.664 331.529 11.418 331.661 11.178L332.723 9.252H334.271L331.625 13.59L334.469 18H332.867L331.589 15.966C331.433 15.702 331.277 15.438 331.121 15.174C330.965 14.91 330.803 14.652 330.635 14.4H330.563C330.407 14.652 330.257 14.91 330.113 15.174C329.969 15.426 329.825 15.69 329.681 15.966L328.493 18H326.945ZM342.092 18.216C341.36 18.216 340.748 18 340.256 17.568C339.776 17.136 339.536 16.524 339.536 15.732C339.536 14.772 339.962 14.04 340.814 13.536C341.666 13.02 343.028 12.66 344.9 12.456C344.9 12.18 344.87 11.91 344.81 11.646C344.762 11.382 344.672 11.148 344.54 10.944C344.408 10.74 344.222 10.578 343.982 10.458C343.754 10.326 343.46 10.26 343.1 10.26C342.596 10.26 342.122 10.356 341.678 10.548C341.234 10.74 340.838 10.956 340.49 11.196L339.914 10.17C340.322 9.906 340.82 9.654 341.408 9.414C341.996 9.162 342.644 9.036 343.352 9.036C344.42 9.036 345.194 9.366 345.674 10.026C346.154 10.674 346.394 11.544 346.394 12.636V18H345.17L345.044 16.956H344.99C344.57 17.304 344.12 17.604 343.64 17.856C343.16 18.096 342.644 18.216 342.092 18.216ZM342.524 17.028C342.944 17.028 343.34 16.932 343.712 16.74C344.084 16.536 344.48 16.242 344.9 15.858V13.428C344.168 13.524 343.55 13.638 343.046 13.77C342.554 13.902 342.152 14.058 341.84 14.238C341.54 14.418 341.318 14.628 341.174 14.868C341.042 15.096 340.976 15.348 340.976 15.624C340.976 16.128 341.126 16.488 341.426 16.704C341.726 16.92 342.092 17.028 342.524 17.028Z" fill="white" fill-opacity="0.5"/>
<path d="M79.62 169V157.192H83.13C83.73 157.192 84.276 157.246 84.768 157.354C85.272 157.462 85.698 157.63 86.046 157.858C86.406 158.086 86.682 158.386 86.874 158.758C87.078 159.118 87.18 159.556 87.18 160.072C87.18 160.66 87.03 161.194 86.73 161.674C86.442 162.142 86.016 162.466 85.452 162.646V162.718C86.172 162.85 86.754 163.15 87.198 163.618C87.642 164.086 87.864 164.728 87.864 165.544C87.864 166.12 87.756 166.624 87.54 167.056C87.324 167.488 87.018 167.848 86.622 168.136C86.226 168.424 85.752 168.64 85.2 168.784C84.648 168.928 84.042 169 83.382 169H79.62ZM81.114 162.214H82.86C83.868 162.214 84.594 162.04 85.038 161.692C85.482 161.344 85.704 160.87 85.704 160.27C85.704 159.586 85.47 159.1 85.002 158.812C84.546 158.524 83.856 158.38 82.932 158.38H81.114V162.214ZM81.114 167.812H83.166C84.186 167.812 84.978 167.626 85.542 167.254C86.106 166.87 86.388 166.282 86.388 165.49C86.388 164.758 86.112 164.224 85.56 163.888C85.008 163.54 84.21 163.366 83.166 163.366H81.114V167.812ZM92.614 169.216C91.678 169.216 90.994 168.928 90.562 168.352C90.142 167.776 89.932 166.924 89.932 165.796V160.252H91.426V165.598C91.426 166.426 91.552 167.026 91.804 167.398C92.068 167.758 92.488 167.938 93.064 167.938C93.52 167.938 93.922 167.824 94.27 167.596C94.618 167.356 95.002 166.978 95.422 166.462V160.252H96.898V169H95.674L95.548 167.632H95.494C95.086 168.112 94.654 168.496 94.198 168.784C93.754 169.072 93.226 169.216 92.614 169.216ZM93.73 158.686L90.904 155.932L91.948 154.942L94.486 157.948L93.73 158.686ZM99.849 169V160.252H101.073L101.199 161.512H101.253C101.673 161.092 102.111 160.744 102.567 160.468C103.035 160.18 103.575 160.036 104.187 160.036C105.111 160.036 105.783 160.324 106.203 160.9C106.635 161.476 106.851 162.328 106.851 163.456V169H105.375V163.654C105.375 162.826 105.243 162.232 104.979 161.872C104.715 161.5 104.295 161.314 103.719 161.314C103.263 161.314 102.861 161.428 102.513 161.656C102.165 161.884 101.769 162.22 101.325 162.664V169H99.849ZM112.645 173.032C112.105 173.032 111.613 172.978 111.169 172.87C110.725 172.774 110.341 172.624 110.017 172.42C109.705 172.216 109.459 171.97 109.279 171.682C109.111 171.394 109.027 171.058 109.027 170.674C109.027 170.302 109.141 169.948 109.369 169.612C109.597 169.276 109.909 168.97 110.305 168.694V168.622C110.089 168.49 109.903 168.31 109.747 168.082C109.603 167.842 109.531 167.548 109.531 167.2C109.531 166.828 109.633 166.504 109.837 166.228C110.041 165.952 110.257 165.736 110.485 165.58V165.508C110.197 165.268 109.933 164.95 109.693 164.554C109.465 164.146 109.351 163.678 109.351 163.15C109.351 162.67 109.435 162.238 109.603 161.854C109.783 161.47 110.023 161.146 110.323 160.882C110.623 160.606 110.971 160.396 111.367 160.252C111.775 160.108 112.201 160.036 112.645 160.036C112.885 160.036 113.107 160.06 113.311 160.108C113.527 160.144 113.719 160.192 113.887 160.252H116.929V161.386H115.129C115.333 161.59 115.501 161.848 115.633 162.16C115.777 162.472 115.849 162.814 115.849 163.186C115.849 163.654 115.765 164.08 115.597 164.464C115.429 164.836 115.201 165.154 114.913 165.418C114.625 165.67 114.283 165.868 113.887 166.012C113.503 166.156 113.089 166.228 112.645 166.228C112.429 166.228 112.207 166.204 111.979 166.156C111.751 166.096 111.535 166.018 111.331 165.922C111.175 166.054 111.043 166.204 110.935 166.372C110.827 166.528 110.773 166.726 110.773 166.966C110.773 167.242 110.881 167.47 111.097 167.65C111.313 167.83 111.721 167.92 112.321 167.92H114.013C115.033 167.92 115.795 168.088 116.299 168.424C116.815 168.748 117.073 169.276 117.073 170.008C117.073 170.416 116.971 170.8 116.767 171.16C116.563 171.532 116.269 171.856 115.885 172.132C115.501 172.408 115.033 172.624 114.481 172.78C113.941 172.948 113.329 173.032 112.645 173.032ZM112.645 165.238C112.897 165.238 113.131 165.19 113.347 165.094C113.575 164.998 113.773 164.86 113.941 164.68C114.121 164.5 114.259 164.284 114.355 164.032C114.451 163.768 114.499 163.474 114.499 163.15C114.499 162.502 114.319 162.004 113.959 161.656C113.599 161.296 113.161 161.116 112.645 161.116C112.129 161.116 111.691 161.296 111.331 161.656C110.971 162.004 110.791 162.502 110.791 163.15C110.791 163.474 110.839 163.768 110.935 164.032C111.031 164.284 111.163 164.5 111.331 164.68C111.511 164.86 111.709 164.998 111.925 165.094C112.153 165.19 112.393 165.238 112.645 165.238ZM112.861 172.006C113.281 172.006 113.659 171.952 113.995 171.844C114.343 171.748 114.637 171.616 114.877 171.448C115.117 171.292 115.303 171.106 115.435 170.89C115.567 170.674 115.633 170.452 115.633 170.224C115.633 169.816 115.483 169.534 115.183 169.378C114.883 169.222 114.445 169.144 113.869 169.144H112.357C112.189 169.144 112.003 169.132 111.799 169.108C111.607 169.096 111.415 169.06 111.223 169C110.911 169.228 110.683 169.468 110.539 169.72C110.395 169.972 110.323 170.224 110.323 170.476C110.323 170.944 110.545 171.316 110.989 171.592C111.445 171.868 112.069 172.006 112.861 172.006ZM122.367 169V160.252H123.591L123.717 161.512H123.771C124.191 161.092 124.629 160.744 125.085 160.468C125.553 160.18 126.093 160.036 126.705 160.036C127.629 160.036 128.301 160.324 128.721 160.9C129.153 161.476 129.369 162.328 129.369 163.456V169H127.893V163.654C127.893 162.826 127.761 162.232 127.497 161.872C127.233 161.5 126.813 161.314 126.237 161.314C125.781 161.314 125.379 161.428 125.031 161.656C124.683 161.884 124.287 162.22 123.843 162.664V169H122.367ZM135.612 169.216C135.072 169.216 134.556 169.114 134.064 168.91C133.584 168.706 133.158 168.412 132.786 168.028C132.414 167.632 132.114 167.152 131.886 166.588C131.67 166.012 131.562 165.364 131.562 164.644C131.562 163.912 131.67 163.264 131.886 162.7C132.114 162.124 132.414 161.638 132.786 161.242C133.158 160.846 133.584 160.546 134.064 160.342C134.556 160.138 135.072 160.036 135.612 160.036C136.152 160.036 136.662 160.138 137.142 160.342C137.634 160.546 138.066 160.846 138.438 161.242C138.81 161.638 139.104 162.124 139.32 162.7C139.548 163.264 139.662 163.912 139.662 164.644C139.662 165.364 139.548 166.012 139.32 166.588C139.104 167.152 138.81 167.632 138.438 168.028C138.066 168.412 137.634 168.706 137.142 168.91C136.662 169.114 136.152 169.216 135.612 169.216ZM135.612 167.992C135.984 167.992 136.326 167.914 136.638 167.758C136.95 167.59 137.214 167.362 137.43 167.074C137.658 166.774 137.832 166.42 137.952 166.012C138.072 165.604 138.132 165.148 138.132 164.644C138.132 164.14 138.072 163.684 137.952 163.276C137.832 162.856 137.658 162.496 137.43 162.196C137.214 161.896 136.95 161.668 136.638 161.512C136.326 161.344 135.984 161.26 135.612 161.26C135.24 161.26 134.898 161.344 134.586 161.512C134.274 161.668 134.004 161.896 133.776 162.196C133.56 162.496 133.392 162.856 133.272 163.276C133.152 163.684 133.092 164.14 133.092 164.644C133.092 165.148 133.152 165.604 133.272 166.012C133.392 166.42 133.56 166.774 133.776 167.074C134.004 167.362 134.274 167.59 134.586 167.758C134.898 167.914 135.24 167.992 135.612 167.992ZM133.722 158.74L133.2 158.128L135 156.472H136.224L138.024 158.128L137.502 158.74L135.648 157.444H135.576L133.722 158.74ZM137.7 157.57L137.538 156.94C137.766 156.88 137.946 156.796 138.078 156.688C138.222 156.58 138.294 156.43 138.294 156.238C138.294 155.998 138.198 155.824 138.006 155.716C137.814 155.596 137.496 155.524 137.052 155.5L137.178 154.762C137.886 154.786 138.426 154.906 138.798 155.122C139.182 155.338 139.374 155.656 139.374 156.076C139.374 156.316 139.326 156.52 139.23 156.688C139.134 156.856 139.008 157 138.852 157.12C138.696 157.228 138.516 157.318 138.312 157.39C138.12 157.462 137.916 157.522 137.7 157.57ZM148.558 169.216C147.454 169.216 146.572 168.82 145.912 168.028C145.264 167.236 144.94 166.108 144.94 164.644C144.94 163.936 145.042 163.3 145.246 162.736C145.462 162.16 145.744 161.674 146.092 161.278C146.44 160.882 146.842 160.576 147.298 160.36C147.754 160.144 148.234 160.036 148.738 160.036C149.242 160.036 149.68 160.126 150.052 160.306C150.424 160.486 150.802 160.732 151.186 161.044L151.114 159.55V156.184H152.608V169H151.384L151.258 167.974H151.204C150.856 168.31 150.454 168.604 149.998 168.856C149.554 169.096 149.074 169.216 148.558 169.216ZM148.882 167.974C149.29 167.974 149.674 167.878 150.034 167.686C150.394 167.482 150.754 167.176 151.114 166.768V162.196C150.742 161.86 150.382 161.626 150.034 161.494C149.698 161.35 149.35 161.278 148.99 161.278C148.642 161.278 148.312 161.362 148 161.53C147.7 161.686 147.436 161.914 147.208 162.214C146.98 162.502 146.8 162.85 146.668 163.258C146.536 163.666 146.47 164.122 146.47 164.626C146.47 165.682 146.68 166.504 147.1 167.092C147.52 167.68 148.114 167.974 148.882 167.974ZM158.956 169.216C158.416 169.216 157.9 169.114 157.408 168.91C156.928 168.706 156.502 168.412 156.13 168.028C155.758 167.632 155.458 167.152 155.23 166.588C155.014 166.012 154.906 165.364 154.906 164.644C154.906 163.912 155.014 163.264 155.23 162.7C155.458 162.124 155.758 161.638 156.13 161.242C156.502 160.846 156.928 160.546 157.408 160.342C157.9 160.138 158.416 160.036 158.956 160.036C159.496 160.036 160.006 160.138 160.486 160.342C160.978 160.546 161.41 160.846 161.782 161.242C162.154 161.638 162.448 162.124 162.664 162.7C162.892 163.264 163.006 163.912 163.006 164.644C163.006 165.364 162.892 166.012 162.664 166.588C162.448 167.152 162.154 167.632 161.782 168.028C161.41 168.412 160.978 168.706 160.486 168.91C160.006 169.114 159.496 169.216 158.956 169.216ZM158.956 167.992C159.328 167.992 159.67 167.914 159.982 167.758C160.294 167.59 160.558 167.362 160.774 167.074C161.002 166.774 161.176 166.42 161.296 166.012C161.416 165.604 161.476 165.148 161.476 164.644C161.476 164.14 161.416 163.684 161.296 163.276C161.176 162.856 161.002 162.496 160.774 162.196C160.558 161.896 160.294 161.668 159.982 161.512C159.67 161.344 159.328 161.26 158.956 161.26C158.584 161.26 158.242 161.344 157.93 161.512C157.618 161.668 157.348 161.896 157.12 162.196C156.904 162.496 156.736 162.856 156.616 163.276C156.496 163.684 156.436 164.14 156.436 164.644C156.436 165.148 156.496 165.604 156.616 166.012C156.736 166.42 156.904 166.774 157.12 167.074C157.348 167.362 157.618 167.59 157.93 167.758C158.242 167.914 158.584 167.992 158.956 167.992ZM167.08 169.216C166.348 169.216 165.736 169 165.244 168.568C164.764 168.136 164.524 167.524 164.524 166.732C164.524 165.772 164.95 165.04 165.802 164.536C166.654 164.02 168.016 163.66 169.888 163.456C169.888 163.18 169.858 162.91 169.798 162.646C169.75 162.382 169.66 162.148 169.528 161.944C169.396 161.74 169.21 161.578 168.97 161.458C168.742 161.326 168.448 161.26 168.088 161.26C167.584 161.26 167.11 161.356 166.666 161.548C166.222 161.74 165.826 161.956 165.478 162.196L164.902 161.17C165.31 160.906 165.808 160.654 166.396 160.414C166.984 160.162 167.632 160.036 168.34 160.036C169.408 160.036 170.182 160.366 170.662 161.026C171.142 161.674 171.382 162.544 171.382 163.636V169H170.158L170.032 167.956H169.978C169.558 168.304 169.108 168.604 168.628 168.856C168.148 169.096 167.632 169.216 167.08 169.216ZM167.512 168.028C167.932 168.028 168.328 167.932 168.7 167.74C169.072 167.536 169.468 167.242 169.888 166.858V164.428C169.156 164.524 168.538 164.638 168.034 164.77C167.542 164.902 167.14 165.058 166.828 165.238C166.528 165.418 166.306 165.628 166.162 165.868C166.03 166.096 165.964 166.348 165.964 166.624C165.964 167.128 166.114 167.488 166.414 167.704C166.714 167.92 167.08 168.028 167.512 168.028ZM174.134 169V160.252H175.358L175.484 161.512H175.538C175.958 161.092 176.396 160.744 176.852 160.468C177.32 160.18 177.86 160.036 178.472 160.036C179.396 160.036 180.068 160.324 180.488 160.9C180.92 161.476 181.136 162.328 181.136 163.456V169H179.66V163.654C179.66 162.826 179.528 162.232 179.264 161.872C179 161.5 178.58 161.314 178.004 161.314C177.548 161.314 177.146 161.428 176.798 161.656C176.45 161.884 176.054 162.22 175.61 162.664V169H174.134ZM183.978 169V156.184H185.454V159.676L185.4 161.476C185.82 161.08 186.258 160.744 186.714 160.468C187.17 160.18 187.704 160.036 188.316 160.036C189.24 160.036 189.912 160.324 190.332 160.9C190.764 161.476 190.98 162.328 190.98 163.456V169H189.504V163.654C189.504 162.826 189.372 162.232 189.108 161.872C188.844 161.5 188.424 161.314 187.848 161.314C187.392 161.314 186.99 161.428 186.642 161.656C186.294 161.884 185.898 162.22 185.454 162.664V169H183.978ZM200.126 169.216C199.658 169.216 199.262 169.144 198.938 169C198.626 168.856 198.368 168.658 198.164 168.406C197.972 168.154 197.834 167.848 197.75 167.488C197.666 167.128 197.624 166.732 197.624 166.3V161.458H196.328V160.342L197.696 160.252L197.876 157.804H199.118V160.252H201.476V161.458H199.118V166.318C199.118 166.858 199.214 167.278 199.406 167.578C199.61 167.866 199.964 168.01 200.468 168.01C200.624 168.01 200.792 167.986 200.972 167.938C201.152 167.89 201.314 167.836 201.458 167.776L201.746 168.892C201.506 168.976 201.242 169.048 200.954 169.108C200.678 169.18 200.402 169.216 200.126 169.216ZM203.455 169V156.184H204.931V159.676L204.877 161.476C205.297 161.08 205.735 160.744 206.191 160.468C206.647 160.18 207.181 160.036 207.793 160.036C208.717 160.036 209.389 160.324 209.809 160.9C210.241 161.476 210.457 162.328 210.457 163.456V169H208.981V163.654C208.981 162.826 208.849 162.232 208.585 161.872C208.321 161.5 207.901 161.314 207.325 161.314C206.869 161.314 206.467 161.428 206.119 161.656C205.771 161.884 205.375 162.22 204.931 162.664V169H203.455ZM215.802 169.216C214.866 169.216 214.182 168.928 213.75 168.352C213.33 167.776 213.12 166.924 213.12 165.796V160.252H214.614V165.598C214.614 166.426 214.74 167.026 214.992 167.398C215.256 167.758 215.676 167.938 216.252 167.938C216.708 167.938 217.11 167.824 217.458 167.596C217.806 167.356 218.19 166.978 218.61 166.462V160.252H220.086V169H218.862L218.736 167.632H218.682C218.274 168.112 217.842 168.496 217.386 168.784C216.942 169.072 216.414 169.216 215.802 169.216ZM228.53 169L225.38 160.252H226.91L228.566 165.22C228.698 165.652 228.83 166.084 228.962 166.516C229.106 166.948 229.244 167.374 229.376 167.794H229.448C229.58 167.374 229.712 166.948 229.844 166.516C229.976 166.084 230.108 165.652 230.24 165.22L231.896 160.252H233.354L230.258 169H228.53ZM238.374 169.216C237.834 169.216 237.318 169.114 236.826 168.91C236.346 168.706 235.92 168.412 235.548 168.028C235.176 167.632 234.876 167.152 234.648 166.588C234.432 166.012 234.324 165.364 234.324 164.644C234.324 163.912 234.432 163.264 234.648 162.7C234.876 162.124 235.176 161.638 235.548 161.242C235.92 160.846 236.346 160.546 236.826 160.342C237.318 160.138 237.834 160.036 238.374 160.036C238.974 160.036 239.544 160.162 240.084 160.414C240.588 160.318 240.972 160.138 241.236 159.874C241.5 159.598 241.632 159.208 241.632 158.704C241.632 158.536 241.608 158.368 241.56 158.2C241.512 158.02 241.446 157.858 241.362 157.714L242.514 157.174C242.634 157.378 242.73 157.6 242.802 157.84C242.886 158.08 242.928 158.332 242.928 158.596C242.928 158.956 242.868 159.268 242.748 159.532C242.64 159.796 242.49 160.03 242.298 160.234C242.118 160.426 241.908 160.588 241.668 160.72C241.44 160.84 241.2 160.936 240.948 161.008C241.404 161.392 241.764 161.89 242.028 162.502C242.292 163.114 242.424 163.828 242.424 164.644C242.424 165.364 242.31 166.012 242.082 166.588C241.866 167.152 241.572 167.632 241.2 168.028C240.828 168.412 240.396 168.706 239.904 168.91C239.424 169.114 238.914 169.216 238.374 169.216ZM238.374 167.992C238.746 167.992 239.088 167.914 239.4 167.758C239.712 167.59 239.976 167.362 240.192 167.074C240.42 166.774 240.594 166.42 240.714 166.012C240.834 165.604 240.894 165.148 240.894 164.644C240.894 164.14 240.834 163.684 240.714 163.276C240.594 162.856 240.42 162.496 240.192 162.196C239.976 161.896 239.712 161.668 239.4 161.512C239.088 161.344 238.746 161.26 238.374 161.26C238.002 161.26 237.66 161.344 237.348 161.512C237.036 161.668 236.766 161.896 236.538 162.196C236.322 162.496 236.154 162.856 236.034 163.276C235.914 163.684 235.854 164.14 235.854 164.644C235.854 165.148 235.914 165.604 236.034 166.012C236.154 166.42 236.322 166.774 236.538 167.074C236.766 167.362 237.036 167.59 237.348 167.758C237.66 167.914 238.002 167.992 238.374 167.992ZM238.122 158.686L237.366 157.948L239.904 154.942L240.948 155.932L238.122 158.686ZM244.728 169V160.252H246.204V169H244.728ZM245.484 158.452C245.196 158.452 244.95 158.362 244.746 158.182C244.554 158.002 244.458 157.774 244.458 157.498C244.458 157.21 244.554 156.982 244.746 156.814C244.95 156.634 245.196 156.544 245.484 156.544C245.772 156.544 246.012 156.634 246.204 156.814C246.408 156.982 246.51 157.21 246.51 157.498C246.51 157.774 246.408 158.002 246.204 158.182C246.012 158.362 245.772 158.452 245.484 158.452ZM252.761 169V156.184H254.219V164.86H254.273L257.999 160.252H259.637L256.703 163.762L260.033 169H258.413L255.857 164.788L254.219 166.696V169H252.761ZM261.673 169V156.184H263.149V159.676L263.095 161.476C263.515 161.08 263.953 160.744 264.409 160.468C264.865 160.18 265.399 160.036 266.011 160.036C266.935 160.036 267.607 160.324 268.027 160.9C268.459 161.476 268.675 162.328 268.675 163.456V169H267.199V163.654C267.199 162.826 267.067 162.232 266.803 161.872C266.539 161.5 266.119 161.314 265.543 161.314C265.087 161.314 264.685 161.428 264.337 161.656C263.989 161.884 263.593 162.22 263.149 162.664V169H261.673ZM273.48 169.216C272.748 169.216 272.136 169 271.644 168.568C271.164 168.136 270.924 167.524 270.924 166.732C270.924 165.772 271.35 165.04 272.202 164.536C273.054 164.02 274.416 163.66 276.288 163.456C276.288 163.18 276.258 162.91 276.198 162.646C276.15 162.382 276.06 162.148 275.928 161.944C275.796 161.74 275.61 161.578 275.37 161.458C275.142 161.326 274.848 161.26 274.488 161.26C273.984 161.26 273.51 161.356 273.066 161.548C272.622 161.74 272.226 161.956 271.878 162.196L271.302 161.17C271.71 160.906 272.208 160.654 272.796 160.414C273.384 160.162 274.032 160.036 274.74 160.036C275.808 160.036 276.582 160.366 277.062 161.026C277.542 161.674 277.782 162.544 277.782 163.636V169H276.558L276.432 167.956H276.378C275.958 168.304 275.508 168.604 275.028 168.856C274.548 169.096 274.032 169.216 273.48 169.216ZM273.912 168.028C274.332 168.028 274.728 167.932 275.1 167.74C275.472 167.536 275.868 167.242 276.288 166.858V164.428C275.556 164.524 274.938 164.638 274.434 164.77C273.942 164.902 273.54 165.058 273.228 165.238C272.928 165.418 272.706 165.628 272.562 165.868C272.43 166.096 272.364 166.348 272.364 166.624C272.364 167.128 272.514 167.488 272.814 167.704C273.114 167.92 273.48 168.028 273.912 168.028ZM274.128 158.704L273.966 157.984C274.254 157.912 274.494 157.816 274.686 157.696C274.878 157.564 274.974 157.378 274.974 157.138C274.974 156.622 274.476 156.34 273.48 156.292L273.57 155.32C274.398 155.344 275.034 155.5 275.478 155.788C275.922 156.064 276.144 156.472 276.144 157.012C276.144 157.276 276.084 157.504 275.964 157.696C275.856 157.876 275.706 158.038 275.514 158.182C275.334 158.314 275.124 158.422 274.884 158.506C274.644 158.59 274.392 158.656 274.128 158.704ZM284.138 169V160.252H285.362L285.488 161.512H285.542C285.962 161.092 286.4 160.744 286.856 160.468C287.324 160.18 287.864 160.036 288.476 160.036C289.4 160.036 290.072 160.324 290.492 160.9C290.924 161.476 291.14 162.328 291.14 163.456V169H289.664V163.654C289.664 162.826 289.532 162.232 289.268 161.872C289.004 161.5 288.584 161.314 288.008 161.314C287.552 161.314 287.15 161.428 286.802 161.656C286.454 161.884 286.058 162.22 285.614 162.664V169H284.138ZM295.998 169.216C295.266 169.216 294.654 169 294.162 168.568C293.682 168.136 293.442 167.524 293.442 166.732C293.442 165.772 293.868 165.04 294.72 164.536C295.572 164.02 296.934 163.66 298.806 163.456C298.806 163.18 298.776 162.91 298.716 162.646C298.668 162.382 298.578 162.148 298.446 161.944C298.314 161.74 298.128 161.578 297.888 161.458C297.66 161.326 297.366 161.26 297.006 161.26C296.502 161.26 296.028 161.356 295.584 161.548C295.14 161.74 294.744 161.956 294.396 162.196L293.82 161.17C294.228 160.906 294.726 160.654 295.314 160.414C295.902 160.162 296.55 160.036 297.258 160.036C298.326 160.036 299.1 160.366 299.58 161.026C300.06 161.674 300.3 162.544 300.3 163.636V169H299.076L298.95 167.956H298.896C298.476 168.304 298.026 168.604 297.546 168.856C297.066 169.096 296.55 169.216 295.998 169.216ZM296.43 168.028C296.85 168.028 297.246 167.932 297.618 167.74C297.99 167.536 298.386 167.242 298.806 166.858V164.428C298.074 164.524 297.456 164.638 296.952 164.77C296.46 164.902 296.058 165.058 295.746 165.238C295.446 165.418 295.224 165.628 295.08 165.868C294.948 166.096 294.882 166.348 294.882 166.624C294.882 167.128 295.032 167.488 295.332 167.704C295.632 167.92 295.998 168.028 296.43 168.028ZM297.222 158.722C296.742 158.722 296.328 158.644 295.98 158.488C295.632 158.332 295.344 158.128 295.116 157.876C294.9 157.612 294.732 157.318 294.612 156.994C294.504 156.67 294.438 156.34 294.414 156.004L295.332 155.86C295.368 156.088 295.428 156.316 295.512 156.544C295.608 156.76 295.734 156.958 295.89 157.138C296.046 157.318 296.232 157.462 296.448 157.57C296.676 157.678 296.934 157.732 297.222 157.732C297.51 157.732 297.762 157.678 297.978 157.57C298.206 157.462 298.398 157.318 298.554 157.138C298.71 156.958 298.83 156.76 298.914 156.544C299.01 156.316 299.076 156.088 299.112 155.86L300.03 156.004C300.006 156.34 299.934 156.67 299.814 156.994C299.706 157.318 299.538 157.612 299.31 157.876C299.082 158.128 298.794 158.332 298.446 158.488C298.11 158.644 297.702 158.722 297.222 158.722ZM303.052 169V160.252H304.276L304.402 161.512H304.456C304.876 161.092 305.314 160.744 305.77 160.468C306.238 160.18 306.778 160.036 307.39 160.036C308.314 160.036 308.986 160.324 309.406 160.9C309.838 161.476 310.054 162.328 310.054 163.456V169H308.578V163.654C308.578 162.826 308.446 162.232 308.182 161.872C307.918 161.5 307.498 161.314 306.922 161.314C306.466 161.314 306.064 161.428 305.716 161.656C305.368 161.884 304.972 162.22 304.528 162.664V169H303.052ZM315.848 173.032C315.308 173.032 314.816 172.978 314.372 172.87C313.928 172.774 313.544 172.624 313.22 172.42C312.908 172.216 312.662 171.97 312.482 171.682C312.314 171.394 312.23 171.058 312.23 170.674C312.23 170.302 312.344 169.948 312.572 169.612C312.8 169.276 313.112 168.97 313.508 168.694V168.622C313.292 168.49 313.106 168.31 312.95 168.082C312.806 167.842 312.734 167.548 312.734 167.2C312.734 166.828 312.836 166.504 313.04 166.228C313.244 165.952 313.46 165.736 313.688 165.58V165.508C313.4 165.268 313.136 164.95 312.896 164.554C312.668 164.146 312.554 163.678 312.554 163.15C312.554 162.67 312.638 162.238 312.806 161.854C312.986 161.47 313.226 161.146 313.526 160.882C313.826 160.606 314.174 160.396 314.57 160.252C314.978 160.108 315.404 160.036 315.848 160.036C316.088 160.036 316.31 160.06 316.514 160.108C316.73 160.144 316.922 160.192 317.09 160.252H320.132V161.386H318.332C318.536 161.59 318.704 161.848 318.836 162.16C318.98 162.472 319.052 162.814 319.052 163.186C319.052 163.654 318.968 164.08 318.8 164.464C318.632 164.836 318.404 165.154 318.116 165.418C317.828 165.67 317.486 165.868 317.09 166.012C316.706 166.156 316.292 166.228 315.848 166.228C315.632 166.228 315.41 166.204 315.182 166.156C314.954 166.096 314.738 166.018 314.534 165.922C314.378 166.054 314.246 166.204 314.138 166.372C314.03 166.528 313.976 166.726 313.976 166.966C313.976 167.242 314.084 167.47 314.3 167.65C314.516 167.83 314.924 167.92 315.524 167.92H317.216C318.236 167.92 318.998 168.088 319.502 168.424C320.018 168.748 320.276 169.276 320.276 170.008C320.276 170.416 320.174 170.8 319.97 171.16C319.766 171.532 319.472 171.856 319.088 172.132C318.704 172.408 318.236 172.624 317.684 172.78C317.144 172.948 316.532 173.032 315.848 173.032ZM315.848 165.238C316.1 165.238 316.334 165.19 316.55 165.094C316.778 164.998 316.976 164.86 317.144 164.68C317.324 164.5 317.462 164.284 317.558 164.032C317.654 163.768 317.702 163.474 317.702 163.15C317.702 162.502 317.522 162.004 317.162 161.656C316.802 161.296 316.364 161.116 315.848 161.116C315.332 161.116 314.894 161.296 314.534 161.656C314.174 162.004 313.994 162.502 313.994 163.15C313.994 163.474 314.042 163.768 314.138 164.032C314.234 164.284 314.366 164.5 314.534 164.68C314.714 164.86 314.912 164.998 315.128 165.094C315.356 165.19 315.596 165.238 315.848 165.238ZM316.064 172.006C316.484 172.006 316.862 171.952 317.198 171.844C317.546 171.748 317.84 171.616 318.08 171.448C318.32 171.292 318.506 171.106 318.638 170.89C318.77 170.674 318.836 170.452 318.836 170.224C318.836 169.816 318.686 169.534 318.386 169.378C318.086 169.222 317.648 169.144 317.072 169.144H315.56C315.392 169.144 315.206 169.132 315.002 169.108C314.81 169.096 314.618 169.06 314.426 169C314.114 169.228 313.886 169.468 313.742 169.72C313.598 169.972 313.526 170.224 313.526 170.476C313.526 170.944 313.748 171.316 314.192 171.592C314.648 171.868 315.272 172.006 316.064 172.006ZM79.62 192V180.192H81.42L83.688 186.492C83.832 186.9 83.97 187.314 84.102 187.734C84.246 188.142 84.39 188.55 84.534 188.958H84.606C84.75 188.55 84.882 188.142 85.002 187.734C85.134 187.314 85.272 186.9 85.416 186.492L87.648 180.192H89.466V192H88.062V185.502C88.062 184.974 88.086 184.392 88.134 183.756C88.182 183.12 88.224 182.538 88.26 182.01H88.188L87.252 184.692L85.02 190.812H84.03L81.798 184.692L80.862 182.01H80.79C80.826 182.538 80.862 183.12 80.898 183.756C80.946 184.392 80.97 184.974 80.97 185.502V192H79.62ZM94.5701 192.216C93.8381 192.216 93.2261 192 92.7341 191.568C92.2541 191.136 92.0141 190.524 92.0141 189.732C92.0141 188.772 92.4401 188.04 93.2921 187.536C94.1441 187.02 95.5061 186.66 97.3781 186.456C97.3781 186.18 97.3481 185.91 97.2881 185.646C97.2401 185.382 97.1501 185.148 97.0181 184.944C96.8861 184.74 96.7001 184.578 96.4601 184.458C96.2321 184.326 95.9381 184.26 95.5781 184.26C95.0741 184.26 94.6001 184.356 94.1561 184.548C93.7121 184.74 93.3161 184.956 92.9681 185.196L92.3921 184.17C92.8001 183.906 93.2981 183.654 93.8861 183.414C94.4741 183.162 95.1221 183.036 95.8301 183.036C96.8981 183.036 97.6721 183.366 98.1521 184.026C98.6321 184.674 98.8721 185.544 98.8721 186.636V192H97.6481L97.5221 190.956H97.4681C97.0481 191.304 96.5981 191.604 96.1181 191.856C95.6381 192.096 95.1221 192.216 94.5701 192.216ZM95.0021 191.028C95.4221 191.028 95.8181 190.932 96.1901 190.74C96.5621 190.536 96.9581 190.242 97.3781 189.858V187.428C96.6461 187.524 96.0281 187.638 95.5241 187.77C95.0321 187.902 94.6301 188.058 94.3181 188.238C94.0181 188.418 93.7961 188.628 93.6521 188.868C93.5201 189.096 93.4541 189.348 93.4541 189.624C93.4541 190.128 93.6041 190.488 93.9041 190.704C94.2041 190.92 94.5701 191.028 95.0021 191.028ZM101.624 192V183.252H102.848L102.974 184.836H103.028C103.328 184.284 103.688 183.846 104.108 183.522C104.54 183.198 105.008 183.036 105.512 183.036C105.86 183.036 106.172 183.096 106.448 183.216L106.16 184.512C106.016 184.464 105.884 184.428 105.764 184.404C105.644 184.38 105.494 184.368 105.314 184.368C104.942 184.368 104.552 184.518 104.144 184.818C103.748 185.118 103.4 185.64 103.1 186.384V192H101.624ZM107.865 192V179.184H109.323V187.86H109.377L113.103 183.252H114.741L111.807 186.762L115.137 192H113.517L110.961 187.788L109.323 189.696V192H107.865ZM120.006 192.216C119.418 192.216 118.866 192.114 118.35 191.91C117.846 191.694 117.402 191.394 117.018 191.01C116.646 190.614 116.352 190.134 116.136 189.57C115.92 189.006 115.812 188.364 115.812 187.644C115.812 186.924 115.92 186.282 116.136 185.718C116.364 185.142 116.658 184.656 117.018 184.26C117.39 183.864 117.81 183.564 118.278 183.36C118.746 183.144 119.232 183.036 119.736 183.036C120.288 183.036 120.78 183.132 121.212 183.324C121.656 183.516 122.022 183.792 122.31 184.152C122.61 184.512 122.838 184.944 122.994 185.448C123.15 185.952 123.228 186.516 123.228 187.14C123.228 187.296 123.222 187.452 123.21 187.608C123.21 187.752 123.198 187.878 123.174 187.986H117.27C117.33 188.922 117.618 189.666 118.134 190.218C118.662 190.758 119.346 191.028 120.186 191.028C120.606 191.028 120.99 190.968 121.338 190.848C121.698 190.716 122.04 190.548 122.364 190.344L122.886 191.316C122.502 191.556 122.076 191.766 121.608 191.946C121.14 192.126 120.606 192.216 120.006 192.216ZM117.252 186.924H121.932C121.932 186.036 121.74 185.364 121.356 184.908C120.984 184.44 120.456 184.206 119.772 184.206C119.46 184.206 119.16 184.266 118.872 184.386C118.596 184.506 118.344 184.686 118.116 184.926C117.888 185.154 117.696 185.436 117.54 185.772C117.396 186.108 117.3 186.492 117.252 186.924ZM127.968 192.216C127.5 192.216 127.104 192.144 126.78 192C126.468 191.856 126.21 191.658 126.006 191.406C125.814 191.154 125.676 190.848 125.592 190.488C125.508 190.128 125.466 189.732 125.466 189.3V184.458H124.17V183.342L125.538 183.252L125.718 180.804H126.96V183.252H129.318V184.458H126.96V189.318C126.96 189.858 127.056 190.278 127.248 190.578C127.452 190.866 127.806 191.01 128.31 191.01C128.466 191.01 128.634 190.986 128.814 190.938C128.994 190.89 129.156 190.836 129.3 190.776L129.588 191.892C129.348 191.976 129.084 192.048 128.796 192.108C128.52 192.18 128.244 192.216 127.968 192.216ZM131.296 192V183.252H132.772V192H131.296ZM132.052 181.452C131.764 181.452 131.518 181.362 131.314 181.182C131.122 181.002 131.026 180.774 131.026 180.498C131.026 180.21 131.122 179.982 131.314 179.814C131.518 179.634 131.764 179.544 132.052 179.544C132.34 179.544 132.58 179.634 132.772 179.814C132.976 179.982 133.078 180.21 133.078 180.498C133.078 180.774 132.976 181.002 132.772 181.182C132.58 181.362 132.34 181.452 132.052 181.452ZM135.726 192V183.252H136.95L137.076 184.512H137.13C137.55 184.092 137.988 183.744 138.444 183.468C138.912 183.18 139.452 183.036 140.064 183.036C140.988 183.036 141.66 183.324 142.08 183.9C142.512 184.476 142.728 185.328 142.728 186.456V192H141.252V186.654C141.252 185.826 141.12 185.232 140.856 184.872C140.592 184.5 140.172 184.314 139.596 184.314C139.14 184.314 138.738 184.428 138.39 184.656C138.042 184.884 137.646 185.22 137.202 185.664V192H135.726ZM148.522 196.032C147.982 196.032 147.49 195.978 147.046 195.87C146.602 195.774 146.218 195.624 145.894 195.42C145.582 195.216 145.336 194.97 145.156 194.682C144.988 194.394 144.904 194.058 144.904 193.674C144.904 193.302 145.018 192.948 145.246 192.612C145.474 192.276 145.786 191.97 146.182 191.694V191.622C145.966 191.49 145.78 191.31 145.624 191.082C145.48 190.842 145.408 190.548 145.408 190.2C145.408 189.828 145.51 189.504 145.714 189.228C145.918 188.952 146.134 188.736 146.362 188.58V188.508C146.074 188.268 145.81 187.95 145.57 187.554C145.342 187.146 145.228 186.678 145.228 186.15C145.228 185.67 145.312 185.238 145.48 184.854C145.66 184.47 145.9 184.146 146.2 183.882C146.5 183.606 146.848 183.396 147.244 183.252C147.652 183.108 148.078 183.036 148.522 183.036C148.762 183.036 148.984 183.06 149.188 183.108C149.404 183.144 149.596 183.192 149.764 183.252H152.806V184.386H151.006C151.21 184.59 151.378 184.848 151.51 185.16C151.654 185.472 151.726 185.814 151.726 186.186C151.726 186.654 151.642 187.08 151.474 187.464C151.306 187.836 151.078 188.154 150.79 188.418C150.502 188.67 150.16 188.868 149.764 189.012C149.38 189.156 148.966 189.228 148.522 189.228C148.306 189.228 148.084 189.204 147.856 189.156C147.628 189.096 147.412 189.018 147.208 188.922C147.052 189.054 146.92 189.204 146.812 189.372C146.704 189.528 146.65 189.726 146.65 189.966C146.65 190.242 146.758 190.47 146.974 190.65C147.19 190.83 147.598 190.92 148.198 190.92H149.89C150.91 190.92 151.672 191.088 152.176 191.424C152.692 191.748 152.95 192.276 152.95 193.008C152.95 193.416 152.848 193.8 152.644 194.16C152.44 194.532 152.146 194.856 151.762 195.132C151.378 195.408 150.91 195.624 150.358 195.78C149.818 195.948 149.206 196.032 148.522 196.032ZM148.522 188.238C148.774 188.238 149.008 188.19 149.224 188.094C149.452 187.998 149.65 187.86 149.818 187.68C149.998 187.5 150.136 187.284 150.232 187.032C150.328 186.768 150.376 186.474 150.376 186.15C150.376 185.502 150.196 185.004 149.836 184.656C149.476 184.296 149.038 184.116 148.522 184.116C148.006 184.116 147.568 184.296 147.208 184.656C146.848 185.004 146.668 185.502 146.668 186.15C146.668 186.474 146.716 186.768 146.812 187.032C146.908 187.284 147.04 187.5 147.208 187.68C147.388 187.86 147.586 187.998 147.802 188.094C148.03 188.19 148.27 188.238 148.522 188.238ZM148.738 195.006C149.158 195.006 149.536 194.952 149.872 194.844C150.22 194.748 150.514 194.616 150.754 194.448C150.994 194.292 151.18 194.106 151.312 193.89C151.444 193.674 151.51 193.452 151.51 193.224C151.51 192.816 151.36 192.534 151.06 192.378C150.76 192.222 150.322 192.144 149.746 192.144H148.234C148.066 192.144 147.88 192.132 147.676 192.108C147.484 192.096 147.292 192.06 147.1 192C146.788 192.228 146.56 192.468 146.416 192.72C146.272 192.972 146.2 193.224 146.2 193.476C146.2 193.944 146.422 194.316 146.866 194.592C147.322 194.868 147.946 195.006 148.738 195.006ZM161.25 192.216C160.086 192.216 159.18 191.7 158.532 190.668C157.884 189.636 157.56 188.154 157.56 186.222C157.56 184.29 157.884 182.82 158.532 181.812C159.18 180.804 160.086 180.3 161.25 180.3C162.402 180.3 163.302 180.804 163.95 181.812C164.598 182.82 164.922 184.29 164.922 186.222C164.922 188.154 164.598 189.636 163.95 190.668C163.302 191.7 162.402 192.216 161.25 192.216ZM161.25 191.028C161.586 191.028 161.886 190.938 162.15 190.758C162.426 190.566 162.66 190.278 162.852 189.894C163.056 189.498 163.212 189 163.32 188.4C163.428 187.788 163.482 187.062 163.482 186.222C163.482 185.382 163.428 184.662 163.32 184.062C163.212 183.462 163.056 182.976 162.852 182.604C162.66 182.22 162.426 181.938 162.15 181.758C161.886 181.578 161.586 181.488 161.25 181.488C160.914 181.488 160.608 181.578 160.332 181.758C160.056 181.938 159.816 182.22 159.612 182.604C159.42 182.976 159.27 183.462 159.162 184.062C159.054 184.662 159 185.382 159 186.222C159 187.902 159.204 189.126 159.612 189.894C160.032 190.65 160.578 191.028 161.25 191.028ZM170.179 192.216C169.075 192.216 168.193 191.85 167.533 191.118C166.885 190.374 166.561 189.33 166.561 187.986C166.561 187.338 166.663 186.756 166.867 186.24C167.083 185.712 167.365 185.268 167.713 184.908C168.061 184.536 168.463 184.248 168.919 184.044C169.375 183.84 169.855 183.738 170.359 183.738C170.863 183.738 171.301 183.834 171.673 184.026C172.045 184.206 172.423 184.452 172.807 184.764L172.735 183.252V181.722H169.837V180.858H172.735V179.184H174.229V180.858H175.525V181.632L174.229 181.722V192H172.969L172.861 191.01H172.807C172.471 191.346 172.081 191.634 171.637 191.874C171.193 192.102 170.707 192.216 170.179 192.216ZM170.503 190.974C170.911 190.974 171.295 190.878 171.655 190.686C172.015 190.482 172.375 190.176 172.735 189.768V185.898C172.363 185.562 172.003 185.328 171.655 185.196C171.319 185.052 170.971 184.98 170.611 184.98C170.263 184.98 169.933 185.058 169.621 185.214C169.321 185.358 169.057 185.562 168.829 185.826C168.601 186.09 168.421 186.408 168.289 186.78C168.157 187.14 168.091 187.536 168.091 187.968C168.091 188.892 168.301 189.624 168.721 190.164C169.141 190.704 169.735 190.974 170.503 190.974ZM187.838 192.216C187.262 192.216 186.722 192.114 186.218 191.91C185.714 191.706 185.276 191.412 184.904 191.028C184.544 190.632 184.256 190.152 184.04 189.588C183.836 189.012 183.734 188.364 183.734 187.644C183.734 186.912 183.848 186.264 184.076 185.7C184.304 185.124 184.61 184.638 184.994 184.242C185.378 183.846 185.822 183.546 186.326 183.342C186.842 183.138 187.382 183.036 187.946 183.036C188.522 183.036 189.014 183.138 189.422 183.342C189.83 183.546 190.19 183.786 190.502 184.062L189.746 185.034C189.494 184.806 189.224 184.62 188.936 184.476C188.66 184.332 188.348 184.26 188 184.26C187.604 184.26 187.238 184.344 186.902 184.512C186.566 184.668 186.278 184.896 186.038 185.196C185.798 185.496 185.606 185.856 185.462 186.276C185.33 186.684 185.264 187.14 185.264 187.644C185.264 188.148 185.33 188.604 185.462 189.012C185.594 189.42 185.774 189.774 186.002 190.074C186.242 190.362 186.53 190.59 186.866 190.758C187.202 190.914 187.568 190.992 187.964 190.992C188.372 190.992 188.744 190.908 189.08 190.74C189.428 190.56 189.74 190.35 190.016 190.11L190.664 191.1C190.268 191.448 189.83 191.724 189.35 191.928C188.87 192.12 188.366 192.216 187.838 192.216ZM192.591 192V179.184H194.067V182.676L194.013 184.476C194.433 184.08 194.871 183.744 195.327 183.468C195.783 183.18 196.317 183.036 196.929 183.036C197.853 183.036 198.525 183.324 198.945 183.9C199.377 184.476 199.593 185.328 199.593 186.456V192H198.117V186.654C198.117 185.826 197.985 185.232 197.721 184.872C197.457 184.5 197.037 184.314 196.461 184.314C196.005 184.314 195.603 184.428 195.255 184.656C194.907 184.884 194.511 185.22 194.067 185.664V192H192.591ZM204.938 192.216C204.002 192.216 203.318 191.928 202.886 191.352C202.466 190.776 202.256 189.924 202.256 188.796V183.252H203.75V188.598C203.75 189.426 203.876 190.026 204.128 190.398C204.392 190.758 204.812 190.938 205.388 190.938C205.844 190.938 206.246 190.824 206.594 190.596C206.942 190.356 207.326 189.978 207.746 189.462V183.252H209.222V192H207.998L207.872 190.632H207.818C207.41 191.112 206.978 191.496 206.522 191.784C206.078 192.072 205.55 192.216 204.938 192.216ZM214.189 192.216C213.457 192.216 212.845 192 212.353 191.568C211.873 191.136 211.633 190.524 211.633 189.732C211.633 188.772 212.059 188.04 212.911 187.536C213.763 187.02 215.125 186.66 216.997 186.456C216.997 186.18 216.967 185.91 216.907 185.646C216.859 185.382 216.769 185.148 216.637 184.944C216.505 184.74 216.319 184.578 216.079 184.458C215.851 184.326 215.557 184.26 215.197 184.26C214.693 184.26 214.219 184.356 213.775 184.548C213.331 184.74 212.935 184.956 212.587 185.196L212.011 184.17C212.419 183.906 212.917 183.654 213.505 183.414C214.093 183.162 214.741 183.036 215.449 183.036C216.517 183.036 217.291 183.366 217.771 184.026C218.251 184.674 218.491 185.544 218.491 186.636V192H217.267L217.141 190.956H217.087C216.667 191.304 216.217 191.604 215.737 191.856C215.257 192.096 214.741 192.216 214.189 192.216ZM214.621 191.028C215.041 191.028 215.437 190.932 215.809 190.74C216.181 190.536 216.577 190.242 216.997 189.858V187.428C216.265 187.524 215.647 187.638 215.143 187.77C214.651 187.902 214.249 188.058 213.937 188.238C213.637 188.418 213.415 188.628 213.271 188.868C213.139 189.096 213.073 189.348 213.073 189.624C213.073 190.128 213.223 190.488 213.523 190.704C213.823 190.92 214.189 191.028 214.621 191.028ZM213.523 181.74L213.001 181.128L214.801 179.472H216.025L217.825 181.128L217.303 181.74L215.449 180.444H215.377L213.523 181.74ZM217.501 180.57L217.339 179.94C217.567 179.88 217.747 179.796 217.879 179.688C218.023 179.58 218.095 179.43 218.095 179.238C218.095 178.998 217.999 178.824 217.807 178.716C217.615 178.596 217.297 178.524 216.853 178.5L216.979 177.762C217.687 177.786 218.227 177.906 218.599 178.122C218.983 178.338 219.175 178.656 219.175 179.076C219.175 179.316 219.127 179.52 219.031 179.688C218.935 179.856 218.809 180 218.653 180.12C218.497 180.228 218.317 180.318 218.113 180.39C217.921 180.462 217.717 180.522 217.501 180.57ZM221.244 192V183.252H222.468L222.594 184.512H222.648C223.068 184.092 223.506 183.744 223.962 183.468C224.43 183.18 224.97 183.036 225.582 183.036C226.506 183.036 227.178 183.324 227.598 183.9C228.03 184.476 228.246 185.328 228.246 186.456V192H226.77V186.654C226.77 185.826 226.638 185.232 226.374 184.872C226.11 184.5 225.69 184.314 225.114 184.314C224.658 184.314 224.256 184.428 223.908 184.656C223.56 184.884 223.164 185.22 222.72 185.664V192H221.244ZM237.283 192V181.452H233.719V180.192H242.359V181.452H238.795V192H237.283ZM245.039 192.216C244.307 192.216 243.695 192 243.203 191.568C242.723 191.136 242.483 190.524 242.483 189.732C242.483 188.772 242.909 188.04 243.761 187.536C244.613 187.02 245.975 186.66 247.847 186.456C247.847 186.18 247.817 185.91 247.757 185.646C247.709 185.382 247.619 185.148 247.487 184.944C247.355 184.74 247.169 184.578 246.929 184.458C246.701 184.326 246.407 184.26 246.047 184.26C245.543 184.26 245.069 184.356 244.625 184.548C244.181 184.74 243.785 184.956 243.437 185.196L242.861 184.17C243.269 183.906 243.767 183.654 244.355 183.414C244.943 183.162 245.591 183.036 246.299 183.036C247.367 183.036 248.141 183.366 248.621 184.026C249.101 184.674 249.341 185.544 249.341 186.636V192H248.117L247.991 190.956H247.937C247.517 191.304 247.067 191.604 246.587 191.856C246.107 192.096 245.591 192.216 245.039 192.216ZM245.471 191.028C245.891 191.028 246.287 190.932 246.659 190.74C247.031 190.536 247.427 190.242 247.847 189.858V187.428C247.115 187.524 246.497 187.638 245.993 187.77C245.501 187.902 245.099 188.058 244.787 188.238C244.487 188.418 244.265 188.628 244.121 188.868C243.989 189.096 243.923 189.348 243.923 189.624C243.923 190.128 244.073 190.488 244.373 190.704C244.673 190.92 245.039 191.028 245.471 191.028ZM252.093 192V183.252H253.317L253.443 184.836H253.497C253.797 184.284 254.157 183.846 254.577 183.522C255.009 183.198 255.477 183.036 255.981 183.036C256.329 183.036 256.641 183.096 256.917 183.216L256.629 184.512C256.485 184.464 256.353 184.428 256.233 184.404C256.113 184.38 255.963 184.368 255.783 184.368C255.411 184.368 255.021 184.518 254.613 184.818C254.217 185.118 253.869 185.64 253.569 186.384V192H252.093ZM261.11 196.032C260.57 196.032 260.078 195.978 259.634 195.87C259.19 195.774 258.806 195.624 258.482 195.42C258.17 195.216 257.924 194.97 257.744 194.682C257.576 194.394 257.492 194.058 257.492 193.674C257.492 193.302 257.606 192.948 257.834 192.612C258.062 192.276 258.374 191.97 258.77 191.694V191.622C258.554 191.49 258.368 191.31 258.212 191.082C258.068 190.842 257.996 190.548 257.996 190.2C257.996 189.828 258.098 189.504 258.302 189.228C258.506 188.952 258.722 188.736 258.95 188.58V188.508C258.662 188.268 258.398 187.95 258.158 187.554C257.93 187.146 257.816 186.678 257.816 186.15C257.816 185.67 257.9 185.238 258.068 184.854C258.248 184.47 258.488 184.146 258.788 183.882C259.088 183.606 259.436 183.396 259.832 183.252C260.24 183.108 260.666 183.036 261.11 183.036C261.35 183.036 261.572 183.06 261.776 183.108C261.992 183.144 262.184 183.192 262.352 183.252H265.394V184.386H263.594C263.798 184.59 263.966 184.848 264.098 185.16C264.242 185.472 264.314 185.814 264.314 186.186C264.314 186.654 264.23 187.08 264.062 187.464C263.894 187.836 263.666 188.154 263.378 188.418C263.09 188.67 262.748 188.868 262.352 189.012C261.968 189.156 261.554 189.228 261.11 189.228C260.894 189.228 260.672 189.204 260.444 189.156C260.216 189.096 260 189.018 259.796 188.922C259.64 189.054 259.508 189.204 259.4 189.372C259.292 189.528 259.238 189.726 259.238 189.966C259.238 190.242 259.346 190.47 259.562 190.65C259.778 190.83 260.186 190.92 260.786 190.92H262.478C263.498 190.92 264.26 191.088 264.764 191.424C265.28 191.748 265.538 192.276 265.538 193.008C265.538 193.416 265.436 193.8 265.232 194.16C265.028 194.532 264.734 194.856 264.35 195.132C263.966 195.408 263.498 195.624 262.946 195.78C262.406 195.948 261.794 196.032 261.11 196.032ZM261.11 188.238C261.362 188.238 261.596 188.19 261.812 188.094C262.04 187.998 262.238 187.86 262.406 187.68C262.586 187.5 262.724 187.284 262.82 187.032C262.916 186.768 262.964 186.474 262.964 186.15C262.964 185.502 262.784 185.004 262.424 184.656C262.064 184.296 261.626 184.116 261.11 184.116C260.594 184.116 260.156 184.296 259.796 184.656C259.436 185.004 259.256 185.502 259.256 186.15C259.256 186.474 259.304 186.768 259.4 187.032C259.496 187.284 259.628 187.5 259.796 187.68C259.976 187.86 260.174 187.998 260.39 188.094C260.618 188.19 260.858 188.238 261.11 188.238ZM261.326 195.006C261.746 195.006 262.124 194.952 262.46 194.844C262.808 194.748 263.102 194.616 263.342 194.448C263.582 194.292 263.768 194.106 263.9 193.89C264.032 193.674 264.098 193.452 264.098 193.224C264.098 192.816 263.948 192.534 263.648 192.378C263.348 192.222 262.91 192.144 262.334 192.144H260.822C260.654 192.144 260.468 192.132 260.264 192.108C260.072 192.096 259.88 192.06 259.688 192C259.376 192.228 259.148 192.468 259.004 192.72C258.86 192.972 258.788 193.224 258.788 193.476C258.788 193.944 259.01 194.316 259.454 194.592C259.91 194.868 260.534 195.006 261.326 195.006ZM270.528 192.216C269.94 192.216 269.388 192.114 268.872 191.91C268.368 191.694 267.924 191.394 267.54 191.01C267.168 190.614 266.874 190.134 266.658 189.57C266.442 189.006 266.334 188.364 266.334 187.644C266.334 186.924 266.442 186.282 266.658 185.718C266.886 185.142 267.18 184.656 267.54 184.26C267.912 183.864 268.332 183.564 268.8 183.36C269.268 183.144 269.754 183.036 270.258 183.036C270.81 183.036 271.302 183.132 271.734 183.324C272.178 183.516 272.544 183.792 272.832 184.152C273.132 184.512 273.36 184.944 273.516 185.448C273.672 185.952 273.75 186.516 273.75 187.14C273.75 187.296 273.744 187.452 273.732 187.608C273.732 187.752 273.72 187.878 273.696 187.986H267.792C267.852 188.922 268.14 189.666 268.656 190.218C269.184 190.758 269.868 191.028 270.708 191.028C271.128 191.028 271.512 190.968 271.86 190.848C272.22 190.716 272.562 190.548 272.886 190.344L273.408 191.316C273.024 191.556 272.598 191.766 272.13 191.946C271.662 192.126 271.128 192.216 270.528 192.216ZM267.774 186.924H272.454C272.454 186.036 272.262 185.364 271.878 184.908C271.506 184.44 270.978 184.206 270.294 184.206C269.982 184.206 269.682 184.266 269.394 184.386C269.118 184.506 268.866 184.686 268.638 184.926C268.41 185.154 268.218 185.436 268.062 185.772C267.918 186.108 267.822 186.492 267.774 186.924ZM278.49 192.216C278.022 192.216 277.626 192.144 277.302 192C276.99 191.856 276.732 191.658 276.528 191.406C276.336 191.154 276.198 190.848 276.114 190.488C276.03 190.128 275.988 189.732 275.988 189.3V184.458H274.692V183.342L276.06 183.252L276.24 180.804H277.482V183.252H279.84V184.458H277.482V189.318C277.482 189.858 277.578 190.278 277.77 190.578C277.974 190.866 278.328 191.01 278.832 191.01C278.988 191.01 279.156 190.986 279.336 190.938C279.516 190.89 279.678 190.836 279.822 190.776L280.11 191.892C279.87 191.976 279.606 192.048 279.318 192.108C279.042 192.18 278.766 192.216 278.49 192.216ZM282.715 192.216C282.415 192.216 282.157 192.114 281.941 191.91C281.737 191.694 281.635 191.424 281.635 191.1C281.635 190.752 281.737 190.476 281.941 190.272C282.157 190.056 282.415 189.948 282.715 189.948C283.003 189.948 283.249 190.056 283.453 190.272C283.669 190.476 283.777 190.752 283.777 191.1C283.777 191.424 283.669 191.694 283.453 191.91C283.249 192.114 283.003 192.216 282.715 192.216Z" fill="white"/>
</svg>
