<?xml version="1.0" encoding="utf-8"?>
<!-- Generator: Adobe Illustrator 23.0.0, SVG Export Plug-In . SVG Version: 6.00 Build 0)  -->
<svg version="1.1" id="Layer_1" xmlns="http://www.w3.org/2000/svg" xmlns:xlink="http://www.w3.org/1999/xlink" x="0px" y="0px"
	 viewBox="0 0 613 613" style="enable-background:new 0 0 613 613;" xml:space="preserve">
<style type="text/css">
	.st0{opacity:0.71;}
	.st1{opacity:0.71;fill:url(#SVGID_1_);enable-background:new    ;}
	.st2{opacity:0.71;fill:url(#SVGID_2_);enable-background:new    ;}
	.st3{opacity:0.71;fill:url(#SVGID_3_);enable-background:new    ;}
	.st4{opacity:0.71;fill:url(#SVGID_4_);enable-background:new    ;}
	.st5{opacity:0.71;fill:url(#SVGID_5_);enable-background:new    ;}
	.st6{opacity:0.71;fill:url(#SVGID_6_);enable-background:new    ;}
	.st7{opacity:0.71;fill:url(#SVGID_7_);enable-background:new    ;}
	.st8{opacity:0.71;fill:url(#SVGID_8_);enable-background:new    ;}
	.st9{opacity:0.71;fill:url(#SVGID_9_);enable-background:new    ;}
	.st10{opacity:0.71;fill:url(#SVGID_10_);enable-background:new    ;}
	.st11{opacity:0.71;fill:url(#SVGID_11_);enable-background:new    ;}
	.st12{opacity:0.71;fill:url(#SVGID_12_);enable-background:new    ;}
	.st13{opacity:0.71;fill:url(#SVGID_13_);enable-background:new    ;}
	.st14{fill:#6BC3F9;}
	.st15{fill:#45A3DD;}
	.st16{fill:#85421C;}
	.st17{fill:#F7BC64;}
	.st18{fill:#FEE795;}
	.st19{fill:#E67A20;}
	.st20{fill:#D74F0A;}
	.st21{fill:#F4C01E;}
</style>
<g>
	<g class="st0">
		<g class="st0">
			
				<linearGradient id="SVGID_1_" gradientUnits="userSpaceOnUse" x1="22.5235" y1="-1499.5823" x2="31.5565" y2="-1631.7861" gradientTransform="matrix(1 0 0 -1 324 -1478.6309)">
				<stop  offset="0" style="stop-color:#FFFFFF;stop-opacity:0"/>
				<stop  offset="1" style="stop-color:#FFFFFF"/>
			</linearGradient>
			<path class="st1" d="M359.5,228.3l-10.4,0.4L323.3,14.5l45.4-1.8L359.5,228.3z"/>
		</g>
		<g class="st0">
			
				<linearGradient id="SVGID_2_" gradientUnits="userSpaceOnUse" x1="-80.3018" y1="-1531.3062" x2="-6.3842" y2="-1641.2924" gradientTransform="matrix(1 0 0 -1 324 -1478.6309)">
				<stop  offset="0" style="stop-color:#FFFFFF;stop-opacity:0"/>
				<stop  offset="1" style="stop-color:#FFFFFF"/>
			</linearGradient>
			<path class="st2" d="M358.7,225.7l-8.8,5.5L220.4,58.6l38.4-24.1L358.7,225.7z"/>
		</g>
		<g class="st0">
			
				<linearGradient id="SVGID_3_" gradientUnits="userSpaceOnUse" x1="-153.4518" y1="-1610.1539" x2="-34.4299" y2="-1668.4557" gradientTransform="matrix(1 0 0 -1 324 -1478.6309)">
				<stop  offset="0" style="stop-color:#FFFFFF;stop-opacity:0"/>
				<stop  offset="1" style="stop-color:#FFFFFF"/>
			</linearGradient>
			<path class="st3" d="M356.7,224l-4.9,9.1l-198.5-84.7l21.2-40.2L356.7,224z"/>
		</g>
		<g class="st0">
			
				<linearGradient id="SVGID_4_" gradientUnits="userSpaceOnUse" x1="-177.3549" y1="-1714.9923" x2="-45.1197" y2="-1705.9558" gradientTransform="matrix(1 0 0 -1 324 -1478.6309)">
				<stop  offset="0" style="stop-color:#FFFFFF;stop-opacity:0"/>
				<stop  offset="1" style="stop-color:#FFFFFF"/>
			</linearGradient>
			<path class="st4" d="M354.1,223.3l0.4,10.4l-214.3,25.8l-1.7-45.3L354.1,223.3z"/>
		</g>
		<g class="st0">
			
				<linearGradient id="SVGID_5_" gradientUnits="userSpaceOnUse" x1="-145.6382" y1="-1817.7262" x2="-35.6556" y2="-1743.7771" gradientTransform="matrix(1 0 0 -1 324 -1478.6309)">
				<stop  offset="0" style="stop-color:#FFFFFF;stop-opacity:0"/>
				<stop  offset="1" style="stop-color:#FFFFFF"/>
			</linearGradient>
			<path class="st5" d="M351.5,224.2l5.5,8.7L184.4,362.4L160.2,324L351.5,224.2z"/>
		</g>
		<g class="st0">
			
				<linearGradient id="SVGID_6_" gradientUnits="userSpaceOnUse" x1="-66.8246" y1="-1890.8394" x2="-8.5545" y2="-1771.823" gradientTransform="matrix(1 0 0 -1 324 -1478.6309)">
				<stop  offset="0" style="stop-color:#FFFFFF;stop-opacity:0"/>
				<stop  offset="1" style="stop-color:#FFFFFF"/>
			</linearGradient>
			<path class="st6" d="M349.7,226.1l9.2,4.9L274,429.4l-40.2-21.2L349.7,226.1z"/>
		</g>
		<g class="st0">
			
				<linearGradient id="SVGID_7_" gradientUnits="userSpaceOnUse" x1="38.0993" y1="-1914.7655" x2="29.0673" y2="-1782.5615" gradientTransform="matrix(1 0 0 -1 324 -1478.6309)">
				<stop  offset="0" style="stop-color:#FFFFFF;stop-opacity:0"/>
				<stop  offset="1" style="stop-color:#FFFFFF"/>
			</linearGradient>
			<path class="st7" d="M349.1,228.7l10.4-0.4l25.8,214.3l-45.4,1.8L349.1,228.7z"/>
		</g>
		<g class="st0">
			
				<linearGradient id="SVGID_8_" gradientUnits="userSpaceOnUse" x1="140.8721" y1="-1883.0457" x2="66.9546" y2="-1773.0596" gradientTransform="matrix(1 0 0 -1 324 -1478.6309)">
				<stop  offset="0" style="stop-color:#FFFFFF;stop-opacity:0"/>
				<stop  offset="1" style="stop-color:#FFFFFF"/>
			</linearGradient>
			<path class="st8" d="M349.9,231.3l8.8-5.5l129.5,172.6l-38.6,24.2L349.9,231.3z"/>
		</g>
		<g class="st0">
			
				<linearGradient id="SVGID_9_" gradientUnits="userSpaceOnUse" x1="214.0151" y1="-1804.2114" x2="94.9942" y2="-1745.9097" gradientTransform="matrix(1 0 0 -1 324 -1478.6309)">
				<stop  offset="0" style="stop-color:#FFFFFF;stop-opacity:0"/>
				<stop  offset="1" style="stop-color:#FFFFFF"/>
			</linearGradient>
			<path class="st9" d="M351.9,233.1l4.9-9.1l198.5,84.7L534,348.9L351.9,233.1z"/>
		</g>
		<g class="st0">
			
				<linearGradient id="SVGID_10_" gradientUnits="userSpaceOnUse" x1="237.9288" y1="-1699.4087" x2="105.6933" y2="-1708.4452" gradientTransform="matrix(1 0 0 -1 324 -1478.6309)">
				<stop  offset="0" style="stop-color:#FFFFFF;stop-opacity:0"/>
				<stop  offset="1" style="stop-color:#FFFFFF"/>
			</linearGradient>
			<path class="st10" d="M354.5,233.7l-0.4-10.4l214.3-25.7l1.7,45.3L354.5,233.7z"/>
		</g>
		<g class="st0">
			
				<linearGradient id="SVGID_11_" gradientUnits="userSpaceOnUse" x1="206.2479" y1="-1596.6825" x2="96.2644" y2="-1670.6317" gradientTransform="matrix(1 0 0 -1 324 -1478.6309)">
				<stop  offset="0" style="stop-color:#FFFFFF;stop-opacity:0"/>
				<stop  offset="1" style="stop-color:#FFFFFF"/>
			</linearGradient>
			<path class="st11" d="M357.1,232.9l-5.5-8.7L524.2,94.7l24.2,38.4L357.1,232.9z"/>
		</g>
		<g class="st0">
			
				<linearGradient id="SVGID_12_" gradientUnits="userSpaceOnUse" x1="127.3755" y1="-1523.5021" x2="69.1054" y2="-1642.5186" gradientTransform="matrix(1 0 0 -1 324 -1478.6309)">
				<stop  offset="0" style="stop-color:#FFFFFF;stop-opacity:0"/>
				<stop  offset="1" style="stop-color:#FFFFFF"/>
			</linearGradient>
			<path class="st12" d="M358.9,230.9l-9.2-4.9l84.8-198.3l40.3,21.1L358.9,230.9z"/>
		</g>
		<g class="st0">
			
				<linearGradient id="SVGID_13_" gradientUnits="userSpaceOnUse" x1="22.5235" y1="-1499.5823" x2="31.5565" y2="-1631.7861" gradientTransform="matrix(1 0 0 -1 324 -1478.6309)">
				<stop  offset="0" style="stop-color:#FFFFFF;stop-opacity:0"/>
				<stop  offset="1" style="stop-color:#FFFFFF"/>
			</linearGradient>
			<path class="st13" d="M359.5,228.3l-10.4,0.4L323.3,14.5l45.4-1.8L359.5,228.3z"/>
		</g>
	</g>
	<path class="st14" d="M61.3,478.7l161-68.9c0,0,47.5,10.2,41,38.4c0,0-96.5,33.9-138.8,69.2l-81.6-24.4L61.3,478.7z"/>
	<path class="st15" d="M266.1,447c0,0-96.5,33.9-138.8,69.2L69,498.4c73.5-10.4,171.8-62.1,192.3-70.7
		C265.6,432.9,267.9,439.3,266.1,447z"/>
	<path class="st15" d="M265.8,390.9c6.2,1.8,12.4,3.9,18.3,6.3c2.5,1,5,2,7.5,3l-0.2-1.5c-3.8-1.8-7.8-3.3-11.8-4.5
		c-4-1.8-8.1-3.4-12.1-5c-0.6-0.3-1.3-0.5-1.8-0.6L265.8,390.9z"/>
	<path class="st15" d="M226.6,424.7c1.1,3.8,2.9,7.3,5.1,10.5c-5.7-9.4-7.2-22.6-2.6-31.8c2.3-4.5,5.6-8.3,9.4-11.5l-0.6-0.7
		c-2,1.7-4,3.4-5.7,5.3c-7.4,7.4-8.6,17.9-5.9,27.4L226.6,424.7z M270.4,463.8c-4,2.3-10.7,3-10.7,3c-4.1-0.4-8.8-1.4-12.4-3.9
		c-3.5-2.5-6.7-5.8-8.9-9.5l5,8.2c1.6,1.4,3.4,2.6,5.3,3.6c3.8,1.9,7.8,3.3,12.2,3c3.3-0.3,6.6-1.9,9.9-3.1c0,0,8.6-4,21.8-6.1
		l-3.3-1.1C289.3,457.7,273.1,462.9,270.4,463.8z"/>
	<path class="st14" d="M223,458.1c2.2,3.8,5.9,8.4,9.5,10.9c3.5,2.5,7.8,3.5,11.9,3.9c0.1,0,0.1,0,0.1,0c3.6,0.1,7.4-1.4,10.9-2.7
		c0.8-0.3,14.9-4.8,15.7-5.3c0.4-0.2,0.9-0.3,1.5-0.5c0.5-0.2,1.1-0.5,1.5-0.5c-3.9-0.5-4.4-0.4-7.7-1.5c-2.4-0.9-5.2-2.4-5.9-2.9
		c-5.2-3.4-7.9-8.2-3.2-14.4c-1.1-0.4-2.1-0.9-2.9-1.5c-1.4-1.2-2.7-2.6-3.6-4.2c-0.7,2.2-1.7,4.5-3.1,6c-4.2,5.2-9.2,7.9-15.7,9.1
		c9.4-3.9,17.9-12.5,18.2-23.2c0-0.4-0.3-0.5-0.6-0.7c-0.6-0.1-1-0.1-1.4-0.1c-1.8-0.5-3.5-1.4-4.6-2.6c-0.9-0.8-1.6-1.7-2.3-2.9
		c-0.9-1.6-0.7-3.1,0.1-4.5c0.7-3.3,3.7-5.9,7.4-7.1c-1.1-0.9-2.4-1.7-3.9-2.2c-0.6-0.3-0.5-1.2,0.2-1.1c2.6,0.6,4.5,2.3,6.5,4"/>
	<path class="st14" d="M292.4,406.4c-3.1-2.5-7.4-4.2-11.8-4.3c0.7-0.2,1.5-0.5,2.2-0.6c0.4-0.2,0.1-0.7-0.3-0.5
		c-1.8,0.5-3.5,1-5.2,1.4c-1.4,0.2-2.6,0.5-3.8,1.1c-0.8,0.2-1.6,0.3-2.4,0.6c-5.5-1.2-10.4-2.5-15.6-5.3c-2.8-1.5-6.4-5.1-10.2-7.7
		c1.6-0.6,3.4-1.1,5-1.3c1,0,2.1-0.1,3-0.1c4.1-0.6,8.4,0.2,12.3,1.4c6.2,1.8,12.4,3.9,18.3,6.3c3.5,1.4,7,2.7,10.3,4.4
		c2,0.9,4.5,1.7,5.8,3.6"/>
	<path class="st14" d="M227.6,463.7c-3.1-1.8-13.1-25.7-10.9-22.5c-5.7-9.4-7.2-22.6-2.6-31.8c2.3-4.5,5.6-8.3,9.4-11.5
		c1.3-1,2.7-2,4-3c3.7-2.5,9.1-6.5,13.8-4.4c1.8,0.8,3.2,1.9,4.9,3c4.1,2.7,7.9,5.7,12.4,7.9L227.6,463.7z"/>
	<path class="st15" d="M224.3,456.1c3.1-0.4,5.9-0.9,8.3-1.7c6.3-1.2,11.1-3.9,15.3-9c1.3-1.6,2.3-3.8,3.1-6
		c0.9,1.6,2.2,3.1,3.6,4.2c0.8,0.7,1.8,1.2,2.9,1.5c-4.7,6.2-2.2,11,3.2,14.4c0.8,0.4,3.5,2.1,5.9,2.9c2.8,1,3.5,1,5.9,1.3l0.2,0.7
		c-0.5,0.2-0.9,0.3-1.5,0.5c-0.8,0.3-14.9,5-15.7,5.3c-3.5,1.4-7.3,2.9-10.9,2.7l-0.1,0c-4.1-0.4-8.3-1.5-11.9-3.9
		c-3.5-2.5-7.3-7.1-9.5-10.9L224.3,456.1z"/>
	<path class="st16" d="M299.4,322.6c1.8,0.1,5.6,0.2,7.6,0.4c1.2,0.2,2.5,0.6,3.7,1c2.2,0.6,4.3,1.6,6.4,2.6
		c1.1,0.8,2.4,1.6,3.4,2.3c0.1,0.3,0.2,0.7,0.2,1c0,0.1-0.1,0.3-0.1,0.4c-0.9,2.2-2,4.5-2.5,6.8c-1.2,5.1-3.7,10.3-6.1,14.9
		c-2.5,5-5.2,9.9-7.6,15c-2.5,5.3-5.6,10.4-8,15.7c-2.3,5-5.4,9.8-8.1,14.6c-2.7,4.9-5.1,9.9-7.8,14.8c-2.8,4.9-5.8,10.1-7.6,15.5
		c-1.7,5.3-4.7,10-7,15.1c-1.2,3.2-1.9,6.4-3.5,9.5c-1.4,2.9-3.3,5.7-4.7,8.7c-1.5,3.5-3,7.1-4.7,10.6
		c-5.7,12.7-10.5,25.8-17.3,38.1c-3.6,6.4-6.8,13.3-9.6,20c-2.9,6.4-6.4,12.4-9.3,18.9c-2.9,6.4-5.7,12.8-8.9,19.3
		c-1.3,2.7-2.1,5.7-3.5,8.4c-1.8,3.2-3.6,6.7-4.8,10.2c-1,2.6-2.7,4.8-4.1,7.1c-0.9,2-1.8,3.9-2.7,5.7c-1,2-4.5,1.5-7.3,0.1
		c-3.1-1.5-7-3.4-7.4-6c-0.2-1.5,0.2-2.6,1.1-3.6c0.4-0.6,0.9-1.1,1.3-1.8c0-0.1,0-0.1,0-0.1c5.1-14,12.5-27.1,18.9-40.6
		c6.5-13.5,13.6-26.8,20.4-40.3c7-13.6,13.2-27.4,19-41.4c3.6-8.6,6.5-16.3,10.1-24.9c-0.1-0.1,0.2-1.4,0.4-1.5
		c2-5.6,4.4-11,6.9-16.3c1.1-2.4,2.1-4.9,3.1-7.2c1.1-2.6,2.8-5.2,3.9-7.8c2.1-4.9,4.4-9.8,6.4-14.6c2.3-5.2,4-10.6,6.4-15.7
		c4.7-10.2,8.1-20.9,12.1-31.2c2.1-5.3,4.1-10.6,6.7-15.7c0.9-1.7,1.5-3.5,2-5.3C297.8,323.5,297.1,322.5,299.4,322.6z"/>
	<path class="st17" d="M191.8,593.9l0.1-0.1l0-0.1c1-3.2,3.3-5.7,4.5-8.8c1.2-3.2,2.8-6.3,4.3-9.5c2.9-6.1,5.4-12.4,8.5-18.4
		c3.3-6.4,6.1-13.1,9.1-19.7c3-6.3,6.2-12.4,9.1-18.9c0.4-0.8,0.8-1.7,1.3-2.5c12.6-46.5,31.3-90.7,52.8-133.6
		c5.5-11,11.9-21.7,13.1-34.5c0.8-8.7,1.7-19.5,21.4-18.2c0.5,0,1.2,0.4,1.5,0.6c0.3-0.6,0.5-1,0.8-1.5c-0.9-0.9-2.1-1.7-3.4-2.5
		c2.6,0.9,5,2.1,6.5,3.7c-1,2.2-2.3,4.5-3,6.8c-1.7,5.3-4,10.6-6.7,15.3c-2.7,4.8-4.8,9.5-7.3,14.3c-2.7,5.2-5.5,10.4-8,15.7
		c-2.5,5.4-5.8,10.6-8.7,15.8c-2.7,4.9-5.1,9.9-7.8,14.7c-1.4,2.4-2.4,5-3.7,7.4c-1.3,2.2-2.6,4.5-3.2,6.8
		c-1.4,5.7-4.9,10.6-6.6,16.2l0,0.1c-1.5,3.2-2.2,6.7-4.1,9.8c-1.7,2.7-3.2,5.3-4.5,8.1c-2.9,6.6-5.5,13.2-8.6,19.8
		c-5.9,13-8,19.4-18.4,38.8c-3.3,6.2-5.6,12.3-9.3,18.9c-3.6,6.3-5.8,13.2-9.1,19.7c-3.1,6-4.9,11.3-7.8,17.4
		c-1.5,3.1-3.7,7.3-4.9,10.5c-1.3,3.1-3.5,5.6-4.5,8.8l0,0.1l-1,1.5c-0.9,1.4-1.2,4.8-5.5,3.4c-0.8-0.2-2.1-0.6-2.9-1
		C188.7,599.5,190.9,595.3,191.8,593.9z"/>
	<path class="st18" d="M301.7,368.1c2.7-7.9,4.9-16,8.7-23.5c2.8-5.6,5.6-11.3,7-17.5c1.5,0.8,2.9,1.7,3.9,2.7c-1,2.2-2.3,4.5-3,6.8
		c-1.7,5.3-4,10.6-6.7,15.3c-2.7,4.8-4.8,9.5-7.3,14.3c-2.7,5.2-5.5,10.4-8,15.7c-1.5,3.3-3.4,6.6-5.2,9.8
		C294.8,384,298.9,376.3,301.7,368.1z"/>
	<path class="st19" d="M182,591c1.3-1.6,2.1-3.4,2.8-5.3c0-0.1-0.1-0.3-0.3-0.5c0.5-1,1-2.1,1.5-3.1c12.8-27.1,26.3-53.8,39.9-80.5
		c11.7-22.9,20.7-46.9,29.9-70.8c3.7-7.3,7.4-14.5,10.5-21.9c4.3-10.2,8.7-20.2,12.8-30.4c4.3-10.3,8.1-20.7,12.1-31.2
		c2-5.4,4.1-10.7,6.4-16c0.3-0.6,1.4-3.8,2.3-6.9c3.3-0.5,9.6,0,14.7,1.8c1.4,0.6,2.5,1.5,3.4,2.5c-0.3,0.6-0.5,1-0.8,1.5
		c-0.4-0.3-1-0.6-1.5-0.6c-19.7-1.3-20.5,9.6-21.4,18.2c-1.2,12.8-7.5,23.5-13.1,34.5c-21.5,42.9-40.2,87.1-52.8,133.6
		c-0.4,0.8-0.8,1.7-1.3,2.5c-2.9,6.3-6.2,12.6-9.1,18.9c-3,6.6-5.8,13.2-9.1,19.7c-3.1,6-5.6,12.3-8.5,18.4c-1.5,3.1-3,6.3-4.3,9.5
		c-1.3,3.1-3.5,5.6-4.5,8.8l0,0.1l-0.1,0.1c-0.9,1.4-1.9,4.9-5.2,4.2c-0.6-0.4-1.3-0.6-1.8-1C181.2,595,180.3,592.8,182,591z"/>
	<path class="st20" d="M217.6,533c-0.5,1.1-7.7,23.7-8.2,24.9c-3.1,6-5.6,12.3-8.5,18.4c-1.5,3.1-3,6.3-4.3,9.5
		c-1.3,3.1-3.5,5.6-4.5,8.8l0,0.1l-0.1,0.1c-0.9,1.4-2,5.3-5.7,3.9c-1.5-0.5-2.9-1.4-4.3-2.2c-3.8-2-3.7-2.7-3.6-5.2
		c0.1-1.9,1.6-2.3,2.3-4.1c0-0.1,1-2.4,0.9-2.5c0.5-1,2.2-5.8,2.7-7c8.2-17.3,39.1-79.9,47.8-97.1C232.5,488.8,216,524.8,217.6,533z
		"/>
	<path class="st19" d="M321.6,347.9c-0.6-2-2.6-3.7-4.4-5c-2.1-1.4-4.1-3-6.1-4.7c-2.7-2.1-5.4-4-8.2-5.7c-2.4-1.4-5.4-3.8-8.1-3.4
		c-1.5,0.2-2.6,1.2-3.5,2.2c-1.6,1.7-2.8,3.3-0.2,5.4c5.5,4.6,11,9.2,17,13.2c2.5,1.7,5.4,3.9,8.4,4.2c2.5,0.2,4.3-1.1,5.2-3.2
		C322,349.8,321.9,348.9,321.6,347.9z"/>
	<path class="st18" d="M291.2,331.3c0.9-1,2-2,3.5-2.2c2.7-0.4,5.7,2,8.1,3.4c2.8,1.8,5.5,3.8,8.2,5.7c2,1.6,4.1,3.1,6.1,4.7
		c1.8,1.2,3.8,3,4.4,5c0.3,0.9,0.3,1.9,0,2.9c-0.7,2.1-2.6,3.4-5.2,3.2c-2.9-0.3-5.9-2.5-8.4-4.2c-6-4-11.6-8.6-17-13.2
		C288.6,334.5,289.8,333.1,291.2,331.3z M291.4,335.2c4.1,3.5,8.4,6.9,12.9,9.9c1.8,1.3,4.1,3,6.3,3.2c1.9,0.2,3.3-0.9,3.9-2.5
		c0.2-0.7,0.2-1.5,0.1-2.2c-0.5-1.5-2-2.9-3.4-3.8c-1.6-1.2-3.1-2.3-4.7-3.5c-2-1.6-4.1-3-6.2-4.4c-1.8-1-4.1-2.9-6.1-2.5
		c-1.1,0.2-2,0.9-2.7,1.7C290.3,332.5,289.4,333.7,291.4,335.2z"/>
	<path class="st16" d="M291.2,331.3c0.9-1,2-2,3.5-2.2c1.1-0.2,2.3,0.2,3.5,0.7c-0.7,0.4-1.9,0.8-2.4,1.3c-1.6,1.7-1.7,3.1,0.4,5.6
		c4.6,5.6,9.8,9.6,15.9,13.6c1.8,1.2,4.3,2.6,7.1,3.2c-0.8,0.4-1.8,0.6-2.9,0.5c-2.9-0.3-5.9-2.5-8.4-4.2c-6.1-4-11.6-8.6-17-13.2
		C288.6,334.5,289.8,333.1,291.2,331.3z"/>
	<path class="st19" d="M328,338.6c-1.2-2-3.8-3.6-6.1-4.7c-2.7-1.3-5.2-2.7-7.8-4.1c-3.4-1.8-6.9-3.6-10.3-5.1
		c-2.9-1.3-6.7-3.3-9.7-2.6c-1.6,0.3-2.5,1.5-3.3,2.6c-1.3,2-2.3,3.5,1,5.4c7.2,4.1,14.3,8.2,21.7,11.8c3.1,1.4,6.9,3.4,10.1,3.4
		c2.9-0.1,4.6-1.7,4.9-3.8C328.7,340.5,328.6,339.6,328,338.6z"/>
	<path class="st18" d="M290.7,324.7c0.8-1.1,1.7-2.3,3.3-2.6c3-0.7,6.8,1.4,9.7,2.6c3.5,1.5,7,3.3,10.3,5.1c2.7,1.4,5.2,2.8,7.8,4.1
		c2.2,1.1,4.9,2.7,6.1,4.7c0.6,0.9,0.8,1.9,0.5,2.9c-0.5,2.2-2.2,3.8-4.9,3.8c-3.3,0-7.1-2.1-10.1-3.4c-7.5-3.4-14.7-7.5-21.7-11.8
		C288.4,328.4,289.4,326.7,290.7,324.7z M291.7,328.8c5.3,3.1,10.8,6.3,16.5,8.8c2.4,1.1,5.8,3.9,8.2,3.8c2.2-0.1,5.1-2.1,5.3-3.8
		c0.1-0.8-0.6-2.4-1.6-2.8c-1.7-0.6-3.8-2.3-5.5-3.2c-2-1-3.9-2-6-3.2c-2.5-1.4-5.2-2.7-7.8-3.8c-2.2-0.9-5.2-2.5-7.3-2
		c-1.2,0.3-2,1.2-2.5,2C289.9,326.1,289.2,327.2,291.7,328.8z"/>
	<path class="st16" d="M290.7,324.7c0.8-1.1,1.7-2.3,3.3-2.6c1.2-0.3,2.6-0.1,4,0.4c-0.7,0.6-1.9,0.9-2.4,1.6
		c-1.3,2-1.2,3.2,1.7,5.7c6.4,5.2,13.1,8.8,20.6,12.4c2.2,1,5.4,2.1,8.6,2.4c-0.8,0.4-1.8,0.8-3,0.8c-3.3,0-7.1-2.1-10.1-3.4
		c-7.5-3.4-14.7-7.5-21.7-11.8C288.4,328.4,289.4,326.7,290.7,324.7z"/>
	<path class="st19" d="M336.1,329.8c-1.7-2-4.8-3.7-7.6-4.8c-3.2-1.2-6.3-2.8-9.5-4.2c-4-1.8-8.2-3.5-12.4-5
		c-3.5-1.2-8.1-3.3-11.3-2.6c-1.8,0.3-2.7,1.6-3.3,2.7c-1.2,2.1-2.1,3.6,2,5.7c8.7,4.2,17.3,8.2,26.2,11.7c3.8,1.4,8.2,3.5,11.9,3.4
		c3.1-0.1,4.9-1.7,5.1-4C337.3,331.7,336.9,330.7,336.1,329.8z"/>
	<path class="st18" d="M292,316c0.6-1.1,1.6-2.4,3.3-2.7c3.3-0.7,7.9,1.3,11.3,2.6c4.2,1.5,8.4,3.2,12.4,5c3.2,1.4,6.3,2.9,9.5,4.2
		c2.6,1.1,5.9,2.8,7.6,4.8c0.7,0.9,1.2,1.9,1.1,3c-0.2,2.2-1.9,3.9-5.1,4c-3.7,0.1-8.2-1.9-11.9-3.4c-8.9-3.4-17.7-7.5-26.2-11.7
		C290,319.8,290.9,318.1,292,316z M293.8,320.2c6.6,3.2,13.8,5.1,19.9,8.8c3.9,2.5,7.2,1.2,9.9,1.3c2.5-0.1,6.8,2.9,7,1.2
		c0.1-0.8-1.5-4.2-2.1-5c-1.3-1.5-6.6-3-8.5-3.9c-2.4-1-4.7-2-7.1-3.2c-3.1-1.4-6.3-2.6-9.5-3.9c-2.6-0.9-6.1-2.5-8.6-2
		c-1.4,0.3-2,1.2-2.5,2.2C291.4,317.4,290.7,318.7,293.8,320.2z"/>
	<path class="st16" d="M292,316.2c0.6-1.1,1.6-2.4,3.3-2.7c1.4-0.3,2.9-0.1,4.5,0.2c-0.7,0.6-2,1-2.4,1.7c-1.2,2.1-0.8,3.5,2.8,5.8
		c7.9,5.2,13.6,8.4,22.5,11.9c2.8,1,8.9,2.7,12.5,2.9c-0.8,0.6-1.9,0.9-3.3,0.9c-3.7,0.1-8.2-1.9-11.9-3.4
		c-8.9-3.4-17.7-7.5-26.2-11.7C290,319.8,290.9,318.1,292,316.2z"/>
	<path class="st21" d="M313.5,245c9.4,22.5,35.4,33.3,58,23.9c0.5-0.2,0.8-0.9,0.5-1.4c-0.2-0.5-0.9-0.8-1.4-0.5
		c-21.6,8.9-46.4-1.4-55.3-22.8c-0.2-0.5-0.9-0.8-1.4-0.5C313.5,243.9,313.2,244.5,313.5,245z"/>
	<path class="st21" d="M344.2,232.3c2.4,5.7,9,8.4,14.6,6c5.7-2.4,8.4-9,6-14.6c-2.4-5.7-9-8.4-14.6-6
		C344.5,220.1,341.8,226.7,344.2,232.3z M362.9,224.5c2,4.7-0.3,10-5,12c-4.7,2-10-0.3-12-5c-2-4.7,0.3-10,5-12
		C355.7,217.6,361.1,219.9,362.9,224.5z"/>
	<path class="st21" d="M352.6,223.4c-2.6,1.1-3.8,4.1-2.8,6.7c1.1,2.6,4.1,3.8,6.7,2.8c2.6-1.1,3.8-4.1,2.8-6.7
		C358.1,223.4,355.2,222.3,352.6,223.4z"/>
	<path class="st21" d="M401.8,208.3l-3.2,1.4l0.3,0.7l3.2-1.4L401.8,208.3z"/>
	<path class="st21" d="M402.9,211l-3.4,1.2l0.3,0.8l3.4-1.2L402.9,211z"/>
	<path class="st21" d="M403.8,213.7l-3.4,1.1l0.2,0.8l3.4-1.1L403.8,213.7z"/>
	<path class="st21" d="M404.6,216.4l-3.4,0.8l0.2,0.8l3.4-0.8L404.6,216.4z"/>
	<path class="st21" d="M405.2,219.1l-3.5,0.7l0.2,0.8l3.5-0.7L405.2,219.1z"/>
	<path class="st21" d="M405.6,221.9l-3.5,0.4l0.2,0.8l3.5-0.4L405.6,221.9z"/>
	<path class="st21" d="M406,224.7l-3.6,0.3l0,0.8l3.6-0.3L406,224.7z"/>
	<path class="st21" d="M406.1,227.6h-3.6l0,0.8h3.6L406.1,227.6z"/>
	<path class="st21" d="M406.1,230.3l-3.6-0.1l0,0.8l3.6,0.1L406.1,230.3z"/>
	<path class="st21" d="M405.9,233.2l-3.6-0.3l-0.1,0.8l3.6,0.3L405.9,233.2z"/>
	<path class="st21" d="M405.6,236l-3.4-0.6l-0.1,0.8l3.4,0.6L405.6,236z"/>
	<path class="st21" d="M405.2,238.7l-3.5-0.7l-0.1,0.8l3.5,0.7L405.2,238.7z"/>
	<path class="st21" d="M404.4,241.5l-3.5-1l-0.2,0.8l3.5,1L404.4,241.5z"/>
	<path class="st21" d="M403.7,244.3l-3.3-1.1l-0.2,0.7l3.3,1.1L403.7,244.3z"/>
	<path class="st21" d="M402.7,246.9l-3.3-1.2l-0.2,0.7l3.3,1.2L402.7,246.9z"/>
	<path class="st21" d="M401.7,249.6l-3.2-1.5l-0.4,0.7l3.2,1.5L401.7,249.6z"/>
	<path class="st21" d="M400.5,252.1l-3.2-1.7l-0.4,0.7l3.2,1.7L400.5,252.1z"/>
	<path class="st21" d="M399.2,254.6l-3.1-1.8l-0.4,0.7l3.1,1.8L399.2,254.6z"/>
	<path class="st21" d="M397.6,257l-3-1.9l-0.4,0.7l3,1.9L397.6,257z"/>
	<path class="st21" d="M396.1,259.2l-2.8-2.1l-0.5,0.7l2.8,2.1L396.1,259.2z"/>
	<path class="st21" d="M394.2,261.5l-2.7-2.2l-0.5,0.6l2.7,2.2L394.2,261.5z"/>
	<path class="st21" d="M392.4,263.6l-2.6-2.4l-0.5,0.6l2.6,2.4L392.4,263.6z"/>
	<path class="st21" d="M390.4,265.6l-2.4-2.5l-0.5,0.6l2.4,2.5L390.4,265.6z"/>
	<path class="st21" d="M388.4,267.5l-2.3-2.7l-0.7,0.6l2.3,2.7L388.4,267.5z"/>
	<path class="st21" d="M386.2,269.3l-2.2-2.8l-0.7,0.4l2.2,2.8L386.2,269.3z"/>
	<path class="st21" d="M383.9,270.9l-2-2.9l-0.7,0.4l2,2.9L383.9,270.9z"/>
	<path class="st21" d="M381.5,272.5l-1.9-3.1l-0.7,0.4l1.9,3.1L381.5,272.5z"/>
	<path class="st21" d="M379.1,273.9l-1.6-3.1l-0.7,0.4l1.6,3.1L379.1,273.9z"/>
	<path class="st21" d="M376.5,275.2L375,272l-0.7,0.3l1.5,3.2L376.5,275.2z"/>
	<path class="st21" d="M374,276.3l-1.4-3.2l-0.7,0.3l1.4,3.2L374,276.3z"/>
	<path class="st21" d="M371.4,277.3l-1.1-3.4l-0.8,0.3l1.1,3.4L371.4,277.3z"/>
	<path class="st21" d="M368.7,278.1l-1-3.4l-0.8,0.2l1,3.4L368.7,278.1z"/>
	<path class="st21" d="M366,278.9l-0.7-3.5l-0.8,0.2l0.7,3.5L366,278.9z"/>
	<path class="st21" d="M363.1,279.4l-0.5-3.5l-0.8,0.2l0.5,3.5L363.1,279.4z"/>
	<path class="st21" d="M360.4,279.8l-0.4-3.5l-0.8,0l0.4,3.5L360.4,279.8z"/>
	<path class="st21" d="M357.5,279.9l-0.1-3.6l-0.8,0l0.1,3.6L357.5,279.9z"/>
	<path class="st21" d="M354.7,280l0-3.6l-0.8,0v3.6L354.7,280z"/>
	<path class="st21" d="M351.9,280l0.3-3.6l-0.8-0.1l-0.3,3.6L351.9,280z"/>
	<path class="st21" d="M349,279.7l0.4-3.6l-0.8-0.1l-0.4,3.6L349,279.7z"/>
	<path class="st21" d="M346.3,279.4l0.7-3.5l-0.8-0.1l-0.7,3.5L346.3,279.4z"/>
	<path class="st21" d="M343.5,278.8l0.8-3.5l-0.8-0.2l-0.8,3.5L343.5,278.8z"/>
	<path class="st21" d="M340.7,278.1l1-3.5l-0.8-0.2l-1,3.5L340.7,278.1z"/>
	<path class="st21" d="M338.1,277.2l1.2-3.3l-0.7-0.2l-1.2,3.3L338.1,277.2z"/>
	<path class="st21" d="M335.5,276.2l1.4-3.3l-0.7-0.2l-1.4,3.3L335.5,276.2z"/>
	<path class="st21" d="M332.8,275.1l1.5-3.2l-0.7-0.4l-1.5,3.2L332.8,275.1z"/>
	<path class="st21" d="M330.3,273.8l1.7-3.1l-0.7-0.4l-1.7,3.1L330.3,273.8z"/>
	<path class="st21" d="M327.9,272.4l1.9-3l-0.7-0.4l-1.9,3L327.9,272.4z"/>
	<path class="st21" d="M325.5,270.9l2.1-3l-0.7-0.5l-2.1,3L325.5,270.9z"/>
	<path class="st21" d="M323.3,269.2l2.2-2.8l-0.6-0.5l-2.2,2.8L323.3,269.2z"/>
	<path class="st21" d="M321.1,267.5l2.4-2.7l-0.6-0.5l-2.4,2.7L321.1,267.5z"/>
	<path class="st21" d="M319,265.5l2.5-2.6l-0.6-0.5l-2.5,2.6L319,265.5z"/>
	<path class="st21" d="M317,263.5l2.6-2.4l-0.6-0.5l-2.6,2.4L317,263.5z"/>
	<path class="st21" d="M315.1,261.4l2.8-2.2l-0.4-0.7l-2.8,2.2L315.1,261.4z"/>
	<path class="st21" d="M313.4,259.1l2.9-2l-0.4-0.7l-2.9,2L313.4,259.1z"/>
	<path class="st21" d="M311.8,256.7l2.9-1.9l-0.4-0.7l-2.9,1.9L311.8,256.7z"/>
	<path class="st21" d="M310.3,254.3l3.1-1.8l-0.4-0.7l-3.1,1.8L310.3,254.3z"/>
	<path class="st21" d="M309,251.9l3.2-1.6l-0.3-0.7l-3.2,1.6L309,251.9z"/>
	<path class="st21" d="M307.8,249.3l3.2-1.4l-0.3-0.7l-3.2,1.4L307.8,249.3z"/>
	<path class="st21" d="M306.8,246.8l3.4-1.2l-0.3-0.8l-3.4,1.2L306.8,246.8z"/>
	<path class="st21" d="M278.1,251.2l-5.9,2.4c-12.4-39.5,5.5-82.5,42.1-101.8l2.4,5.9C283.3,175.6,267.1,214.9,278.1,251.2z"/>
	<path class="st21" d="M331.3,151.7l-2.4-5.9c39.6-12.4,82.5,5.5,101.8,42.1l-5.9,2.4C406.9,156.8,367.7,140.7,331.3,151.7z"/>
	<path class="st21" d="M294.7,252.9c-9.5-23.1-4.8-48.6,10.3-66.5c0.8-1,1.6-1.8,2.4-2.7c4-4.1,8.3-7.9,13.4-10.9l-2.6-6.2
		c-28,16.4-41.4,50-32.2,81.3l-5.9,2.4c-10.5-35.2,5.1-73.3,37.5-90.8l1.2,3l3.8,9c2.3-1.3,4.7-2.5,7.1-3.4c2.4-1.1,5-1.8,7.4-2.6
		l-2.6-6.2l-2.4-5.9c35.2-10.5,73.3,5.1,90.8,37.5l-5.9,2.4c-15.8-28.6-49-42.8-80.4-34.6l2.6,6.2c5.7-1.5,11.4-1.9,17.2-1.8
		c1.5,0.1,3,0.2,4.5,0.2c23,2.3,44,16.8,53.4,39.6c12.4,29.8,0.7,63.8-26.1,80.1l2.6,6.2c28-16.4,41.4-50,32.2-81.3l5.9-2.4
		c10.5,35.2-5.1,73.3-37.5,90.8l-2.4-5.9l-2.6-6.2c-2.3,1.3-4.7,2.5-7.1,3.4c-2.4,1.1-5,1.8-7.4,2.6l3.9,9.4l1.1,2.6
		c-35.2,10.5-73.3-5.1-90.8-37.5l5.9-2.4c15.8,28.6,49,42.8,80.4,34.6l-2.6-6.2C339.3,298.4,307,282.7,294.7,252.9z M330.4,170.1
		c-8.4,3.5-15.7,8.7-21.6,15l11,26.4l12.4,5.1c2.3-4.5,6-8.3,10.8-10.8l-2.9-7c-0.5-1.1,0.1-2.2,1.1-2.6c1.1-0.5,2.2,0.1,2.6,1.1
		l2.9,7c5.1-1.7,10.4-1.5,15.2,0l5.6-13.5l-10.6-25.4C348.3,165,339.2,166.4,330.4,170.1z M335.3,236.1
		c4.4,10.7,16.6,15.7,27.3,11.3c10.7-4.4,15.7-16.6,11.3-27.3c-4.4-10.7-16.6-15.7-27.3-11.3C335.9,213.2,330.7,225.4,335.3,236.1z
		 M412.5,204.1c-9.1-21.7-28.8-35.6-50.6-38.2l10,24.2c0.2,0.5,0.2,1.1,0.1,1.5l-5.9,14.3c4.5,2.3,8.3,6,10.8,10.8l7-2.9
		c1.1-0.5,2.2,0.1,2.6,1.1c0.5,1.1-0.1,2.2-1.1,2.6l-7,2.9c1.7,5.1,1.5,10.4,0,15.2l7,2.9c0.6,0.3,0.8,0.7,1.1,1.1
		c0.2,0.5,0.2,1.1,0.1,1.5c-0.3,0.6-0.7,0.8-1.1,1.1c-0.5,0.2-1.1,0.2-1.5,0.1l-7-2.9c-2.3,4.5-6,8.3-10.8,10.8l2.9,7
		c0.5,1.1-0.1,2.2-1.1,2.6c-1.1,0.5-2.2-0.1-2.6-1.1l-2.9-7c-5.1,1.7-10.4,1.5-15.2,0l-2.9,7c-0.3,0.6-0.7,0.8-1.1,1.1
		c-0.5,0.2-1.1,0.2-1.5,0.1c-0.6-0.3-0.8-0.7-1.1-1.1s-0.2-1.1-0.1-1.5l2.9-7c-4.5-2.3-8.3-6-10.8-10.8l-7,2.9
		c-1.1,0.5-2.2-0.1-2.6-1.1c-0.5-1.1,0.1-2.2,1.1-2.6l7-2.9c-1.7-5.1-1.5-10.4,0-15.2l-13.9-5.8l-10.9-26.2
		c-14,17.3-18.4,41.6-9.3,63.5c13.3,32,50.1,47.1,81.9,33.8C410.4,272.7,425.8,235.9,412.5,204.1z"/>
	<path class="st21" d="M377.7,304.4l2.4,5.9c-39.6,12.4-82.5-5.5-101.8-42.1l5.9-2.4C302.1,299.2,341.3,315.4,377.7,304.4z"/>
	<path class="st21" d="M438.5,247l4.4,10.5l-7.3,17.4l-12.7,5.3c-7.4,9.7-17,17.9-28.3,24l-2.4-5.9c33.4-17.9,49.6-57.2,38.6-93.5
		l5.9-2.4C441.5,217.3,441.8,232.7,438.5,247z"/>
	<path class="st14" d="M300.3,405.1c2.5,3.3,1.5,7.8-1.7,10.1l-0.1,0c-2.8,3.3-6.9,6-9.3,7.2c-2,1-4.6,1.8-7,2.3
		c-3.3,0.9-6.7,1.5-10.1,2.2c-3.8,0.7-7.5,1.2-11.3,1.5c-3.3,0.3-6.7,0.8-10,0.5c-3.4-0.3-8.2-2.3-7.4-6.7c0.7-3.7,4.3-6.2,7.8-6.7
		c0.1,0,0.1,0,0.3,0c0.3,0,0.4,0.1,0.4,0.4c1.3,1,2.7,2.1,4.1,3c0.6,0.3,3.8,2,4.9,1.9c4.6,1.5,11,1.6,14.6-1
		c0.8-0.6,1.6-1.3,2.1-1.9c0-0.1,0-0.3,0.1-0.4c3-4.2,0.9-9.5-3.5-11.9c-0.6-0.3-0.2-1.2,0.4-1.1c4,0.3,7.6-1.1,11.8-0.3
		c2.2,0.5,4.3,1.1,6.1,2.1"/>
	<path class="st14" d="M303,452.7c-4.6,4.8-10.1,9-16.6,10.4c-0.1,0-0.7,0.3-0.7,0.2c-0.8,0.2-1.6,0.2-2.5,0.2
		c-1.2-0.1-2.5-0.2-3.7-0.4c-2.2-0.1-4.3-0.4-6.3-0.9c-4.4-0.9-10.1-2.4-13.5-5.4c-2.6-2.2-3.9-5.5-2-8.6c1.2-1.8,2.8-2.8,4.6-2
		c1.5,0.1,2.9,0.2,4.1,0.3c5.5,0.3,11.1,0.3,16.6-0.1c7.5-0.4,13.3-2.8,18.1-7.3c0.9,0.9,1.7,1.7,2.7,2.5c1.8,1.4,2.7,2.9,2.9,4.1
		c0.5,1.5-0.1,3.4-1.1,4.6C304.7,451.2,303.9,452,303,452.7z"/>
	<path class="st14" d="M300.2,437.4c-4.5,5-9.3,6.9-15.9,7.2c-2.2,0.1-4.2,0-6.4,0c-3.2,0-6.3-0.3-9.3-0.2c-4.7,0-11.5,0.2-14.8-4.1
		c-1.3-1.6-1.8-3.5-1.6-5c0-1,0.3-1.8,1.3-2.7c0.1-0.1,0.3-0.3,0.5-0.4c0,0,0,0,0.1,0c0.3-0.1,0.5-0.3,0.8-0.4
		c0.1-0.1,0.3-0.1,0.4-0.3c2.6-0.6,4.8-1.1,6.5-1.2c0.1,0,0.5,0,0.5,0c0.4,0,0.8-0.2,1.4-0.2c10.6-1.6,22.7-1.8,31.3-8.9
		c1.1-0.9,2.5-2.2,3.8-3.6c1.8,1,3.6,2.1,5.6,3.1c1.5,0.9,2.4,1.8,2.8,2.8c0.6,0.5,0.6,1.3,0.4,2.5c-0.1,1.2-0.7,2.4-1.5,3.5
		C304.1,432.8,301,436.7,300.2,437.4z"/>
	<path class="st15" d="M285.7,463.2c-0.8,0.2-1.6,0.2-2.5,0.2c-1.2-0.1-2.5-0.2-3.7-0.4c-2.2-0.1-4.3-0.4-6.3-0.9
		c-4.4-0.9-10.1-2.4-13.5-5.4c-2.6-2.2-3.9-5.5-2-8.6c1.2-1.8,2.8-2.8,4.6-2c1.5,0.1,2.9,0.2,4.1,0.3c5.5,0.3,11.1,0.3,16.6-0.1
		c7.5-0.4,13.3-2.8,18.1-7.3c0.9,0.9,1.7,1.7,2.7,2.5c1.8,1.4,2.7,2.9,2.9,4.1c0.5,1.5-0.1,3.4-1.1,4.6c-0.7,0.8-1.4,1.6-2.4,2.3
		c-4.6,4.8-10.1,9-16.6,10.4C286.3,463.1,285.9,463.2,285.7,463.2z M277.9,444.6c-3.2,0-6.3-0.3-9.3-0.2c-4.7,0-11.5,0.2-14.8-4.1
		c-1.3-1.6-1.8-3.5-1.6-5c0.1-0.8,0.2-1.5,0.7-2.1c0.5-0.6,1.2-1,1.9-1.4s1.4-0.5,2.2-0.6c0.8-0.2,1.6-0.3,2.6-0.4
		c1.4-0.2,2.7-0.5,4.1-0.7c10.6-1.6,22.7-1.8,31.3-8.9c1.1-0.9,2.5-2.2,3.8-3.6c1.8,1,3.6,2.1,5.6,3.1c1.5,0.9,2.4,1.8,2.8,2.8
		c0.6,0.5,0.6,1.3,0.4,2.5c-0.1,1.2-0.7,2.4-1.5,3.5c-2.1,3.6-5.2,7.5-5.9,8.2c-4.5,5-9.3,6.9-15.9,7.2
		C282.1,444.7,280.1,444.7,277.9,444.6z M301.6,456c1.6-1.3,3.2-2.7,4.4-4c1.5-1.4,3.1-4.6,2.3-6.8c-1.2-3.5-4.2-4.6-6.6-6.9
		c2.1-2.1,3.9-4.5,5.7-7.5c4.8-7.9-1.3-11.5-7.9-13.9c0.1,0,0.4,0,0.5-0.2c2.9-2.9,5.9-6.8,3.4-10.8c-1.8-2.8-5.8-4.4-9.3-5.7
		c-0.8-0.5-1.8-1-2.8-1.4l0.2,1.5c1,0.4,2,0.9,2.9,1.3c2,0.9,4.5,1.7,5.8,3.6c2.5,3.3,1.5,7.8-1.7,10.1l-0.1,0
		c-2.8,3.3-6.9,6-9.3,7.2c-2,1-4.6,1.8-7,2.3c-3.3,0.9-6.7,1.5-10.1,2.2c-3.8,0.7-7.5,1.2-11.3,1.5c-3.3,0.3-6.7,0.8-10,0.5
		c-3.4-0.3-8.2-2.3-7.4-6.7c0.7-3.7,4.3-6.2,7.8-6.7c0.1,0,0.1,0,0.3,0c0.3,0,0.4,0.1,0.4,0.4c1.3,1,2.7,2.1,4.1,3
		c0.6,0.3,3.8,2,4.9,1.9c4.6,1.5,11,1.6,14.6-1c0.8-0.6,1.6-1.3,2.1-1.9c0-0.1,0-0.3,0.1-0.4c3-4.2,0.9-9.5-3.5-11.9
		c-0.3-0.1-0.3-0.5-0.2-0.8c0.3-0.3,0.7-0.3,0.9-0.3c0.5,0,1,0,1.5-0.1c3.3-0.1,6.5-0.9,9.9-0.2c2.2,0.5,4.3,1.1,6.1,2.1
		c-4-3.3-9.7-5-14.7-4.2c-1,0.2-1.8,0.3-2.6,0.6c-1.1,0.3-2.3,0.9-3.4,1c-0.7,0-1.2-0.1-1.9-0.1c-9.2-1.3-17.5-6.3-24.2-12.6
		c6.5-2,13.8-2,20.3,0c0-0.8-0.1-1.5,0-2.3c-6.9-1.9-14.3-0.5-21.4,0c-1,0-1.9,0.2-2.7,0c-1-0.2-1.8-0.6-2.8-0.9
		c-1.5-0.2-2.9,0.4-4.2,1.1c-4.2,2.2-7.5,5.8-11.5,8.4c0.1,0.3,0.3,0.4,0.6,0.7c2.8-1.6,5.2-3.9,7.9-5.5c2.7-1.7,6.1-2.8,9.1-2
		c1.7,0.5,3.2,1.4,4.6,2.4c3,2.1,5.8,4.2,8.9,6.1c4.6,2.8,9.8,5,15,6.1c0.7,0.1,1.2,0.2,1.8,0.6c0.6,0.4,1.3,0.6,2,0.9
		c1.1,0.6,2.2,1.4,3,2.6c6.7,9.6-8.3,11.1-13.7,10.4c-4-0.5-7.5-2.6-10.5-5.1c-2-1.7-4-3.5-6.5-4c-0.7-0.1-0.8,0.9-0.2,1.1
		c1.4,0.5,2.7,1.4,3.9,2.2c-3.6,1.4-6.7,4-7.4,7.1c-0.8,1.4-1,2.9-0.1,4.5c0.6,1.2,1.5,2.1,2.3,2.9c1.1,1.2,2.8,2.1,4.6,2.6
		c0.4,0,0.8,0,1.4,0.1c0.3,0,0.6,0.3,0.6,0.7c-0.3,10.6-8.7,19.3-18.2,23.2c6.4-1.1,11.5-3.9,15.7-9.1c1.3-1.6,2.3-3.8,3.1-6
		c0.9,1.6,2.2,3.1,3.6,4.2c0.8,0.7,1.8,1.2,2.9,1.5c-4.7,6.2-2.2,11,3.2,14.4l2.9,1.7c7.1,3.3,16.8,4.7,21.9,3.5
		c5.2-1,11.1-4.5,15.9-8.4"/>
	<path class="st14" d="M258.8,401.5c4.9,2.4,14.1,3,17.3,7.6c6.7,9.6-8.3,11.1-13.7,10.4c-4-0.5-7.5-2.6-10.5-5.1"/>
	<path class="st15" d="M250,432c0,0-16.3,28.7-35.3,5.2l0.3,12.6l11.8,11.2l17.5-7.9l8.5-14.4L250,432z"/>
</g>
</svg>
