<?xml version="1.0" encoding="utf-8"?>
<!-- Generator: Adobe Illustrator 23.0.0, SVG Export Plug-In . SVG Version: 6.00 Build 0)  -->
<svg version="1.1" id="Layer_1" xmlns="http://www.w3.org/2000/svg" xmlns:xlink="http://www.w3.org/1999/xlink" x="0px" y="0px"
	 viewBox="0 0 720 720" style="enable-background:new 0 0 720 720;" xml:space="preserve">
<style type="text/css">
	.st0{fill:#FFFFFF;}
	.st1{fill:#263C80;}
</style>
<g>
	<path class="st0" d="M386.7,546.4c-102.6,0-186.1-83.5-186.1-186.1s83.5-186.1,186.1-186.1c9.4,0,18.9,0.7,28.1,2.1l-1.3,8.5
		c-8.8-1.3-17.8-2-26.8-2c-97.9,0-177.5,79.6-177.5,177.5s79.6,177.5,177.5,177.5c9.3,0,18.6-0.7,27.7-2.2l1.3,8.5
		C406.3,545.7,396.5,546.4,386.7,546.4z"/>
	<g>
		<path class="st1" d="M367.5,531.9c0.8,0.1,1.7,0.2,2.5,0.3c0.5,0.1,0.9,0.1,1.4,0.1c0.8,0,1.6,0.1,2.5,0.1
			c7.5,0.3,13.5,6.5,13.5,14.1v154.4c0,8-6.7,14.4-14.7,14.1c-6.4-0.3-12.8-0.7-19.2-1.1c-6.4-0.7-12.8-1.6-19.2-2.6
			c-7.9-1.2-13.2-8.7-11.7-16.6l29.1-151.6C353.1,535.8,360.1,530.8,367.5,531.9z"/>
		<path class="st1" d="M287.2,501.2l3.5,2.6c0.3,0.2,0.6,0.4,1,0.6l3.7,2.2c5.6,3.4,7.6,10.6,4.5,16.3l-74.7,139.2
			c-3.3,6.2-11.2,8.3-17.2,4.7c-6-3.6-12-7.3-18-11c-5.8-4-11.5-8.2-17.1-12.4c-5.6-4.2-6.6-12.2-2.2-17.6l99.7-122.5
			C274.5,498.2,281.9,497.3,287.2,501.2z"/>
		<path class="st1" d="M232.6,438c0.4,0.9,0.9,1.8,1.3,2.8c0.2,0.4,0.4,0.8,0.6,1.2l1.6,2.7c3.7,6.1,1.9,14-4,18l-129.6,86.4
			c-6.3,4.2-14.9,2.3-18.8-4.2c-3.4-5.6-6.8-11.2-10-16.9c-0.2-0.3-0.3-0.5-0.4-0.8c-2.9-5.9-5.8-11.8-8.6-17.7c-3.3-6.8,0-15,7-18
			l143.7-60.2C221.9,428.6,229.5,431.5,232.6,438z"/>
		<path class="st1" d="M204.8,341.8c5.5,0.5,9.6,5.3,9.2,10.8c-0.1,2.3-0.3,4.5-0.5,6.8c0.2,2.3,0.3,4.5,0.5,6.8
			c0.3,5.5-3.7,10.3-9.2,10.8L43.4,392.3c-5.8,0.5-10.9-3.8-11.2-9.6c-0.4-7.6-0.8-15.2-1.1-22.8c0-0.3,0-0.6,0-0.9
			c0.3-7.6,0.6-15.2,1.1-22.8c0.3-5.8,5.4-10.1,11.2-9.6L204.8,341.8z"/>
		<path class="st1" d="M235.9,274.4l-1.5,2.4c-0.2,0.4-0.5,0.8-0.6,1.2c-0.4,0.8-0.8,1.7-1.1,2.5c-3.1,6.6-10.9,9.6-17.7,6.8
			l-143.2-60c-7.2-3-10.5-11.4-7.1-18.4c2.8-5.8,5.6-11.6,8.5-17.4c0.1-0.3,0.3-0.6,0.4-0.8c3.1-5.6,6.4-11.1,9.8-16.6
			c4.1-6.6,12.8-8.6,19.3-4.3L231.8,256C237.9,260.1,239.7,268.2,235.9,274.4z"/>
		<path class="st1" d="M293.2,213.5l-1.5,0.9c-0.4,0.2-0.8,0.5-1.2,0.8l-1.4,1c-6.4,4.7-15.3,3.6-20.3-2.6L172.3,95.1
			c-5.3-6.5-4.1-16.2,2.6-21.3c4.9-3.7,9.9-7.4,15-10.8c5.2-3.2,10.4-6.4,15.7-9.6c7.3-4.4,16.7-1.8,20.8,5.7l72.3,134.7
			C302.4,200.7,300,209.4,293.2,213.5z"/>
		<path class="st1" d="M377.6,186.3c-2.1,0.1-4.2,0.2-6.4,0.2c-0.4,0-0.7,0-1.1,0.1c-2.1,0.2-4.1,0.6-6.2,0.9
			c-5.4,0.9-10.5-2.8-11.5-8.2L321.8,20.1c-1.1-5.7,2.7-11.1,8.4-12c7.7-1.2,15.5-2.4,23.2-3.2c7.7-0.5,15.5-0.9,23.2-1.2
			c5.8-0.3,10.6,4.4,10.6,10.2l0,162.2C387.3,181.5,383,186,377.6,186.3z"/>
	</g>
	<circle class="st1" cx="386.2" cy="360.3" r="87.6"/>
	<g>
		<polygon class="st1" points="422.2,192.6 412.7,190.7 415.8,170.4 426.5,172.5 		"/>
		<path class="st1" d="M446.3,199.5c-3-1.3-6.1-2.2-9.2-3.1l6-19.6c3.5,1,7,2,10.3,3.5L446.3,199.5z"/>
		<polygon class="st1" points="469.1,209.8 460.4,205.5 469.2,186.9 479,191.8 		"/>
		<path class="st1" d="M490,223.5c-2.6-1.9-5.2-3.9-7.8-5.8l11.4-17c3,2,5.9,4.3,8.8,6.4L490,223.5z"/>
		<path class="st1" d="M508.9,240c-2.1-2.4-4.6-4.6-7-6.7l13.8-15.2c2.7,2.4,5.5,4.8,7.9,7.5L508.9,240z"/>
		<polygon class="st1" points="525.2,259 519.1,251.4 535,238.3 541.7,246.9 		"/>
		<polygon class="st1" points="538.4,280.3 533.7,271.8 551.3,261.2 556.5,270.7 		"/>
		<path class="st1" d="M548.4,303.2c-0.9-3.1-2.2-6.1-3.5-9.1l18.9-7.9c1.5,3.3,2.9,6.7,3.9,10.2L548.4,303.2z"/>
		<polygon class="st1" points="555.1,327.3 552.9,317.9 572.8,312.8 575.2,323.4 		"/>
		<path class="st1" d="M557.9,352.2c-0.2-3.2-0.1-6.5-0.6-9.7l20.4-2.1c0.5,3.6,0.4,7.2,0.7,10.9L557.9,352.2z"/>
		<path class="st1" d="M557.4,377.2c0.3-3.2,0.3-6.5,0.5-9.7l20.5,0.9c-0.2,3.6-0.2,7.3-0.6,10.9L557.4,377.2z"/>
		<polygon class="st1" points="553.1,401.9 555.3,392.4 575.4,396.2 573,406.9 		"/>
		<path class="st1" d="M545.2,425.7c1.4-2.9,2.5-6,3.5-9.1l19.4,6.7c-1,3.5-2.3,6.9-3.9,10.2L545.2,425.7z"/>
		<polygon class="st1" points="534.2,448.1 538.8,439.5 557,449 551.8,458.6 		"/>
		<polygon class="st1" points="519.7,468.5 525.7,460.9 542.3,472.9 535.6,481.5 		"/>
		<path class="st1" d="M502.5,486.7c2.5-2.1,4.8-4.3,7-6.8l14.7,14.3c-2.4,2.7-5.1,5.2-7.8,7.6L502.5,486.7z"/>
		<path class="st1" d="M482.9,502.4c2.7-1.9,5.2-3.9,7.8-5.8l12.5,16.3c-2.9,2.2-5.8,4.4-8.8,6.5L482.9,502.4z"/>
		<polygon class="st1" points="461.2,514.8 469.8,510.4 479.8,528.3 470.1,533.2 		"/>
		<path class="st1" d="M437.9,523.9c3.1-0.9,6.2-1.8,9.2-3.1l7.2,19.2c-3.3,1.5-6.8,2.5-10.3,3.5L437.9,523.9z"/>
		<polygon class="st1" points="413.6,529.8 423.1,527.8 427.4,547.9 416.7,550 		"/>
	</g>
	<path class="st1" d="M386,506.4c-34.7,0-68.7-12.4-95.9-36.2c-60.6-53-66.8-145.4-13.9-206c53-60.6,145.4-66.8,206-13.9l-17.1,19.5
		c-53-46.3-135.5-37.6-177.3,21.3c-31.7,44.8-28.5,107.1,7.8,148.3c34.5,39,88.2,51.2,135.3,32.3l9.7,24
		C423,502.9,404.4,506.4,386,506.4z"/>
	<path class="st1" d="M680.2,396.7l-25.5-14.1c-5.9-3.3-10.5-11.4-10.2-18.1c0,0,0.2-3.3,0-11.2c-0.1-2.7-0.1-2.7-0.1-2.7
		c-0.2-2.9,4.5-8,10.5-11.2l25.7-13.7c6-3.2,9.8-11.2,8.4-17.7l-11.9-44.7c-2.1-6.3-9.4-11.5-16.2-11.4l-29.4,0.2
		c-6.8,0.1-14.6-4.1-17.4-9.2c-2.7-5.1-8-22.7-4.4-28.3l15.2-24.4c3.5-5.7,2.7-14.4-1.7-19.4L590,137.9c-5.1-4.5-14-5.4-19.9-2
		l-25.2,14.5c-5.9,3.4-14.7,3.6-19.7,0.5c-5-3.1-18.5-15.8-18.3-22.5l0.6-28.6c0.2-6.7-5-13.9-11.4-16l-45.6-12.3
		c-6.7-1.4-14.8,2.2-18.2,8l-14.3,24.9c-0.6,1-1.2,1.9-2.1,2.8c-2.4,2.6-4,5.9-4.1,9.5l-0.2,13.9c-0.1,6.8,4.8,12.8,11.6,13.8
		c103.4,15,189.1,109.7,189.1,227.2c0,98.8-96.8,190.6-192.6,203.1c-6.7,0.9-11.7,6.6-11.8,13.4l-0.2,10.9c-0.1,3.6,1.5,7,3.8,9.7
		c1.3,1.5,2.5,3.2,3.5,5.1l14.1,25.2c3.3,5.9,11.4,9.6,18.1,8.3l45.7-11.5c6.5-2,11.7-9.2,11.6-15.8l-0.3-28.7
		c-0.1-6.7,4.1-14.3,9.4-17c5.2-2.7,23.1-7.7,29-4.3l25,14.9c5.8,3.5,14.8,2.7,19.9-1.7l33.6-32.4c4.6-4.9,5.4-13.7,2-19.4
		l-14.9-24.7c-3.5-5.7-3.7-14.4-0.6-19.3c3.1-4.8,16.1-18.1,22.9-17.9l29.2,0.7c6.8,0.1,14.2-4.9,16.4-11.2l12.4-44.6
		C689.8,408,686.1,400,680.2,396.7z"/>
</g>
</svg>
