<svg width="1440" height="700" viewBox="0 0 1440 700" fill="none" xmlns="http://www.w3.org/2000/svg">
<g opacity="0.71">
<g opacity="0.71">
<path opacity="0.71" d="M794.102 244.572L799.407 248.385L1215.52 -281.291L1169.6 -315.443L794.102 244.572Z" fill="#FFF4D2"/>
</g>
<g opacity="0.71">
<path opacity="0.71" d="M792.775 245.733L795.262 251.535L1420.6 0.871239L1397.88 -51.5162L792.775 245.733Z" fill="#FFF4D2"/>
</g>
<g opacity="0.71">
<path opacity="0.71" d="M790.952 245.899L790.289 252.364L1457.07 347.855L1463.7 291.157L790.952 245.899Z" fill="#FFF4D2"/>
</g>
<g opacity="0.71">
<path opacity="0.71" d="M789.294 245.235L785.481 250.541L1424 746.5L1458.15 700.578L789.294 245.235Z" fill="#FFF4D2"/>
</g>
<g opacity="0.71">
<path opacity="0.71" d="M788.134 243.909L782.331 246.396L1033 871.73L1085.38 849.017L788.134 243.909Z" fill="#FFF4D2"/>
</g>
<g opacity="0.71">
<path opacity="0.71" d="M787.968 242.086L781.502 241.422L686.011 908.202L742.709 914.833L787.968 242.086Z" fill="#FFF4D2"/>
</g>
<g opacity="0.71">
<path opacity="0.71" d="M788.631 240.428L783.326 236.615L367.21 766.292L413.132 800.443L788.631 240.428Z" fill="#FFF4D2"/>
</g>
<g opacity="0.71">
<path opacity="0.71" d="M789.957 239.267L787.47 233.465L-53.0001 576.5L-30.2878 628.888L789.957 239.267Z" fill="#FFF4D2"/>
</g>
<g opacity="0.71">
<path opacity="0.71" d="M791.781 239.101L792.444 232.636L-11.5 119.5L-18.1313 176.198L791.781 239.101Z" fill="#FFF4D2"/>
</g>
<g opacity="0.71">
<path opacity="0.71" d="M793.439 239.765L797.251 234.46L267.575 -181.656L233.423 -135.734L793.439 239.765Z" fill="#FFF4D2"/>
</g>
<g opacity="0.71">
<path opacity="0.71" d="M794.599 241.091L800.401 238.604L549.737 -386.729L497.35 -364.017L794.599 241.091Z" fill="#FFF4D2"/>
</g>
<g opacity="0.71">
<path opacity="0.71" d="M794.765 242.914L801.23 243.578L896.721 -423.202L840.024 -429.833L794.765 242.914Z" fill="#FFF4D2"/>
</g>
<g opacity="0.71">
<path opacity="0.71" d="M794.102 244.572L799.407 248.385L1215.52 -281.291L1169.6 -315.443L794.102 244.572Z" fill="#FFF4D2"/>
</g>
</g>
</svg>
