<svg width="1440" height="700" viewBox="0 0 1440 700" fill="none" xmlns="http://www.w3.org/2000/svg">
<g opacity="0.71">
<g opacity="0.71">
<path opacity="0.71" d="M776.363 242.417H818.637L890.09 -634.575H704.91L776.363 242.417Z" fill="#FFE8C7"/>
</g>
<g opacity="0.71">
<path opacity="0.71" d="M779.181 231.973L815.819 253.027L1316.32 -470.781L1155.84 -563.454L779.181 231.973Z" fill="#FFE8C7"/>
</g>
<g opacity="0.71">
<path opacity="0.71" d="M786.973 224.181L808.027 260.819L1603.45 -115.84L1510.78 -276.318L786.973 224.181Z" fill="#FFE8C7"/>
</g>
<g opacity="0.71">
<path opacity="0.71" d="M797.417 221.363V263.637L1674.58 335.09V149.91L797.417 221.363Z" fill="#FFE8C7"/>
</g>
<g opacity="0.71">
<path opacity="0.71" d="M808.027 224.181L786.973 260.819L1510.78 761.318L1603.45 600.84L808.027 224.181Z" fill="#FFE8C7"/>
</g>
<g opacity="0.71">
<path opacity="0.71" d="M815.819 231.973L779.181 253.027L1155.84 1048.45L1316.32 955.781L815.819 231.973Z" fill="#FFE8C7"/>
</g>
<g opacity="0.71">
<path opacity="0.71" d="M818.637 242.417H776.363L704.91 1119.58H890.09L818.637 242.417Z" fill="#FFE8C7"/>
</g>
<g opacity="0.71">
<path opacity="0.71" d="M815.819 253.027L779.181 231.973L278.682 955.781L439.16 1048.45L815.819 253.027Z" fill="#FFE8C7"/>
</g>
<g opacity="0.71">
<path opacity="0.71" d="M808.027 260.819L786.973 224.181L-55.0001 621.5L37.6727 781.978L808.027 260.819Z" fill="#FFE8C7"/>
</g>
<g opacity="0.71">
<path opacity="0.71" d="M797.417 263.637V221.363L-79.5751 149.91V335.09L797.417 263.637Z" fill="#FFE8C7"/>
</g>
<g opacity="0.71">
<path opacity="0.71" d="M786.973 260.819L808.027 224.181L84.2185 -276.318L-8.45422 -115.84L786.973 260.819Z" fill="#FFE8C7"/>
</g>
<g opacity="0.71">
<path opacity="0.71" d="M779.181 253.027L815.819 231.973L439.16 -563.454L278.682 -470.781L779.181 253.027Z" fill="#FFE8C7"/>
</g>
<g opacity="0.71">
<path opacity="0.71" d="M776.363 242.417H818.637L890.09 -634.575H704.91L776.363 242.417Z" fill="#FFE8C7"/>
</g>
</g>
</svg>
