<svg width="516.5" height="348.8" viewBox="0 0 516.5 348.8" fill="none" xmlns="http://www.w3.org/2000/svg">
<style>.Group_21_894 {
	animation: 5s linear 0s infinite normal forwards running Group_21_894;
}
@keyframes Group_21_894 {
	0% {
		opacity: 1;
	}
	20% {
		opacity: 0.3;
	}
	40% {
		opacity: 1;
	}
	60% {
		opacity: 0.3;
	}
	80% {
		opacity: 1;
	}
	100% {
		opacity: 1;
	}
}
</style><g clip-path="url(#clip_0_961)">
<path d="M405.3 51.5L424.5 86.3C451.5 47 463.8 10.7 466.7 1.3C466.7 1.2 466.7 0.999994 466.7 0.899994C466.7 0.899994 459.6 4.9 446.8 10.8C432.5 17.4 411.1 26.3 384.4 34.9L369.1 115.3L334 48.5C323.3 50.9 312.1 53 300.5 54.8L287.4 149.8L248.5 60.3C243.6 60.6 238.6 60.8 233.5 60.9C226.8 60.7 220.2 60.5 213.6 60L195.5 133.9L163.2 54.3C150.2 52.2 137.8 49.7 126 46.9L100.5 133.9L72.6 31.7C50.4 24.2 32.5 16.6 20 10.9C7.1 4.99999 0.0999985 1 0.0999985 1C0.0999985 1.1 0.0999985 1.29999 0.0999985 1.39999C3 10.8 15.2 46.6 41.7 85.6L45.5 33.1L73.3 124.8C89.8 142.1 109.6 158.5 133.2 171.9L146.4 79L179.4 192C189.3 195.2 199.7 197.8 210.7 199.8L227.1 104.8L265.5 197.9C282.6 194.1 298.4 188.8 313 182.2L320.3 88L357.9 156.1C372.9 145.1 386.1 132.9 397.6 120.3L405.3 51.5Z" fill="#554FC1" transform="translate(32.1 149.9)"/><g transform="translate(0.01 0)" class="Group_21_894">
<path d="M1.09152 0.699951L201.792 72.4C201.792 72.4 136.792 137 63.2915 111.6C63.1915 111.5 -9.70848 92.5 1.09152 0.699951Z" fill="#EA5013" transform="translate(0 0.7)"/>
<path d="M200.192 0L0.391602 74.4C0.391602 74.4 66.1916 138.1 139.392 111.7C139.392 111.7 211.992 91.7 200.192 0Z" fill="#EA5013" transform="translate(315.39 0)"/></g></g>
<defs><clipPath id="clip_0_961"><rect width="516.5" height="348.8"/></clipPath>
</defs>
</svg>