<?xml version="1.0" encoding="utf-8"?>
<!-- Generator: Adobe Illustrator 23.0.0, SVG Export Plug-In . SVG Version: 6.00 Build 0)  -->
<svg version="1.1" id="Layer_1" xmlns="http://www.w3.org/2000/svg" xmlns:xlink="http://www.w3.org/1999/xlink" x="0px" y="0px"
	 viewBox="0 0 613 613" style="enable-background:new 0 0 613 613;" xml:space="preserve">
<style type="text/css">
	.st0{clip-path:url(#SVGID_2_);}
	.st1{fill:url(#SVGID_3_);}
	.st2{fill:url(#SVGID_4_);}
	.st3{fill:url(#SVGID_5_);}
	.st4{fill:url(#SVGID_6_);}
	.st5{fill:url(#SVGID_7_);}
	.st6{fill:url(#SVGID_8_);}
	.st7{fill:url(#SVGID_9_);}
</style>
<g>
	<defs>
		<rect id="SVGID_1_" x="17.5" y="17.5" width="578.1" height="578.1"/>
	</defs>
	<clipPath id="SVGID_2_">
		<use xlink:href="#SVGID_1_"  style="overflow:visible;"/>
	</clipPath>
	<g class="st0">
		
			<linearGradient id="SVGID_3_" gradientUnits="userSpaceOnUse" x1="-153.3424" y1="-1682.2748" x2="-153.3424" y2="-1888.922" gradientTransform="matrix(1 0 0 -1 324 -1478.6309)">
			<stop  offset="0" style="stop-color:#418DFF"/>
			<stop  offset="1" style="stop-color:#8A15FF"/>
		</linearGradient>
		<path class="st1" d="M185.2,224.6c10.6-4.3,22-6.6,33.5-6.6c4,0,7.2-3.2,7.2-7.2c0-4-3.2-7.2-7.2-7.2
			c-57.1,0-103.3,46.3-103.3,103.3c0,57.1,46.3,103.3,103.3,103.3c1.9,0,3.7-0.7,5.1-2c1.4-1.3,2.1-3.1,2.1-5c0-1.9-0.8-3.7-2.1-5.1
			c-1.3-1.3-3.2-2.1-5.1-2.1c-42.6,0-79.3-30.2-87.4-72C123.1,282.4,145.7,240.6,185.2,224.6L185.2,224.6z"/>
		
			<linearGradient id="SVGID_4_" gradientUnits="userSpaceOnUse" x1="-202.3065" y1="-1584.9503" x2="-202.3065" y2="-1987.2592" gradientTransform="matrix(1 0 0 -1 324 -1478.6309)">
			<stop  offset="0" style="stop-color:#418DFF"/>
			<stop  offset="1" style="stop-color:#8A15FF"/>
		</linearGradient>
		<path class="st2" d="M218.6,493.6l-20.1,0.3l-9.2-24.7c-0.9-2.3-2.9-4-5.3-4.5c-16.9-3.5-33-9.8-47.6-18.8
			c-2.1-1.3-4.7-1.4-6.9-0.3l-23.7,11.7l-33.3-32.5l10.8-24.1c1-2.2,0.8-4.8-0.5-6.8c-9.3-14.6-16.2-30.5-20.6-47.2
			c-0.6-2.3-2.4-4.2-4.7-5l-24.7-8.4l-0.8-46.4l24.7-9.2c2.3-0.9,4-2.9,4.5-5.3c3.5-16.9,9.8-33,18.8-47.7c1.3-2.1,1.4-4.7,0.3-6.9
			l-11.7-23.7l32.5-33.3l24.1,10.8c2.2,1,4.8,0.8,6.8-0.5c14.6-9.3,30.5-16.2,47.2-20.6c2.3-0.6,4.2-2.4,5-4.7l8.4-24.7l26.3-0.4
			c4-0.1,7.1-3.3,7.1-7.3c-0.1-4-3.3-7.1-7.3-7.1l-31.4,0.5c-3,0.1-5.7,2-6.7,4.9l-8.8,25.9c-15.5,4.4-30.4,10.9-44.2,19.3
			l-25.2-11.3c-2.8-1.2-6-0.6-8.1,1.5l-39.5,40.5c-2.1,2.2-2.7,5.5-1.3,8.2l12.3,24.8c-8.1,14-14.1,29.1-17.7,44.9l-25.8,9.6
			c-2.9,1.1-4.7,3.8-4.7,6.9l1,56.6c0.1,3,2,5.7,4.9,6.7l25.9,8.8c4.4,15.5,10.9,30.4,19.3,44.2l-11.3,25.2c-1.2,2.8-0.6,6,1.5,8.1
			l40.5,39.5c2.2,2.1,5.5,2.7,8.2,1.3l24.8-12.3c14,8.1,29.1,14.1,44.9,17.7l9.6,26c1,2.8,3.7,4.7,6.7,4.8h0.1l25.2-0.6
			c4-0.1,7.1-3.4,7-7.4C225.8,496.7,222.6,493.6,218.6,493.6L218.6,493.6z"/>
		
			<linearGradient id="SVGID_5_" gradientUnits="userSpaceOnUse" x1="90.4403" y1="-1747.8063" x2="90.4403" y2="-1823.7218" gradientTransform="matrix(1 0 0 -1 324 -1478.6309)">
			<stop  offset="0" style="stop-color:#418DFF"/>
			<stop  offset="1" style="stop-color:#8A15FF"/>
		</linearGradient>
		<path class="st3" d="M557.6,269.2c-18.2,0-33.8,12.9-37.3,30.8h-287v14.4h287c3.8,19.7,22.2,33,42.1,30.4
			c19.9-2.5,34.3-20.1,33.1-40.1C594.2,284.7,577.6,269.2,557.6,269.2z M574.2,323.8c-9.2,9.2-24.1,9.2-33.3,0
			c-9.2-9.2-9.2-24.1,0-33.3c9.2-9.2,24.1-9.2,33.3,0C583.4,299.7,583.4,314.6,574.2,323.8L574.2,323.8z"/>
		
			<linearGradient id="SVGID_6_" gradientUnits="userSpaceOnUse" x1="41.3937" y1="-1645.6205" x2="41.3937" y2="-1753.3906" gradientTransform="matrix(1 0 0 -1 324 -1478.6309)">
			<stop  offset="0" style="stop-color:#418DFF"/>
			<stop  offset="1" style="stop-color:#8A15FF"/>
		</linearGradient>
		<path class="st4" d="M337.1,236.4c0-6.4,2.6-12.5,7.1-17c4.5-4.5,10.7-7,17-7h60.6c1.5,7.4,5.1,14.2,10.4,19.5
			c10.9,10.9,27.3,14.2,41.5,8.4c14.3-5.9,23.6-19.8,23.6-35.2c0-15.4-9.3-29.3-23.6-35.2c-14.3-5.9-30.7-2.6-41.5,8.4
			c-5.3,5.4-9,12.3-10.4,19.8h-60.6c-21.2-0.1-38.5,17.1-38.5,38.4c0,6.4-2.6,12.5-7.1,17c-4.5,4.5-10.7,7-17,7h-65.3v14.4h65.3
			C319.8,274.8,337.1,257.6,337.1,236.4z M442.5,188.3c9.2-9.2,24.1-9.2,33.3,0c9.2,9.2,9.2,24.1,0,33.3c-9.2,9.2-24.1,9.2-33.3,0
			c-4.4-4.4-6.9-10.4-6.9-16.7C435.6,198.7,438.1,192.7,442.5,188.3z"/>
		
			<linearGradient id="SVGID_7_" gradientUnits="userSpaceOnUse" x1="41.2391" y1="-1818.1544" x2="41.2391" y2="-1925.8438" gradientTransform="matrix(1 0 0 -1 324 -1478.6309)">
			<stop  offset="0" style="stop-color:#418DFF"/>
			<stop  offset="1" style="stop-color:#8A15FF"/>
		</linearGradient>
		<path class="st5" d="M459.2,371.4c-10.1-0.1-19.7,3.9-26.8,11c-5.3,5.3-9,12.1-10.4,19.5h-60.6c-6.4,0-12.5-2.5-17-7
			c-4.5-4.5-7.1-10.6-7.1-17c0-21.2-17.3-38.4-38.5-38.4h-65.3v14.4h65.3c6.4,0,12.5,2.5,17,7c4.5,4.5,7.1,10.6,7.1,17
			c0,21.2,17.3,38.4,38.5,38.4h60.6c1.5,7.5,5.1,14.3,10.4,19.8c12.1,12.2,30.9,14.7,45.8,6.1c14.9-8.6,22.2-26.1,17.7-42.7
			C491.4,382.9,476.4,371.4,459.2,371.4z M475.9,426c-9.2,9.2-24.1,9.2-33.3,0c-9.2-9.2-9.2-24.1,0-33.3c9.2-9.2,24.1-9.2,33.3,0
			C485,401.9,485,416.8,475.9,426L475.9,426z"/>
		
			<linearGradient id="SVGID_8_" gradientUnits="userSpaceOnUse" x1="8.3723" y1="-1860.1305" x2="8.3723" y2="-2008.3763" gradientTransform="matrix(1 0 0 -1 324 -1478.6309)">
			<stop  offset="0" style="stop-color:#418DFF"/>
			<stop  offset="1" style="stop-color:#8A15FF"/>
		</linearGradient>
		<path class="st6" d="M393.4,453.7c-10.1,0-19.8,4-26.8,11.2c-6.2,6.3-10,14.5-10.9,23.3h-8.2c-13.5-0.1-25.5-8.5-30.3-21.2
			L296.8,412c-6.8-18.3-24.2-30.4-43.8-30.5h-19.7v14.4h19.7c13.5,0,25.5,8.4,30.3,21.1l20.4,55.1c6.8,18.3,24.2,30.5,43.7,30.5h9.5
			c5.6,18.7,24.5,30.2,43.7,26.4c19.2-3.8,32.4-21.5,30.5-41C429.3,468.6,413,453.7,393.4,453.7L393.4,453.7z M410.1,508.4
			c-8,8-20.4,9.2-29.8,2.9c-9.3-6.2-13-18.2-8.7-28.6c4.3-10.4,15.3-16.3,26.4-14.1c11,2.2,19,11.9,19,23.1
			C417,498,414.5,503.9,410.1,508.4L410.1,508.4z"/>
		
			<linearGradient id="SVGID_9_" gradientUnits="userSpaceOnUse" x1="8.2396" y1="-1563.2522" x2="8.2396" y2="-1711.4144" gradientTransform="matrix(1 0 0 -1 324 -1478.6309)">
			<stop  offset="0" style="stop-color:#418DFF"/>
			<stop  offset="1" style="stop-color:#8A15FF"/>
		</linearGradient>
		<path class="st7" d="M296.8,202.3l20.4-55.1c4.7-12.7,16.8-21.1,30.3-21.2h8.2c0.9,8.8,4.8,17,10.9,23.3c12.1,12,30.7,14.5,45.5,6
			c14.8-8.4,22.1-25.7,17.9-42.2c-4.2-16.5-18.9-28.2-35.9-28.5c-17-0.4-32.2,10.7-37.1,27h-9.5c-19.5,0.1-36.9,12.3-43.8,30.6
			l-20.4,55.1c-4.7,12.6-16.8,21-30.3,21.1h-19.7v14.4h19.7C272.6,232.7,290,220.6,296.8,202.3z M376.8,105.9c8-8,20.4-9.2,29.8-2.9
			c9.3,6.2,13,18.2,8.7,28.6c-4.3,10.4-15.3,16.3-26.4,14.1c-11-2.2-19-11.9-19-23.1C369.8,116.3,372.3,110.3,376.8,105.9
			L376.8,105.9z"/>
	</g>
</g>
</svg>
