<?xml version="1.0" encoding="utf-8"?>
<!-- Generator: Adobe Illustrator 23.0.0, SVG Export Plug-In . SVG Version: 6.00 Build 0)  -->
<svg version="1.1" id="Layer_1" xmlns="http://www.w3.org/2000/svg" xmlns:xlink="http://www.w3.org/1999/xlink" x="0px" y="0px"
	 viewBox="0 0 613 613" style="enable-background:new 0 0 613 613;" xml:space="preserve">
<style type="text/css">
	.st0{fill:url(#SVGID_1_);}
	.st1{fill:url(#SVGID_2_);}
	.st2{fill:url(#SVGID_3_);}
	.st3{fill:url(#SVGID_4_);}
	.st4{fill:url(#SVGID_5_);}
	.st5{fill:url(#SVGID_6_);}
	.st6{fill:url(#SVGID_7_);}
	.st7{fill:url(#SVGID_8_);}
	.st8{fill:url(#SVGID_9_);}
	.st9{fill:url(#SVGID_10_);}
	.st10{fill:url(#SVGID_11_);}
</style>
<g>
	
		<linearGradient id="SVGID_1_" gradientUnits="userSpaceOnUse" x1="-17.5" y1="-1528.5201" x2="-17.5" y2="-2041.7417" gradientTransform="matrix(1 0 0 -1 324 -1478.6309)">
		<stop  offset="0" style="stop-color:#418DFF"/>
		<stop  offset="1" style="stop-color:#8A15FF"/>
	</linearGradient>
	<path class="st0" d="M587.9,80.1c0-16.7-13.6-30.2-30.2-30.2H437.3c-4.6,0-8.2,3.7-8.2,8.2s3.7,8.2,8.2,8.2h120.4
		c7.6,0,13.7,6.2,13.7,13.7l0,307.4H41.5l0-307.4c0-7.6,6.2-13.7,13.7-13.7h344.7c4.6,0,8.2-3.7,8.2-8.2s-3.7-8.2-8.2-8.2H55.3
		c-16.7,0-30.2,13.6-30.2,30.2v367c0,16.7,13.6,30.2,30.2,30.2h177l-9.2,69.3h-18c-4.6,0-8.2,3.7-8.2,8.2c0,4.6,3.7,8.2,8.2,8.2
		h202.8c4.6,0,8.2-3.7,8.2-8.2c0-4.6-3.7-8.2-8.2-8.2h-18l-2.4-18.5c-0.6-4.5-4.7-7.7-9.3-7.1c-4.5,0.6-7.7,4.7-7.1,9.3l2.2,16.3
		H239.7l9.2-69.3h16.5c3.8,19.4,20.7,33.7,41.1,33.7c20.1,0,37.2-14.6,41.1-33.7h16.5l2.1,16.1c0.6,4.1,4.1,7.2,8.2,7.2
		c0.4,0,0.7,0,1.1-0.1c4.5-0.6,7.7-4.7,7.1-9.3l-1.8-13.9h177c16.7,0,30.2-13.6,30.2-30.2V80.1z M306.5,494.5
		c-11.2,0-20.7-7.1-24.1-17.2h48.1C327.1,487.3,317.5,494.5,306.5,494.5z M571.5,447.1c0,7.6-6.2,13.7-13.7,13.7H55.3
		c-7.6,0-13.7-6.2-13.7-13.7v-43h529.9V447.1z"/>
	
		<linearGradient id="SVGID_2_" gradientUnits="userSpaceOnUse" x1="89.4828" y1="-1598.7585" x2="89.4828" y2="-1822.4517" gradientTransform="matrix(1 0 0 -1 324 -1478.6309)">
		<stop  offset="0" style="stop-color:#418DFF"/>
		<stop  offset="1" style="stop-color:#8A15FF"/>
	</linearGradient>
	<path class="st1" d="M324.5,277.9h147.1c3.9,0,7.3-2.8,8.1-6.6l26.9-134.6h10.2c4.6,0,8.2-3.7,8.2-8.2s-3.7-8.2-8.2-8.2h-17
		c-3.9,0-7.3,2.8-8.1,6.6l-4.6,23.3l-171.8,12.7c-2.5,0.2-4.7,1.5-6.1,3.5c-1.4,2-1.9,4.6-1.2,7l20.6,73.7c1,3.6,4.2,6,7.9,6h130.1
		l-1.7,8.6H324.5c-12.4,0-22.5,10.1-22.5,22.5c0,12.4,10.1,22.5,22.5,22.5h7.1c-1.4,3.2-2.1,6.7-2.1,10.5
		c0,14.9,12.1,26.9,26.9,26.9c14.9,0,26.9-12.1,26.9-26.9c0-3.7-0.8-7.2-2.1-10.5h44.3c-1.4,3.2-2.1,6.7-2.1,10.5
		c0,14.9,12.1,26.9,26.9,26.9c14.9,0,26.9-12.1,26.9-26.9c0-3.7-0.8-7.2-2.1-10.5h8.1c4.6,0,8.2-3.7,8.2-8.2c0-4.6-3.7-8.2-8.2-8.2
		H324.5c-3.3,0-6-2.7-6-6C318.4,280.6,321.1,277.9,324.5,277.9z M342.7,236.3l-16.2-57.9l157.2-11.6l-13.9,69.5H342.7z M356.4,327.3
		c-5.8,0-10.4-4.7-10.4-10.4c0-5.8,4.7-10.4,10.4-10.4c5.8,0,10.4,4.7,10.4,10.4C366.9,322.6,362.2,327.3,356.4,327.3z M450.4,327.3
		c-5.8,0-10.4-4.7-10.4-10.4c0-5.8,4.7-10.4,10.4-10.4c5.8,0,10.4,4.7,10.4,10.4C460.9,322.6,456.2,327.3,450.4,327.3z"/>
	
		<linearGradient id="SVGID_3_" gradientUnits="userSpaceOnUse" x1="38.9952" y1="-1663.8767" x2="38.9952" y2="-1703.4552" gradientTransform="matrix(1 0 0 -1 324 -1478.6309)">
		<stop  offset="0" style="stop-color:#418DFF"/>
		<stop  offset="1" style="stop-color:#8A15FF"/>
	</linearGradient>
	<path class="st2" d="M363,185.2c-4.6,0-8.2,3.7-8.2,8.2v23.1c0,4.6,3.7,8.2,8.2,8.2c4.6,0,8.2-3.7,8.2-8.2v-23.1
		C371.2,188.9,367.5,185.2,363,185.2z"/>
	
		<linearGradient id="SVGID_4_" gradientUnits="userSpaceOnUse" x1="67.0298" y1="-1663.8767" x2="67.0298" y2="-1703.4552" gradientTransform="matrix(1 0 0 -1 324 -1478.6309)">
		<stop  offset="0" style="stop-color:#418DFF"/>
		<stop  offset="1" style="stop-color:#8A15FF"/>
	</linearGradient>
	<path class="st3" d="M391,185.2c-4.6,0-8.2,3.7-8.2,8.2v23.1c0,4.6,3.7,8.2,8.2,8.2c4.6,0,8.2-3.7,8.2-8.2v-23.1
		C399.3,188.9,395.6,185.2,391,185.2z"/>
	
		<linearGradient id="SVGID_5_" gradientUnits="userSpaceOnUse" x1="95.0644" y1="-1663.8767" x2="95.0644" y2="-1703.4552" gradientTransform="matrix(1 0 0 -1 324 -1478.6309)">
		<stop  offset="0" style="stop-color:#418DFF"/>
		<stop  offset="1" style="stop-color:#8A15FF"/>
	</linearGradient>
	<path class="st4" d="M419.1,185.2c-4.6,0-8.2,3.7-8.2,8.2v23.1c0,4.6,3.7,8.2,8.2,8.2c4.6,0,8.2-3.7,8.2-8.2v-23.1
		C427.3,188.9,423.6,185.2,419.1,185.2z"/>
	
		<linearGradient id="SVGID_6_" gradientUnits="userSpaceOnUse" x1="123.0989" y1="-1663.8767" x2="123.0989" y2="-1703.4552" gradientTransform="matrix(1 0 0 -1 324 -1478.6309)">
		<stop  offset="0" style="stop-color:#418DFF"/>
		<stop  offset="1" style="stop-color:#8A15FF"/>
	</linearGradient>
	<path class="st5" d="M447.1,185.2c-4.6,0-8.2,3.7-8.2,8.2v23.1c0,4.6,3.7,8.2,8.2,8.2c4.6,0,8.2-3.7,8.2-8.2v-23.1
		C455.3,188.9,451.7,185.2,447.1,185.2z"/>
	
		<linearGradient id="SVGID_7_" gradientUnits="userSpaceOnUse" x1="-183.8843" y1="-1589.4779" x2="-183.8843" y2="-1645.9192" gradientTransform="matrix(1 0 0 -1 324 -1478.6309)">
		<stop  offset="0" style="stop-color:#418DFF"/>
		<stop  offset="1" style="stop-color:#8A15FF"/>
	</linearGradient>
	<path class="st6" d="M140.1,167.3c4.6,0,8.2-3.7,8.2-8.2v-20.9l4.6,4.4c1.6,1.5,3.6,2.2,5.6,2.2c2.2,0,4.4-0.9,6-2.6
		c3.1-3.3,3-8.5-0.4-11.7l-18.5-17.4c-3.2-3-8.1-3-11.3,0l-18.5,17.4c-3.3,3.1-3.5,8.3-0.4,11.7c3.1,3.3,8.3,3.5,11.7,0.4l4.6-4.4
		V159C131.9,163.6,135.6,167.3,140.1,167.3z"/>
	
		<linearGradient id="SVGID_8_" gradientUnits="userSpaceOnUse" x1="-117.1827" y1="-1589.4779" x2="-117.1827" y2="-1645.9192" gradientTransform="matrix(1 0 0 -1 324 -1478.6309)">
		<stop  offset="0" style="stop-color:#418DFF"/>
		<stop  offset="1" style="stop-color:#8A15FF"/>
	</linearGradient>
	<path class="st7" d="M206.8,167.3c4.6,0,8.2-3.7,8.2-8.2v-20.9l4.6,4.4c1.6,1.5,3.6,2.2,5.6,2.2c2.2,0,4.4-0.9,6-2.6
		c3.1-3.3,3-8.5-0.4-11.7l-18.5-17.4c-3.2-3-8.1-3-11.3,0l-18.5,17.4c-3.3,3.1-3.5,8.3-0.4,11.7c3.1,3.3,8.3,3.5,11.7,0.4l4.6-4.4
		V159C198.6,163.6,202.3,167.3,206.8,167.3z"/>
	
		<linearGradient id="SVGID_9_" gradientUnits="userSpaceOnUse" x1="-148.3284" y1="-1671.5638" x2="-148.3284" y2="-1743.2788" gradientTransform="matrix(1 0 0 -1 324 -1478.6309)">
		<stop  offset="0" style="stop-color:#418DFF"/>
		<stop  offset="1" style="stop-color:#8A15FF"/>
	</linearGradient>
	<path class="st8" d="M257.6,212.2c0-10.6-8.6-19.2-19.2-19.2H113c-10.6,0-19.2,8.6-19.2,19.2v33.2c0,10.6,8.6,19.2,19.2,19.2h53.9
		c4.6,0,8.2-3.7,8.2-8.2c0-4.6-3.7-8.2-8.2-8.2H113c-1.5,0-2.7-1.2-2.7-2.7v-33.2c0-1.5,1.2-2.7,2.7-2.7h125.3
		c1.5,0,2.7,1.2,2.7,2.7v33.2c0,1.5-1.2,2.7-2.7,2.7h-34.1c-4.6,0-8.2,3.7-8.2,8.2c0,4.6,3.7,8.2,8.2,8.2h34.1
		c10.6,0,19.2-8.6,19.2-19.2V212.2z"/>
	
		<linearGradient id="SVGID_10_" gradientUnits="userSpaceOnUse" x1="-193.6671" y1="-1771.863" x2="-193.6671" y2="-1788.3531" gradientTransform="matrix(1 0 0 -1 324 -1478.6309)">
		<stop  offset="0" style="stop-color:#418DFF"/>
		<stop  offset="1" style="stop-color:#8A15FF"/>
	</linearGradient>
	<path class="st9" d="M102,309.7h56.6c4.6,0,8.2-3.7,8.2-8.2c0-4.6-3.7-8.2-8.2-8.2H102c-4.6,0-8.2,3.7-8.2,8.2
		C93.8,306,97.5,309.7,102,309.7z"/>
	
		<linearGradient id="SVGID_11_" gradientUnits="userSpaceOnUse" x1="-148.3284" y1="-1801.072" x2="-148.3284" y2="-1817.5623" gradientTransform="matrix(1 0 0 -1 324 -1478.6309)">
		<stop  offset="0" style="stop-color:#418DFF"/>
		<stop  offset="1" style="stop-color:#8A15FF"/>
	</linearGradient>
	<path class="st10" d="M102,338.9h147.3c4.6,0,8.2-3.7,8.2-8.2c0-4.6-3.7-8.2-8.2-8.2H102c-4.6,0-8.2,3.7-8.2,8.2
		C93.8,335.2,97.5,338.9,102,338.9z"/>
</g>
</svg>
