<?xml version="1.0" encoding="utf-8"?>
<!-- Generator: Adobe Illustrator 23.0.0, SVG Export Plug-In . SVG Version: 6.00 Build 0)  -->
<svg version="1.1" id="Layer_1" xmlns="http://www.w3.org/2000/svg" xmlns:xlink="http://www.w3.org/1999/xlink" x="0px" y="0px"
	 viewBox="0 0 613 613" style="enable-background:new 0 0 613 613;" xml:space="preserve">
<style type="text/css">
	.st0{clip-path:url(#SVGID_2_);}
	.st1{fill:url(#SVGID_3_);}
	.st2{fill:url(#SVGID_4_);}
	.st3{fill:url(#SVGID_5_);}
	.st4{fill:url(#SVGID_6_);}
	.st5{fill:url(#SVGID_7_);}
	.st6{fill:url(#SVGID_8_);}
</style>
<g>
	<defs>
		<rect id="SVGID_1_" x="22.6" y="21.5" width="567.8" height="570"/>
	</defs>
	<clipPath id="SVGID_2_">
		<use xlink:href="#SVGID_1_"  style="overflow:visible;"/>
	</clipPath>
	<g class="st0">
		
			<linearGradient id="SVGID_3_" gradientUnits="userSpaceOnUse" x1="-130.4594" y1="-2024.446" x2="-130.4594" y2="-2053.0701" gradientTransform="matrix(1 0 0 -1 324 -1478.6309)">
			<stop  offset="0" style="stop-color:#418DFF"/>
			<stop  offset="1" style="stop-color:#8A15FF"/>
		</linearGradient>
		<path class="st1" d="M193.5,545.8c-3.8,0-7.5,1.5-10.1,4.2s-4.2,6.4-4.2,10.1c0,3.8,1.5,7.5,4.2,10.1c2.7,2.7,6.4,4.2,10.1,4.2
			c3.8,0,7.5-1.5,10.1-4.2c2.7-2.7,4.2-6.4,4.2-10.1c0-3.8-1.5-7.5-4.2-10.1S197.3,545.8,193.5,545.8z"/>
		
			<linearGradient id="SVGID_4_" gradientUnits="userSpaceOnUse" x1="-126.7501" y1="-1500.1301" x2="-126.7501" y2="-2034.4493" gradientTransform="matrix(1 0 0 -1 324 -1478.6309)">
			<stop  offset="0" style="stop-color:#418DFF"/>
			<stop  offset="1" style="stop-color:#8A15FF"/>
		</linearGradient>
		<path class="st2" d="M122.5,462.3c-7.9,0-15.6,2-22.4,5.7c-35.7-46-55.3-103-55.3-161.5c0-144.9,117.4-262.7,261.7-262.7
			c17.5,0,35.1,1.8,52.1,5.2c6,1.2,11.9-2.7,13.1-8.7c1.2-6-2.7-11.9-8.7-13.1c-18.5-3.7-37.5-5.6-56.5-5.6
			c-75.8,0-147.1,29.6-200.8,83.5c-53.6,53.8-83.2,125.4-83.2,201.5c0,64,21.7,126.5,61.1,176.6c-5.1,7.6-7.8,16.6-7.8,25.9
			c0,12.5,4.8,24.2,13.6,33.1c8.8,8.8,20.5,13.7,32.9,13.7s24.1-4.9,32.9-13.7c8.8-8.8,13.6-20.6,13.6-33.1
			c0-12.5-4.8-24.2-13.6-33.1C146.6,467.2,134.9,462.3,122.5,462.3z M139.7,526.4c-4.6,4.6-10.7,7.2-17.3,7.2
			c-6.5,0-12.6-2.5-17.3-7.2c-4.6-4.6-7.1-10.8-7.1-17.3c0-6.5,2.5-12.7,7.1-17.3c4.6-4.6,10.7-7.2,17.3-7.2
			c6.5,0,12.6,2.5,17.3,7.2c4.6,4.6,7.1,10.8,7.1,17.3C146.9,515.6,144.3,521.8,139.7,526.4z"/>
		
			<linearGradient id="SVGID_5_" gradientUnits="userSpaceOnUse" x1="92.0089" y1="-1535.8114" x2="92.0089" y2="-2070.1311" gradientTransform="matrix(1 0 0 -1 324 -1478.6309)">
			<stop  offset="0" style="stop-color:#418DFF"/>
			<stop  offset="1" style="stop-color:#8A15FF"/>
		</linearGradient>
		<path class="st3" d="M529.3,129.9c12.1-18.2,10.1-43-5.8-59c-8.8-8.8-20.5-13.7-32.9-13.7c-12.4,0-24.1,4.9-32.9,13.7
			c-8.8,8.8-13.6,20.6-13.6,33.1c0,12.5,4.8,24.2,13.6,33.1c8.8,8.8,20.5,13.7,32.9,13.7c7.9,0,15.6-2,22.4-5.7
			c35.7,46,55.3,103,55.3,161.5c0,144.9-117.4,262.7-261.7,262.7c-17.4,0-34.7-1.7-51.6-5.1c-6-1.2-11.8,2.7-13.1,8.7
			c-1.2,6,2.7,11.9,8.7,13.1c18.3,3.7,37.1,5.5,56,5.5c75.8,0,147.1-29.6,200.8-83.5c53.6-53.8,83.2-125.4,83.2-201.5
			C590.4,242.5,568.7,180,529.3,129.9z M473.3,121.3c-4.6-4.6-7.1-10.8-7.1-17.3c0-6.5,2.5-12.7,7.1-17.3c4.6-4.6,10.7-7.2,17.3-7.2
			c6.5,0,12.6,2.5,17.3,7.2c9.5,9.5,9.5,25.1,0,34.6c-4.6,4.6-10.7,7.2-17.3,7.2C484,128.4,477.9,125.9,473.3,121.3z"/>
		
			<linearGradient id="SVGID_6_" gradientUnits="userSpaceOnUse" x1="-17.4988" y1="-1582.5133" x2="-17.4988" y2="-1987.7484" gradientTransform="matrix(1 0 0 -1 324 -1478.6309)">
			<stop  offset="0" style="stop-color:#418DFF"/>
			<stop  offset="1" style="stop-color:#8A15FF"/>
		</linearGradient>
		<path class="st4" d="M260.7,498c0,6.1,5,11.1,11.1,11.1h69.3c6.1,0,11.1-5,11.1-11.1v-21.6c14.6-3.9,28.5-9.7,41.6-17.3l15.2,15.2
			c2.1,2.1,4.9,3.3,7.8,3.3c2.9,0,5.8-1.2,7.8-3.3l49-49.2c4.3-4.3,4.3-11.4,0-15.7l-15.2-15.2c7.5-13.2,13.3-27.1,17.3-41.8h21.4
			c6.1,0,11.1-5,11.1-11.1v-69.6c0-6.1-5-11.1-11.1-11.1h-21.4c-3.9-14.6-9.7-28.6-17.2-41.8l15.1-15.1c2.1-2.1,3.2-4.9,3.2-7.9
			c0-3-1.2-5.8-3.3-7.9l-49.1-49.2c-4.3-4.3-11.4-4.3-15.7,0l-15.1,15.1c-13.1-7.6-27-13.4-41.6-17.3V115c0-6.1-5-11.1-11.1-11.1
			h-69.3c-6.1,0-11.1,5-11.1,11.1v21.4c-14.6,3.9-28.5,9.7-41.6,17.3l-15.1-15.1c-4.3-4.3-11.4-4.3-15.7,0l-49,49.2
			c-2.1,2.1-3.3,4.9-3.3,7.9c0,3,1.2,5.8,3.2,7.9l15.1,15.1c-7.5,13.2-13.3,27.1-17.3,41.8h-21.4c-6.1,0-11.1,5-11.1,11.1l0,69.6
			c0,3,1.2,5.8,3.2,7.9c2.1,2.1,4.9,3.3,7.8,3.3h21.4c3.9,14.6,9.7,28.6,17.3,41.8l-15.2,15.2c-4.3,4.3-4.3,11.4,0,15.7l49,49.2
			c2.1,2.1,4.9,3.3,7.8,3.3h0c2.9,0,5.8-1.2,7.8-3.3l15.2-15.2c13.1,7.6,27,13.4,41.6,17.3V498z M223.5,435.7
			c-4.4-2.8-10.2-2.2-13.9,1.5l-13.5,13.6l-33.3-33.5l13.5-13.5c3.7-3.7,4.3-9.5,1.5-13.9c-10.1-15.6-17.1-32.7-21-50.9
			c-1.1-5.1-5.6-8.8-10.8-8.8h-19l0-47.3h19c5.2,0,9.7-3.7,10.8-8.8c3.9-18.1,11-35.3,21-50.9c2.8-4.4,2.2-10.2-1.5-13.9l-13.4-13.5
			l33.4-33.5l13.4,13.4c3.7,3.7,9.5,4.3,13.9,1.5c15.6-10.1,32.6-17.2,50.7-21.1c5.1-1.1,8.8-5.6,8.8-10.9v-19h47.2v19
			c0,5.2,3.6,9.8,8.8,10.9c18.1,3.9,35.1,11,50.7,21.1c4.4,2.8,10.2,2.2,13.9-1.5l13.4-13.4l33.4,33.5l-13.4,13.5
			c-3.7,3.7-4.3,9.5-1.5,13.9c10.1,15.6,17.1,32.7,21,50.9c1.1,5.1,5.6,8.8,10.8,8.8h19.1v47.3h-19.1c-5.2,0-9.7,3.7-10.8,8.8
			c-3.9,18.1-11,35.3-21,50.9c-2.8,4.4-2.2,10.2,1.5,13.9l13.5,13.5l-33.3,33.5l-13.5-13.6c-3.7-3.7-9.5-4.3-13.9-1.5
			c-15.6,10.1-32.6,17.2-50.7,21.1c-5.1,1.1-8.8,5.6-8.8,10.9v19.2h-47.2v-19.2c0-5.2-3.7-9.8-8.8-10.9
			C256.1,452.9,239,445.8,223.5,435.7z"/>
		
			<linearGradient id="SVGID_7_" gradientUnits="userSpaceOnUse" x1="-17.5005" y1="-1693.1412" x2="-17.5005" y2="-1877.1202" gradientTransform="matrix(1 0 0 -1 324 -1478.6309)">
			<stop  offset="0" style="stop-color:#418DFF"/>
			<stop  offset="1" style="stop-color:#8A15FF"/>
		</linearGradient>
		<path class="st5" d="M398.1,306.5c0-50.7-41.1-92-91.6-92s-91.6,41.3-91.6,92s41.1,92,91.6,92S398.1,357.2,398.1,306.5z
			 M237,306.5c0-38.4,31.2-69.7,69.5-69.7s69.5,31.3,69.5,69.7c0,38.4-31.2,69.7-69.5,69.7S237,344.9,237,306.5z"/>
		
			<linearGradient id="SVGID_8_" gradientUnits="userSpaceOnUse" x1="84.6173" y1="-1519.9561" x2="84.6173" y2="-1542.2349" gradientTransform="matrix(1 0 0 -1 324 -1478.6309)">
			<stop  offset="0" style="stop-color:#418DFF"/>
			<stop  offset="1" style="stop-color:#8A15FF"/>
		</linearGradient>
		<path class="st6" d="M408.6,63.6c2.9,0,5.8-1.2,7.8-3.3c2.1-2.1,3.3-5,3.3-7.9c0-2.9-1.2-5.8-3.3-7.9c-2.1-2.1-4.9-3.3-7.8-3.3
			c-2.9,0-5.8,1.2-7.8,3.3c-2.1,2.1-3.3,4.9-3.3,7.9c0,2.9,1.2,5.8,3.3,7.9C402.8,62.4,405.7,63.6,408.6,63.6z"/>
	</g>
</g>
</svg>
