<svg width="276" height="222" viewBox="0 0 276 222" fill="none" xmlns="http://www.w3.org/2000/svg">
<path d="M39.068 148V137.452H35.504V136.192H44.144V137.452H40.58V148H39.068ZM45.3002 148V139.252H46.5242L46.6502 140.836H46.7042C47.0042 140.284 47.3642 139.846 47.7842 139.522C48.2162 139.198 48.6842 139.036 49.1882 139.036C49.5362 139.036 49.8482 139.096 50.1242 139.216L49.8362 140.512C49.6922 140.464 49.5602 140.428 49.4402 140.404C49.3202 140.38 49.1702 140.368 48.9902 140.368C48.6182 140.368 48.2282 140.518 47.8202 140.818C47.4242 141.118 47.0762 141.64 46.7762 142.384V148H45.3002ZM53.117 148.216C52.385 148.216 51.773 148 51.281 147.568C50.801 147.136 50.561 146.524 50.561 145.732C50.561 144.772 50.987 144.04 51.839 143.536C52.691 143.02 54.053 142.66 55.925 142.456C55.925 142.18 55.895 141.91 55.835 141.646C55.787 141.382 55.697 141.148 55.565 140.944C55.433 140.74 55.247 140.578 55.007 140.458C54.779 140.326 54.485 140.26 54.125 140.26C53.621 140.26 53.147 140.356 52.703 140.548C52.259 140.74 51.863 140.956 51.515 141.196L50.939 140.17C51.347 139.906 51.845 139.654 52.433 139.414C53.021 139.162 53.669 139.036 54.377 139.036C55.445 139.036 56.219 139.366 56.699 140.026C57.179 140.674 57.419 141.544 57.419 142.636V148H56.195L56.069 146.956H56.015C55.595 147.304 55.145 147.604 54.665 147.856C54.185 148.096 53.669 148.216 53.117 148.216ZM53.549 147.028C53.969 147.028 54.365 146.932 54.737 146.74C55.109 146.536 55.505 146.242 55.925 145.858V143.428C55.193 143.524 54.575 143.638 54.071 143.77C53.579 143.902 53.177 144.058 52.865 144.238C52.565 144.418 52.343 144.628 52.199 144.868C52.067 145.096 52.001 145.348 52.001 145.624C52.001 146.128 52.151 146.488 52.451 146.704C52.751 146.92 53.117 147.028 53.549 147.028ZM60.1713 148V139.252H61.3953L61.5213 140.512H61.5753C61.9953 140.092 62.4333 139.744 62.8893 139.468C63.3573 139.18 63.8973 139.036 64.5093 139.036C65.4333 139.036 66.1053 139.324 66.5253 139.9C66.9573 140.476 67.1733 141.328 67.1733 142.456V148H65.6973V142.654C65.6973 141.826 65.5653 141.232 65.3013 140.872C65.0373 140.5 64.6173 140.314 64.0413 140.314C63.5853 140.314 63.1833 140.428 62.8353 140.656C62.4873 140.884 62.0913 141.22 61.6473 141.664V148H60.1713ZM72.9671 152.032C72.4271 152.032 71.9351 151.978 71.4911 151.87C71.0471 151.774 70.6631 151.624 70.3391 151.42C70.0271 151.216 69.7811 150.97 69.6011 150.682C69.4331 150.394 69.3491 150.058 69.3491 149.674C69.3491 149.302 69.4631 148.948 69.6911 148.612C69.9191 148.276 70.2311 147.97 70.6271 147.694V147.622C70.4111 147.49 70.2251 147.31 70.0691 147.082C69.9251 146.842 69.8531 146.548 69.8531 146.2C69.8531 145.828 69.9551 145.504 70.1591 145.228C70.3631 144.952 70.5791 144.736 70.8071 144.58V144.508C70.5191 144.268 70.2551 143.95 70.0151 143.554C69.7871 143.146 69.6731 142.678 69.6731 142.15C69.6731 141.67 69.7571 141.238 69.9251 140.854C70.1051 140.47 70.3451 140.146 70.6451 139.882C70.9451 139.606 71.2931 139.396 71.6891 139.252C72.0971 139.108 72.5231 139.036 72.9671 139.036C73.2071 139.036 73.4291 139.06 73.6331 139.108C73.8491 139.144 74.0411 139.192 74.2091 139.252H77.2511V140.386H75.4511C75.6551 140.59 75.8231 140.848 75.9551 141.16C76.0991 141.472 76.1711 141.814 76.1711 142.186C76.1711 142.654 76.0871 143.08 75.9191 143.464C75.7511 143.836 75.5231 144.154 75.2351 144.418C74.9471 144.67 74.6051 144.868 74.2091 145.012C73.8251 145.156 73.4111 145.228 72.9671 145.228C72.7511 145.228 72.5291 145.204 72.3011 145.156C72.0731 145.096 71.8571 145.018 71.6531 144.922C71.4971 145.054 71.3651 145.204 71.2571 145.372C71.1491 145.528 71.0951 145.726 71.0951 145.966C71.0951 146.242 71.2031 146.47 71.4191 146.65C71.6351 146.83 72.0431 146.92 72.6431 146.92H74.3351C75.3551 146.92 76.1171 147.088 76.6211 147.424C77.1371 147.748 77.3951 148.276 77.3951 149.008C77.3951 149.416 77.2931 149.8 77.0891 150.16C76.8851 150.532 76.5911 150.856 76.2071 151.132C75.8231 151.408 75.3551 151.624 74.8031 151.78C74.2631 151.948 73.6511 152.032 72.9671 152.032ZM72.9671 144.238C73.2191 144.238 73.4531 144.19 73.6691 144.094C73.8971 143.998 74.0951 143.86 74.2631 143.68C74.4431 143.5 74.5811 143.284 74.6771 143.032C74.7731 142.768 74.8211 142.474 74.8211 142.15C74.8211 141.502 74.6411 141.004 74.2811 140.656C73.9211 140.296 73.4831 140.116 72.9671 140.116C72.4511 140.116 72.0131 140.296 71.6531 140.656C71.2931 141.004 71.1131 141.502 71.1131 142.15C71.1131 142.474 71.1611 142.768 71.2571 143.032C71.3531 143.284 71.4851 143.5 71.6531 143.68C71.8331 143.86 72.0311 143.998 72.2471 144.094C72.4751 144.19 72.7151 144.238 72.9671 144.238ZM73.1831 151.006C73.6031 151.006 73.9811 150.952 74.3171 150.844C74.6651 150.748 74.9591 150.616 75.1991 150.448C75.4391 150.292 75.6251 150.106 75.7571 149.89C75.8891 149.674 75.9551 149.452 75.9551 149.224C75.9551 148.816 75.8051 148.534 75.5051 148.378C75.2051 148.222 74.7671 148.144 74.1911 148.144H72.6791C72.5111 148.144 72.3251 148.132 72.1211 148.108C71.9291 148.096 71.7371 148.06 71.5451 148C71.2331 148.228 71.0051 148.468 70.8611 148.72C70.7171 148.972 70.6451 149.224 70.6451 149.476C70.6451 149.944 70.8671 150.316 71.3111 150.592C71.7671 150.868 72.3911 151.006 73.1831 151.006ZM91.6925 148.216C91.2845 148.216 90.8585 148.12 90.4145 147.928C89.9825 147.724 89.5745 147.448 89.1905 147.1H89.1365L89.0105 148H87.8225V135.184H89.2985V138.676L89.2625 140.26C89.6585 139.912 90.0905 139.624 90.5585 139.396C91.0265 139.156 91.5065 139.036 91.9985 139.036C92.5625 139.036 93.0605 139.144 93.4925 139.36C93.9245 139.564 94.2845 139.864 94.5725 140.26C94.8725 140.644 95.0945 141.112 95.2385 141.664C95.3945 142.204 95.4725 142.81 95.4725 143.482C95.4725 144.226 95.3705 144.892 95.1665 145.48C94.9625 146.068 94.6865 146.566 94.3385 146.974C93.9905 147.382 93.5885 147.694 93.1325 147.91C92.6765 148.114 92.1965 148.216 91.6925 148.216ZM91.4405 146.974C91.8005 146.974 92.1305 146.896 92.4305 146.74C92.7425 146.572 93.0065 146.344 93.2225 146.056C93.4505 145.756 93.6245 145.39 93.7445 144.958C93.8765 144.526 93.9425 144.04 93.9425 143.5C93.9425 143.02 93.9005 142.582 93.8165 142.186C93.7325 141.79 93.5945 141.454 93.4025 141.178C93.2225 140.89 92.9825 140.668 92.6825 140.512C92.3945 140.356 92.0465 140.278 91.6385 140.278C90.9305 140.278 90.1505 140.674 89.2985 141.466V146.056C89.6825 146.392 90.0605 146.632 90.4325 146.776C90.8165 146.908 91.1525 146.974 91.4405 146.974ZM97.7717 148V139.252H99.2477V148H97.7717ZM98.5277 137.452C98.2397 137.452 97.9937 137.362 97.7897 137.182C97.5977 137.002 97.5017 136.774 97.5017 136.498C97.5017 136.21 97.5977 135.982 97.7897 135.814C97.9937 135.634 98.2397 135.544 98.5277 135.544C98.8157 135.544 99.0557 135.634 99.2477 135.814C99.4517 135.982 99.5537 136.21 99.5537 136.498C99.5537 136.774 99.4517 137.002 99.2477 137.182C99.0557 137.362 98.8157 137.452 98.5277 137.452ZM98.5277 151.69C98.2517 151.69 98.0177 151.6 97.8257 151.42C97.6457 151.24 97.5557 151.006 97.5557 150.718C97.5557 150.442 97.6457 150.208 97.8257 150.016C98.0177 149.836 98.2517 149.746 98.5277 149.746C98.8037 149.746 99.0317 149.836 99.2117 150.016C99.4037 150.208 99.4997 150.442 99.4997 150.718C99.4997 151.006 99.4037 151.24 99.2117 151.42C99.0317 151.6 98.8037 151.69 98.5277 151.69ZM112.505 148.216C111.941 148.216 111.539 148.048 111.299 147.712C111.059 147.376 110.939 146.884 110.939 146.236V135.184H112.415V146.344C112.415 146.584 112.457 146.752 112.541 146.848C112.625 146.944 112.721 146.992 112.829 146.992C112.877 146.992 112.919 146.992 112.955 146.992C113.003 146.992 113.069 146.98 113.153 146.956L113.351 148.072C113.255 148.12 113.141 148.156 113.009 148.18C112.877 148.204 112.709 148.216 112.505 148.216ZM118.928 148.216C118.388 148.216 117.872 148.114 117.38 147.91C116.9 147.706 116.474 147.412 116.102 147.028C115.73 146.632 115.43 146.152 115.202 145.588C114.986 145.012 114.878 144.364 114.878 143.644C114.878 142.912 114.986 142.264 115.202 141.7C115.43 141.124 115.73 140.638 116.102 140.242C116.474 139.846 116.9 139.546 117.38 139.342C117.872 139.138 118.388 139.036 118.928 139.036C119.528 139.036 120.098 139.162 120.638 139.414C121.142 139.318 121.526 139.138 121.79 138.874C122.054 138.598 122.186 138.208 122.186 137.704C122.186 137.536 122.162 137.368 122.114 137.2C122.066 137.02 122 136.858 121.916 136.714L123.068 136.174C123.188 136.378 123.284 136.6 123.356 136.84C123.44 137.08 123.482 137.332 123.482 137.596C123.482 137.956 123.422 138.268 123.302 138.532C123.194 138.796 123.044 139.03 122.852 139.234C122.672 139.426 122.462 139.588 122.222 139.72C121.994 139.84 121.754 139.936 121.502 140.008C121.958 140.392 122.318 140.89 122.582 141.502C122.846 142.114 122.978 142.828 122.978 143.644C122.978 144.364 122.864 145.012 122.636 145.588C122.42 146.152 122.126 146.632 121.754 147.028C121.382 147.412 120.95 147.706 120.458 147.91C119.978 148.114 119.468 148.216 118.928 148.216ZM118.928 146.992C119.3 146.992 119.642 146.914 119.954 146.758C120.266 146.59 120.53 146.362 120.746 146.074C120.974 145.774 121.148 145.42 121.268 145.012C121.388 144.604 121.448 144.148 121.448 143.644C121.448 143.14 121.388 142.684 121.268 142.276C121.148 141.856 120.974 141.496 120.746 141.196C120.53 140.896 120.266 140.668 119.954 140.512C119.642 140.344 119.3 140.26 118.928 140.26C118.556 140.26 118.214 140.344 117.902 140.512C117.59 140.668 117.32 140.896 117.092 141.196C116.876 141.496 116.708 141.856 116.588 142.276C116.468 142.684 116.408 143.14 116.408 143.644C116.408 144.148 116.468 144.604 116.588 145.012C116.708 145.42 116.876 145.774 117.092 146.074C117.32 146.362 117.59 146.59 117.902 146.758C118.214 146.914 118.556 146.992 118.928 146.992ZM118.676 137.686L117.92 136.948L120.458 133.942L121.502 134.932L118.676 137.686ZM125.282 151.69V139.252H126.506L126.632 140.26H126.686C127.082 139.924 127.514 139.636 127.982 139.396C128.462 139.156 128.96 139.036 129.476 139.036C130.04 139.036 130.538 139.144 130.97 139.36C131.402 139.564 131.762 139.864 132.05 140.26C132.338 140.644 132.554 141.112 132.698 141.664C132.854 142.204 132.932 142.816 132.932 143.5C132.932 144.244 132.83 144.91 132.626 145.498C132.422 146.074 132.146 146.566 131.798 146.974C131.45 147.382 131.048 147.694 130.592 147.91C130.136 148.114 129.656 148.216 129.152 148.216C128.744 148.216 128.336 148.126 127.928 147.946C127.532 147.766 127.13 147.52 126.722 147.208L126.758 148.738V151.69H125.282ZM128.9 146.974C129.26 146.974 129.59 146.896 129.89 146.74C130.202 146.572 130.466 146.344 130.682 146.056C130.91 145.756 131.084 145.39 131.204 144.958C131.336 144.526 131.402 144.04 131.402 143.5C131.402 143.02 131.36 142.582 131.276 142.186C131.192 141.79 131.054 141.454 130.862 141.178C130.682 140.89 130.442 140.668 130.142 140.512C129.854 140.356 129.506 140.278 129.098 140.278C128.726 140.278 128.348 140.38 127.964 140.584C127.592 140.788 127.19 141.082 126.758 141.466V146.056C127.154 146.392 127.538 146.632 127.91 146.776C128.282 146.908 128.612 146.974 128.9 146.974ZM146.956 152.032C146.416 152.032 145.924 151.978 145.48 151.87C145.036 151.774 144.652 151.624 144.328 151.42C144.016 151.216 143.77 150.97 143.59 150.682C143.422 150.394 143.338 150.058 143.338 149.674C143.338 149.302 143.452 148.948 143.68 148.612C143.908 148.276 144.22 147.97 144.616 147.694V147.622C144.4 147.49 144.214 147.31 144.058 147.082C143.914 146.842 143.842 146.548 143.842 146.2C143.842 145.828 143.944 145.504 144.148 145.228C144.352 144.952 144.568 144.736 144.796 144.58V144.508C144.508 144.268 144.244 143.95 144.004 143.554C143.776 143.146 143.662 142.678 143.662 142.15C143.662 141.67 143.746 141.238 143.914 140.854C144.094 140.47 144.334 140.146 144.634 139.882C144.934 139.606 145.282 139.396 145.678 139.252C146.086 139.108 146.512 139.036 146.956 139.036C147.196 139.036 147.418 139.06 147.622 139.108C147.838 139.144 148.03 139.192 148.198 139.252H151.24V140.386H149.44C149.644 140.59 149.812 140.848 149.944 141.16C150.088 141.472 150.16 141.814 150.16 142.186C150.16 142.654 150.076 143.08 149.908 143.464C149.74 143.836 149.512 144.154 149.224 144.418C148.936 144.67 148.594 144.868 148.198 145.012C147.814 145.156 147.4 145.228 146.956 145.228C146.74 145.228 146.518 145.204 146.29 145.156C146.062 145.096 145.846 145.018 145.642 144.922C145.486 145.054 145.354 145.204 145.246 145.372C145.138 145.528 145.084 145.726 145.084 145.966C145.084 146.242 145.192 146.47 145.408 146.65C145.624 146.83 146.032 146.92 146.632 146.92H148.324C149.344 146.92 150.106 147.088 150.61 147.424C151.126 147.748 151.384 148.276 151.384 149.008C151.384 149.416 151.282 149.8 151.078 150.16C150.874 150.532 150.58 150.856 150.196 151.132C149.812 151.408 149.344 151.624 148.792 151.78C148.252 151.948 147.64 152.032 146.956 152.032ZM146.956 144.238C147.208 144.238 147.442 144.19 147.658 144.094C147.886 143.998 148.084 143.86 148.252 143.68C148.432 143.5 148.57 143.284 148.666 143.032C148.762 142.768 148.81 142.474 148.81 142.15C148.81 141.502 148.63 141.004 148.27 140.656C147.91 140.296 147.472 140.116 146.956 140.116C146.44 140.116 146.002 140.296 145.642 140.656C145.282 141.004 145.102 141.502 145.102 142.15C145.102 142.474 145.15 142.768 145.246 143.032C145.342 143.284 145.474 143.5 145.642 143.68C145.822 143.86 146.02 143.998 146.236 144.094C146.464 144.19 146.704 144.238 146.956 144.238ZM147.172 151.006C147.592 151.006 147.97 150.952 148.306 150.844C148.654 150.748 148.948 150.616 149.188 150.448C149.428 150.292 149.614 150.106 149.746 149.89C149.878 149.674 149.944 149.452 149.944 149.224C149.944 148.816 149.794 148.534 149.494 148.378C149.194 148.222 148.756 148.144 148.18 148.144H146.668C146.5 148.144 146.314 148.132 146.11 148.108C145.918 148.096 145.726 148.06 145.534 148C145.222 148.228 144.994 148.468 144.85 148.72C144.706 148.972 144.634 149.224 144.634 149.476C144.634 149.944 144.856 150.316 145.3 150.592C145.756 150.868 146.38 151.006 147.172 151.006ZM153.074 148V139.252H154.55V148H153.074ZM153.83 137.452C153.542 137.452 153.296 137.362 153.092 137.182C152.9 137.002 152.804 136.774 152.804 136.498C152.804 136.21 152.9 135.982 153.092 135.814C153.296 135.634 153.542 135.544 153.83 135.544C154.118 135.544 154.358 135.634 154.55 135.814C154.754 135.982 154.856 136.21 154.856 136.498C154.856 136.774 154.754 137.002 154.55 137.182C154.358 137.362 154.118 137.452 153.83 137.452ZM159.52 148.216C158.788 148.216 158.176 148 157.684 147.568C157.204 147.136 156.964 146.524 156.964 145.732C156.964 144.772 157.39 144.04 158.242 143.536C159.094 143.02 160.456 142.66 162.328 142.456C162.328 142.18 162.298 141.91 162.238 141.646C162.19 141.382 162.1 141.148 161.968 140.944C161.836 140.74 161.65 140.578 161.41 140.458C161.182 140.326 160.888 140.26 160.528 140.26C160.024 140.26 159.55 140.356 159.106 140.548C158.662 140.74 158.266 140.956 157.918 141.196L157.342 140.17C157.75 139.906 158.248 139.654 158.836 139.414C159.424 139.162 160.072 139.036 160.78 139.036C161.848 139.036 162.622 139.366 163.102 140.026C163.582 140.674 163.822 141.544 163.822 142.636V148H162.598L162.472 146.956H162.418C161.998 147.304 161.548 147.604 161.068 147.856C160.588 148.096 160.072 148.216 159.52 148.216ZM159.952 147.028C160.372 147.028 160.768 146.932 161.14 146.74C161.512 146.536 161.908 146.242 162.328 145.858V143.428C161.596 143.524 160.978 143.638 160.474 143.77C159.982 143.902 159.58 144.058 159.268 144.238C158.968 144.418 158.746 144.628 158.602 144.868C158.47 145.096 158.404 145.348 158.404 145.624C158.404 146.128 158.554 146.488 158.854 146.704C159.154 146.92 159.52 147.028 159.952 147.028ZM160.492 137.686L159.736 136.948L162.274 133.942L163.318 134.932L160.492 137.686ZM166.574 151.69V139.252H167.798L167.924 140.26H167.978C168.374 139.924 168.806 139.636 169.274 139.396C169.754 139.156 170.252 139.036 170.768 139.036C171.332 139.036 171.83 139.144 172.262 139.36C172.694 139.564 173.054 139.864 173.342 140.26C173.63 140.644 173.846 141.112 173.99 141.664C174.146 142.204 174.224 142.816 174.224 143.5C174.224 144.244 174.122 144.91 173.918 145.498C173.714 146.074 173.438 146.566 173.09 146.974C172.742 147.382 172.34 147.694 171.884 147.91C171.428 148.114 170.948 148.216 170.444 148.216C170.036 148.216 169.628 148.126 169.22 147.946C168.824 147.766 168.422 147.52 168.014 147.208L168.05 148.738V151.69H166.574ZM170.192 146.974C170.552 146.974 170.882 146.896 171.182 146.74C171.494 146.572 171.758 146.344 171.974 146.056C172.202 145.756 172.376 145.39 172.496 144.958C172.628 144.526 172.694 144.04 172.694 143.5C172.694 143.02 172.652 142.582 172.568 142.186C172.484 141.79 172.346 141.454 172.154 141.178C171.974 140.89 171.734 140.668 171.434 140.512C171.146 140.356 170.798 140.278 170.39 140.278C170.018 140.278 169.64 140.38 169.256 140.584C168.884 140.788 168.482 141.082 168.05 141.466V146.056C168.446 146.392 168.83 146.632 169.202 146.776C169.574 146.908 169.904 146.974 170.192 146.974ZM189.166 148.216C188.758 148.216 188.332 148.12 187.888 147.928C187.456 147.724 187.048 147.448 186.664 147.1H186.61L186.484 148H185.296V135.184H186.772V138.676L186.736 140.26C187.132 139.912 187.564 139.624 188.032 139.396C188.5 139.156 188.98 139.036 189.472 139.036C190.036 139.036 190.534 139.144 190.966 139.36C191.398 139.564 191.758 139.864 192.046 140.26C192.346 140.644 192.568 141.112 192.712 141.664C192.868 142.204 192.946 142.81 192.946 143.482C192.946 144.226 192.844 144.892 192.64 145.48C192.436 146.068 192.16 146.566 191.812 146.974C191.464 147.382 191.062 147.694 190.606 147.91C190.15 148.114 189.67 148.216 189.166 148.216ZM188.914 146.974C189.274 146.974 189.604 146.896 189.904 146.74C190.216 146.572 190.48 146.344 190.696 146.056C190.924 145.756 191.098 145.39 191.218 144.958C191.35 144.526 191.416 144.04 191.416 143.5C191.416 143.02 191.374 142.582 191.29 142.186C191.206 141.79 191.068 141.454 190.876 141.178C190.696 140.89 190.456 140.668 190.156 140.512C189.868 140.356 189.52 140.278 189.112 140.278C188.404 140.278 187.624 140.674 186.772 141.466V146.056C187.156 146.392 187.534 146.632 187.906 146.776C188.29 146.908 188.626 146.974 188.914 146.974ZM197.015 148.216C196.283 148.216 195.671 148 195.179 147.568C194.699 147.136 194.459 146.524 194.459 145.732C194.459 144.772 194.885 144.04 195.737 143.536C196.589 143.02 197.951 142.66 199.823 142.456C199.823 142.18 199.793 141.91 199.733 141.646C199.685 141.382 199.595 141.148 199.463 140.944C199.331 140.74 199.145 140.578 198.905 140.458C198.677 140.326 198.383 140.26 198.023 140.26C197.519 140.26 197.045 140.356 196.601 140.548C196.157 140.74 195.761 140.956 195.413 141.196L194.837 140.17C195.245 139.906 195.743 139.654 196.331 139.414C196.919 139.162 197.567 139.036 198.275 139.036C199.343 139.036 200.117 139.366 200.597 140.026C201.077 140.674 201.317 141.544 201.317 142.636V148H200.093L199.967 146.956H199.913C199.493 147.304 199.043 147.604 198.563 147.856C198.083 148.096 197.567 148.216 197.015 148.216ZM197.447 147.028C197.867 147.028 198.263 146.932 198.635 146.74C199.007 146.536 199.403 146.242 199.823 145.858V143.428C199.091 143.524 198.473 143.638 197.969 143.77C197.477 143.902 197.075 144.058 196.763 144.238C196.463 144.418 196.241 144.628 196.097 144.868C195.965 145.096 195.899 145.348 195.899 145.624C195.899 146.128 196.049 146.488 196.349 146.704C196.649 146.92 197.015 147.028 197.447 147.028ZM207.471 148.216C206.931 148.216 206.415 148.114 205.923 147.91C205.443 147.706 205.017 147.412 204.645 147.028C204.273 146.632 203.973 146.152 203.745 145.588C203.529 145.012 203.421 144.364 203.421 143.644C203.421 142.912 203.529 142.264 203.745 141.7C203.973 141.124 204.273 140.638 204.645 140.242C205.017 139.846 205.443 139.546 205.923 139.342C206.415 139.138 206.931 139.036 207.471 139.036C208.011 139.036 208.521 139.138 209.001 139.342C209.493 139.546 209.925 139.846 210.297 140.242C210.669 140.638 210.963 141.124 211.179 141.7C211.407 142.264 211.521 142.912 211.521 143.644C211.521 144.364 211.407 145.012 211.179 145.588C210.963 146.152 210.669 146.632 210.297 147.028C209.925 147.412 209.493 147.706 209.001 147.91C208.521 148.114 208.011 148.216 207.471 148.216ZM207.471 146.992C207.843 146.992 208.185 146.914 208.497 146.758C208.809 146.59 209.073 146.362 209.289 146.074C209.517 145.774 209.691 145.42 209.811 145.012C209.931 144.604 209.991 144.148 209.991 143.644C209.991 143.14 209.931 142.684 209.811 142.276C209.691 141.856 209.517 141.496 209.289 141.196C209.073 140.896 208.809 140.668 208.497 140.512C208.185 140.344 207.843 140.26 207.471 140.26C207.099 140.26 206.757 140.344 206.445 140.512C206.133 140.668 205.863 140.896 205.635 141.196C205.419 141.496 205.251 141.856 205.131 142.276C205.011 142.684 204.951 143.14 204.951 143.644C204.951 144.148 205.011 144.604 205.131 145.012C205.251 145.42 205.419 145.774 205.635 146.074C205.863 146.362 206.133 146.59 206.445 146.758C206.757 146.914 207.099 146.992 207.471 146.992ZM226.432 148.216C226.024 148.216 225.598 148.12 225.154 147.928C224.722 147.724 224.314 147.448 223.93 147.1H223.876L223.75 148H222.562V135.184H224.038V138.676L224.002 140.26C224.398 139.912 224.83 139.624 225.298 139.396C225.766 139.156 226.246 139.036 226.738 139.036C227.302 139.036 227.8 139.144 228.232 139.36C228.664 139.564 229.024 139.864 229.312 140.26C229.612 140.644 229.834 141.112 229.978 141.664C230.134 142.204 230.212 142.81 230.212 143.482C230.212 144.226 230.11 144.892 229.906 145.48C229.702 146.068 229.426 146.566 229.078 146.974C228.73 147.382 228.328 147.694 227.872 147.91C227.416 148.114 226.936 148.216 226.432 148.216ZM226.18 146.974C226.54 146.974 226.87 146.896 227.17 146.74C227.482 146.572 227.746 146.344 227.962 146.056C228.19 145.756 228.364 145.39 228.484 144.958C228.616 144.526 228.682 144.04 228.682 143.5C228.682 143.02 228.64 142.582 228.556 142.186C228.472 141.79 228.334 141.454 228.142 141.178C227.962 140.89 227.722 140.668 227.422 140.512C227.134 140.356 226.786 140.278 226.378 140.278C225.67 140.278 224.89 140.674 224.038 141.466V146.056C224.422 146.392 224.8 146.632 225.172 146.776C225.556 146.908 225.892 146.974 226.18 146.974ZM235.913 148.216C235.373 148.216 234.857 148.114 234.365 147.91C233.885 147.706 233.459 147.412 233.087 147.028C232.715 146.632 232.415 146.152 232.187 145.588C231.971 145.012 231.863 144.364 231.863 143.644C231.863 142.912 231.971 142.264 232.187 141.7C232.415 141.124 232.715 140.638 233.087 140.242C233.459 139.846 233.885 139.546 234.365 139.342C234.857 139.138 235.373 139.036 235.913 139.036C236.453 139.036 236.963 139.138 237.443 139.342C237.935 139.546 238.367 139.846 238.739 140.242C239.111 140.638 239.405 141.124 239.621 141.7C239.849 142.264 239.963 142.912 239.963 143.644C239.963 144.364 239.849 145.012 239.621 145.588C239.405 146.152 239.111 146.632 238.739 147.028C238.367 147.412 237.935 147.706 237.443 147.91C236.963 148.114 236.453 148.216 235.913 148.216ZM235.913 146.992C236.285 146.992 236.627 146.914 236.939 146.758C237.251 146.59 237.515 146.362 237.731 146.074C237.959 145.774 238.133 145.42 238.253 145.012C238.373 144.604 238.433 144.148 238.433 143.644C238.433 143.14 238.373 142.684 238.253 142.276C238.133 141.856 237.959 141.496 237.731 141.196C237.515 140.896 237.251 140.668 236.939 140.512C236.627 140.344 236.285 140.26 235.913 140.26C235.541 140.26 235.199 140.344 234.887 140.512C234.575 140.668 234.305 140.896 234.077 141.196C233.861 141.496 233.693 141.856 233.573 142.276C233.453 142.684 233.393 143.14 233.393 143.644C233.393 144.148 233.453 144.604 233.573 145.012C233.693 145.42 233.861 145.774 234.077 146.074C234.305 146.362 234.575 146.59 234.887 146.758C235.199 146.914 235.541 146.992 235.913 146.992ZM235.931 151.69C235.655 151.69 235.421 151.6 235.229 151.42C235.049 151.24 234.959 151.006 234.959 150.718C234.959 150.442 235.049 150.208 235.229 150.016C235.421 149.836 235.655 149.746 235.931 149.746C236.207 149.746 236.435 149.836 236.615 150.016C236.807 150.208 236.903 150.442 236.903 150.718C236.903 151.006 236.807 151.24 236.615 151.42C236.435 151.6 236.207 151.69 235.931 151.69ZM245.723 148.216C245.147 148.216 244.607 148.114 244.103 147.91C243.599 147.706 243.161 147.412 242.789 147.028C242.429 146.632 242.141 146.152 241.925 145.588C241.721 145.012 241.619 144.364 241.619 143.644C241.619 142.912 241.733 142.264 241.961 141.7C242.189 141.124 242.495 140.638 242.879 140.242C243.263 139.846 243.707 139.546 244.211 139.342C244.727 139.138 245.267 139.036 245.831 139.036C246.407 139.036 246.899 139.138 247.307 139.342C247.715 139.546 248.075 139.786 248.387 140.062L247.631 141.034C247.379 140.806 247.109 140.62 246.821 140.476C246.545 140.332 246.233 140.26 245.885 140.26C245.489 140.26 245.123 140.344 244.787 140.512C244.451 140.668 244.163 140.896 243.923 141.196C243.683 141.496 243.491 141.856 243.347 142.276C243.215 142.684 243.149 143.14 243.149 143.644C243.149 144.148 243.215 144.604 243.347 145.012C243.479 145.42 243.659 145.774 243.887 146.074C244.127 146.362 244.415 146.59 244.751 146.758C245.087 146.914 245.453 146.992 245.849 146.992C246.257 146.992 246.629 146.908 246.965 146.74C247.313 146.56 247.625 146.35 247.901 146.11L248.549 147.1C248.153 147.448 247.715 147.724 247.235 147.928C246.755 148.12 246.251 148.216 245.723 148.216ZM38.042 171.216C37.478 171.216 37.076 171.048 36.836 170.712C36.596 170.376 36.476 169.884 36.476 169.236V158.184H37.952V169.344C37.952 169.584 37.994 169.752 38.078 169.848C38.162 169.944 38.258 169.992 38.366 169.992C38.414 169.992 38.456 169.992 38.492 169.992C38.54 169.992 38.606 169.98 38.69 169.956L38.888 171.072C38.792 171.12 38.678 171.156 38.546 171.18C38.414 171.204 38.246 171.216 38.042 171.216ZM43.6199 171.216C42.6839 171.216 41.9999 170.928 41.5679 170.352C41.1479 169.776 40.9379 168.924 40.9379 167.796V162.252H42.4319V167.598C42.4319 168.426 42.5579 169.026 42.8099 169.398C43.0739 169.758 43.4939 169.938 44.0699 169.938C44.5259 169.938 44.9279 169.824 45.2759 169.596C45.6239 169.356 46.0079 168.978 46.4279 168.462V162.252H47.9039V171H46.6799L46.5539 169.632H46.4999C46.0919 170.112 45.6599 170.496 45.2039 170.784C44.7599 171.072 44.2319 171.216 43.6199 171.216ZM52.8709 171.216C52.1389 171.216 51.5269 171 51.0349 170.568C50.5549 170.136 50.3149 169.524 50.3149 168.732C50.3149 167.772 50.7409 167.04 51.5929 166.536C52.4449 166.02 53.8069 165.66 55.6789 165.456C55.6789 165.18 55.6489 164.91 55.5889 164.646C55.5409 164.382 55.4509 164.148 55.3189 163.944C55.1869 163.74 55.0009 163.578 54.7609 163.458C54.5329 163.326 54.2389 163.26 53.8789 163.26C53.3749 163.26 52.9009 163.356 52.4569 163.548C52.0129 163.74 51.6169 163.956 51.2689 164.196L50.6929 163.17C51.1009 162.906 51.5989 162.654 52.1869 162.414C52.7749 162.162 53.4229 162.036 54.1309 162.036C55.1989 162.036 55.9729 162.366 56.4529 163.026C56.9329 163.674 57.1729 164.544 57.1729 165.636V171H55.9489L55.8229 169.956H55.7689C55.3489 170.304 54.8989 170.604 54.4189 170.856C53.9389 171.096 53.4229 171.216 52.8709 171.216ZM53.3029 170.028C53.7229 170.028 54.1189 169.932 54.4909 169.74C54.8629 169.536 55.2589 169.242 55.6789 168.858V166.428C54.9469 166.524 54.3289 166.638 53.8249 166.77C53.3329 166.902 52.9309 167.058 52.6189 167.238C52.3189 167.418 52.0969 167.628 51.9529 167.868C51.8209 168.096 51.7549 168.348 51.7549 168.624C51.7549 169.128 51.9049 169.488 52.2049 169.704C52.5049 169.92 52.8709 170.028 53.3029 170.028ZM51.3049 160.2L53.3569 157.68H54.8329L56.8849 160.2L56.2549 160.776L54.1309 158.742H54.0589L51.9349 160.776L51.3049 160.2ZM53.8069 174.69C53.5309 174.69 53.2969 174.6 53.1049 174.42C52.9249 174.24 52.8349 174.006 52.8349 173.718C52.8349 173.442 52.9249 173.208 53.1049 173.016C53.2969 172.836 53.5309 172.746 53.8069 172.746C54.0829 172.746 54.3109 172.836 54.4909 173.016C54.6829 173.208 54.7789 173.442 54.7789 173.718C54.7789 174.006 54.6829 174.24 54.4909 174.42C54.3109 174.6 54.0829 174.69 53.8069 174.69ZM62.4331 171.216C61.9651 171.216 61.5691 171.144 61.2451 171C60.9331 170.856 60.6751 170.658 60.4711 170.406C60.2791 170.154 60.1411 169.848 60.0571 169.488C59.9731 169.128 59.9311 168.732 59.9311 168.3V163.458H58.6351V162.342L60.0031 162.252L60.1831 159.804H61.4251V162.252H63.7831V163.458H61.4251V168.318C61.4251 168.858 61.5211 169.278 61.7131 169.578C61.9171 169.866 62.2711 170.01 62.7751 170.01C62.9311 170.01 63.0991 169.986 63.2791 169.938C63.4591 169.89 63.6211 169.836 63.7651 169.776L64.0531 170.892C63.8131 170.976 63.5491 171.048 63.2611 171.108C62.9851 171.18 62.7091 171.216 62.4331 171.216ZM89.0711 174.69V162.252H90.2951L90.4211 163.26H90.4751C90.8711 162.924 91.3031 162.636 91.7711 162.396C92.2511 162.156 92.7491 162.036 93.2651 162.036C93.8291 162.036 94.3271 162.144 94.7591 162.36C95.1911 162.564 95.5511 162.864 95.8391 163.26C96.1271 163.644 96.3431 164.112 96.4871 164.664C96.6431 165.204 96.7211 165.816 96.7211 166.5C96.7211 167.244 96.6191 167.91 96.4151 168.498C96.2111 169.074 95.9351 169.566 95.5871 169.974C95.2391 170.382 94.8371 170.694 94.3811 170.91C93.9251 171.114 93.4451 171.216 92.9411 171.216C92.5331 171.216 92.1251 171.126 91.7171 170.946C91.3211 170.766 90.9191 170.52 90.5111 170.208L90.5471 171.738V174.69H89.0711ZM92.6891 169.974C93.0491 169.974 93.3791 169.896 93.6791 169.74C93.9911 169.572 94.2551 169.344 94.4711 169.056C94.6991 168.756 94.8731 168.39 94.9931 167.958C95.1251 167.526 95.1911 167.04 95.1911 166.5C95.1911 166.02 95.1491 165.582 95.0651 165.186C94.9811 164.79 94.8431 164.454 94.6511 164.178C94.4711 163.89 94.2311 163.668 93.9311 163.512C93.6431 163.356 93.2951 163.278 92.8871 163.278C92.5151 163.278 92.1371 163.38 91.7531 163.584C91.3811 163.788 90.9791 164.082 90.5471 164.466V169.056C90.9431 169.392 91.3271 169.632 91.6991 169.776C92.0711 169.908 92.4011 169.974 92.6891 169.974ZM99.0554 171V158.184H100.531V161.676L100.477 163.476C100.897 163.08 101.335 162.744 101.791 162.468C102.247 162.18 102.781 162.036 103.393 162.036C104.317 162.036 104.989 162.324 105.409 162.9C105.841 163.476 106.057 164.328 106.057 165.456V171H104.581V165.654C104.581 164.826 104.449 164.232 104.185 163.872C103.921 163.5 103.501 163.314 102.925 163.314C102.469 163.314 102.067 163.428 101.719 163.656C101.371 163.884 100.975 164.22 100.531 164.664V171H99.0554ZM110.862 171.216C110.13 171.216 109.518 171 109.026 170.568C108.546 170.136 108.306 169.524 108.306 168.732C108.306 167.772 108.732 167.04 109.584 166.536C110.436 166.02 111.798 165.66 113.67 165.456C113.67 165.18 113.64 164.91 113.58 164.646C113.532 164.382 113.442 164.148 113.31 163.944C113.178 163.74 112.992 163.578 112.752 163.458C112.524 163.326 112.23 163.26 111.87 163.26C111.366 163.26 110.892 163.356 110.448 163.548C110.004 163.74 109.608 163.956 109.26 164.196L108.684 163.17C109.092 162.906 109.59 162.654 110.178 162.414C110.766 162.162 111.414 162.036 112.122 162.036C113.19 162.036 113.964 162.366 114.444 163.026C114.924 163.674 115.164 164.544 115.164 165.636V171H113.94L113.814 169.956H113.76C113.34 170.304 112.89 170.604 112.41 170.856C111.93 171.096 111.414 171.216 110.862 171.216ZM111.294 170.028C111.714 170.028 112.11 169.932 112.482 169.74C112.854 169.536 113.25 169.242 113.67 168.858V166.428C112.938 166.524 112.32 166.638 111.816 166.77C111.324 166.902 110.922 167.058 110.61 167.238C110.31 167.418 110.088 167.628 109.944 167.868C109.812 168.096 109.746 168.348 109.746 168.624C109.746 169.128 109.896 169.488 110.196 169.704C110.496 169.92 110.862 170.028 111.294 170.028ZM111.834 160.686L111.078 159.948L113.616 156.942L114.66 157.932L111.834 160.686ZM117.917 174.69V162.252H119.141L119.267 163.26H119.321C119.717 162.924 120.149 162.636 120.617 162.396C121.097 162.156 121.595 162.036 122.111 162.036C122.675 162.036 123.173 162.144 123.605 162.36C124.037 162.564 124.397 162.864 124.685 163.26C124.973 163.644 125.189 164.112 125.333 164.664C125.489 165.204 125.567 165.816 125.567 166.5C125.567 167.244 125.465 167.91 125.261 168.498C125.057 169.074 124.781 169.566 124.433 169.974C124.085 170.382 123.683 170.694 123.227 170.91C122.771 171.114 122.291 171.216 121.787 171.216C121.379 171.216 120.971 171.126 120.563 170.946C120.167 170.766 119.765 170.52 119.357 170.208L119.393 171.738V174.69H117.917ZM121.535 169.974C121.895 169.974 122.225 169.896 122.525 169.74C122.837 169.572 123.101 169.344 123.317 169.056C123.545 168.756 123.719 168.39 123.839 167.958C123.971 167.526 124.037 167.04 124.037 166.5C124.037 166.02 123.995 165.582 123.911 165.186C123.827 164.79 123.689 164.454 123.497 164.178C123.317 163.89 123.077 163.668 122.777 163.512C122.489 163.356 122.141 163.278 121.733 163.278C121.361 163.278 120.983 163.38 120.599 163.584C120.227 163.788 119.825 164.082 119.393 164.466V169.056C119.789 169.392 120.173 169.632 120.545 169.776C120.917 169.908 121.247 169.974 121.535 169.974ZM154.667 171.216C154.091 171.216 153.551 171.114 153.047 170.91C152.543 170.706 152.105 170.412 151.733 170.028C151.373 169.632 151.085 169.152 150.869 168.588C150.665 168.012 150.563 167.364 150.563 166.644C150.563 165.912 150.677 165.264 150.905 164.7C151.133 164.124 151.439 163.638 151.823 163.242C152.207 162.846 152.651 162.546 153.155 162.342C153.671 162.138 154.211 162.036 154.775 162.036C155.351 162.036 155.843 162.138 156.251 162.342C156.659 162.546 157.019 162.786 157.331 163.062L156.575 164.034C156.323 163.806 156.053 163.62 155.765 163.476C155.489 163.332 155.177 163.26 154.829 163.26C154.433 163.26 154.067 163.344 153.731 163.512C153.395 163.668 153.107 163.896 152.867 164.196C152.627 164.496 152.435 164.856 152.291 165.276C152.159 165.684 152.093 166.14 152.093 166.644C152.093 167.148 152.159 167.604 152.291 168.012C152.423 168.42 152.603 168.774 152.831 169.074C153.071 169.362 153.359 169.59 153.695 169.758C154.031 169.914 154.397 169.992 154.793 169.992C155.201 169.992 155.573 169.908 155.909 169.74C156.257 169.56 156.569 169.35 156.845 169.11L157.493 170.1C157.097 170.448 156.659 170.724 156.179 170.928C155.699 171.12 155.195 171.216 154.667 171.216ZM159.42 171V158.184H160.896V161.676L160.842 163.476C161.262 163.08 161.7 162.744 162.156 162.468C162.612 162.18 163.146 162.036 163.758 162.036C164.682 162.036 165.354 162.324 165.774 162.9C166.206 163.476 166.422 164.328 166.422 165.456V171H164.946V165.654C164.946 164.826 164.814 164.232 164.55 163.872C164.286 163.5 163.866 163.314 163.29 163.314C162.834 163.314 162.432 163.428 162.084 163.656C161.736 163.884 161.34 164.22 160.896 164.664V171H159.42ZM172.613 171.216C172.073 171.216 171.557 171.114 171.065 170.91C170.585 170.706 170.159 170.412 169.787 170.028C169.415 169.632 169.115 169.152 168.887 168.588C168.671 168.012 168.563 167.364 168.563 166.644C168.563 165.912 168.671 165.264 168.887 164.7C169.115 164.124 169.415 163.638 169.787 163.242C170.159 162.846 170.585 162.546 171.065 162.342C171.557 162.138 172.073 162.036 172.613 162.036C173.153 162.036 173.663 162.138 174.143 162.342C174.635 162.546 175.067 162.846 175.439 163.242C175.811 163.638 176.105 164.124 176.321 164.7C176.549 165.264 176.663 165.912 176.663 166.644C176.663 167.364 176.549 168.012 176.321 168.588C176.105 169.152 175.811 169.632 175.439 170.028C175.067 170.412 174.635 170.706 174.143 170.91C173.663 171.114 173.153 171.216 172.613 171.216ZM172.613 169.992C172.985 169.992 173.327 169.914 173.639 169.758C173.951 169.59 174.215 169.362 174.431 169.074C174.659 168.774 174.833 168.42 174.953 168.012C175.073 167.604 175.133 167.148 175.133 166.644C175.133 166.14 175.073 165.684 174.953 165.276C174.833 164.856 174.659 164.496 174.431 164.196C174.215 163.896 173.951 163.668 173.639 163.512C173.327 163.344 172.985 163.26 172.613 163.26C172.241 163.26 171.899 163.344 171.587 163.512C171.275 163.668 171.005 163.896 170.777 164.196C170.561 164.496 170.393 164.856 170.273 165.276C170.153 165.684 170.093 166.14 170.093 166.644C170.093 167.148 170.153 167.604 170.273 168.012C170.393 168.42 170.561 168.774 170.777 169.074C171.005 169.362 171.275 169.59 171.587 169.758C171.899 169.914 172.241 169.992 172.613 169.992ZM205.265 171.216C204.161 171.216 203.279 170.82 202.619 170.028C201.971 169.236 201.647 168.108 201.647 166.644C201.647 165.936 201.749 165.3 201.953 164.736C202.169 164.16 202.451 163.674 202.799 163.278C203.147 162.882 203.549 162.576 204.005 162.36C204.461 162.144 204.941 162.036 205.445 162.036C205.949 162.036 206.387 162.126 206.759 162.306C207.131 162.486 207.509 162.732 207.893 163.044L207.821 161.55V158.184H209.315V171H208.091L207.965 169.974H207.911C207.563 170.31 207.161 170.604 206.705 170.856C206.261 171.096 205.781 171.216 205.265 171.216ZM205.589 169.974C205.997 169.974 206.381 169.878 206.741 169.686C207.101 169.482 207.461 169.176 207.821 168.768V164.196C207.449 163.86 207.089 163.626 206.741 163.494C206.405 163.35 206.057 163.278 205.697 163.278C205.349 163.278 205.019 163.362 204.707 163.53C204.407 163.686 204.143 163.914 203.915 164.214C203.687 164.502 203.507 164.85 203.375 165.258C203.243 165.666 203.177 166.122 203.177 166.626C203.177 167.682 203.387 168.504 203.807 169.092C204.227 169.68 204.821 169.974 205.589 169.974ZM215.663 171.216C215.123 171.216 214.607 171.114 214.115 170.91C213.635 170.706 213.209 170.412 212.837 170.028C212.465 169.632 212.165 169.152 211.937 168.588C211.721 168.012 211.613 167.364 211.613 166.644C211.613 165.912 211.721 165.264 211.937 164.7C212.165 164.124 212.465 163.638 212.837 163.242C213.209 162.846 213.635 162.546 214.115 162.342C214.607 162.138 215.123 162.036 215.663 162.036C216.203 162.036 216.713 162.138 217.193 162.342C217.685 162.546 218.117 162.846 218.489 163.242C218.861 163.638 219.155 164.124 219.371 164.7C219.599 165.264 219.713 165.912 219.713 166.644C219.713 167.364 219.599 168.012 219.371 168.588C219.155 169.152 218.861 169.632 218.489 170.028C218.117 170.412 217.685 170.706 217.193 170.91C216.713 171.114 216.203 171.216 215.663 171.216ZM215.663 169.992C216.035 169.992 216.377 169.914 216.689 169.758C217.001 169.59 217.265 169.362 217.481 169.074C217.709 168.774 217.883 168.42 218.003 168.012C218.123 167.604 218.183 167.148 218.183 166.644C218.183 166.14 218.123 165.684 218.003 165.276C217.883 164.856 217.709 164.496 217.481 164.196C217.265 163.896 217.001 163.668 216.689 163.512C216.377 163.344 216.035 163.26 215.663 163.26C215.291 163.26 214.949 163.344 214.637 163.512C214.325 163.668 214.055 163.896 213.827 164.196C213.611 164.496 213.443 164.856 213.323 165.276C213.203 165.684 213.143 166.14 213.143 166.644C213.143 167.148 213.203 167.604 213.323 168.012C213.443 168.42 213.611 168.774 213.827 169.074C214.055 169.362 214.325 169.59 214.637 169.758C214.949 169.914 215.291 169.992 215.663 169.992ZM223.787 171.216C223.055 171.216 222.443 171 221.951 170.568C221.471 170.136 221.231 169.524 221.231 168.732C221.231 167.772 221.657 167.04 222.509 166.536C223.361 166.02 224.723 165.66 226.595 165.456C226.595 165.18 226.565 164.91 226.505 164.646C226.457 164.382 226.367 164.148 226.235 163.944C226.103 163.74 225.917 163.578 225.677 163.458C225.449 163.326 225.155 163.26 224.795 163.26C224.291 163.26 223.817 163.356 223.373 163.548C222.929 163.74 222.533 163.956 222.185 164.196L221.609 163.17C222.017 162.906 222.515 162.654 223.103 162.414C223.691 162.162 224.339 162.036 225.047 162.036C226.115 162.036 226.889 162.366 227.369 163.026C227.849 163.674 228.089 164.544 228.089 165.636V171H226.865L226.739 169.956H226.685C226.265 170.304 225.815 170.604 225.335 170.856C224.855 171.096 224.339 171.216 223.787 171.216ZM224.219 170.028C224.639 170.028 225.035 169.932 225.407 169.74C225.779 169.536 226.175 169.242 226.595 168.858V166.428C225.863 166.524 225.245 166.638 224.741 166.77C224.249 166.902 223.847 167.058 223.535 167.238C223.235 167.418 223.013 167.628 222.869 167.868C222.737 168.096 222.671 168.348 222.671 168.624C222.671 169.128 222.821 169.488 223.121 169.704C223.421 169.92 223.787 170.028 224.219 170.028ZM230.841 171V162.252H232.065L232.191 163.512H232.245C232.665 163.092 233.103 162.744 233.559 162.468C234.027 162.18 234.567 162.036 235.179 162.036C236.103 162.036 236.775 162.324 237.195 162.9C237.627 163.476 237.843 164.328 237.843 165.456V171H236.367V165.654C236.367 164.826 236.235 164.232 235.971 163.872C235.707 163.5 235.287 163.314 234.711 163.314C234.255 163.314 233.853 163.428 233.505 163.656C233.157 163.884 232.761 164.22 232.317 164.664V171H230.841ZM240.685 171V158.184H242.161V161.676L242.107 163.476C242.527 163.08 242.965 162.744 243.421 162.468C243.877 162.18 244.411 162.036 245.023 162.036C245.947 162.036 246.619 162.324 247.039 162.9C247.471 163.476 247.687 164.328 247.687 165.456V171H246.211V165.654C246.211 164.826 246.079 164.232 245.815 163.872C245.551 163.5 245.131 163.314 244.555 163.314C244.099 163.314 243.697 163.428 243.349 163.656C243.001 163.884 242.605 164.22 242.161 164.664V171H240.685ZM36.476 194V185.252H37.7L37.826 186.512H37.88C38.3 186.092 38.738 185.744 39.194 185.468C39.662 185.18 40.202 185.036 40.814 185.036C41.738 185.036 42.41 185.324 42.83 185.9C43.262 186.476 43.478 187.328 43.478 188.456V194H42.002V188.654C42.002 187.826 41.87 187.232 41.606 186.872C41.342 186.5 40.922 186.314 40.346 186.314C39.89 186.314 39.488 186.428 39.14 186.656C38.792 186.884 38.396 187.22 37.952 187.664V194H36.476ZM49.2718 198.032C48.7318 198.032 48.2398 197.978 47.7958 197.87C47.3518 197.774 46.9678 197.624 46.6438 197.42C46.3318 197.216 46.0858 196.97 45.9058 196.682C45.7378 196.394 45.6538 196.058 45.6538 195.674C45.6538 195.302 45.7678 194.948 45.9958 194.612C46.2238 194.276 46.5358 193.97 46.9318 193.694V193.622C46.7158 193.49 46.5298 193.31 46.3738 193.082C46.2298 192.842 46.1578 192.548 46.1578 192.2C46.1578 191.828 46.2598 191.504 46.4638 191.228C46.6678 190.952 46.8838 190.736 47.1118 190.58V190.508C46.8238 190.268 46.5598 189.95 46.3198 189.554C46.0918 189.146 45.9778 188.678 45.9778 188.15C45.9778 187.67 46.0618 187.238 46.2298 186.854C46.4098 186.47 46.6498 186.146 46.9498 185.882C47.2498 185.606 47.5978 185.396 47.9938 185.252C48.4018 185.108 48.8278 185.036 49.2718 185.036C49.5118 185.036 49.7338 185.06 49.9378 185.108C50.1538 185.144 50.3458 185.192 50.5138 185.252H53.5558V186.386H51.7558C51.9598 186.59 52.1278 186.848 52.2598 187.16C52.4038 187.472 52.4758 187.814 52.4758 188.186C52.4758 188.654 52.3918 189.08 52.2238 189.464C52.0558 189.836 51.8278 190.154 51.5398 190.418C51.2518 190.67 50.9098 190.868 50.5138 191.012C50.1298 191.156 49.7158 191.228 49.2718 191.228C49.0558 191.228 48.8338 191.204 48.6058 191.156C48.3778 191.096 48.1618 191.018 47.9578 190.922C47.8018 191.054 47.6698 191.204 47.5618 191.372C47.4538 191.528 47.3998 191.726 47.3998 191.966C47.3998 192.242 47.5078 192.47 47.7238 192.65C47.9398 192.83 48.3478 192.92 48.9478 192.92H50.6398C51.6598 192.92 52.4218 193.088 52.9258 193.424C53.4418 193.748 53.6998 194.276 53.6998 195.008C53.6998 195.416 53.5978 195.8 53.3938 196.16C53.1898 196.532 52.8958 196.856 52.5118 197.132C52.1278 197.408 51.6598 197.624 51.1078 197.78C50.5678 197.948 49.9558 198.032 49.2718 198.032ZM49.2718 190.238C49.5238 190.238 49.7578 190.19 49.9738 190.094C50.2018 189.998 50.3998 189.86 50.5678 189.68C50.7478 189.5 50.8858 189.284 50.9818 189.032C51.0778 188.768 51.1258 188.474 51.1258 188.15C51.1258 187.502 50.9458 187.004 50.5858 186.656C50.2258 186.296 49.7878 186.116 49.2718 186.116C48.7558 186.116 48.3178 186.296 47.9578 186.656C47.5978 187.004 47.4178 187.502 47.4178 188.15C47.4178 188.474 47.4658 188.768 47.5618 189.032C47.6578 189.284 47.7898 189.5 47.9578 189.68C48.1378 189.86 48.3358 189.998 48.5518 190.094C48.7798 190.19 49.0198 190.238 49.2718 190.238ZM49.4878 197.006C49.9078 197.006 50.2858 196.952 50.6218 196.844C50.9698 196.748 51.2638 196.616 51.5038 196.448C51.7438 196.292 51.9298 196.106 52.0618 195.89C52.1938 195.674 52.2598 195.452 52.2598 195.224C52.2598 194.816 52.1098 194.534 51.8098 194.378C51.5098 194.222 51.0718 194.144 50.4958 194.144H48.9838C48.8158 194.144 48.6298 194.132 48.4258 194.108C48.2338 194.096 48.0418 194.06 47.8498 194C47.5378 194.228 47.3098 194.468 47.1658 194.72C47.0218 194.972 46.9498 195.224 46.9498 195.476C46.9498 195.944 47.1718 196.316 47.6158 196.592C48.0718 196.868 48.6958 197.006 49.4878 197.006ZM55.3901 194V181.184H56.8661V184.676L56.8121 186.476C57.2321 186.08 57.6701 185.744 58.1261 185.468C58.5821 185.18 59.1161 185.036 59.7281 185.036C60.6521 185.036 61.3241 185.324 61.7441 185.9C62.1761 186.476 62.3921 187.328 62.3921 188.456V194H60.9161V188.654C60.9161 187.826 60.7841 187.232 60.5201 186.872C60.2561 186.5 59.8361 186.314 59.2601 186.314C58.8041 186.314 58.4021 186.428 58.0541 186.656C57.7061 186.884 57.3101 187.22 56.8661 187.664V194H55.3901ZM65.1811 194V185.252H66.6571V194H65.1811ZM65.9371 183.452C65.6491 183.452 65.4031 183.362 65.1991 183.182C65.0071 183.002 64.9111 182.774 64.9111 182.498C64.9111 182.21 65.0071 181.982 65.1991 181.814C65.4031 181.634 65.6491 181.544 65.9371 181.544C66.2251 181.544 66.4651 181.634 66.6571 181.814C66.8611 181.982 66.9631 182.21 66.9631 182.498C66.9631 182.774 66.8611 183.002 66.6571 183.182C66.4651 183.362 66.2251 183.452 65.9371 183.452ZM73.1568 194.216C72.5688 194.216 72.0168 194.114 71.5008 193.91C70.9968 193.694 70.5528 193.394 70.1688 193.01C69.7968 192.614 69.5028 192.134 69.2868 191.57C69.0708 191.006 68.9628 190.364 68.9628 189.644C68.9628 188.924 69.0708 188.282 69.2868 187.718C69.5148 187.142 69.8088 186.656 70.1688 186.26C70.5408 185.864 70.9608 185.564 71.4288 185.36C71.8968 185.144 72.3828 185.036 72.8868 185.036C73.4388 185.036 73.9308 185.132 74.3628 185.324C74.8068 185.516 75.1728 185.792 75.4608 186.152C75.7608 186.512 75.9888 186.944 76.1448 187.448C76.3008 187.952 76.3788 188.516 76.3788 189.14C76.3788 189.296 76.3728 189.452 76.3608 189.608C76.3608 189.752 76.3488 189.878 76.3248 189.986H70.4208C70.4808 190.922 70.7688 191.666 71.2848 192.218C71.8128 192.758 72.4968 193.028 73.3368 193.028C73.7568 193.028 74.1408 192.968 74.4888 192.848C74.8488 192.716 75.1908 192.548 75.5148 192.344L76.0368 193.316C75.6528 193.556 75.2268 193.766 74.7588 193.946C74.2908 194.126 73.7568 194.216 73.1568 194.216ZM70.4028 188.924H75.0828C75.0828 188.036 74.8908 187.364 74.5068 186.908C74.1348 186.44 73.6068 186.206 72.9228 186.206C72.6108 186.206 72.3108 186.266 72.0228 186.386C71.7468 186.506 71.4948 186.686 71.2668 186.926C71.0388 187.154 70.8468 187.436 70.6908 187.772C70.5468 188.108 70.4508 188.492 70.4028 188.924ZM70.1148 183.2L72.1668 180.68H73.6428L75.6948 183.2L75.0648 183.776L72.9408 181.742H72.8688L70.7448 183.776L70.1148 183.2ZM72.8508 197.69C72.5748 197.69 72.3408 197.6 72.1488 197.42C71.9688 197.24 71.8788 197.006 71.8788 196.718C71.8788 196.442 71.9688 196.208 72.1488 196.016C72.3408 195.836 72.5748 195.746 72.8508 195.746C73.1268 195.746 73.3548 195.836 73.5348 196.016C73.7268 196.208 73.8228 196.442 73.8228 196.718C73.8228 197.006 73.7268 197.24 73.5348 197.42C73.3548 197.6 73.1268 197.69 72.8508 197.69ZM78.5405 197.69V185.252H79.7645L79.8905 186.26H79.9445C80.3405 185.924 80.7725 185.636 81.2405 185.396C81.7205 185.156 82.2185 185.036 82.7345 185.036C83.2985 185.036 83.7965 185.144 84.2285 185.36C84.6605 185.564 85.0205 185.864 85.3085 186.26C85.5965 186.644 85.8125 187.112 85.9565 187.664C86.1125 188.204 86.1905 188.816 86.1905 189.5C86.1905 190.244 86.0885 190.91 85.8845 191.498C85.6805 192.074 85.4045 192.566 85.0565 192.974C84.7085 193.382 84.3065 193.694 83.8505 193.91C83.3945 194.114 82.9145 194.216 82.4105 194.216C82.0025 194.216 81.5945 194.126 81.1865 193.946C80.7905 193.766 80.3885 193.52 79.9805 193.208L80.0165 194.738V197.69H78.5405ZM82.1585 192.974C82.5185 192.974 82.8485 192.896 83.1485 192.74C83.4605 192.572 83.7245 192.344 83.9405 192.056C84.1685 191.756 84.3425 191.39 84.4625 190.958C84.5945 190.526 84.6605 190.04 84.6605 189.5C84.6605 189.02 84.6185 188.582 84.5345 188.186C84.4505 187.79 84.3125 187.454 84.1205 187.178C83.9405 186.89 83.7005 186.668 83.4005 186.512C83.1125 186.356 82.7645 186.278 82.3565 186.278C81.9845 186.278 81.6065 186.38 81.2225 186.584C80.8505 186.788 80.4485 187.082 80.0165 187.466V192.056C80.4125 192.392 80.7965 192.632 81.1685 192.776C81.5405 192.908 81.8705 192.974 82.1585 192.974ZM88.079 197.06L87.719 196.196C88.235 195.968 88.637 195.662 88.925 195.278C89.213 194.906 89.351 194.48 89.339 194C89.303 194.012 89.243 194.018 89.159 194.018C88.871 194.018 88.619 193.934 88.403 193.766C88.199 193.586 88.097 193.328 88.097 192.992C88.097 192.668 88.205 192.416 88.421 192.236C88.637 192.044 88.895 191.948 89.195 191.948C89.579 191.948 89.879 192.104 90.095 192.416C90.323 192.728 90.437 193.154 90.437 193.694C90.437 194.474 90.227 195.152 89.807 195.728C89.387 196.304 88.811 196.748 88.079 197.06ZM101.384 194V181.184H102.842V189.86H102.896L106.622 185.252H108.26L105.326 188.762L108.656 194H107.036L104.48 189.788L102.842 191.696V194H101.384ZM110.296 194V181.184H111.772V184.676L111.718 186.476C112.138 186.08 112.576 185.744 113.032 185.468C113.488 185.18 114.022 185.036 114.634 185.036C115.558 185.036 116.23 185.324 116.65 185.9C117.082 186.476 117.298 187.328 117.298 188.456V194H115.822V188.654C115.822 187.826 115.69 187.232 115.426 186.872C115.162 186.5 114.742 186.314 114.166 186.314C113.71 186.314 113.308 186.428 112.96 186.656C112.612 186.884 112.216 187.22 111.772 187.664V194H110.296ZM123.489 194.216C122.949 194.216 122.433 194.114 121.941 193.91C121.461 193.706 121.035 193.412 120.663 193.028C120.291 192.632 119.991 192.152 119.763 191.588C119.547 191.012 119.439 190.364 119.439 189.644C119.439 188.912 119.547 188.264 119.763 187.7C119.991 187.124 120.291 186.638 120.663 186.242C121.035 185.846 121.461 185.546 121.941 185.342C122.433 185.138 122.949 185.036 123.489 185.036C124.029 185.036 124.539 185.138 125.019 185.342C125.511 185.546 125.943 185.846 126.315 186.242C126.687 186.638 126.981 187.124 127.197 187.7C127.425 188.264 127.539 188.912 127.539 189.644C127.539 190.364 127.425 191.012 127.197 191.588C126.981 192.152 126.687 192.632 126.315 193.028C125.943 193.412 125.511 193.706 125.019 193.91C124.539 194.114 124.029 194.216 123.489 194.216ZM123.489 192.992C123.861 192.992 124.203 192.914 124.515 192.758C124.827 192.59 125.091 192.362 125.307 192.074C125.535 191.774 125.709 191.42 125.829 191.012C125.949 190.604 126.009 190.148 126.009 189.644C126.009 189.14 125.949 188.684 125.829 188.276C125.709 187.856 125.535 187.496 125.307 187.196C125.091 186.896 124.827 186.668 124.515 186.512C124.203 186.344 123.861 186.26 123.489 186.26C123.117 186.26 122.775 186.344 122.463 186.512C122.151 186.668 121.881 186.896 121.653 187.196C121.437 187.496 121.269 187.856 121.149 188.276C121.029 188.684 120.969 189.14 120.969 189.644C120.969 190.148 121.029 190.604 121.149 191.012C121.269 191.42 121.437 191.774 121.653 192.074C121.881 192.362 122.151 192.59 122.463 192.758C122.775 192.914 123.117 192.992 123.489 192.992ZM120.699 183.2L122.751 180.68H124.227L126.279 183.2L125.649 183.776L123.525 181.742H123.453L121.329 183.776L120.699 183.2ZM129.843 194V185.252H131.067L131.193 186.512H131.247C131.667 186.092 132.105 185.744 132.561 185.468C133.029 185.18 133.569 185.036 134.181 185.036C135.105 185.036 135.777 185.324 136.197 185.9C136.629 186.476 136.845 187.328 136.845 188.456V194H135.369V188.654C135.369 187.826 135.237 187.232 134.973 186.872C134.709 186.5 134.289 186.314 133.713 186.314C133.257 186.314 132.855 186.428 132.507 186.656C132.159 186.884 131.763 187.22 131.319 187.664V194H129.843ZM142.639 198.032C142.099 198.032 141.607 197.978 141.163 197.87C140.719 197.774 140.335 197.624 140.011 197.42C139.699 197.216 139.453 196.97 139.273 196.682C139.105 196.394 139.021 196.058 139.021 195.674C139.021 195.302 139.135 194.948 139.363 194.612C139.591 194.276 139.903 193.97 140.299 193.694V193.622C140.083 193.49 139.897 193.31 139.741 193.082C139.597 192.842 139.525 192.548 139.525 192.2C139.525 191.828 139.627 191.504 139.831 191.228C140.035 190.952 140.251 190.736 140.479 190.58V190.508C140.191 190.268 139.927 189.95 139.687 189.554C139.459 189.146 139.345 188.678 139.345 188.15C139.345 187.67 139.429 187.238 139.597 186.854C139.777 186.47 140.017 186.146 140.317 185.882C140.617 185.606 140.965 185.396 141.361 185.252C141.769 185.108 142.195 185.036 142.639 185.036C142.879 185.036 143.101 185.06 143.305 185.108C143.521 185.144 143.713 185.192 143.881 185.252H146.923V186.386H145.123C145.327 186.59 145.495 186.848 145.627 187.16C145.771 187.472 145.843 187.814 145.843 188.186C145.843 188.654 145.759 189.08 145.591 189.464C145.423 189.836 145.195 190.154 144.907 190.418C144.619 190.67 144.277 190.868 143.881 191.012C143.497 191.156 143.083 191.228 142.639 191.228C142.423 191.228 142.201 191.204 141.973 191.156C141.745 191.096 141.529 191.018 141.325 190.922C141.169 191.054 141.037 191.204 140.929 191.372C140.821 191.528 140.767 191.726 140.767 191.966C140.767 192.242 140.875 192.47 141.091 192.65C141.307 192.83 141.715 192.92 142.315 192.92H144.007C145.027 192.92 145.789 193.088 146.293 193.424C146.809 193.748 147.067 194.276 147.067 195.008C147.067 195.416 146.965 195.8 146.761 196.16C146.557 196.532 146.263 196.856 145.879 197.132C145.495 197.408 145.027 197.624 144.475 197.78C143.935 197.948 143.323 198.032 142.639 198.032ZM142.639 190.238C142.891 190.238 143.125 190.19 143.341 190.094C143.569 189.998 143.767 189.86 143.935 189.68C144.115 189.5 144.253 189.284 144.349 189.032C144.445 188.768 144.493 188.474 144.493 188.15C144.493 187.502 144.313 187.004 143.953 186.656C143.593 186.296 143.155 186.116 142.639 186.116C142.123 186.116 141.685 186.296 141.325 186.656C140.965 187.004 140.785 187.502 140.785 188.15C140.785 188.474 140.833 188.768 140.929 189.032C141.025 189.284 141.157 189.5 141.325 189.68C141.505 189.86 141.703 189.998 141.919 190.094C142.147 190.19 142.387 190.238 142.639 190.238ZM142.855 197.006C143.275 197.006 143.653 196.952 143.989 196.844C144.337 196.748 144.631 196.616 144.871 196.448C145.111 196.292 145.297 196.106 145.429 195.89C145.561 195.674 145.627 195.452 145.627 195.224C145.627 194.816 145.477 194.534 145.177 194.378C144.877 194.222 144.439 194.144 143.863 194.144H142.351C142.183 194.144 141.997 194.132 141.793 194.108C141.601 194.096 141.409 194.06 141.217 194C140.905 194.228 140.677 194.468 140.533 194.72C140.389 194.972 140.317 195.224 140.317 195.476C140.317 195.944 140.539 196.316 140.983 196.592C141.439 196.868 142.063 197.006 142.855 197.006ZM160.766 194.216C160.19 194.216 159.65 194.114 159.146 193.91C158.642 193.706 158.204 193.412 157.832 193.028C157.472 192.632 157.184 192.152 156.968 191.588C156.764 191.012 156.662 190.364 156.662 189.644C156.662 188.912 156.776 188.264 157.004 187.7C157.232 187.124 157.538 186.638 157.922 186.242C158.306 185.846 158.75 185.546 159.254 185.342C159.77 185.138 160.31 185.036 160.874 185.036C161.45 185.036 161.942 185.138 162.35 185.342C162.758 185.546 163.118 185.786 163.43 186.062L162.674 187.034C162.422 186.806 162.152 186.62 161.864 186.476C161.588 186.332 161.276 186.26 160.928 186.26C160.532 186.26 160.166 186.344 159.83 186.512C159.494 186.668 159.206 186.896 158.966 187.196C158.726 187.496 158.534 187.856 158.39 188.276C158.258 188.684 158.192 189.14 158.192 189.644C158.192 190.148 158.258 190.604 158.39 191.012C158.522 191.42 158.702 191.774 158.93 192.074C159.17 192.362 159.458 192.59 159.794 192.758C160.13 192.914 160.496 192.992 160.892 192.992C161.3 192.992 161.672 192.908 162.008 192.74C162.356 192.56 162.668 192.35 162.944 192.11L163.592 193.1C163.196 193.448 162.758 193.724 162.278 193.928C161.798 194.12 161.294 194.216 160.766 194.216ZM168.534 194.216C167.994 194.216 167.478 194.114 166.986 193.91C166.506 193.706 166.08 193.412 165.708 193.028C165.336 192.632 165.036 192.152 164.808 191.588C164.592 191.012 164.484 190.364 164.484 189.644C164.484 188.912 164.592 188.264 164.808 187.7C165.036 187.124 165.336 186.638 165.708 186.242C166.08 185.846 166.506 185.546 166.986 185.342C167.478 185.138 167.994 185.036 168.534 185.036C169.074 185.036 169.584 185.138 170.064 185.342C170.556 185.546 170.988 185.846 171.36 186.242C171.732 186.638 172.026 187.124 172.242 187.7C172.47 188.264 172.584 188.912 172.584 189.644C172.584 190.364 172.47 191.012 172.242 191.588C172.026 192.152 171.732 192.632 171.36 193.028C170.988 193.412 170.556 193.706 170.064 193.91C169.584 194.114 169.074 194.216 168.534 194.216ZM168.534 192.992C168.906 192.992 169.248 192.914 169.56 192.758C169.872 192.59 170.136 192.362 170.352 192.074C170.58 191.774 170.754 191.42 170.874 191.012C170.994 190.604 171.054 190.148 171.054 189.644C171.054 189.14 170.994 188.684 170.874 188.276C170.754 187.856 170.58 187.496 170.352 187.196C170.136 186.896 169.872 186.668 169.56 186.512C169.248 186.344 168.906 186.26 168.534 186.26C168.162 186.26 167.82 186.344 167.508 186.512C167.196 186.668 166.926 186.896 166.698 187.196C166.482 187.496 166.314 187.856 166.194 188.276C166.074 188.684 166.014 189.14 166.014 189.644C166.014 190.148 166.074 190.604 166.194 191.012C166.314 191.42 166.482 191.774 166.698 192.074C166.926 192.362 167.196 192.59 167.508 192.758C167.82 192.914 168.162 192.992 168.534 192.992ZM168.786 183.686L165.96 180.932L167.004 179.942L169.542 182.948L168.786 183.686ZM174.888 194V185.252H176.112L176.238 186.512H176.292C176.712 186.092 177.15 185.744 177.606 185.468C178.074 185.18 178.614 185.036 179.226 185.036C180.15 185.036 180.822 185.324 181.242 185.9C181.674 186.476 181.89 187.328 181.89 188.456V194H180.414V188.654C180.414 187.826 180.282 187.232 180.018 186.872C179.754 186.5 179.334 186.314 178.758 186.314C178.302 186.314 177.9 186.428 177.552 186.656C177.204 186.884 176.808 187.22 176.364 187.664V194H174.888ZM196.273 194.216C195.169 194.216 194.287 193.85 193.627 193.118C192.979 192.374 192.655 191.33 192.655 189.986C192.655 189.338 192.757 188.756 192.961 188.24C193.177 187.712 193.459 187.268 193.807 186.908C194.155 186.536 194.557 186.248 195.013 186.044C195.469 185.84 195.949 185.738 196.453 185.738C196.957 185.738 197.395 185.834 197.767 186.026C198.139 186.206 198.517 186.452 198.901 186.764L198.829 185.252V183.722H195.931V182.858H198.829V181.184H200.323V182.858H201.619V183.632L200.323 183.722V194H199.063L198.955 193.01H198.901C198.565 193.346 198.175 193.634 197.731 193.874C197.287 194.102 196.801 194.216 196.273 194.216ZM196.597 192.974C197.005 192.974 197.389 192.878 197.749 192.686C198.109 192.482 198.469 192.176 198.829 191.768V187.898C198.457 187.562 198.097 187.328 197.749 187.196C197.413 187.052 197.065 186.98 196.705 186.98C196.357 186.98 196.027 187.058 195.715 187.214C195.415 187.358 195.151 187.562 194.923 187.826C194.695 188.09 194.515 188.408 194.383 188.78C194.251 189.14 194.185 189.536 194.185 189.968C194.185 190.892 194.395 191.624 194.815 192.164C195.235 192.704 195.829 192.974 196.597 192.974ZM205.285 194.216C204.553 194.216 203.941 194 203.449 193.568C202.969 193.136 202.729 192.524 202.729 191.732C202.729 190.772 203.155 190.04 204.007 189.536C204.859 189.02 206.221 188.66 208.093 188.456C208.093 188.18 208.063 187.91 208.003 187.646C207.955 187.382 207.865 187.148 207.733 186.944C207.601 186.74 207.415 186.578 207.175 186.458C206.947 186.326 206.653 186.26 206.293 186.26C205.789 186.26 205.315 186.356 204.871 186.548C204.427 186.74 204.031 186.956 203.683 187.196L203.107 186.17C203.515 185.906 204.013 185.654 204.601 185.414C205.189 185.162 205.837 185.036 206.545 185.036C207.613 185.036 208.387 185.366 208.867 186.026C209.347 186.674 209.587 187.544 209.587 188.636V194H208.363L208.237 192.956H208.183C207.763 193.304 207.313 193.604 206.833 193.856C206.353 194.096 205.837 194.216 205.285 194.216ZM205.717 193.028C206.137 193.028 206.533 192.932 206.905 192.74C207.277 192.536 207.673 192.242 208.093 191.858V189.428C207.361 189.524 206.743 189.638 206.239 189.77C205.747 189.902 205.345 190.058 205.033 190.238C204.733 190.418 204.511 190.628 204.367 190.868C204.235 191.096 204.169 191.348 204.169 191.624C204.169 192.128 204.319 192.488 204.619 192.704C204.919 192.92 205.285 193.028 205.717 193.028ZM206.419 181.778L205.717 181.256L207.301 179.024L208.237 179.744L206.419 181.778ZM206.509 183.722C206.029 183.722 205.615 183.644 205.267 183.488C204.919 183.332 204.631 183.128 204.403 182.876C204.187 182.612 204.019 182.318 203.899 181.994C203.791 181.67 203.725 181.34 203.701 181.004L204.565 180.86C204.601 181.1 204.661 181.34 204.745 181.58C204.841 181.808 204.967 182.012 205.123 182.192C205.291 182.372 205.489 182.522 205.717 182.642C205.945 182.75 206.209 182.804 206.509 182.804C206.809 182.804 207.073 182.75 207.301 182.642C207.529 182.522 207.721 182.372 207.877 182.192C208.045 182.012 208.171 181.808 208.255 181.58C208.351 181.34 208.417 181.1 208.453 180.86L209.317 181.004C209.293 181.34 209.221 181.67 209.101 181.994C208.993 182.318 208.825 182.612 208.597 182.876C208.369 183.128 208.081 183.332 207.733 183.488C207.397 183.644 206.989 183.722 206.509 183.722ZM212.339 194V185.252H213.563L213.689 186.512H213.743C214.163 186.092 214.601 185.744 215.057 185.468C215.525 185.18 216.065 185.036 216.677 185.036C217.601 185.036 218.273 185.324 218.693 185.9C219.125 186.476 219.341 187.328 219.341 188.456V194H217.865V188.654C217.865 187.826 217.733 187.232 217.469 186.872C217.205 186.5 216.785 186.314 216.209 186.314C215.753 186.314 215.351 186.428 215.003 186.656C214.655 186.884 214.259 187.22 213.815 187.664V194H212.339ZM233.724 194.216C232.62 194.216 231.738 193.85 231.078 193.118C230.43 192.374 230.106 191.33 230.106 189.986C230.106 189.338 230.208 188.756 230.412 188.24C230.628 187.712 230.91 187.268 231.258 186.908C231.606 186.536 232.008 186.248 232.464 186.044C232.92 185.84 233.4 185.738 233.904 185.738C234.408 185.738 234.846 185.834 235.218 186.026C235.59 186.206 235.968 186.452 236.352 186.764L236.28 185.252V183.722H233.382V182.858H236.28V181.184H237.774V182.858H239.07V183.632L237.774 183.722V194H236.514L236.406 193.01H236.352C236.016 193.346 235.626 193.634 235.182 193.874C234.738 194.102 234.252 194.216 233.724 194.216ZM234.048 192.974C234.456 192.974 234.84 192.878 235.2 192.686C235.56 192.482 235.92 192.176 236.28 191.768V187.898C235.908 187.562 235.548 187.328 235.2 187.196C234.864 187.052 234.516 186.98 234.156 186.98C233.808 186.98 233.478 187.058 233.166 187.214C232.866 187.358 232.602 187.562 232.374 187.826C232.146 188.09 231.966 188.408 231.834 188.78C231.702 189.14 231.636 189.536 231.636 189.968C231.636 190.892 231.846 191.624 232.266 192.164C232.686 192.704 233.28 192.974 234.048 192.974ZM244.122 194.216C243.582 194.216 243.066 194.114 242.574 193.91C242.094 193.706 241.668 193.412 241.296 193.028C240.924 192.632 240.624 192.152 240.396 191.588C240.18 191.012 240.072 190.364 240.072 189.644C240.072 188.912 240.18 188.264 240.396 187.7C240.624 187.124 240.924 186.638 241.296 186.242C241.668 185.846 242.094 185.546 242.574 185.342C243.066 185.138 243.582 185.036 244.122 185.036C244.662 185.036 245.172 185.138 245.652 185.342C246.144 185.546 246.576 185.846 246.948 186.242C247.32 186.638 247.614 187.124 247.83 187.7C248.058 188.264 248.172 188.912 248.172 189.644C248.172 190.364 248.058 191.012 247.83 191.588C247.614 192.152 247.32 192.632 246.948 193.028C246.576 193.412 246.144 193.706 245.652 193.91C245.172 194.114 244.662 194.216 244.122 194.216ZM244.122 192.992C244.494 192.992 244.836 192.914 245.148 192.758C245.46 192.59 245.724 192.362 245.94 192.074C246.168 191.774 246.342 191.42 246.462 191.012C246.582 190.604 246.642 190.148 246.642 189.644C246.642 189.14 246.582 188.684 246.462 188.276C246.342 187.856 246.168 187.496 245.94 187.196C245.724 186.896 245.46 186.668 245.148 186.512C244.836 186.344 244.494 186.26 244.122 186.26C243.75 186.26 243.408 186.344 243.096 186.512C242.784 186.668 242.514 186.896 242.286 187.196C242.07 187.496 241.902 187.856 241.782 188.276C241.662 188.684 241.602 189.14 241.602 189.644C241.602 190.148 241.662 190.604 241.782 191.012C241.902 191.42 242.07 191.774 242.286 192.074C242.514 192.362 242.784 192.59 243.096 192.758C243.408 192.914 243.75 192.992 244.122 192.992ZM38.366 217L35.216 208.252H36.746L38.402 213.22C38.534 213.652 38.666 214.084 38.798 214.516C38.942 214.948 39.08 215.374 39.212 215.794H39.284C39.416 215.374 39.548 214.948 39.68 214.516C39.812 214.084 39.944 213.652 40.076 213.22L41.732 208.252H43.19L40.094 217H38.366ZM46.5428 217.216C45.8108 217.216 45.1988 217 44.7068 216.568C44.2268 216.136 43.9868 215.524 43.9868 214.732C43.9868 213.772 44.4128 213.04 45.2648 212.536C46.1168 212.02 47.4788 211.66 49.3508 211.456C49.3508 211.18 49.3208 210.91 49.2608 210.646C49.2128 210.382 49.1228 210.148 48.9908 209.944C48.8588 209.74 48.6728 209.578 48.4328 209.458C48.2048 209.326 47.9108 209.26 47.5508 209.26C47.0468 209.26 46.5728 209.356 46.1288 209.548C45.6848 209.74 45.2888 209.956 44.9408 210.196L44.3648 209.17C44.7728 208.906 45.2708 208.654 45.8588 208.414C46.4468 208.162 47.0948 208.036 47.8028 208.036C48.8708 208.036 49.6448 208.366 50.1248 209.026C50.6048 209.674 50.8448 210.544 50.8448 211.636V217H49.6208L49.4948 215.956H49.4408C49.0208 216.304 48.5708 216.604 48.0908 216.856C47.6108 217.096 47.0948 217.216 46.5428 217.216ZM46.9748 216.028C47.3948 216.028 47.7908 215.932 48.1628 215.74C48.5348 215.536 48.9308 215.242 49.3508 214.858V212.428C48.6188 212.524 48.0008 212.638 47.4968 212.77C47.0048 212.902 46.6028 213.058 46.2908 213.238C45.9908 213.418 45.7688 213.628 45.6248 213.868C45.4928 214.096 45.4268 214.348 45.4268 214.624C45.4268 215.128 45.5768 215.488 45.8768 215.704C46.1768 215.92 46.5428 216.028 46.9748 216.028ZM45.8768 206.74L45.3548 206.128L47.1548 204.472H48.3788L50.1788 206.128L49.6568 206.74L47.8028 205.444H47.7308L45.8768 206.74ZM49.5488 205.03L51.1148 202.87L51.9968 203.482L50.1788 205.534L49.5488 205.03ZM53.5971 217V208.252H54.8211L54.9471 209.512H55.0011C55.4211 209.092 55.8591 208.744 56.3151 208.468C56.7831 208.18 57.3231 208.036 57.9351 208.036C58.8591 208.036 59.5311 208.324 59.9511 208.9C60.3831 209.476 60.5991 210.328 60.5991 211.456V217H59.1231V211.654C59.1231 210.826 58.9911 210.232 58.7271 209.872C58.4631 209.5 58.0431 209.314 57.4671 209.314C57.0111 209.314 56.6091 209.428 56.2611 209.656C55.9131 209.884 55.5171 210.22 55.0731 210.664V217H53.5971ZM70.0324 217.216C68.9284 217.216 68.0464 216.85 67.3864 216.118C66.7384 215.374 66.4144 214.33 66.4144 212.986C66.4144 212.338 66.5164 211.756 66.7204 211.24C66.9364 210.712 67.2184 210.268 67.5664 209.908C67.9144 209.536 68.3164 209.248 68.7724 209.044C69.2284 208.84 69.7084 208.738 70.2124 208.738C70.7164 208.738 71.1544 208.834 71.5264 209.026C71.8984 209.206 72.2764 209.452 72.6604 209.764L72.5884 208.252V206.722H69.6904V205.858H72.5884V204.184H74.0824V205.858H75.3784V206.632L74.0824 206.722V217H72.8224L72.7144 216.01H72.6604C72.3244 216.346 71.9344 216.634 71.4904 216.874C71.0464 217.102 70.5604 217.216 70.0324 217.216ZM70.3564 215.974C70.7644 215.974 71.1484 215.878 71.5084 215.686C71.8684 215.482 72.2284 215.176 72.5884 214.768V210.898C72.2164 210.562 71.8564 210.328 71.5084 210.196C71.1724 210.052 70.8244 209.98 70.4644 209.98C70.1164 209.98 69.7864 210.058 69.4744 210.214C69.1744 210.358 68.9104 210.562 68.6824 210.826C68.4544 211.09 68.2744 211.408 68.1424 211.78C68.0104 212.14 67.9444 212.536 67.9444 212.968C67.9444 213.892 68.1544 214.624 68.5744 215.164C68.9944 215.704 69.5884 215.974 70.3564 215.974ZM80.5747 217.216C79.9867 217.216 79.4347 217.114 78.9187 216.91C78.4147 216.694 77.9707 216.394 77.5867 216.01C77.2147 215.614 76.9207 215.134 76.7047 214.57C76.4887 214.006 76.3807 213.364 76.3807 212.644C76.3807 211.924 76.4887 211.282 76.7047 210.718C76.9327 210.142 77.2267 209.656 77.5867 209.26C77.9587 208.864 78.3787 208.564 78.8467 208.36C79.3147 208.144 79.8007 208.036 80.3047 208.036C80.8567 208.036 81.3487 208.132 81.7807 208.324C82.2247 208.516 82.5907 208.792 82.8787 209.152C83.1787 209.512 83.4067 209.944 83.5627 210.448C83.7187 210.952 83.7967 211.516 83.7967 212.14C83.7967 212.296 83.7907 212.452 83.7787 212.608C83.7787 212.752 83.7667 212.878 83.7427 212.986H77.8387C77.8987 213.922 78.1867 214.666 78.7027 215.218C79.2307 215.758 79.9147 216.028 80.7547 216.028C81.1747 216.028 81.5587 215.968 81.9067 215.848C82.2667 215.716 82.6087 215.548 82.9327 215.344L83.4547 216.316C83.0707 216.556 82.6447 216.766 82.1767 216.946C81.7087 217.126 81.1747 217.216 80.5747 217.216ZM77.8207 211.924H82.5007C82.5007 211.036 82.3087 210.364 81.9247 209.908C81.5527 209.44 81.0247 209.206 80.3407 209.206C80.0287 209.206 79.7287 209.266 79.4407 209.386C79.1647 209.506 78.9127 209.686 78.6847 209.926C78.4567 210.154 78.2647 210.436 78.1087 210.772C77.9647 211.108 77.8687 211.492 77.8207 211.924ZM78.4327 206.74L77.9107 206.128L79.7107 204.472H80.9347L82.7347 206.128L82.2127 206.74L80.3587 205.444H80.2867L78.4327 206.74ZM78.5407 204.976L77.9107 205.534L75.8767 203.518L76.7407 202.87L78.5407 204.976ZM89.5619 220.69V208.252H90.7859L90.9119 209.26H90.9659C91.3619 208.924 91.7939 208.636 92.2619 208.396C92.7419 208.156 93.2399 208.036 93.7559 208.036C94.3199 208.036 94.8179 208.144 95.2499 208.36C95.6819 208.564 96.0419 208.864 96.3299 209.26C96.6179 209.644 96.8339 210.112 96.9779 210.664C97.1339 211.204 97.2119 211.816 97.2119 212.5C97.2119 213.244 97.1099 213.91 96.9059 214.498C96.7019 215.074 96.4259 215.566 96.0779 215.974C95.7299 216.382 95.3279 216.694 94.8719 216.91C94.4159 217.114 93.9359 217.216 93.4319 217.216C93.0239 217.216 92.6159 217.126 92.2079 216.946C91.8119 216.766 91.4099 216.52 91.0019 216.208L91.0379 217.738V220.69H89.5619ZM93.1799 215.974C93.5399 215.974 93.8699 215.896 94.1699 215.74C94.4819 215.572 94.7459 215.344 94.9619 215.056C95.1899 214.756 95.3639 214.39 95.4839 213.958C95.6159 213.526 95.6819 213.04 95.6819 212.5C95.6819 212.02 95.6399 211.582 95.5559 211.186C95.4719 210.79 95.3339 210.454 95.1419 210.178C94.9619 209.89 94.7219 209.668 94.4219 209.512C94.1339 209.356 93.7859 209.278 93.3779 209.278C93.0059 209.278 92.6279 209.38 92.2439 209.584C91.8719 209.788 91.4699 210.082 91.0379 210.466V215.056C91.4339 215.392 91.8179 215.632 92.1899 215.776C92.5619 215.908 92.8919 215.974 93.1799 215.974ZM99.5463 217V204.184H101.022V207.676L100.968 209.476C101.388 209.08 101.826 208.744 102.282 208.468C102.738 208.18 103.272 208.036 103.884 208.036C104.808 208.036 105.48 208.324 105.9 208.9C106.332 209.476 106.548 210.328 106.548 211.456V217H105.072V211.654C105.072 210.826 104.94 210.232 104.676 209.872C104.412 209.5 103.992 209.314 103.416 209.314C102.96 209.314 102.558 209.428 102.21 209.656C101.862 209.884 101.466 210.22 101.022 210.664V217H99.5463ZM111.353 217.216C110.621 217.216 110.009 217 109.517 216.568C109.037 216.136 108.797 215.524 108.797 214.732C108.797 213.772 109.223 213.04 110.075 212.536C110.927 212.02 112.289 211.66 114.161 211.456C114.161 211.18 114.131 210.91 114.071 210.646C114.023 210.382 113.933 210.148 113.801 209.944C113.669 209.74 113.483 209.578 113.243 209.458C113.015 209.326 112.721 209.26 112.361 209.26C111.857 209.26 111.383 209.356 110.939 209.548C110.495 209.74 110.099 209.956 109.751 210.196L109.175 209.17C109.583 208.906 110.081 208.654 110.669 208.414C111.257 208.162 111.905 208.036 112.613 208.036C113.681 208.036 114.455 208.366 114.935 209.026C115.415 209.674 115.655 210.544 115.655 211.636V217H114.431L114.305 215.956H114.251C113.831 216.304 113.381 216.604 112.901 216.856C112.421 217.096 111.905 217.216 111.353 217.216ZM111.785 216.028C112.205 216.028 112.601 215.932 112.973 215.74C113.345 215.536 113.741 215.242 114.161 214.858V212.428C113.429 212.524 112.811 212.638 112.307 212.77C111.815 212.902 111.413 213.058 111.101 213.238C110.801 213.418 110.579 213.628 110.435 213.868C110.303 214.096 110.237 214.348 110.237 214.624C110.237 215.128 110.387 215.488 110.687 215.704C110.987 215.92 111.353 216.028 111.785 216.028ZM112.325 206.686L111.569 205.948L114.107 202.942L115.151 203.932L112.325 206.686ZM118.408 220.69V208.252H119.632L119.758 209.26H119.812C120.208 208.924 120.64 208.636 121.108 208.396C121.588 208.156 122.086 208.036 122.602 208.036C123.166 208.036 123.664 208.144 124.096 208.36C124.528 208.564 124.888 208.864 125.176 209.26C125.464 209.644 125.68 210.112 125.824 210.664C125.98 211.204 126.058 211.816 126.058 212.5C126.058 213.244 125.956 213.91 125.752 214.498C125.548 215.074 125.272 215.566 124.924 215.974C124.576 216.382 124.174 216.694 123.718 216.91C123.262 217.114 122.782 217.216 122.278 217.216C121.87 217.216 121.462 217.126 121.054 216.946C120.658 216.766 120.256 216.52 119.848 216.208L119.884 217.738V220.69H118.408ZM122.026 215.974C122.386 215.974 122.716 215.896 123.016 215.74C123.328 215.572 123.592 215.344 123.808 215.056C124.036 214.756 124.21 214.39 124.33 213.958C124.462 213.526 124.528 213.04 124.528 212.5C124.528 212.02 124.486 211.582 124.402 211.186C124.318 210.79 124.18 210.454 123.988 210.178C123.808 209.89 123.568 209.668 123.268 209.512C122.98 209.356 122.632 209.278 122.224 209.278C121.852 209.278 121.474 209.38 121.09 209.584C120.718 209.788 120.316 210.082 119.884 210.466V215.056C120.28 215.392 120.664 215.632 121.036 215.776C121.408 215.908 121.738 215.974 122.026 215.974ZM133.562 217.216C132.998 217.216 132.596 217.048 132.356 216.712C132.116 216.376 131.996 215.884 131.996 215.236V204.184H133.472V215.344C133.472 215.584 133.514 215.752 133.598 215.848C133.682 215.944 133.778 215.992 133.886 215.992C133.934 215.992 133.976 215.992 134.012 215.992C134.06 215.992 134.126 215.98 134.21 215.956L134.408 217.072C134.312 217.12 134.198 217.156 134.066 217.18C133.934 217.204 133.766 217.216 133.562 217.216ZM136.727 220.762C136.523 220.762 136.337 220.744 136.169 220.708C136.001 220.684 135.845 220.642 135.701 220.582L135.989 219.412C136.085 219.436 136.193 219.46 136.313 219.484C136.433 219.52 136.547 219.538 136.655 219.538C137.159 219.538 137.567 219.358 137.879 218.998C138.203 218.65 138.455 218.206 138.635 217.666L138.833 217.018L135.323 208.252H136.853L138.635 213.094C138.767 213.478 138.905 213.886 139.049 214.318C139.205 214.738 139.349 215.152 139.481 215.56H139.553C139.685 215.164 139.811 214.75 139.931 214.318C140.051 213.886 140.171 213.478 140.291 213.094L141.857 208.252H143.297L140.003 217.72C139.847 218.152 139.673 218.554 139.481 218.926C139.289 219.298 139.061 219.616 138.797 219.88C138.533 220.156 138.233 220.372 137.897 220.528C137.561 220.684 137.171 220.762 136.727 220.762ZM139.211 206.686L138.455 205.948L140.993 202.942L142.037 203.932L139.211 206.686ZM145.127 217.216C144.827 217.216 144.569 217.114 144.353 216.91C144.149 216.694 144.047 216.424 144.047 216.1C144.047 215.752 144.149 215.476 144.353 215.272C144.569 215.056 144.827 214.948 145.127 214.948C145.415 214.948 145.661 215.056 145.865 215.272C146.081 215.476 146.189 215.752 146.189 216.1C146.189 216.424 146.081 216.694 145.865 216.91C145.661 217.114 145.415 217.216 145.127 217.216Z" fill="white"/>
<path d="M18 220.434L18 213.774L16.722 213.774L16.722 218.922L6.192 218.922L6.192 220.434L18 220.434ZM5.148 200.909L5.148 202.457L7.686 204.077L7.686 202.943L5.148 200.909ZM16.992 202.907C16.992 204.401 15.642 205.427 13.644 205.427C11.628 205.427 10.26 204.401 10.26 202.907C10.26 201.395 11.628 200.387 13.644 200.387C15.642 200.387 16.992 201.395 16.992 202.907ZM7.488 200.153C7.722 199.991 7.974 199.883 8.244 199.883C8.91 199.883 9.27 200.369 9.414 201.215C9.162 201.737 9.036 202.313 9.036 202.907C9.036 205.049 10.71 206.957 13.644 206.957C16.542 206.957 18.216 205.049 18.216 202.907C18.216 200.765 16.542 198.857 13.644 198.857C12.024 198.857 10.782 199.451 9.99 200.333C9.738 199.451 9.216 198.659 8.136 198.659C7.686 198.659 7.29 198.839 6.966 199.073L7.488 200.153ZM17.208 189.353C17.838 188.543 18.216 187.733 18.216 186.923C18.216 184.925 16.47 183.143 13.5 183.143C10.782 183.143 9.036 184.349 9.036 186.599C9.036 187.625 9.594 188.597 10.26 189.389L10.26 189.443L9.252 189.569L9.252 190.793L21.69 190.793L21.69 189.317L18.738 189.317L17.208 189.353ZM16.056 189.317L11.466 189.317C10.692 188.453 10.278 187.715 10.278 186.977C10.278 185.321 11.574 184.673 13.5 184.673C15.66 184.673 16.974 185.735 16.974 187.175C16.974 187.751 16.722 188.525 16.056 189.317ZM19.476 165.02C18.972 165.02 18.45 164.75 18 164.12C18.108 163.742 18.144 163.328 18.144 162.986L18.144 161.474C18.144 160.34 18.414 159.71 19.224 159.71C20.142 159.71 21.006 160.808 21.006 162.482C21.006 164.066 20.412 165.02 19.476 165.02ZM19.674 166.316C21.186 166.316 22.032 164.84 22.032 162.698C22.032 159.98 20.628 158.27 19.008 158.27C17.55 158.27 16.92 159.296 16.92 161.33L16.92 163.022C16.92 164.21 16.524 164.57 15.966 164.57C15.48 164.57 15.192 164.318 14.922 164.012C15.12 163.616 15.228 163.13 15.228 162.698C15.228 160.916 14.058 159.494 12.186 159.494C11.448 159.494 10.782 159.8 10.386 160.214L10.386 158.414L9.252 158.414L9.252 161.456C9.126 161.78 9.036 162.212 9.036 162.698C9.036 164.48 10.242 165.992 12.15 165.992C13.194 165.992 14.04 165.434 14.508 164.858L14.58 164.858C14.886 165.308 15.462 165.812 16.2 165.812C16.884 165.812 17.352 165.47 17.622 165.038L17.694 165.038C18.234 165.83 18.936 166.316 19.674 166.316ZM14.238 162.698C14.238 163.706 13.428 164.552 12.15 164.552C10.872 164.552 10.116 163.724 10.116 162.698C10.116 161.672 10.872 160.844 12.15 160.844C13.428 160.844 14.238 161.69 14.238 162.698ZM7.452 150.064C7.452 149.488 7.056 149.038 6.498 149.038C5.922 149.038 5.544 149.488 5.544 150.064C5.544 150.64 5.922 151.09 6.498 151.09C7.056 151.09 7.452 150.64 7.452 150.064ZM18 150.82L18 149.344L9.252 149.344L9.252 150.82L18 150.82ZM15.732 141.062C17.298 141.062 18.216 139.964 18.216 138.488C18.216 137.408 17.64 136.436 16.956 135.59L16.956 135.554L18 135.428L18 134.204L12.636 134.204C10.458 134.204 9.036 135.104 9.036 137.246C9.036 138.65 9.648 139.874 10.17 140.684L11.196 140.09C10.728 139.406 10.26 138.506 10.26 137.48C10.26 136.058 11.34 135.68 12.456 135.68C12.87 139.406 13.824 141.062 15.732 141.062ZM15.624 139.604C14.508 139.604 13.788 138.614 13.428 135.68L15.858 135.68C16.614 136.526 17.028 137.228 17.028 138.074C17.028 138.938 16.614 139.604 15.624 139.604ZM5.148 135.266L5.148 136.814L7.686 138.434L7.686 137.3L5.148 135.266ZM17.208 124.219C17.838 123.409 18.216 122.599 18.216 121.789C18.216 119.791 16.47 118.009 13.5 118.009C10.782 118.009 9.036 119.215 9.036 121.465C9.036 122.491 9.594 123.463 10.26 124.255L10.26 124.309L9.252 124.435L9.252 125.659L21.69 125.659L21.69 124.183L18.738 124.183L17.208 124.219ZM16.056 124.183L11.466 124.183C10.692 123.319 10.278 122.581 10.278 121.843C10.278 120.187 11.574 119.539 13.5 119.539C15.66 119.539 16.974 120.601 16.974 122.041C16.974 122.617 16.722 123.391 16.056 124.183ZM18 100.516L18 99.328L17.136 99.202L17.136 99.148C17.82 98.374 18.216 97.456 18.216 96.646C18.216 94.648 16.47 92.866 13.482 92.866C10.782 92.866 9.03599 94.072 9.03599 96.34C9.03599 97.312 9.55799 98.284 10.26 99.076L8.67599 99.04L5.18399 99.04L5.18399 100.516L18 100.516ZM16.056 99.04L11.466 99.04C10.692 98.212 10.278 97.438 10.278 96.7C10.278 95.044 11.574 94.396 13.5 94.396C15.66 94.396 16.974 95.458 16.974 96.898C16.974 97.474 16.722 98.266 16.056 99.04ZM15.732 85.4497C17.298 85.4497 18.216 84.3517 18.216 82.8757C18.216 81.7957 17.64 80.8237 16.956 79.9777L16.956 79.9417L18 79.8157L18 78.5917L12.636 78.5917C10.458 78.5917 9.03599 79.4917 9.03599 81.6337C9.03599 83.0377 9.64799 84.2617 10.17 85.0717L11.196 84.4777C10.728 83.7937 10.26 82.8937 10.26 81.8677C10.26 80.4457 11.34 80.0677 12.456 80.0677C12.87 83.7937 13.824 85.4497 15.732 85.4497ZM15.624 83.9917C14.508 83.9917 13.788 83.0017 13.428 80.0677L15.858 80.0677C16.614 80.9137 17.028 81.6157 17.028 82.4617C17.028 83.3257 16.614 83.9917 15.624 83.9917ZM8.04599 82.1557C7.86599 81.1117 7.41599 80.1577 6.37199 80.1577C5.45399 80.1577 4.96799 81.0757 4.91399 82.6417L5.77799 82.8037C5.81399 81.7957 6.06599 81.3097 6.53399 81.3097C6.98399 81.3097 7.19999 81.7417 7.36199 82.3177L8.04599 82.1557ZM13.644 70.6948C16.542 70.6948 18.216 68.7868 18.216 66.6448C18.216 64.5028 16.542 62.5948 13.644 62.5948C10.71 62.5948 9.03599 64.5028 9.03599 66.6448C9.03599 68.7868 10.71 70.6948 13.644 70.6948ZM13.644 69.1648C11.628 69.1648 10.26 68.1388 10.26 66.6448C10.26 65.1328 11.628 64.1248 13.644 64.1248C15.642 64.1248 16.992 65.1328 16.992 66.6448C16.992 68.1388 15.642 69.1648 13.644 69.1648ZM18 45.1323L18 43.6563L11.664 43.6563C10.782 42.7743 10.314 42.1623 10.314 41.2623C10.314 40.1103 11.016 39.6063 12.654 39.6063L18 39.6063L18 38.1303L12.456 38.1303C10.224 38.1303 9.03599 38.9583 9.03599 40.7943C9.03599 42.0003 9.68399 42.8823 10.476 43.7103L8.67599 43.6563L5.18399 43.6563L5.18399 45.1323L18 45.1323ZM13.644 30.2293C16.542 30.2293 18.216 28.3213 18.216 26.1793C18.216 24.0373 16.542 22.1293 13.644 22.1293C10.71 22.1293 9.03599 24.0373 9.03599 26.1793C9.03599 28.3213 10.71 30.2293 13.644 30.2293ZM13.644 28.6993C11.628 28.6993 10.26 27.6733 10.26 26.1793C10.26 24.6673 11.628 23.6593 13.644 23.6593C15.642 23.6593 16.992 24.6673 16.992 26.1793C16.992 27.6733 15.642 28.6993 13.644 28.6993ZM7.68599 28.4833L7.68599 27.4213L6.04799 26.2153L6.04799 26.1433L7.68599 24.9373L7.68599 23.8573L5.14799 25.5673L5.14799 26.7913L7.68599 28.4833ZM21.708 26.1613C21.708 25.6033 21.312 25.1893 20.736 25.1893C20.178 25.1893 19.782 25.6033 19.782 26.1613C19.782 26.7193 20.178 27.1333 20.736 27.1333C21.312 27.1333 21.708 26.7193 21.708 26.1613Z" fill="white" fill-opacity="0.5"/>
<path d="M33.94 64H43.56V49.635H49.41C58.38 49.635 65.985 45.215 65.985 35.27C65.985 25 58.64 21.62 49.41 21.62H33.94V64ZM43.56 42.03V29.225H48.825C53.895 29.225 56.625 30.85 56.625 35.27C56.625 39.69 54.09 42.03 48.825 42.03H43.56ZM73.2955 64H82.9155V46.32H97.5405V64H107.095V21.62H97.5405V37.935H82.9155V21.62H73.2955V64ZM140.887 10.57H130.747L125.547 18.37H133.152L140.887 10.57ZM125.872 46.45L126.912 42.55C128.082 38.325 129.252 33.385 130.227 28.9H130.487C131.657 33.32 132.762 38.325 133.932 42.55L134.972 46.45H125.872ZM139.522 64H149.662L136.337 21.62H124.897L111.572 64H121.322L123.922 53.925H136.922L139.522 64ZM154.101 64H163.721V49.635H169.571C178.541 49.635 186.146 45.215 186.146 35.27C186.146 25 178.801 21.62 169.571 21.62H154.101V64ZM163.721 42.03V29.225H168.986C174.056 29.225 176.786 30.85 176.786 35.27C176.786 39.69 174.251 42.03 168.986 42.03H163.721ZM206.977 64H233.302V55.94H216.597V21.62H206.977V64ZM242.187 64H251.742V48.92L264.547 21.62H254.537L250.767 31.37C249.597 34.555 248.362 37.48 247.192 40.73H246.932C245.697 37.48 244.592 34.555 243.487 31.37L239.652 21.62H229.447L242.187 48.92V64ZM257.527 10.57H247.387L242.122 18.37H249.727L257.527 10.57Z" fill="white"/>
<path d="M41.592 107H49.752L57.528 83.192H50.76L47.64 94.424C47.016 96.776 46.392 99.272 45.816 101.768H45.624C45 99.272 44.376 96.776 43.752 94.424L40.68 83.192H33.576L41.592 107ZM75.645 72.92C75.261 74.456 74.781 75.032 73.965 75.032C72.573 75.032 70.845 72.92 68.301 72.92C65.757 72.92 63.789 75.032 63.309 79.4H66.909C67.245 77.816 67.773 77.24 68.589 77.24C69.981 77.24 71.709 79.4 74.253 79.4C76.797 79.4 78.717 77.24 79.245 72.92H75.645ZM80.637 78.008C80.973 78.536 81.357 79.352 81.357 80.216C81.357 82.712 79.293 83.096 77.469 83.192H75.261V98.936C73.869 100.808 72.813 101.576 71.037 101.576C68.973 101.576 68.061 100.472 68.061 97.064V83.192H61.005V97.976C61.005 103.928 63.213 107.576 68.397 107.576C71.661 107.576 73.869 106.088 75.885 103.688H76.029L76.557 107H82.317V85.352C84.861 84.584 86.829 82.808 86.829 79.736C86.829 78.152 86.157 76.76 85.437 75.896L80.637 78.008ZM88.5263 107H95.5823V90.92C97.1183 89.432 98.2223 88.616 99.9983 88.616C102.014 88.616 102.926 89.672 102.926 93.128V107H109.982V92.216C109.982 86.264 107.774 82.616 102.59 82.616C99.3743 82.616 96.9743 84.296 94.9583 86.216H94.7663L94.2863 83.192H88.5263V107ZM120.315 109.976C120.315 109.112 120.747 108.392 121.611 107.624C122.379 107.816 123.339 107.912 124.971 107.912H127.419C129.771 107.912 131.067 108.296 131.067 109.784C131.067 111.416 128.763 112.712 125.595 112.712C122.427 112.712 120.315 111.752 120.315 109.976ZM114.507 111.08C114.507 115.304 118.923 117.128 124.491 117.128C132.651 117.128 137.787 113.528 137.787 108.584C137.787 104.312 134.571 102.536 128.715 102.536H124.875C122.235 102.536 121.275 101.96 121.275 100.76C121.275 99.944 121.515 99.512 122.139 98.984C123.195 99.32 124.155 99.464 125.019 99.464C130.251 99.464 134.379 96.92 134.379 91.448C134.379 90.2 134.043 89.048 133.611 88.328H137.403V83.192H128.715C127.659 82.808 126.363 82.616 125.019 82.616C119.883 82.616 115.179 85.496 115.179 91.208C115.179 93.992 116.715 96.248 118.395 97.4V97.592C116.859 98.648 115.707 100.328 115.707 102.056C115.707 104.024 116.667 105.272 117.915 106.088V106.28C115.707 107.528 114.507 109.112 114.507 111.08ZM125.019 95.192C123.147 95.192 121.755 93.848 121.755 91.208C121.755 88.664 123.147 87.368 125.019 87.368C126.891 87.368 128.283 88.712 128.283 91.208C128.283 93.848 126.891 95.192 125.019 95.192ZM157.092 107H165.252L173.028 83.192H166.26L163.14 94.424C162.516 96.776 161.892 99.272 161.316 101.768H161.124C160.5 99.272 159.876 96.776 159.252 94.424L156.18 83.192H149.076L157.092 107ZM174.944 100.376C174.944 104.408 177.68 107.576 182 107.576C184.688 107.576 186.944 106.328 188.96 104.552H189.104L189.632 107H195.392V93.368C195.392 86.072 192.032 82.616 185.936 82.616C182.192 82.616 178.784 83.912 175.76 85.736L178.256 90.392C180.56 89.048 182.576 88.232 184.592 88.232C187.136 88.232 188.192 89.576 188.336 91.688C178.928 92.648 174.944 95.384 174.944 100.376ZM181.664 99.848C181.664 98.024 183.296 96.584 188.336 95.912V100.088C187.088 101.336 186.032 102.104 184.4 102.104C182.72 102.104 181.664 101.384 181.664 99.848ZM184.928 79.448H190.064L185.84 72.248H178.976L184.928 79.448ZM201.448 107H208.504V90.92C210.04 89.432 211.144 88.616 212.92 88.616C214.936 88.616 215.848 89.672 215.848 93.128V107H222.904V92.216C222.904 86.264 220.696 82.616 215.512 82.616C212.296 82.616 209.896 84.296 207.88 86.216H207.688L207.208 83.192H201.448V107ZM233.237 109.976C233.237 109.112 233.669 108.392 234.533 107.624C235.301 107.816 236.261 107.912 237.893 107.912H240.341C242.693 107.912 243.989 108.296 243.989 109.784C243.989 111.416 241.685 112.712 238.517 112.712C235.349 112.712 233.237 111.752 233.237 109.976ZM227.429 111.08C227.429 115.304 231.845 117.128 237.413 117.128C245.573 117.128 250.709 113.528 250.709 108.584C250.709 104.312 247.493 102.536 241.637 102.536H237.797C235.157 102.536 234.197 101.96 234.197 100.76C234.197 99.944 234.437 99.512 235.061 98.984C236.117 99.32 237.077 99.464 237.941 99.464C243.173 99.464 247.301 96.92 247.301 91.448C247.301 90.2 246.965 89.048 246.533 88.328H250.325V83.192H241.637C240.581 82.808 239.285 82.616 237.941 82.616C232.805 82.616 228.101 85.496 228.101 91.208C228.101 93.992 229.637 96.248 231.317 97.4V97.592C229.781 98.648 228.629 100.328 228.629 102.056C228.629 104.024 229.589 105.272 230.837 106.088V106.28C228.629 107.528 227.429 109.112 227.429 111.08ZM237.941 95.192C236.069 95.192 234.677 93.848 234.677 91.208C234.677 88.664 236.069 87.368 237.941 87.368C239.813 87.368 241.205 88.712 241.205 91.208C241.205 93.848 239.813 95.192 237.941 95.192Z" fill="white"/>
</svg>
