<svg width="398" height="198" viewBox="0 0 398 198" fill="none" xmlns="http://www.w3.org/2000/svg">
<path d="M57.084 170.216C56.34 170.216 55.656 170.078 55.032 169.802C54.408 169.526 53.862 169.13 53.394 168.614C52.938 168.086 52.578 167.444 52.314 166.688C52.062 165.92 51.936 165.056 51.936 164.096C51.936 163.148 52.068 162.296 52.332 161.54C52.596 160.784 52.962 160.142 53.43 159.614C53.898 159.086 54.45 158.684 55.086 158.408C55.722 158.12 56.418 157.976 57.174 157.976C57.894 157.976 58.524 158.126 59.064 158.426C59.616 158.714 60.066 159.05 60.414 159.434L59.604 160.406C59.292 160.07 58.938 159.8 58.542 159.596C58.146 159.392 57.696 159.29 57.192 159.29C56.628 159.29 56.118 159.404 55.662 159.632C55.206 159.848 54.816 160.166 54.492 160.586C54.168 160.994 53.916 161.492 53.736 162.08C53.568 162.668 53.484 163.328 53.484 164.06C53.484 164.804 53.568 165.476 53.736 166.076C53.916 166.664 54.162 167.168 54.474 167.588C54.786 168.008 55.164 168.332 55.608 168.56C56.064 168.788 56.574 168.902 57.138 168.902C57.714 168.902 58.218 168.788 58.65 168.56C59.082 168.32 59.49 167.99 59.874 167.57L60.702 168.506C60.234 169.046 59.706 169.466 59.118 169.766C58.53 170.066 57.852 170.216 57.084 170.216ZM64.7752 170.216C64.0432 170.216 63.4312 170 62.9392 169.568C62.4592 169.136 62.2192 168.524 62.2192 167.732C62.2192 166.772 62.6452 166.04 63.4972 165.536C64.3492 165.02 65.7112 164.66 67.5832 164.456C67.5832 164.18 67.5532 163.91 67.4932 163.646C67.4452 163.382 67.3552 163.148 67.2232 162.944C67.0912 162.74 66.9052 162.578 66.6652 162.458C66.4372 162.326 66.1432 162.26 65.7832 162.26C65.2792 162.26 64.8052 162.356 64.3612 162.548C63.9172 162.74 63.5212 162.956 63.1732 163.196L62.5972 162.17C63.0052 161.906 63.5032 161.654 64.0912 161.414C64.6792 161.162 65.3272 161.036 66.0352 161.036C67.1032 161.036 67.8772 161.366 68.3572 162.026C68.8372 162.674 69.0772 163.544 69.0772 164.636V170H67.8532L67.7272 168.956H67.6732C67.2532 169.304 66.8032 169.604 66.3232 169.856C65.8432 170.096 65.3272 170.216 64.7752 170.216ZM65.2072 169.028C65.6272 169.028 66.0232 168.932 66.3952 168.74C66.7672 168.536 67.1632 168.242 67.5832 167.858V165.428C66.8512 165.524 66.2332 165.638 65.7292 165.77C65.2372 165.902 64.8352 166.058 64.5232 166.238C64.2232 166.418 64.0012 166.628 63.8572 166.868C63.7252 167.096 63.6592 167.348 63.6592 167.624C63.6592 168.128 63.8092 168.488 64.1092 168.704C64.4092 168.92 64.7752 169.028 65.2072 169.028ZM65.4232 159.704L65.2612 158.984C65.5492 158.912 65.7892 158.816 65.9812 158.696C66.1732 158.564 66.2692 158.378 66.2692 158.138C66.2692 157.622 65.7712 157.34 64.7752 157.292L64.8652 156.32C65.6932 156.344 66.3292 156.5 66.7732 156.788C67.2172 157.064 67.4392 157.472 67.4392 158.012C67.4392 158.276 67.3792 158.504 67.2592 158.696C67.1512 158.876 67.0012 159.038 66.8092 159.182C66.6292 159.314 66.4192 159.422 66.1792 159.506C65.9392 159.59 65.6872 159.656 65.4232 159.704ZM71.8295 170V161.252H73.3055V170H71.8295ZM72.5855 159.452C72.2975 159.452 72.0515 159.362 71.8475 159.182C71.6555 159.002 71.5595 158.774 71.5595 158.498C71.5595 158.21 71.6555 157.982 71.8475 157.814C72.0515 157.634 72.2975 157.544 72.5855 157.544C72.8735 157.544 73.1135 157.634 73.3055 157.814C73.5095 157.982 73.6115 158.21 73.6115 158.498C73.6115 158.774 73.5095 159.002 73.3055 159.182C73.1135 159.362 72.8735 159.452 72.5855 159.452ZM82.6167 170.216C82.1487 170.216 81.7527 170.144 81.4287 170C81.1167 169.856 80.8587 169.658 80.6547 169.406C80.4627 169.154 80.3247 168.848 80.2407 168.488C80.1567 168.128 80.1147 167.732 80.1147 167.3V162.458H78.8187V161.342L80.1867 161.252L80.3667 158.804H81.6087V161.252H83.9667V162.458H81.6087V167.318C81.6087 167.858 81.7047 168.278 81.8967 168.578C82.1007 168.866 82.4547 169.01 82.9587 169.01C83.1147 169.01 83.2827 168.986 83.4627 168.938C83.6427 168.89 83.8047 168.836 83.9487 168.776L84.2367 169.892C83.9967 169.976 83.7327 170.048 83.4447 170.108C83.1687 170.18 82.8927 170.216 82.6167 170.216ZM85.9448 170V157.184H87.4208V160.676L87.3668 162.476C87.7868 162.08 88.2248 161.744 88.6808 161.468C89.1368 161.18 89.6708 161.036 90.2828 161.036C91.2068 161.036 91.8788 161.324 92.2988 161.9C92.7308 162.476 92.9468 163.328 92.9468 164.456V170H91.4708V164.654C91.4708 163.826 91.3388 163.232 91.0748 162.872C90.8108 162.5 90.3908 162.314 89.8148 162.314C89.3588 162.314 88.9568 162.428 88.6088 162.656C88.2608 162.884 87.8648 163.22 87.4208 163.664V170H85.9448ZM95.7358 170V161.252H97.2118V170H95.7358ZM96.4918 159.452C96.2038 159.452 95.9578 159.362 95.7538 159.182C95.5618 159.002 95.4658 158.774 95.4658 158.498C95.4658 158.21 95.5618 157.982 95.7538 157.814C95.9578 157.634 96.2038 157.544 96.4918 157.544C96.7798 157.544 97.0198 157.634 97.2118 157.814C97.4158 157.982 97.5178 158.21 97.5178 158.498C97.5178 158.774 97.4158 159.002 97.2118 159.182C97.0198 159.362 96.7798 159.452 96.4918 159.452ZM103.711 170.216C103.123 170.216 102.571 170.114 102.055 169.91C101.551 169.694 101.107 169.394 100.723 169.01C100.351 168.614 100.057 168.134 99.8415 167.57C99.6255 167.006 99.5175 166.364 99.5175 165.644C99.5175 164.924 99.6255 164.282 99.8415 163.718C100.069 163.142 100.363 162.656 100.723 162.26C101.095 161.864 101.515 161.564 101.983 161.36C102.451 161.144 102.937 161.036 103.441 161.036C103.993 161.036 104.485 161.132 104.917 161.324C105.361 161.516 105.727 161.792 106.015 162.152C106.315 162.512 106.543 162.944 106.699 163.448C106.855 163.952 106.933 164.516 106.933 165.14C106.933 165.296 106.927 165.452 106.915 165.608C106.915 165.752 106.903 165.878 106.879 165.986H100.975C101.035 166.922 101.323 167.666 101.839 168.218C102.367 168.758 103.051 169.028 103.891 169.028C104.311 169.028 104.695 168.968 105.043 168.848C105.403 168.716 105.745 168.548 106.069 168.344L106.591 169.316C106.207 169.556 105.781 169.766 105.313 169.946C104.845 170.126 104.311 170.216 103.711 170.216ZM100.957 164.924H105.637C105.637 164.036 105.445 163.364 105.061 162.908C104.689 162.44 104.161 162.206 103.477 162.206C103.165 162.206 102.865 162.266 102.577 162.386C102.301 162.506 102.049 162.686 101.821 162.926C101.593 163.154 101.401 163.436 101.245 163.772C101.101 164.108 101.005 164.492 100.957 164.924ZM100.669 159.2L102.721 156.68H104.197L106.249 159.2L105.619 159.776L103.495 157.742H103.423L101.299 159.776L100.669 159.2ZM103.405 173.69C103.129 173.69 102.895 173.6 102.703 173.42C102.523 173.24 102.433 173.006 102.433 172.718C102.433 172.442 102.523 172.208 102.703 172.016C102.895 171.836 103.129 171.746 103.405 171.746C103.681 171.746 103.909 171.836 104.089 172.016C104.281 172.208 104.377 172.442 104.377 172.718C104.377 173.006 104.281 173.24 104.089 173.42C103.909 173.6 103.681 173.69 103.405 173.69ZM109.095 170V161.252H110.319L110.445 162.512H110.499C110.919 162.092 111.357 161.744 111.813 161.468C112.281 161.18 112.821 161.036 113.433 161.036C114.357 161.036 115.029 161.324 115.449 161.9C115.881 162.476 116.097 163.328 116.097 164.456V170H114.621V164.654C114.621 163.826 114.489 163.232 114.225 162.872C113.961 162.5 113.541 162.314 112.965 162.314C112.509 162.314 112.107 162.428 111.759 162.656C111.411 162.884 111.015 163.22 110.571 163.664V170H109.095ZM125.296 170.216C124.828 170.216 124.432 170.144 124.108 170C123.796 169.856 123.538 169.658 123.334 169.406C123.142 169.154 123.004 168.848 122.92 168.488C122.836 168.128 122.794 167.732 122.794 167.3V162.458H121.498V161.342L122.866 161.252L123.046 158.804H124.288V161.252H126.646V162.458H124.288V167.318C124.288 167.858 124.384 168.278 124.576 168.578C124.78 168.866 125.134 169.01 125.638 169.01C125.794 169.01 125.962 168.986 126.142 168.938C126.322 168.89 126.484 168.836 126.628 168.776L126.916 169.892C126.676 169.976 126.412 170.048 126.124 170.108C125.848 170.18 125.572 170.216 125.296 170.216ZM128.624 170V161.252H129.848L129.974 162.836H130.028C130.328 162.284 130.688 161.846 131.108 161.522C131.54 161.198 132.008 161.036 132.512 161.036C132.86 161.036 133.172 161.096 133.448 161.216L133.16 162.512C133.016 162.464 132.884 162.428 132.764 162.404C132.644 162.38 132.494 162.368 132.314 162.368C131.942 162.368 131.552 162.518 131.144 162.818C130.748 163.118 130.4 163.64 130.1 164.384V170H128.624ZM136.441 170.216C135.709 170.216 135.097 170 134.605 169.568C134.125 169.136 133.885 168.524 133.885 167.732C133.885 166.772 134.311 166.04 135.163 165.536C136.015 165.02 137.377 164.66 139.249 164.456C139.249 164.18 139.219 163.91 139.159 163.646C139.111 163.382 139.021 163.148 138.889 162.944C138.757 162.74 138.571 162.578 138.331 162.458C138.103 162.326 137.809 162.26 137.449 162.26C136.945 162.26 136.471 162.356 136.027 162.548C135.583 162.74 135.187 162.956 134.839 163.196L134.263 162.17C134.671 161.906 135.169 161.654 135.757 161.414C136.345 161.162 136.993 161.036 137.701 161.036C138.769 161.036 139.543 161.366 140.023 162.026C140.503 162.674 140.743 163.544 140.743 164.636V170H139.519L139.393 168.956H139.339C138.919 169.304 138.469 169.604 137.989 169.856C137.509 170.096 136.993 170.216 136.441 170.216ZM136.873 169.028C137.293 169.028 137.689 168.932 138.061 168.74C138.433 168.536 138.829 168.242 139.249 167.858V165.428C138.517 165.524 137.899 165.638 137.395 165.77C136.903 165.902 136.501 166.058 136.189 166.238C135.889 166.418 135.667 166.628 135.523 166.868C135.391 167.096 135.325 167.348 135.325 167.624C135.325 168.128 135.475 168.488 135.775 168.704C136.075 168.92 136.441 169.028 136.873 169.028ZM137.089 159.704L136.927 158.984C137.215 158.912 137.455 158.816 137.647 158.696C137.839 158.564 137.935 158.378 137.935 158.138C137.935 157.622 137.437 157.34 136.441 157.292L136.531 156.32C137.359 156.344 137.995 156.5 138.439 156.788C138.883 157.064 139.105 157.472 139.105 158.012C139.105 158.276 139.045 158.504 138.925 158.696C138.817 158.876 138.667 159.038 138.475 159.182C138.295 159.314 138.085 159.422 137.845 159.506C137.605 159.59 137.353 159.656 137.089 159.704ZM143.496 170V161.252H144.972V170H143.496ZM144.252 159.452C143.964 159.452 143.718 159.362 143.514 159.182C143.322 159.002 143.226 158.774 143.226 158.498C143.226 158.21 143.322 157.982 143.514 157.814C143.718 157.634 143.964 157.544 144.252 157.544C144.54 157.544 144.78 157.634 144.972 157.814C145.176 157.982 145.278 158.21 145.278 158.498C145.278 158.774 145.176 159.002 144.972 159.182C144.78 159.362 144.54 159.452 144.252 159.452ZM151.529 170V161.252H152.753L152.879 162.512H152.933C153.353 162.092 153.791 161.744 154.247 161.468C154.715 161.18 155.255 161.036 155.867 161.036C156.791 161.036 157.463 161.324 157.883 161.9C158.315 162.476 158.531 163.328 158.531 164.456V170H157.055V164.654C157.055 163.826 156.923 163.232 156.659 162.872C156.395 162.5 155.975 162.314 155.399 162.314C154.943 162.314 154.541 162.428 154.193 162.656C153.845 162.884 153.449 163.22 153.005 163.664V170H151.529ZM164.324 174.032C163.784 174.032 163.292 173.978 162.848 173.87C162.404 173.774 162.02 173.624 161.696 173.42C161.384 173.216 161.138 172.97 160.958 172.682C160.79 172.394 160.706 172.058 160.706 171.674C160.706 171.302 160.82 170.948 161.048 170.612C161.276 170.276 161.588 169.97 161.984 169.694V169.622C161.768 169.49 161.582 169.31 161.426 169.082C161.282 168.842 161.21 168.548 161.21 168.2C161.21 167.828 161.312 167.504 161.516 167.228C161.72 166.952 161.936 166.736 162.164 166.58V166.508C161.876 166.268 161.612 165.95 161.372 165.554C161.144 165.146 161.03 164.678 161.03 164.15C161.03 163.67 161.114 163.238 161.282 162.854C161.462 162.47 161.702 162.146 162.002 161.882C162.302 161.606 162.65 161.396 163.046 161.252C163.454 161.108 163.88 161.036 164.324 161.036C164.564 161.036 164.786 161.06 164.99 161.108C165.206 161.144 165.398 161.192 165.566 161.252H168.608V162.386H166.808C167.012 162.59 167.18 162.848 167.312 163.16C167.456 163.472 167.528 163.814 167.528 164.186C167.528 164.654 167.444 165.08 167.276 165.464C167.108 165.836 166.88 166.154 166.592 166.418C166.304 166.67 165.962 166.868 165.566 167.012C165.182 167.156 164.768 167.228 164.324 167.228C164.108 167.228 163.886 167.204 163.658 167.156C163.43 167.096 163.214 167.018 163.01 166.922C162.854 167.054 162.722 167.204 162.614 167.372C162.506 167.528 162.452 167.726 162.452 167.966C162.452 168.242 162.56 168.47 162.776 168.65C162.992 168.83 163.4 168.92 164 168.92H165.692C166.712 168.92 167.474 169.088 167.978 169.424C168.494 169.748 168.752 170.276 168.752 171.008C168.752 171.416 168.65 171.8 168.446 172.16C168.242 172.532 167.948 172.856 167.564 173.132C167.18 173.408 166.712 173.624 166.16 173.78C165.62 173.948 165.008 174.032 164.324 174.032ZM164.324 166.238C164.576 166.238 164.81 166.19 165.026 166.094C165.254 165.998 165.452 165.86 165.62 165.68C165.8 165.5 165.938 165.284 166.034 165.032C166.13 164.768 166.178 164.474 166.178 164.15C166.178 163.502 165.998 163.004 165.638 162.656C165.278 162.296 164.84 162.116 164.324 162.116C163.808 162.116 163.37 162.296 163.01 162.656C162.65 163.004 162.47 163.502 162.47 164.15C162.47 164.474 162.518 164.768 162.614 165.032C162.71 165.284 162.842 165.5 163.01 165.68C163.19 165.86 163.388 165.998 163.604 166.094C163.832 166.19 164.072 166.238 164.324 166.238ZM164.54 173.006C164.96 173.006 165.338 172.952 165.674 172.844C166.022 172.748 166.316 172.616 166.556 172.448C166.796 172.292 166.982 172.106 167.114 171.89C167.246 171.674 167.312 171.452 167.312 171.224C167.312 170.816 167.162 170.534 166.862 170.378C166.562 170.222 166.124 170.144 165.548 170.144H164.036C163.868 170.144 163.682 170.132 163.478 170.108C163.286 170.096 163.094 170.06 162.902 170C162.59 170.228 162.362 170.468 162.218 170.72C162.074 170.972 162.002 171.224 162.002 171.476C162.002 171.944 162.224 172.316 162.668 172.592C163.124 172.868 163.748 173.006 164.54 173.006ZM170.443 170V157.184H171.919V160.676L171.865 162.476C172.285 162.08 172.723 161.744 173.179 161.468C173.635 161.18 174.169 161.036 174.781 161.036C175.705 161.036 176.377 161.324 176.797 161.9C177.229 162.476 177.445 163.328 177.445 164.456V170H175.969V164.654C175.969 163.826 175.837 163.232 175.573 162.872C175.309 162.5 174.889 162.314 174.313 162.314C173.857 162.314 173.455 162.428 173.107 162.656C172.759 162.884 172.363 163.22 171.919 163.664V170H170.443ZM180.234 170V161.252H181.71V170H180.234ZM180.99 159.452C180.702 159.452 180.456 159.362 180.252 159.182C180.06 159.002 179.964 158.774 179.964 158.498C179.964 158.21 180.06 157.982 180.252 157.814C180.456 157.634 180.702 157.544 180.99 157.544C181.278 157.544 181.518 157.634 181.71 157.814C181.914 157.982 182.016 158.21 182.016 158.498C182.016 158.774 181.914 159.002 181.71 159.182C181.518 159.362 181.278 159.452 180.99 159.452ZM188.21 170.216C187.622 170.216 187.07 170.114 186.554 169.91C186.05 169.694 185.606 169.394 185.222 169.01C184.85 168.614 184.556 168.134 184.34 167.57C184.124 167.006 184.016 166.364 184.016 165.644C184.016 164.924 184.124 164.282 184.34 163.718C184.568 163.142 184.862 162.656 185.222 162.26C185.594 161.864 186.014 161.564 186.482 161.36C186.95 161.144 187.436 161.036 187.939 161.036C188.492 161.036 188.984 161.132 189.416 161.324C189.86 161.516 190.226 161.792 190.514 162.152C190.814 162.512 191.042 162.944 191.198 163.448C191.354 163.952 191.432 164.516 191.432 165.14C191.432 165.296 191.426 165.452 191.414 165.608C191.414 165.752 191.402 165.878 191.378 165.986H185.474C185.534 166.922 185.822 167.666 186.338 168.218C186.866 168.758 187.55 169.028 188.39 169.028C188.81 169.028 189.194 168.968 189.542 168.848C189.902 168.716 190.244 168.548 190.568 168.344L191.09 169.316C190.706 169.556 190.28 169.766 189.812 169.946C189.344 170.126 188.81 170.216 188.21 170.216ZM185.456 164.924H190.136C190.136 164.036 189.944 163.364 189.56 162.908C189.188 162.44 188.66 162.206 187.976 162.206C187.664 162.206 187.364 162.266 187.076 162.386C186.8 162.506 186.548 162.686 186.32 162.926C186.092 163.154 185.9 163.436 185.744 163.772C185.6 164.108 185.504 164.492 185.456 164.924ZM185.168 159.2L187.22 156.68H188.696L190.748 159.2L190.118 159.776L187.994 157.742H187.922L185.798 159.776L185.168 159.2ZM187.904 173.69C187.628 173.69 187.394 173.6 187.202 173.42C187.022 173.24 186.932 173.006 186.932 172.718C186.932 172.442 187.022 172.208 187.202 172.016C187.394 171.836 187.628 171.746 187.904 171.746C188.18 171.746 188.408 171.836 188.588 172.016C188.78 172.208 188.876 172.442 188.876 172.718C188.876 173.006 188.78 173.24 188.588 173.42C188.408 173.6 188.18 173.69 187.904 173.69ZM193.593 170V161.252H194.817L194.943 162.512H194.997C195.381 162.092 195.795 161.744 196.239 161.468C196.695 161.18 197.187 161.036 197.715 161.036C198.387 161.036 198.909 161.186 199.281 161.486C199.665 161.774 199.947 162.182 200.127 162.71C200.583 162.206 201.039 161.804 201.495 161.504C201.963 161.192 202.467 161.036 203.007 161.036C203.907 161.036 204.573 161.324 205.005 161.9C205.449 162.476 205.671 163.328 205.671 164.456V170H204.195V164.654C204.195 163.826 204.063 163.232 203.799 162.872C203.535 162.5 203.127 162.314 202.575 162.314C201.915 162.314 201.183 162.764 200.379 163.664V170H198.903V164.654C198.903 163.826 198.771 163.232 198.507 162.872C198.243 162.5 197.829 162.314 197.265 162.314C196.605 162.314 195.873 162.764 195.069 163.664V170H193.593ZM212.121 170V161.252H213.345L213.471 162.512H213.525C213.945 162.092 214.383 161.744 214.839 161.468C215.307 161.18 215.847 161.036 216.459 161.036C217.383 161.036 218.055 161.324 218.475 161.9C218.907 162.476 219.123 163.328 219.123 164.456V170H217.647V164.654C217.647 163.826 217.515 163.232 217.251 162.872C216.987 162.5 216.567 162.314 215.991 162.314C215.535 162.314 215.133 162.428 214.785 162.656C214.437 162.884 214.041 163.22 213.597 163.664V170H212.121ZM224.916 174.032C224.376 174.032 223.884 173.978 223.44 173.87C222.996 173.774 222.612 173.624 222.288 173.42C221.976 173.216 221.73 172.97 221.55 172.682C221.382 172.394 221.298 172.058 221.298 171.674C221.298 171.302 221.412 170.948 221.64 170.612C221.868 170.276 222.18 169.97 222.576 169.694V169.622C222.36 169.49 222.174 169.31 222.018 169.082C221.874 168.842 221.802 168.548 221.802 168.2C221.802 167.828 221.904 167.504 222.108 167.228C222.312 166.952 222.528 166.736 222.756 166.58V166.508C222.468 166.268 222.204 165.95 221.964 165.554C221.736 165.146 221.622 164.678 221.622 164.15C221.622 163.67 221.706 163.238 221.874 162.854C222.054 162.47 222.294 162.146 222.594 161.882C222.894 161.606 223.242 161.396 223.638 161.252C224.046 161.108 224.472 161.036 224.916 161.036C225.156 161.036 225.378 161.06 225.582 161.108C225.798 161.144 225.99 161.192 226.158 161.252H229.2V162.386H227.4C227.604 162.59 227.772 162.848 227.904 163.16C228.048 163.472 228.12 163.814 228.12 164.186C228.12 164.654 228.036 165.08 227.868 165.464C227.7 165.836 227.472 166.154 227.184 166.418C226.896 166.67 226.554 166.868 226.158 167.012C225.774 167.156 225.36 167.228 224.916 167.228C224.7 167.228 224.478 167.204 224.25 167.156C224.022 167.096 223.806 167.018 223.602 166.922C223.446 167.054 223.314 167.204 223.206 167.372C223.098 167.528 223.044 167.726 223.044 167.966C223.044 168.242 223.152 168.47 223.368 168.65C223.584 168.83 223.992 168.92 224.592 168.92H226.284C227.304 168.92 228.066 169.088 228.57 169.424C229.086 169.748 229.344 170.276 229.344 171.008C229.344 171.416 229.242 171.8 229.038 172.16C228.834 172.532 228.54 172.856 228.156 173.132C227.772 173.408 227.304 173.624 226.752 173.78C226.212 173.948 225.6 174.032 224.916 174.032ZM224.916 166.238C225.168 166.238 225.402 166.19 225.618 166.094C225.846 165.998 226.044 165.86 226.212 165.68C226.392 165.5 226.53 165.284 226.626 165.032C226.722 164.768 226.77 164.474 226.77 164.15C226.77 163.502 226.59 163.004 226.23 162.656C225.87 162.296 225.432 162.116 224.916 162.116C224.4 162.116 223.962 162.296 223.602 162.656C223.242 163.004 223.062 163.502 223.062 164.15C223.062 164.474 223.11 164.768 223.206 165.032C223.302 165.284 223.434 165.5 223.602 165.68C223.782 165.86 223.98 165.998 224.196 166.094C224.424 166.19 224.664 166.238 224.916 166.238ZM225.132 173.006C225.552 173.006 225.93 172.952 226.266 172.844C226.614 172.748 226.908 172.616 227.148 172.448C227.388 172.292 227.574 172.106 227.706 171.89C227.838 171.674 227.904 171.452 227.904 171.224C227.904 170.816 227.754 170.534 227.454 170.378C227.154 170.222 226.716 170.144 226.14 170.144H224.628C224.46 170.144 224.274 170.132 224.07 170.108C223.878 170.096 223.686 170.06 223.494 170C223.182 170.228 222.954 170.468 222.81 170.72C222.666 170.972 222.594 171.224 222.594 171.476C222.594 171.944 222.816 172.316 223.26 172.592C223.716 172.868 224.34 173.006 225.132 173.006ZM233.591 170.216C232.655 170.216 231.971 169.928 231.539 169.352C231.119 168.776 230.909 167.924 230.909 166.796V161.252H232.403V166.598C232.403 167.426 232.529 168.026 232.781 168.398C233.045 168.758 233.465 168.938 234.041 168.938C234.497 168.938 234.899 168.824 235.247 168.596C235.595 168.356 235.979 167.978 236.399 167.462V161.252H236.777C236.993 161.216 237.191 161.162 237.371 161.09C237.551 161.018 237.707 160.916 237.839 160.784C237.983 160.652 238.091 160.484 238.163 160.28C238.247 160.076 238.289 159.824 238.289 159.524C238.289 159.356 238.265 159.188 238.217 159.02C238.169 158.84 238.109 158.678 238.037 158.534L239.189 157.994C239.309 158.198 239.405 158.42 239.477 158.66C239.561 158.9 239.603 159.152 239.603 159.416C239.603 159.776 239.549 160.094 239.441 160.37C239.345 160.634 239.213 160.862 239.045 161.054C238.889 161.246 238.703 161.402 238.487 161.522C238.283 161.642 238.079 161.738 237.875 161.81V170H236.651L236.525 168.632H236.471C236.063 169.112 235.631 169.496 235.175 169.784C234.731 170.072 234.203 170.216 233.591 170.216ZM244.228 170.216C243.688 170.216 243.172 170.114 242.68 169.91C242.2 169.706 241.774 169.412 241.402 169.028C241.03 168.632 240.73 168.152 240.502 167.588C240.286 167.012 240.178 166.364 240.178 165.644C240.178 164.912 240.286 164.264 240.502 163.7C240.73 163.124 241.03 162.638 241.402 162.242C241.774 161.846 242.2 161.546 242.68 161.342C243.172 161.138 243.688 161.036 244.228 161.036C244.828 161.036 245.398 161.162 245.938 161.414C246.442 161.318 246.826 161.138 247.09 160.874C247.354 160.598 247.486 160.208 247.486 159.704C247.486 159.536 247.462 159.368 247.414 159.2C247.366 159.02 247.3 158.858 247.216 158.714L248.368 158.174C248.488 158.378 248.584 158.6 248.656 158.84C248.74 159.08 248.782 159.332 248.782 159.596C248.782 159.956 248.722 160.268 248.602 160.532C248.494 160.796 248.344 161.03 248.152 161.234C247.972 161.426 247.762 161.588 247.522 161.72C247.294 161.84 247.054 161.936 246.802 162.008C247.258 162.392 247.618 162.89 247.882 163.502C248.146 164.114 248.278 164.828 248.278 165.644C248.278 166.364 248.164 167.012 247.936 167.588C247.72 168.152 247.426 168.632 247.054 169.028C246.682 169.412 246.25 169.706 245.758 169.91C245.278 170.114 244.768 170.216 244.228 170.216ZM244.228 168.992C244.6 168.992 244.942 168.914 245.254 168.758C245.566 168.59 245.83 168.362 246.046 168.074C246.274 167.774 246.448 167.42 246.568 167.012C246.688 166.604 246.748 166.148 246.748 165.644C246.748 165.14 246.688 164.684 246.568 164.276C246.448 163.856 246.274 163.496 246.046 163.196C245.83 162.896 245.566 162.668 245.254 162.512C244.942 162.344 244.6 162.26 244.228 162.26C243.856 162.26 243.514 162.344 243.202 162.512C242.89 162.668 242.62 162.896 242.392 163.196C242.176 163.496 242.008 163.856 241.888 164.276C241.768 164.684 241.708 165.14 241.708 165.644C241.708 166.148 241.768 166.604 241.888 167.012C242.008 167.42 242.176 167.774 242.392 168.074C242.62 168.362 242.89 168.59 243.202 168.758C243.514 168.914 243.856 168.992 244.228 168.992ZM244.48 159.686L241.654 156.932L242.698 155.942L245.236 158.948L244.48 159.686ZM250.581 170V161.252H252.057V170H250.581ZM251.337 159.452C251.049 159.452 250.803 159.362 250.599 159.182C250.407 159.002 250.311 158.774 250.311 158.498C250.311 158.21 250.407 157.982 250.599 157.814C250.803 157.634 251.049 157.544 251.337 157.544C251.625 157.544 251.865 157.634 252.057 157.814C252.261 157.982 252.363 158.21 252.363 158.498C252.363 158.774 252.261 159.002 252.057 159.182C251.865 159.362 251.625 159.452 251.337 159.452ZM261.603 170.216C260.499 170.216 259.617 169.82 258.957 169.028C258.309 168.236 257.985 167.108 257.985 165.644C257.985 164.936 258.087 164.3 258.291 163.736C258.507 163.16 258.789 162.674 259.137 162.278C259.485 161.882 259.887 161.576 260.343 161.36C260.799 161.144 261.279 161.036 261.783 161.036C262.287 161.036 262.725 161.126 263.097 161.306C263.469 161.486 263.847 161.732 264.231 162.044L264.159 160.55V157.184H265.653V170H264.429L264.303 168.974H264.249C263.901 169.31 263.499 169.604 263.043 169.856C262.599 170.096 262.119 170.216 261.603 170.216ZM261.927 168.974C262.335 168.974 262.719 168.878 263.079 168.686C263.439 168.482 263.799 168.176 264.159 167.768V163.196C263.787 162.86 263.427 162.626 263.079 162.494C262.743 162.35 262.395 162.278 262.035 162.278C261.687 162.278 261.357 162.362 261.045 162.53C260.745 162.686 260.481 162.914 260.253 163.214C260.025 163.502 259.845 163.85 259.713 164.258C259.581 164.666 259.515 165.122 259.515 165.626C259.515 166.682 259.725 167.504 260.145 168.092C260.565 168.68 261.159 168.974 261.927 168.974ZM271.155 170.216C270.219 170.216 269.535 169.928 269.103 169.352C268.683 168.776 268.473 167.924 268.473 166.796V161.252H269.967V166.598C269.967 167.426 270.093 168.026 270.345 168.398C270.609 168.758 271.029 168.938 271.605 168.938C272.061 168.938 272.463 168.824 272.811 168.596C273.159 168.356 273.543 167.978 273.963 167.462V161.252H275.439V170H274.215L274.089 168.632H274.035C273.627 169.112 273.195 169.496 272.739 169.784C272.295 170.072 271.767 170.216 271.155 170.216ZM272.271 159.686L269.445 156.932L270.489 155.942L273.027 158.948L272.271 159.686ZM278.39 170V161.252H279.614L279.74 162.512H279.794C280.214 162.092 280.652 161.744 281.108 161.468C281.576 161.18 282.116 161.036 282.728 161.036C283.652 161.036 284.324 161.324 284.744 161.9C285.176 162.476 285.392 163.328 285.392 164.456V170H283.916V164.654C283.916 163.826 283.784 163.232 283.52 162.872C283.256 162.5 282.836 162.314 282.26 162.314C281.804 162.314 281.402 162.428 281.054 162.656C280.706 162.884 280.31 163.22 279.866 163.664V170H278.39ZM291.186 174.032C290.646 174.032 290.154 173.978 289.71 173.87C289.266 173.774 288.882 173.624 288.558 173.42C288.246 173.216 288 172.97 287.82 172.682C287.652 172.394 287.568 172.058 287.568 171.674C287.568 171.302 287.682 170.948 287.91 170.612C288.138 170.276 288.45 169.97 288.846 169.694V169.622C288.63 169.49 288.444 169.31 288.288 169.082C288.144 168.842 288.072 168.548 288.072 168.2C288.072 167.828 288.174 167.504 288.378 167.228C288.582 166.952 288.798 166.736 289.026 166.58V166.508C288.738 166.268 288.474 165.95 288.234 165.554C288.006 165.146 287.892 164.678 287.892 164.15C287.892 163.67 287.976 163.238 288.144 162.854C288.324 162.47 288.564 162.146 288.864 161.882C289.164 161.606 289.512 161.396 289.908 161.252C290.316 161.108 290.742 161.036 291.186 161.036C291.426 161.036 291.648 161.06 291.852 161.108C292.068 161.144 292.26 161.192 292.428 161.252H295.47V162.386H293.67C293.874 162.59 294.042 162.848 294.174 163.16C294.318 163.472 294.39 163.814 294.39 164.186C294.39 164.654 294.306 165.08 294.138 165.464C293.97 165.836 293.742 166.154 293.454 166.418C293.166 166.67 292.824 166.868 292.428 167.012C292.044 167.156 291.63 167.228 291.186 167.228C290.97 167.228 290.748 167.204 290.52 167.156C290.292 167.096 290.076 167.018 289.872 166.922C289.716 167.054 289.584 167.204 289.476 167.372C289.368 167.528 289.314 167.726 289.314 167.966C289.314 168.242 289.422 168.47 289.638 168.65C289.854 168.83 290.262 168.92 290.862 168.92H292.554C293.574 168.92 294.336 169.088 294.84 169.424C295.356 169.748 295.614 170.276 295.614 171.008C295.614 171.416 295.512 171.8 295.308 172.16C295.104 172.532 294.81 172.856 294.426 173.132C294.042 173.408 293.574 173.624 293.022 173.78C292.482 173.948 291.87 174.032 291.186 174.032ZM291.186 166.238C291.438 166.238 291.672 166.19 291.888 166.094C292.116 165.998 292.314 165.86 292.482 165.68C292.662 165.5 292.8 165.284 292.896 165.032C292.992 164.768 293.04 164.474 293.04 164.15C293.04 163.502 292.86 163.004 292.5 162.656C292.14 162.296 291.702 162.116 291.186 162.116C290.67 162.116 290.232 162.296 289.872 162.656C289.512 163.004 289.332 163.502 289.332 164.15C289.332 164.474 289.38 164.768 289.476 165.032C289.572 165.284 289.704 165.5 289.872 165.68C290.052 165.86 290.25 165.998 290.466 166.094C290.694 166.19 290.934 166.238 291.186 166.238ZM291.402 173.006C291.822 173.006 292.2 172.952 292.536 172.844C292.884 172.748 293.178 172.616 293.418 172.448C293.658 172.292 293.844 172.106 293.976 171.89C294.108 171.674 294.174 171.452 294.174 171.224C294.174 170.816 294.024 170.534 293.724 170.378C293.424 170.222 292.986 170.144 292.41 170.144H290.898C290.73 170.144 290.544 170.132 290.34 170.108C290.148 170.096 289.956 170.06 289.764 170C289.452 170.228 289.224 170.468 289.08 170.72C288.936 170.972 288.864 171.224 288.864 171.476C288.864 171.944 289.086 172.316 289.53 172.592C289.986 172.868 290.61 173.006 291.402 173.006ZM297.034 173.06L296.674 172.196C297.19 171.968 297.592 171.662 297.88 171.278C298.168 170.906 298.306 170.48 298.294 170C298.258 170.012 298.198 170.018 298.114 170.018C297.826 170.018 297.574 169.934 297.358 169.766C297.154 169.586 297.052 169.328 297.052 168.992C297.052 168.668 297.16 168.416 297.376 168.236C297.592 168.044 297.85 167.948 298.15 167.948C298.534 167.948 298.834 168.104 299.05 168.416C299.278 168.728 299.392 169.154 299.392 169.694C299.392 170.474 299.182 171.152 298.762 171.728C298.342 172.304 297.766 172.748 297.034 173.06ZM308.144 170.216C307.676 170.216 307.28 170.144 306.956 170C306.644 169.856 306.386 169.658 306.182 169.406C305.99 169.154 305.852 168.848 305.768 168.488C305.684 168.128 305.642 167.732 305.642 167.3V162.458H304.346V161.342L305.714 161.252L305.894 158.804H307.136V161.252H309.494V162.458H307.136V167.318C307.136 167.858 307.232 168.278 307.424 168.578C307.628 168.866 307.982 169.01 308.486 169.01C308.642 169.01 308.81 168.986 308.99 168.938C309.17 168.89 309.332 168.836 309.476 168.776L309.764 169.892C309.524 169.976 309.26 170.048 308.972 170.108C308.696 170.18 308.42 170.216 308.144 170.216ZM311.472 170V157.184H312.948V160.676L312.894 162.476C313.314 162.08 313.752 161.744 314.208 161.468C314.664 161.18 315.198 161.036 315.81 161.036C316.734 161.036 317.406 161.324 317.826 161.9C318.258 162.476 318.474 163.328 318.474 164.456V170H316.998V164.654C316.998 163.826 316.866 163.232 316.602 162.872C316.338 162.5 315.918 162.314 315.342 162.314C314.886 162.314 314.484 162.428 314.136 162.656C313.788 162.884 313.392 163.22 312.948 163.664V170H311.472ZM323.819 170.216C322.883 170.216 322.199 169.928 321.767 169.352C321.347 168.776 321.137 167.924 321.137 166.796V161.252H322.631V166.598C322.631 167.426 322.757 168.026 323.009 168.398C323.273 168.758 323.693 168.938 324.269 168.938C324.725 168.938 325.127 168.824 325.475 168.596C325.823 168.356 326.207 167.978 326.627 167.462V161.252H328.103V170H326.879L326.753 168.632H326.699C326.291 169.112 325.859 169.496 325.403 169.784C324.959 170.072 324.431 170.216 323.819 170.216ZM334.658 170V157.184H336.134V160.676L336.08 162.476C336.5 162.08 336.938 161.744 337.394 161.468C337.85 161.18 338.384 161.036 338.996 161.036C339.92 161.036 340.592 161.324 341.012 161.9C341.444 162.476 341.66 163.328 341.66 164.456V170H340.184V164.654C340.184 163.826 340.052 163.232 339.788 162.872C339.524 162.5 339.104 162.314 338.528 162.314C338.072 162.314 337.67 162.428 337.322 162.656C336.974 162.884 336.578 163.22 336.134 163.664V170H334.658ZM347.005 170.216C346.069 170.216 345.385 169.928 344.953 169.352C344.533 168.776 344.323 167.924 344.323 166.796V161.252H345.817V166.598C345.817 167.426 345.943 168.026 346.195 168.398C346.459 168.758 346.879 168.938 347.455 168.938C347.911 168.938 348.313 168.824 348.661 168.596C349.009 168.356 349.393 167.978 349.813 167.462V161.252H351.289V170H350.065L349.939 168.632H349.885C349.477 169.112 349.045 169.496 348.589 169.784C348.145 170.072 347.617 170.216 347.005 170.216ZM347.617 159.686L346.861 158.948L349.399 155.942L350.443 156.932L347.617 159.686ZM356.994 170.216C356.526 170.216 356.13 170.144 355.806 170C355.494 169.856 355.236 169.658 355.032 169.406C354.84 169.154 354.702 168.848 354.618 168.488C354.534 168.128 354.492 167.732 354.492 167.3V162.458H353.196V161.342L354.564 161.252L354.744 158.804H355.986V161.252H358.344V162.458H355.986V167.318C355.986 167.858 356.082 168.278 356.274 168.578C356.478 168.866 356.832 169.01 357.336 169.01C357.492 169.01 357.66 168.986 357.84 168.938C358.02 168.89 358.182 168.836 358.326 168.776L358.614 169.892C358.374 169.976 358.11 170.048 357.822 170.108C357.546 170.18 357.27 170.216 356.994 170.216ZM365.815 170L362.665 161.252H364.195L365.851 166.22C365.983 166.652 366.115 167.084 366.247 167.516C366.391 167.948 366.529 168.374 366.661 168.794H366.733C366.865 168.374 366.997 167.948 367.129 167.516C367.261 167.084 367.393 166.652 367.525 166.22L369.181 161.252H370.639L367.543 170H365.815ZM373.992 170.216C373.26 170.216 372.648 170 372.156 169.568C371.676 169.136 371.436 168.524 371.436 167.732C371.436 166.772 371.862 166.04 372.714 165.536C373.566 165.02 374.928 164.66 376.8 164.456C376.8 164.18 376.77 163.91 376.71 163.646C376.662 163.382 376.572 163.148 376.44 162.944C376.308 162.74 376.122 162.578 375.882 162.458C375.654 162.326 375.36 162.26 375 162.26C374.496 162.26 374.022 162.356 373.578 162.548C373.134 162.74 372.738 162.956 372.39 163.196L371.814 162.17C372.222 161.906 372.72 161.654 373.308 161.414C373.896 161.162 374.544 161.036 375.252 161.036C376.32 161.036 377.094 161.366 377.574 162.026C378.054 162.674 378.294 163.544 378.294 164.636V170H377.07L376.944 168.956H376.89C376.47 169.304 376.02 169.604 375.54 169.856C375.06 170.096 374.544 170.216 373.992 170.216ZM374.424 169.028C374.844 169.028 375.24 168.932 375.612 168.74C375.984 168.536 376.38 168.242 376.8 167.858V165.428C376.068 165.524 375.45 165.638 374.946 165.77C374.454 165.902 374.052 166.058 373.74 166.238C373.44 166.418 373.218 166.628 373.074 166.868C372.942 167.096 372.876 167.348 372.876 167.624C372.876 168.128 373.026 168.488 373.326 168.704C373.626 168.92 373.992 169.028 374.424 169.028ZM375.468 159.686L372.642 156.932L373.686 155.942L376.224 158.948L375.468 159.686ZM55.428 197.032C54.888 197.032 54.396 196.978 53.952 196.87C53.508 196.774 53.124 196.624 52.8 196.42C52.488 196.216 52.242 195.97 52.062 195.682C51.894 195.394 51.81 195.058 51.81 194.674C51.81 194.302 51.924 193.948 52.152 193.612C52.38 193.276 52.692 192.97 53.088 192.694V192.622C52.872 192.49 52.686 192.31 52.53 192.082C52.386 191.842 52.314 191.548 52.314 191.2C52.314 190.828 52.416 190.504 52.62 190.228C52.824 189.952 53.04 189.736 53.268 189.58V189.508C52.98 189.268 52.716 188.95 52.476 188.554C52.248 188.146 52.134 187.678 52.134 187.15C52.134 186.67 52.218 186.238 52.386 185.854C52.566 185.47 52.806 185.146 53.106 184.882C53.406 184.606 53.754 184.396 54.15 184.252C54.558 184.108 54.984 184.036 55.428 184.036C55.668 184.036 55.89 184.06 56.094 184.108C56.31 184.144 56.502 184.192 56.67 184.252H59.712V185.386H57.912C58.116 185.59 58.284 185.848 58.416 186.16C58.56 186.472 58.632 186.814 58.632 187.186C58.632 187.654 58.548 188.08 58.38 188.464C58.212 188.836 57.984 189.154 57.696 189.418C57.408 189.67 57.066 189.868 56.67 190.012C56.286 190.156 55.872 190.228 55.428 190.228C55.212 190.228 54.99 190.204 54.762 190.156C54.534 190.096 54.318 190.018 54.114 189.922C53.958 190.054 53.826 190.204 53.718 190.372C53.61 190.528 53.556 190.726 53.556 190.966C53.556 191.242 53.664 191.47 53.88 191.65C54.096 191.83 54.504 191.92 55.104 191.92H56.796C57.816 191.92 58.578 192.088 59.082 192.424C59.598 192.748 59.856 193.276 59.856 194.008C59.856 194.416 59.754 194.8 59.55 195.16C59.346 195.532 59.052 195.856 58.668 196.132C58.284 196.408 57.816 196.624 57.264 196.78C56.724 196.948 56.112 197.032 55.428 197.032ZM55.428 189.238C55.68 189.238 55.914 189.19 56.13 189.094C56.358 188.998 56.556 188.86 56.724 188.68C56.904 188.5 57.042 188.284 57.138 188.032C57.234 187.768 57.282 187.474 57.282 187.15C57.282 186.502 57.102 186.004 56.742 185.656C56.382 185.296 55.944 185.116 55.428 185.116C54.912 185.116 54.474 185.296 54.114 185.656C53.754 186.004 53.574 186.502 53.574 187.15C53.574 187.474 53.622 187.768 53.718 188.032C53.814 188.284 53.946 188.5 54.114 188.68C54.294 188.86 54.492 188.998 54.708 189.094C54.936 189.19 55.176 189.238 55.428 189.238ZM55.644 196.006C56.064 196.006 56.442 195.952 56.778 195.844C57.126 195.748 57.42 195.616 57.66 195.448C57.9 195.292 58.086 195.106 58.218 194.89C58.35 194.674 58.416 194.452 58.416 194.224C58.416 193.816 58.266 193.534 57.966 193.378C57.666 193.222 57.228 193.144 56.652 193.144H55.14C54.972 193.144 54.786 193.132 54.582 193.108C54.39 193.096 54.198 193.06 54.006 193C53.694 193.228 53.466 193.468 53.322 193.72C53.178 193.972 53.106 194.224 53.106 194.476C53.106 194.944 53.328 195.316 53.772 195.592C54.228 195.868 54.852 196.006 55.644 196.006ZM61.5463 193V184.252H63.0223V193H61.5463ZM62.3023 182.452C62.0143 182.452 61.7683 182.362 61.5643 182.182C61.3723 182.002 61.2763 181.774 61.2763 181.498C61.2763 181.21 61.3723 180.982 61.5643 180.814C61.7683 180.634 62.0143 180.544 62.3023 180.544C62.5903 180.544 62.8303 180.634 63.0223 180.814C63.2263 180.982 63.3283 181.21 63.3283 181.498C63.3283 181.774 63.2263 182.002 63.0223 182.182C62.8303 182.362 62.5903 182.452 62.3023 182.452ZM68.532 193.216C67.596 193.216 66.912 192.928 66.48 192.352C66.06 191.776 65.85 190.924 65.85 189.796V184.252H67.344V189.598C67.344 190.426 67.47 191.026 67.722 191.398C67.986 191.758 68.406 191.938 68.982 191.938C69.438 191.938 69.84 191.824 70.188 191.596C70.536 191.356 70.92 190.978 71.34 190.462V184.252H71.718C71.934 184.216 72.132 184.162 72.312 184.09C72.492 184.018 72.648 183.916 72.78 183.784C72.924 183.652 73.032 183.484 73.104 183.28C73.188 183.076 73.23 182.824 73.23 182.524C73.23 182.356 73.206 182.188 73.158 182.02C73.11 181.84 73.05 181.678 72.978 181.534L74.13 180.994C74.25 181.198 74.346 181.42 74.418 181.66C74.502 181.9 74.544 182.152 74.544 182.416C74.544 182.776 74.49 183.094 74.382 183.37C74.286 183.634 74.154 183.862 73.986 184.054C73.83 184.246 73.644 184.402 73.428 184.522C73.224 184.642 73.02 184.738 72.816 184.81V193H71.592L71.466 191.632H71.412C71.004 192.112 70.572 192.496 70.116 192.784C69.672 193.072 69.144 193.216 68.532 193.216ZM70.584 182.614C70.26 182.614 69.984 182.536 69.756 182.38C69.528 182.224 69.318 182.05 69.126 181.858C68.934 181.666 68.748 181.492 68.568 181.336C68.4 181.18 68.214 181.102 68.01 181.102C67.734 181.102 67.53 181.234 67.398 181.498C67.266 181.762 67.188 182.104 67.164 182.524L66.174 182.47C66.186 182.122 66.228 181.798 66.3 181.498C66.384 181.198 66.498 180.94 66.642 180.724C66.786 180.508 66.966 180.34 67.182 180.22C67.41 180.088 67.68 180.022 67.992 180.022C68.316 180.022 68.592 180.1 68.82 180.256C69.048 180.412 69.258 180.586 69.45 180.778C69.642 180.97 69.822 181.144 69.99 181.3C70.17 181.456 70.368 181.534 70.584 181.534C70.848 181.534 71.046 181.402 71.178 181.138C71.31 180.874 71.388 180.532 71.412 180.112L72.402 180.184C72.39 180.532 72.342 180.856 72.258 181.156C72.186 181.444 72.078 181.696 71.934 181.912C71.79 182.128 71.604 182.302 71.376 182.434C71.16 182.554 70.896 182.614 70.584 182.614ZM82.8265 193.216C82.2505 193.216 81.7105 193.114 81.2065 192.91C80.7025 192.706 80.2645 192.412 79.8925 192.028C79.5325 191.632 79.2445 191.152 79.0285 190.588C78.8245 190.012 78.7225 189.364 78.7225 188.644C78.7225 187.912 78.8365 187.264 79.0645 186.7C79.2925 186.124 79.5985 185.638 79.9825 185.242C80.3665 184.846 80.8105 184.546 81.3145 184.342C81.8305 184.138 82.3705 184.036 82.9345 184.036C83.5105 184.036 84.0025 184.138 84.4105 184.342C84.8185 184.546 85.1785 184.786 85.4905 185.062L84.7345 186.034C84.4825 185.806 84.2125 185.62 83.9245 185.476C83.6485 185.332 83.3365 185.26 82.9885 185.26C82.5925 185.26 82.2265 185.344 81.8905 185.512C81.5545 185.668 81.2665 185.896 81.0265 186.196C80.7865 186.496 80.5945 186.856 80.4505 187.276C80.3185 187.684 80.2525 188.14 80.2525 188.644C80.2525 189.148 80.3185 189.604 80.4505 190.012C80.5825 190.42 80.7625 190.774 80.9905 191.074C81.2305 191.362 81.5185 191.59 81.8545 191.758C82.1905 191.914 82.5565 191.992 82.9525 191.992C83.3605 191.992 83.7325 191.908 84.0685 191.74C84.4165 191.56 84.7285 191.35 85.0045 191.11L85.6525 192.1C85.2565 192.448 84.8185 192.724 84.3385 192.928C83.8585 193.12 83.3545 193.216 82.8265 193.216ZM87.5795 193V180.184H89.0555V183.676L89.0015 185.476C89.4215 185.08 89.8595 184.744 90.3155 184.468C90.7715 184.18 91.3055 184.036 91.9175 184.036C92.8415 184.036 93.5135 184.324 93.9335 184.9C94.3655 185.476 94.5815 186.328 94.5815 187.456V193H93.1055V187.654C93.1055 186.826 92.9735 186.232 92.7095 185.872C92.4455 185.5 92.0255 185.314 91.4495 185.314C90.9935 185.314 90.5915 185.428 90.2435 185.656C89.8955 185.884 89.4995 186.22 89.0555 186.664V193H87.5795ZM99.3865 193.216C98.6545 193.216 98.0425 193 97.5505 192.568C97.0705 192.136 96.8305 191.524 96.8305 190.732C96.8305 189.772 97.2565 189.04 98.1085 188.536C98.9605 188.02 100.323 187.66 102.195 187.456C102.195 187.18 102.165 186.91 102.105 186.646C102.057 186.382 101.967 186.148 101.835 185.944C101.703 185.74 101.517 185.578 101.277 185.458C101.049 185.326 100.755 185.26 100.395 185.26C99.8905 185.26 99.4165 185.356 98.9725 185.548C98.5285 185.74 98.1325 185.956 97.7845 186.196L97.2085 185.17C97.6165 184.906 98.1145 184.654 98.7025 184.414C99.2905 184.162 99.9385 184.036 100.647 184.036C101.715 184.036 102.489 184.366 102.969 185.026C103.449 185.674 103.689 186.544 103.689 187.636V193H102.465L102.339 191.956H102.285C101.865 192.304 101.415 192.604 100.935 192.856C100.455 193.096 99.9385 193.216 99.3865 193.216ZM99.8185 192.028C100.239 192.028 100.635 191.932 101.007 191.74C101.379 191.536 101.775 191.242 102.195 190.858V188.428C101.463 188.524 100.845 188.638 100.341 188.77C99.8485 188.902 99.4465 189.058 99.1345 189.238C98.8345 189.418 98.6125 189.628 98.4685 189.868C98.3365 190.096 98.2705 190.348 98.2705 190.624C98.2705 191.128 98.4205 191.488 98.7205 191.704C99.0205 191.92 99.3865 192.028 99.8185 192.028ZM97.8205 182.2L99.8725 179.68H101.349L103.401 182.2L102.771 182.776L100.647 180.742H100.575L98.4505 182.776L97.8205 182.2ZM106.441 193V184.252H107.665L107.791 185.512H107.845C108.265 185.092 108.703 184.744 109.159 184.468C109.627 184.18 110.167 184.036 110.779 184.036C111.703 184.036 112.375 184.324 112.795 184.9C113.227 185.476 113.443 186.328 113.443 187.456V193H111.967V187.654C111.967 186.826 111.835 186.232 111.571 185.872C111.307 185.5 110.887 185.314 110.311 185.314C109.855 185.314 109.453 185.428 109.105 185.656C108.757 185.884 108.361 186.22 107.917 186.664V193H106.441ZM119.888 193V180.184H121.346V188.86H121.4L125.126 184.252H126.764L123.83 187.762L127.16 193H125.54L122.984 188.788L121.346 190.696V193H119.888ZM128.8 193V180.184H130.276V183.676L130.222 185.476C130.642 185.08 131.08 184.744 131.536 184.468C131.992 184.18 132.526 184.036 133.138 184.036C134.062 184.036 134.734 184.324 135.154 184.9C135.586 185.476 135.802 186.328 135.802 187.456V193H134.326V187.654C134.326 186.826 134.194 186.232 133.93 185.872C133.666 185.5 133.246 185.314 132.67 185.314C132.214 185.314 131.812 185.428 131.464 185.656C131.116 185.884 130.72 186.22 130.276 186.664V193H128.8ZM140.607 193.216C139.875 193.216 139.263 193 138.771 192.568C138.291 192.136 138.051 191.524 138.051 190.732C138.051 189.772 138.477 189.04 139.329 188.536C140.181 188.02 141.543 187.66 143.415 187.456C143.415 187.18 143.385 186.91 143.325 186.646C143.277 186.382 143.187 186.148 143.055 185.944C142.923 185.74 142.737 185.578 142.497 185.458C142.269 185.326 141.975 185.26 141.615 185.26C141.111 185.26 140.637 185.356 140.193 185.548C139.749 185.74 139.353 185.956 139.005 186.196L138.429 185.17C138.837 184.906 139.335 184.654 139.923 184.414C140.511 184.162 141.159 184.036 141.867 184.036C142.935 184.036 143.709 184.366 144.189 185.026C144.669 185.674 144.909 186.544 144.909 187.636V193H143.685L143.559 191.956H143.505C143.085 192.304 142.635 192.604 142.155 192.856C141.675 193.096 141.159 193.216 140.607 193.216ZM141.039 192.028C141.459 192.028 141.855 191.932 142.227 191.74C142.599 191.536 142.995 191.242 143.415 190.858V188.428C142.683 188.524 142.065 188.638 141.561 188.77C141.069 188.902 140.667 189.058 140.355 189.238C140.055 189.418 139.833 189.628 139.689 189.868C139.557 190.096 139.491 190.348 139.491 190.624C139.491 191.128 139.641 191.488 139.941 191.704C140.241 191.92 140.607 192.028 141.039 192.028ZM141.579 182.686L140.823 181.948L143.361 178.942L144.405 179.932L141.579 182.686ZM151.118 193.216C150.542 193.216 150.002 193.114 149.498 192.91C148.994 192.706 148.556 192.412 148.184 192.028C147.824 191.632 147.536 191.152 147.32 190.588C147.116 190.012 147.014 189.364 147.014 188.644C147.014 187.912 147.128 187.264 147.356 186.7C147.584 186.124 147.89 185.638 148.274 185.242C148.658 184.846 149.102 184.546 149.606 184.342C150.122 184.138 150.662 184.036 151.226 184.036C151.802 184.036 152.294 184.138 152.702 184.342C153.11 184.546 153.47 184.786 153.782 185.062L153.026 186.034C152.774 185.806 152.504 185.62 152.216 185.476C151.94 185.332 151.628 185.26 151.28 185.26C150.884 185.26 150.518 185.344 150.182 185.512C149.846 185.668 149.558 185.896 149.318 186.196C149.078 186.496 148.886 186.856 148.742 187.276C148.61 187.684 148.544 188.14 148.544 188.644C148.544 189.148 148.61 189.604 148.742 190.012C148.874 190.42 149.054 190.774 149.282 191.074C149.522 191.362 149.81 191.59 150.146 191.758C150.482 191.914 150.848 191.992 151.244 191.992C151.652 191.992 152.024 191.908 152.36 191.74C152.708 191.56 153.02 191.35 153.296 191.11L153.944 192.1C153.548 192.448 153.11 192.724 152.63 192.928C152.15 193.12 151.646 193.216 151.118 193.216ZM155.871 193V180.184H157.347V183.676L157.293 185.476C157.713 185.08 158.151 184.744 158.607 184.468C159.063 184.18 159.597 184.036 160.209 184.036C161.133 184.036 161.805 184.324 162.225 184.9C162.657 185.476 162.873 186.328 162.873 187.456V193H161.397V187.654C161.397 186.826 161.265 186.232 161.001 185.872C160.737 185.5 160.317 185.314 159.741 185.314C159.285 185.314 158.883 185.428 158.535 185.656C158.187 185.884 157.791 186.22 157.347 186.664V193H155.871ZM169.265 193V180.184H170.741V183.676L170.687 185.476C171.107 185.08 171.545 184.744 172.001 184.468C172.457 184.18 172.991 184.036 173.603 184.036C174.527 184.036 175.199 184.324 175.619 184.9C176.051 185.476 176.267 186.328 176.267 187.456V193H174.791V187.654C174.791 186.826 174.659 186.232 174.395 185.872C174.131 185.5 173.711 185.314 173.135 185.314C172.679 185.314 172.277 185.428 171.929 185.656C171.581 185.884 171.185 186.22 170.741 186.664V193H169.265ZM181.072 193.216C180.34 193.216 179.728 193 179.236 192.568C178.756 192.136 178.516 191.524 178.516 190.732C178.516 189.772 178.942 189.04 179.794 188.536C180.646 188.02 182.008 187.66 183.88 187.456C183.88 187.18 183.85 186.91 183.79 186.646C183.742 186.382 183.652 186.148 183.52 185.944C183.388 185.74 183.202 185.578 182.962 185.458C182.734 185.326 182.44 185.26 182.08 185.26C181.576 185.26 181.102 185.356 180.658 185.548C180.214 185.74 179.818 185.956 179.47 186.196L178.894 185.17C179.302 184.906 179.8 184.654 180.388 184.414C180.976 184.162 181.624 184.036 182.332 184.036C183.4 184.036 184.174 184.366 184.654 185.026C185.134 185.674 185.374 186.544 185.374 187.636V193H184.15L184.024 191.956H183.97C183.55 192.304 183.1 192.604 182.62 192.856C182.14 193.096 181.624 193.216 181.072 193.216ZM181.504 192.028C181.924 192.028 182.32 191.932 182.692 191.74C183.064 191.536 183.46 191.242 183.88 190.858V188.428C183.148 188.524 182.53 188.638 182.026 188.77C181.534 188.902 181.132 189.058 180.82 189.238C180.52 189.418 180.298 189.628 180.154 189.868C180.022 190.096 179.956 190.348 179.956 190.624C179.956 191.128 180.106 191.488 180.406 191.704C180.706 191.92 181.072 192.028 181.504 192.028ZM182.548 182.686L179.722 179.932L180.766 178.942L183.304 181.948L182.548 182.686ZM188.126 193V184.252H189.35L189.476 185.512H189.53C189.95 185.092 190.388 184.744 190.844 184.468C191.312 184.18 191.852 184.036 192.464 184.036C193.388 184.036 194.06 184.324 194.48 184.9C194.912 185.476 195.128 186.328 195.128 187.456V193H193.652V187.654C193.652 186.826 193.52 186.232 193.256 185.872C192.992 185.5 192.572 185.314 191.996 185.314C191.54 185.314 191.138 185.428 190.79 185.656C190.442 185.884 190.046 186.22 189.602 186.664V193H188.126ZM200.922 197.032C200.382 197.032 199.89 196.978 199.446 196.87C199.002 196.774 198.618 196.624 198.294 196.42C197.982 196.216 197.736 195.97 197.556 195.682C197.388 195.394 197.304 195.058 197.304 194.674C197.304 194.302 197.418 193.948 197.646 193.612C197.874 193.276 198.186 192.97 198.582 192.694V192.622C198.366 192.49 198.18 192.31 198.024 192.082C197.88 191.842 197.808 191.548 197.808 191.2C197.808 190.828 197.91 190.504 198.114 190.228C198.318 189.952 198.534 189.736 198.762 189.58V189.508C198.474 189.268 198.21 188.95 197.97 188.554C197.742 188.146 197.628 187.678 197.628 187.15C197.628 186.67 197.712 186.238 197.88 185.854C198.06 185.47 198.3 185.146 198.6 184.882C198.9 184.606 199.248 184.396 199.644 184.252C200.052 184.108 200.478 184.036 200.922 184.036C201.162 184.036 201.384 184.06 201.588 184.108C201.804 184.144 201.996 184.192 202.164 184.252H205.206V185.386H203.406C203.61 185.59 203.778 185.848 203.91 186.16C204.054 186.472 204.126 186.814 204.126 187.186C204.126 187.654 204.042 188.08 203.874 188.464C203.706 188.836 203.478 189.154 203.19 189.418C202.902 189.67 202.56 189.868 202.164 190.012C201.78 190.156 201.366 190.228 200.922 190.228C200.706 190.228 200.484 190.204 200.256 190.156C200.028 190.096 199.812 190.018 199.608 189.922C199.452 190.054 199.32 190.204 199.212 190.372C199.104 190.528 199.05 190.726 199.05 190.966C199.05 191.242 199.158 191.47 199.374 191.65C199.59 191.83 199.998 191.92 200.598 191.92H202.29C203.31 191.92 204.072 192.088 204.576 192.424C205.092 192.748 205.35 193.276 205.35 194.008C205.35 194.416 205.248 194.8 205.044 195.16C204.84 195.532 204.546 195.856 204.162 196.132C203.778 196.408 203.31 196.624 202.758 196.78C202.218 196.948 201.606 197.032 200.922 197.032ZM200.922 189.238C201.174 189.238 201.408 189.19 201.624 189.094C201.852 188.998 202.05 188.86 202.218 188.68C202.398 188.5 202.536 188.284 202.632 188.032C202.728 187.768 202.776 187.474 202.776 187.15C202.776 186.502 202.596 186.004 202.236 185.656C201.876 185.296 201.438 185.116 200.922 185.116C200.406 185.116 199.968 185.296 199.608 185.656C199.248 186.004 199.068 186.502 199.068 187.15C199.068 187.474 199.116 187.768 199.212 188.032C199.308 188.284 199.44 188.5 199.608 188.68C199.788 188.86 199.986 188.998 200.202 189.094C200.43 189.19 200.67 189.238 200.922 189.238ZM201.138 196.006C201.558 196.006 201.936 195.952 202.272 195.844C202.62 195.748 202.914 195.616 203.154 195.448C203.394 195.292 203.58 195.106 203.712 194.89C203.844 194.674 203.91 194.452 203.91 194.224C203.91 193.816 203.76 193.534 203.46 193.378C203.16 193.222 202.722 193.144 202.146 193.144H200.634C200.466 193.144 200.28 193.132 200.076 193.108C199.884 193.096 199.692 193.06 199.5 193C199.188 193.228 198.96 193.468 198.816 193.72C198.672 193.972 198.6 194.224 198.6 194.476C198.6 194.944 198.822 195.316 199.266 195.592C199.722 195.868 200.346 196.006 201.138 196.006ZM207.814 193.216C207.514 193.216 207.256 193.114 207.04 192.91C206.836 192.694 206.734 192.424 206.734 192.1C206.734 191.752 206.836 191.476 207.04 191.272C207.256 191.056 207.514 190.948 207.814 190.948C208.102 190.948 208.348 191.056 208.552 191.272C208.768 191.476 208.876 191.752 208.876 192.1C208.876 192.424 208.768 192.694 208.552 192.91C208.348 193.114 208.102 193.216 207.814 193.216Z" fill="white"/>
<path d="M198.78 18L195 6.192H196.602L198.492 12.564C198.708 13.272 198.894 13.926 199.05 14.526C199.218 15.126 199.416 15.774 199.644 16.47H199.716C199.932 15.774 200.124 15.126 200.292 14.526C200.46 13.926 200.646 13.272 200.85 12.564L202.74 6.192H204.27L200.526 18H198.78ZM212.251 18.216C211.315 18.216 210.631 17.928 210.199 17.352C209.779 16.776 209.569 15.924 209.569 14.796V9.252H211.063V14.598C211.063 15.426 211.189 16.026 211.441 16.398C211.705 16.758 212.125 16.938 212.701 16.938C213.157 16.938 213.559 16.824 213.907 16.596C214.255 16.356 214.639 15.978 215.059 15.462V9.252H216.535V18H215.311L215.185 16.632H215.131C214.723 17.112 214.291 17.496 213.835 17.784C213.391 18.072 212.863 18.216 212.251 18.216ZM214.411 7.614C214.087 7.614 213.811 7.536 213.583 7.38C213.355 7.224 213.145 7.05 212.953 6.858C212.761 6.666 212.575 6.492 212.395 6.336C212.227 6.18 212.041 6.102 211.837 6.102C211.561 6.102 211.357 6.234 211.225 6.498C211.093 6.762 211.015 7.104 210.991 7.524L210.001 7.47C210.013 7.122 210.055 6.798 210.127 6.498C210.211 6.198 210.325 5.94 210.469 5.724C210.613 5.508 210.793 5.34 211.009 5.22C211.237 5.088 211.507 5.022 211.819 5.022C212.143 5.022 212.419 5.1 212.647 5.256C212.875 5.412 213.085 5.586 213.277 5.778C213.469 5.97 213.649 6.144 213.817 6.3C213.997 6.456 214.195 6.534 214.411 6.534C214.675 6.534 214.873 6.402 215.005 6.138C215.137 5.874 215.215 5.532 215.239 5.112L216.229 5.184C216.217 5.532 216.169 5.856 216.085 6.156C216.013 6.444 215.905 6.696 215.761 6.912C215.617 7.128 215.431 7.302 215.203 7.434C214.987 7.554 214.723 7.614 214.411 7.614ZM232.089 18V5.184H233.547V13.86H233.601L237.327 9.252H238.965L236.031 12.762L239.361 18H237.741L235.185 13.788L233.547 15.696V18H232.089ZM245.501 18V5.184H246.977V8.676L246.923 10.476C247.343 10.08 247.781 9.744 248.237 9.468C248.693 9.18 249.227 9.036 249.839 9.036C250.763 9.036 251.435 9.324 251.855 9.9C252.287 10.476 252.503 11.328 252.503 12.456V18H251.027V12.654C251.027 11.826 250.895 11.232 250.631 10.872C250.367 10.5 249.947 10.314 249.371 10.314C248.915 10.314 248.513 10.428 248.165 10.656C247.817 10.884 247.421 11.22 246.977 11.664V18H245.501ZM259.792 18V9.252H261.268V18H259.792ZM260.278 7.686L259.522 6.948L262.06 3.942L263.104 4.932L260.278 7.686ZM280.282 18.216C279.706 18.216 279.166 18.114 278.662 17.91C278.158 17.706 277.72 17.412 277.348 17.028C276.988 16.632 276.7 16.152 276.484 15.588C276.28 15.012 276.178 14.364 276.178 13.644C276.178 12.912 276.292 12.264 276.52 11.7C276.748 11.124 277.054 10.638 277.438 10.242C277.822 9.846 278.266 9.546 278.77 9.342C279.286 9.138 279.826 9.036 280.39 9.036C280.966 9.036 281.458 9.138 281.866 9.342C282.274 9.546 282.634 9.786 282.946 10.062L282.19 11.034C281.938 10.806 281.668 10.62 281.38 10.476C281.104 10.332 280.792 10.26 280.444 10.26C280.048 10.26 279.682 10.344 279.346 10.512C279.01 10.668 278.722 10.896 278.482 11.196C278.242 11.496 278.05 11.856 277.906 12.276C277.774 12.684 277.708 13.14 277.708 13.644C277.708 14.148 277.774 14.604 277.906 15.012C278.038 15.42 278.218 15.774 278.446 16.074C278.686 16.362 278.974 16.59 279.31 16.758C279.646 16.914 280.012 16.992 280.408 16.992C280.816 16.992 281.188 16.908 281.524 16.74C281.872 16.56 282.184 16.35 282.46 16.11L283.108 17.1C282.712 17.448 282.274 17.724 281.794 17.928C281.314 18.12 280.81 18.216 280.282 18.216ZM291.375 18.216C290.643 18.216 290.031 18 289.539 17.568C289.059 17.136 288.819 16.524 288.819 15.732C288.819 14.772 289.245 14.04 290.097 13.536C290.949 13.02 292.311 12.66 294.183 12.456C294.183 12.18 294.153 11.91 294.093 11.646C294.045 11.382 293.955 11.148 293.823 10.944C293.691 10.74 293.505 10.578 293.265 10.458C293.037 10.326 292.743 10.26 292.383 10.26C291.879 10.26 291.405 10.356 290.961 10.548C290.517 10.74 290.121 10.956 289.773 11.196L289.197 10.17C289.605 9.906 290.103 9.654 290.691 9.414C291.279 9.162 291.927 9.036 292.635 9.036C293.703 9.036 294.477 9.366 294.957 10.026C295.437 10.674 295.677 11.544 295.677 12.636V18H294.453L294.327 16.956H294.273C293.853 17.304 293.403 17.604 292.923 17.856C292.443 18.096 291.927 18.216 291.375 18.216ZM291.807 17.028C292.227 17.028 292.623 16.932 292.995 16.74C293.367 16.536 293.763 16.242 294.183 15.858V13.428C293.451 13.524 292.833 13.638 292.329 13.77C291.837 13.902 291.435 14.058 291.123 14.238C290.823 14.418 290.601 14.628 290.457 14.868C290.325 15.096 290.259 15.348 290.259 15.624C290.259 16.128 290.409 16.488 290.709 16.704C291.009 16.92 291.375 17.028 291.807 17.028ZM289.809 7.2L291.861 4.68H293.337L295.389 7.2L294.759 7.776L292.635 5.742H292.563L290.439 7.776L289.809 7.2ZM292.311 21.69C292.035 21.69 291.801 21.6 291.609 21.42C291.429 21.24 291.339 21.006 291.339 20.718C291.339 20.442 291.429 20.208 291.609 20.016C291.801 19.836 292.035 19.746 292.311 19.746C292.587 19.746 292.815 19.836 292.995 20.016C293.187 20.208 293.283 20.442 293.283 20.718C293.283 21.006 293.187 21.24 292.995 21.42C292.815 21.6 292.587 21.69 292.311 21.69ZM302.929 18V9.252H304.153L304.279 10.512H304.333C304.753 10.092 305.191 9.744 305.647 9.468C306.115 9.18 306.655 9.036 307.267 9.036C308.191 9.036 308.863 9.324 309.283 9.9C309.715 10.476 309.931 11.328 309.931 12.456V18H308.455V12.654C308.455 11.826 308.323 11.232 308.059 10.872C307.795 10.5 307.375 10.314 306.799 10.314C306.343 10.314 305.941 10.428 305.593 10.656C305.245 10.884 304.849 11.22 304.405 11.664V18H302.929ZM328.832 18.216C328.256 18.216 327.716 18.114 327.212 17.91C326.708 17.706 326.27 17.412 325.898 17.028C325.538 16.632 325.25 16.152 325.034 15.588C324.83 15.012 324.728 14.364 324.728 13.644C324.728 12.912 324.842 12.264 325.07 11.7C325.298 11.124 325.604 10.638 325.988 10.242C326.372 9.846 326.816 9.546 327.32 9.342C327.836 9.138 328.376 9.036 328.94 9.036C329.516 9.036 330.008 9.138 330.416 9.342C330.824 9.546 331.184 9.786 331.496 10.062L330.74 11.034C330.488 10.806 330.218 10.62 329.93 10.476C329.654 10.332 329.342 10.26 328.994 10.26C328.598 10.26 328.232 10.344 327.896 10.512C327.56 10.668 327.272 10.896 327.032 11.196C326.792 11.496 326.6 11.856 326.456 12.276C326.324 12.684 326.258 13.14 326.258 13.644C326.258 14.148 326.324 14.604 326.456 15.012C326.588 15.42 326.768 15.774 326.996 16.074C327.236 16.362 327.524 16.59 327.86 16.758C328.196 16.914 328.562 16.992 328.958 16.992C329.366 16.992 329.738 16.908 330.074 16.74C330.422 16.56 330.734 16.35 331.01 16.11L331.658 17.1C331.262 17.448 330.824 17.724 330.344 17.928C329.864 18.12 329.36 18.216 328.832 18.216ZM338.085 18V5.184H339.561V8.676L339.507 10.476C339.927 10.08 340.365 9.744 340.821 9.468C341.277 9.18 341.811 9.036 342.423 9.036C343.347 9.036 344.019 9.324 344.439 9.9C344.871 10.476 345.087 11.328 345.087 12.456V18H343.611V12.654C343.611 11.826 343.479 11.232 343.215 10.872C342.951 10.5 342.531 10.314 341.955 10.314C341.499 10.314 341.097 10.428 340.749 10.656C340.401 10.884 340.005 11.22 339.561 11.664V18H338.085ZM352.376 18V9.252H353.852V18H352.376ZM353.132 7.452C352.844 7.452 352.598 7.362 352.394 7.182C352.202 7.002 352.106 6.774 352.106 6.498C352.106 6.21 352.202 5.982 352.394 5.814C352.598 5.634 352.844 5.544 353.132 5.544C353.42 5.544 353.66 5.634 353.852 5.814C354.056 5.982 354.158 6.21 354.158 6.498C354.158 6.774 354.056 7.002 353.852 7.182C353.66 7.362 353.42 7.452 353.132 7.452ZM364.852 18.216C364.264 18.216 363.712 18.114 363.196 17.91C362.692 17.694 362.248 17.394 361.864 17.01C361.492 16.614 361.198 16.134 360.982 15.57C360.766 15.006 360.658 14.364 360.658 13.644C360.658 12.924 360.766 12.282 360.982 11.718C361.21 11.142 361.504 10.656 361.864 10.26C362.236 9.864 362.656 9.564 363.124 9.36C363.592 9.144 364.078 9.036 364.582 9.036C365.134 9.036 365.626 9.132 366.058 9.324C366.502 9.516 366.868 9.792 367.156 10.152C367.456 10.512 367.684 10.944 367.84 11.448C367.996 11.952 368.074 12.516 368.074 13.14C368.074 13.296 368.068 13.452 368.056 13.608C368.056 13.752 368.044 13.878 368.02 13.986H362.116C362.176 14.922 362.464 15.666 362.98 16.218C363.508 16.758 364.192 17.028 365.032 17.028C365.452 17.028 365.836 16.968 366.184 16.848C366.544 16.716 366.886 16.548 367.21 16.344L367.732 17.316C367.348 17.556 366.922 17.766 366.454 17.946C365.986 18.126 365.452 18.216 364.852 18.216ZM362.098 12.924H366.778C366.778 12.036 366.586 11.364 366.202 10.908C365.83 10.44 365.302 10.206 364.618 10.206C364.306 10.206 364.006 10.266 363.718 10.386C363.442 10.506 363.19 10.686 362.962 10.926C362.734 11.154 362.542 11.436 362.386 11.772C362.242 12.108 362.146 12.492 362.098 12.924ZM362.71 7.74L362.188 7.128L363.988 5.472H365.212L367.012 7.128L366.49 7.74L364.636 6.444H364.564L362.71 7.74ZM366.382 6.03L367.948 3.87L368.83 4.482L367.012 6.534L366.382 6.03ZM374.736 18V9.252H375.96L376.086 10.512H376.14C376.56 10.092 376.998 9.744 377.454 9.468C377.922 9.18 378.462 9.036 379.074 9.036C379.998 9.036 380.67 9.324 381.09 9.9C381.522 10.476 381.738 11.328 381.738 12.456V18H380.262V12.654C380.262 11.826 380.13 11.232 379.866 10.872C379.602 10.5 379.182 10.314 378.606 10.314C378.15 10.314 377.748 10.428 377.4 10.656C377.052 10.884 376.656 11.22 376.212 11.664V18H374.736Z" fill="white" fill-opacity="0.5"/>
<path d="M9.792 70V44.656H1.2V38.704H25.488V44.656H16.896V70H9.792ZM30.3679 70V38.704H41.6479C43.3119 38.704 44.8639 38.864 46.3039 39.184C47.7759 39.504 49.0559 40.048 50.1439 40.816C51.2319 41.552 52.0959 42.544 52.7359 43.792C53.3759 45.04 53.6959 46.592 53.6959 48.448C53.6959 50.752 53.1839 52.656 52.1599 54.16C51.1679 55.632 49.8239 56.736 48.1279 57.472L55.2319 70H47.3119L41.3119 58.72H37.4239V70H30.3679ZM37.4239 53.104H41.0719C42.9279 53.104 44.3359 52.72 45.2959 51.952C46.2879 51.152 46.7839 49.984 46.7839 48.448C46.7839 46.912 46.2879 45.84 45.2959 45.232C44.3359 44.624 42.9279 44.32 41.0719 44.32H37.4239V53.104ZM59.8054 70V38.704H66.8614V70H59.8054ZM62.8294 37.36L59.6614 33.808L67.8694 27.088L71.6134 31.648L62.8294 37.36ZM89.9483 70V44.656H81.3563V38.704H105.644V44.656H97.0523V70H89.9483ZM122.86 70.576C118.796 70.576 115.692 69.376 113.548 66.976C111.404 64.576 110.332 60.752 110.332 55.504V38.704H117.436V56.224C117.436 59.296 117.9 61.44 118.828 62.656C119.756 63.872 121.1 64.48 122.86 64.48C124.62 64.48 125.98 63.872 126.94 62.656C127.9 61.44 128.38 59.296 128.38 56.224V38.704H135.196V55.504C135.196 60.752 134.14 64.576 132.028 66.976C129.948 69.376 126.892 70.576 122.86 70.576ZM142.446 70V38.704H162.03V44.656H149.502V50.944H160.158V56.848H149.502V64.048H162.51V70H142.446ZM144.414 35.248L148.734 29.92H156.414L160.734 35.248L157.662 37.12L152.67 33.088H152.478L147.486 37.12L144.414 35.248ZM152.91 80.8C151.758 80.8 150.814 80.448 150.078 79.744C149.374 79.072 149.022 78.192 149.022 77.104C149.022 76.016 149.374 75.12 150.078 74.416C150.814 73.744 151.758 73.408 152.91 73.408C154.062 73.408 154.99 73.744 155.694 74.416C156.43 75.12 156.798 76.016 156.798 77.104C156.798 78.192 156.43 79.072 155.694 79.744C154.99 80.448 154.062 80.8 152.91 80.8ZM178.352 70V38.704H185.6L193.76 54.256L196.832 61.168H197.024C196.864 59.504 196.672 57.648 196.448 55.6C196.256 53.552 196.16 51.6 196.16 49.744V38.704H202.88V70H195.632L187.472 54.4L184.4 47.584H184.208C184.368 49.312 184.544 51.168 184.736 53.152C184.96 55.136 185.072 57.056 185.072 58.912V70H178.352ZM210.274 70V38.704H217.33V50.752H228.13V38.704H235.234V70H228.13V56.944H217.33V70H210.274ZM249.962 54.16L249.194 57.04H255.866L255.146 54.16C254.698 52.592 254.266 50.928 253.85 49.168C253.434 47.408 253.018 45.712 252.602 44.08H252.41C252.026 45.744 251.626 47.456 251.21 49.216C250.826 50.944 250.41 52.592 249.962 54.16ZM238.634 70L248.426 38.704H256.922L266.714 70H259.226L257.306 62.56H247.754L245.834 70H238.634ZM244.346 35.248L248.666 29.92H256.346L260.666 35.248L257.594 37.12L252.602 33.088H252.41L247.418 37.12L244.346 35.248ZM270.134 70V38.704H277.382L285.542 54.256L288.614 61.168H288.806C288.646 59.504 288.454 57.648 288.23 55.6C288.038 53.552 287.942 51.6 287.942 49.744V38.704H294.661V70H287.414L279.254 54.4L276.182 47.584H275.99C276.15 49.312 276.326 51.168 276.518 53.152C276.742 55.136 276.854 57.056 276.854 58.912V70H270.134ZM317.761 70V44.656H309.169V38.704H333.457V44.656H324.865V70H317.761ZM343.759 54.16L342.991 57.04H349.663L348.943 54.16C348.495 52.592 348.063 50.928 347.647 49.168C347.231 47.408 346.815 45.712 346.399 44.08H346.207C345.823 45.744 345.423 47.456 345.007 49.216C344.623 50.944 344.207 52.592 343.759 54.16ZM332.431 70L342.223 38.704H350.719L360.511 70H353.023L351.103 62.56H341.551L339.631 70H332.431ZM346.303 80.8C345.151 80.8 344.207 80.448 343.471 79.744C342.767 79.072 342.415 78.192 342.415 77.104C342.415 76.016 342.767 75.12 343.471 74.416C344.207 73.744 345.151 73.408 346.303 73.408C347.455 73.408 348.383 73.744 349.087 74.416C349.823 75.12 350.191 76.016 350.191 77.104C350.191 78.192 349.823 79.072 349.087 79.744C348.383 80.448 347.455 80.8 346.303 80.8ZM376.182 70.576C374.07 70.576 372.134 70.208 370.374 69.472C368.646 68.704 367.158 67.616 365.91 66.208C364.662 64.8 363.686 63.088 362.982 61.072C362.31 59.056 361.974 56.768 361.974 54.208C361.974 51.648 362.31 49.376 362.982 47.392C363.686 45.376 364.662 43.696 365.91 42.352C367.158 40.976 368.646 39.936 370.374 39.232C372.134 38.496 374.07 38.128 376.182 38.128C378.294 38.128 380.214 38.496 381.942 39.232C383.702 39.936 385.206 40.976 386.454 42.352C387.702 43.728 388.662 45.424 389.334 47.44C390.038 49.424 390.39 51.68 390.39 54.208C390.39 56.768 390.038 59.056 389.334 61.072C388.662 63.088 387.702 64.8 386.454 66.208C385.206 67.616 383.702 68.704 381.942 69.472C380.214 70.208 378.294 70.576 376.182 70.576ZM376.182 64.48C378.326 64.48 380.022 63.568 381.27 61.744C382.518 59.888 383.142 57.376 383.142 54.208C383.142 51.072 382.518 48.624 381.27 46.864C380.022 45.104 378.326 44.224 376.182 44.224C374.038 44.224 372.342 45.104 371.094 46.864C369.846 48.624 369.222 51.072 369.222 54.208C369.222 57.376 369.846 59.888 371.094 61.744C372.342 63.568 374.038 64.48 376.182 64.48Z" fill="white"/>
<path d="M20.712 142.432C19.44 142.432 18.312 142.252 17.328 141.892C16.368 141.532 15.552 141.052 14.88 140.452C14.232 139.828 13.74 139.12 13.404 138.328C13.068 137.512 12.9 136.648 12.9 135.736C12.9 134.92 13.008 134.188 13.224 133.54C13.464 132.868 13.776 132.268 14.16 131.74C14.568 131.212 15.024 130.732 15.528 130.3C16.056 129.868 16.608 129.472 17.184 129.112C16.728 128.272 16.368 127.444 16.104 126.628C15.864 125.788 15.744 124.996 15.744 124.252C15.744 123.412 15.888 122.62 16.176 121.876C16.488 121.132 16.92 120.484 17.472 119.932C18.024 119.356 18.684 118.912 19.452 118.6C20.244 118.264 21.132 118.096 22.116 118.096C23.892 118.096 25.296 118.576 26.328 119.536C27.36 120.496 27.876 121.792 27.876 123.424C27.876 124.192 27.732 124.9 27.444 125.548C27.18 126.172 26.808 126.76 26.328 127.312C25.872 127.84 25.344 128.332 24.744 128.788C24.168 129.244 23.58 129.676 22.98 130.084C23.652 130.852 24.384 131.608 25.176 132.352C25.992 133.072 26.832 133.744 27.696 134.368C28.296 133.6 28.824 132.748 29.28 131.812C29.736 130.876 30.108 129.856 30.396 128.752H35.22C34.788 130.192 34.248 131.572 33.6 132.892C32.976 134.188 32.208 135.448 31.296 136.672C32.04 137.056 32.748 137.38 33.42 137.644C34.116 137.884 34.764 138.052 35.364 138.148L34.104 142.432C33.12 142.24 32.124 141.94 31.116 141.532C30.108 141.124 29.1 140.632 28.092 140.056C27.084 140.8 25.968 141.388 24.744 141.82C23.544 142.228 22.2 142.432 20.712 142.432ZM20.1 124.216C20.1 124.648 20.16 125.104 20.28 125.584C20.424 126.064 20.616 126.544 20.856 127.024C21.696 126.52 22.404 125.992 22.98 125.44C23.556 124.888 23.844 124.216 23.844 123.424C23.844 122.872 23.712 122.428 23.448 122.092C23.184 121.756 22.776 121.588 22.224 121.588C21.624 121.588 21.12 121.828 20.712 122.308C20.304 122.764 20.1 123.4 20.1 124.216ZM21.396 138.4C22.38 138.4 23.364 138.088 24.348 137.464C23.436 136.72 22.572 135.94 21.756 135.124C20.94 134.308 20.184 133.468 19.488 132.604C19.008 133.012 18.624 133.444 18.336 133.9C18.048 134.356 17.904 134.86 17.904 135.412C17.904 136.3 18.216 137.02 18.84 137.572C19.488 138.124 20.34 138.4 21.396 138.4ZM52.3971 142V84.624H72.0211C75.0131 84.624 77.7704 84.8587 80.2931 85.328C82.8744 85.7387 85.1038 86.5013 86.9811 87.616C88.9171 88.7307 90.4131 90.1973 91.4691 92.016C92.5838 93.8347 93.1411 96.1227 93.1411 98.88C93.1411 100.171 92.9651 101.461 92.6131 102.752C92.2611 104.043 91.7624 105.245 91.1171 106.36C90.4718 107.475 89.6798 108.472 88.7411 109.352C87.8611 110.232 86.8344 110.877 85.6611 111.288V111.64C87.1278 111.992 88.4771 112.549 89.7091 113.312C90.9411 114.016 92.0264 114.925 92.9651 116.04C93.9038 117.155 94.6371 118.475 95.1651 120C95.6931 121.467 95.9571 123.168 95.9571 125.104C95.9571 128.037 95.3704 130.56 94.1971 132.672C93.0824 134.784 91.4984 136.544 89.4451 137.952C87.4504 139.301 85.1038 140.328 82.4051 141.032C79.7064 141.677 76.8024 142 73.6931 142H52.3971ZM65.3331 107.592H71.4051C74.5731 107.592 76.8611 106.976 78.2691 105.744C79.7358 104.512 80.4691 102.869 80.4691 100.816C80.4691 98.5867 79.7358 97.0027 78.2691 96.064C76.8024 95.1253 74.5438 94.656 71.4931 94.656H65.3331V107.592ZM65.3331 131.968H72.6371C79.7358 131.968 83.2851 129.387 83.2851 124.224C83.2851 121.701 82.4051 119.912 80.6451 118.856C78.8851 117.741 76.2158 117.184 72.6371 117.184H65.3331V131.968ZM105.678 142V84.624H118.614V142H105.678ZM157.491 143.056C153.56 143.056 149.864 142.44 146.403 141.208C143 139.917 140.038 138.04 137.515 135.576C134.992 133.112 132.998 130.061 131.531 126.424C130.123 122.728 129.419 118.475 129.419 113.664C129.419 108.912 130.152 104.688 131.619 100.992C133.086 97.2373 135.08 94.0693 137.603 91.488C140.184 88.9067 143.176 86.9413 146.579 85.592C149.982 84.2427 153.59 83.568 157.403 83.568C161.568 83.568 165.147 84.3307 168.139 85.856C171.131 87.3813 173.566 89.112 175.443 91.048L168.667 99.32C167.2 98.0293 165.646 96.944 164.003 96.064C162.36 95.184 160.307 94.744 157.843 94.744C155.614 94.744 153.56 95.184 151.683 96.064C149.864 96.8853 148.28 98.088 146.931 99.672C145.582 101.256 144.526 103.192 143.763 105.48C143.059 107.768 142.707 110.349 142.707 113.224C142.707 119.149 144.027 123.755 146.667 127.04C149.366 130.267 153.414 131.88 158.811 131.88C159.984 131.88 161.128 131.733 162.243 131.44C163.358 131.147 164.267 130.707 164.971 130.12V120.264H155.467V109.704H176.411V136.104C174.416 138.04 171.776 139.683 168.491 141.032C165.206 142.381 161.539 143.056 157.491 143.056ZM205.881 142V84.624H222.073C226.473 84.624 230.433 85.1813 233.953 86.296C237.473 87.4107 240.495 89.1413 243.017 91.488C245.54 93.776 247.476 96.7093 248.825 100.288C250.175 103.867 250.849 108.12 250.849 113.048C250.849 117.976 250.175 122.259 248.825 125.896C247.476 129.533 245.569 132.555 243.105 134.96C240.641 137.307 237.679 139.067 234.217 140.24C230.815 141.413 227.001 142 222.777 142H205.881ZM218.817 131.528H221.281C223.745 131.528 225.975 131.205 227.969 130.56C229.964 129.915 231.665 128.888 233.073 127.48C234.481 126.013 235.567 124.107 236.329 121.76C237.151 119.413 237.561 116.509 237.561 113.048C237.561 109.645 237.151 106.8 236.329 104.512C235.567 102.165 234.481 100.317 233.073 98.968C231.665 97.56 229.964 96.5627 227.969 95.976C225.975 95.3893 223.745 95.096 221.281 95.096H218.817V131.528ZM274.345 112.96L272.937 118.24H285.169L283.849 112.96C283.028 110.085 282.236 107.035 281.473 103.808C280.711 100.581 279.948 97.472 279.185 94.48H278.833C278.129 97.5307 277.396 100.669 276.633 103.896C275.929 107.064 275.167 110.085 274.345 112.96ZM253.577 142L271.529 84.624H287.105L305.057 142H291.329L287.809 128.36H270.297L266.777 142H253.577ZM316.057 142V95.536H300.305V84.624H344.833V95.536H329.081V142H316.057ZM363.72 112.96L362.312 118.24H374.544L373.224 112.96C372.403 110.085 371.611 107.035 370.848 103.808C370.086 100.581 369.323 97.472 368.56 94.48H368.208C367.504 97.5307 366.771 100.669 366.008 103.896C365.304 107.064 364.542 110.085 363.72 112.96ZM342.952 142L360.904 84.624H376.48L394.432 142H380.704L377.184 128.36H359.672L356.152 142H342.952Z" fill="white"/>
</svg>
