<svg width="1440" height="700" viewBox="0 0 1440 700" fill="none" xmlns="http://www.w3.org/2000/svg">
<g opacity="0.56">
<g opacity="0.71">
<g opacity="0.71">
<path opacity="0.71" d="M773.876 233.631L820.958 251.369L1269.24 -694.589L1063.17 -772.507L773.876 233.631Z" fill="#FFE8C7"/>
</g>
<g opacity="0.71">
<path opacity="0.71" d="M781.502 223.021L813.498 261.979L1674.58 -333.182L1534.99 -503.772L781.502 223.021Z" fill="#FFE8C7"/>
</g>
<g opacity="0.71">
<path opacity="0.71" d="M793.438 217.715L801.562 267.285L1845 182.569L1809.36 -34.9378L793.438 217.715Z" fill="#FFE8C7"/>
</g>
<g opacity="0.71">
<path opacity="0.71" d="M806.369 218.876L788.631 265.958L1734.59 714.236L1812.51 508.167L806.369 218.876Z" fill="#FFE8C7"/>
</g>
<g opacity="0.71">
<path opacity="0.71" d="M816.98 226.502L778.021 258.498L1373.18 1119.58L1543.77 979.986L816.98 226.502Z" fill="#FFE8C7"/>
</g>
<g opacity="0.71">
<path opacity="0.71" d="M822.285 238.438L772.716 246.562L857.431 1290L1074.94 1254.36L822.285 238.438Z" fill="#FFE8C7"/>
</g>
<g opacity="0.71">
<path opacity="0.71" d="M820.958 251.369L773.876 233.631L325.764 1179.59L531.833 1257.51L820.958 251.369Z" fill="#FFE8C7"/>
</g>
<g opacity="0.71">
<path opacity="0.71" d="M813.498 261.98L781.502 223.021L-79.7408 818.182L60.0143 988.772L813.498 261.98Z" fill="#FFE8C7"/>
</g>
<g opacity="0.71">
<path opacity="0.71" d="M801.562 267.285L793.438 217.716L-250 302.431L-214.357 519.938L801.562 267.285Z" fill="#FFE8C7"/>
</g>
<g opacity="0.71">
<path opacity="0.71" d="M788.631 265.958L806.37 218.876L-139.589 -229.236L-217.507 -23.1673L788.631 265.958Z" fill="#FFE8C7"/>
</g>
<g opacity="0.71">
<path opacity="0.71" d="M778.02 258.498L816.979 226.502L221.818 -634.741L51.2277 -494.986L778.02 258.498Z" fill="#FFE8C7"/>
</g>
<g opacity="0.71">
<path opacity="0.71" d="M772.715 246.562L822.285 238.438L737.569 -805L520.062 -769.357L772.715 246.562Z" fill="#FFE8C7"/>
</g>
<g opacity="0.71">
<path opacity="0.71" d="M773.876 233.631L820.958 251.369L1269.24 -694.589L1063.17 -772.507L773.876 233.631Z" fill="#FFE8C7"/>
</g>
</g>
</g>
</svg>
