<svg width="23" height="23" viewBox="0 0 23 23" fill="none" xmlns="http://www.w3.org/2000/svg">
<path d="M19.9006 0H3.09932C1.38765 0 0 1.38758 0 3.0993V19.9006C0 21.6123 1.38759 22.9999 3.09932 22.9999H11.3856L11.3998 14.781H9.26448C8.98698 14.781 8.76176 14.5566 8.76069 14.2791L8.75045 11.6298C8.74938 11.3508 8.97528 11.124 9.2543 11.124H11.3857V8.56415C11.3857 5.59342 13.2001 3.97583 15.8502 3.97583H18.0248C18.303 3.97583 18.5286 4.20139 18.5286 4.47967V6.71358C18.5286 6.99174 18.3032 7.21725 18.0251 7.21742L16.6905 7.21804C15.2493 7.21804 14.9702 7.90288 14.9702 8.90792V11.1241H18.1371C18.4388 11.1241 18.6729 11.3876 18.6374 11.6872L18.3234 14.3365C18.2933 14.5901 18.0783 14.7811 17.8231 14.7811H14.9844L14.9702 23H19.9007C21.6124 23 23 21.6124 23 19.9008V3.0993C22.9999 1.38758 21.6124 0 19.9006 0Z" fill="#475993"/>
</svg>
