<svg width="23" height="23" viewBox="0 0 23 23" fill="none" xmlns="http://www.w3.org/2000/svg">
<path d="M20.9195 0H2.08054C0.9315 0 0 0.9315 0 2.08054V20.9194C0 22.0685 0.9315 23 2.08054 23H20.9194C22.0685 23 23 22.0685 23 20.9194V2.08054C23 0.9315 22.0685 0 20.9195 0ZM7.11718 19.8597C7.11718 20.1941 6.84611 20.4652 6.51171 20.4652H3.93438C3.59998 20.4652 3.32892 20.1941 3.32892 19.8597V9.05568C3.32892 8.72127 3.59998 8.45021 3.93438 8.45021H6.51171C6.84611 8.45021 7.11718 8.72127 7.11718 9.05568V19.8597ZM5.22305 7.43177C3.8708 7.43177 2.77457 6.33554 2.77457 4.98329C2.77457 3.63105 3.8708 2.53482 5.22305 2.53482C6.57529 2.53482 7.67152 3.63105 7.67152 4.98329C7.67152 6.33554 6.57535 7.43177 5.22305 7.43177ZM20.5862 19.9085C20.5862 20.2159 20.3369 20.4652 20.0295 20.4652H17.2638C16.9564 20.4652 16.7072 20.2159 16.7072 19.9085V14.8408C16.7072 14.0848 16.9289 11.528 14.7315 11.528C13.027 11.528 12.6813 13.278 12.6119 14.0634V19.9085C12.6119 20.2159 12.3627 20.4652 12.0552 20.4652H9.38033C9.0729 20.4652 8.82363 20.2159 8.82363 19.9085V9.00691C8.82363 8.69948 9.0729 8.45021 9.38033 8.45021H12.0552C12.3626 8.45021 12.6119 8.69948 12.6119 9.00691V9.94949C13.2439 9.00101 14.1832 8.26892 16.183 8.26892C20.6116 8.26892 20.5862 12.4063 20.5862 14.6795V19.9085Z" fill="#0077B7"/>
</svg>
