<svg width="32" height="23" viewBox="0 0 32 23" fill="none" xmlns="http://www.w3.org/2000/svg">
<path d="M0.716112 19.4515C1.36899 21.8038 3.36628 22.2343 3.49952 22.3168C6.78658 23.2264 25.2112 23.2291 28.5475 22.3168C30.8326 21.6455 31.2523 19.5868 31.3309 19.4515C32.201 14.7494 32.2583 8.61935 31.291 3.28383L31.3309 3.54912C30.6781 1.19673 28.6808 0.766312 28.5475 0.683748C25.3044 -0.210919 6.83188 -0.244756 3.49952 0.683748C1.21443 1.35644 0.794724 3.41377 0.716112 3.54912C-0.215244 8.49077 -0.261879 14.1606 0.716112 19.4515ZM12.8224 16.4426V6.57149L21.1713 11.5145L12.8224 16.4426Z" fill="#E53935"/>
</svg>
