<svg width="22" height="26" viewBox="0 0 22 26" fill="none" xmlns="http://www.w3.org/2000/svg">
<path d="M19.7504 0H2.24948C1.00715 0 0 1.00707 0 2.24948V19.7504C0 20.9927 1.00707 21.9999 2.24948 21.9999H5.75862V25.0592L10.0184 21.9999H19.7504C20.9927 21.9999 21.9999 20.9928 21.9999 19.7504V2.2494C21.9999 1.00707 20.9928 0 19.7504 0Z" fill="#41A0D7"/>
<path d="M22 19.3083V15.7833C21.5427 15.3164 20.9055 15.0264 20.2004 15.0264H15.0778L22 5.59539V2.57291C21.6436 2.25465 21.1777 2.06934 20.6832 2.06934H10.2127C8.82127 2.06934 7.69321 3.19739 7.69321 4.5888C7.69321 5.98021 8.82127 7.10827 10.2127 7.10827H14.6154L7.48859 16.9259C7.05173 17.5275 6.98941 18.3234 7.32706 18.9858C7.66472 19.6482 8.34538 20.0653 9.08893 20.0653H20.2004C20.9056 20.0652 21.5427 19.7752 22 19.3083Z" fill="white"/>
</svg>
